<?xml version="1.0" standalone="no"?>
<!DOCTYPE svg PUBLIC "-//W3C//DTD SVG 1.1//EN" "http://www.w3.org/Graphics/SVG/1.1/DTD/svg11.dtd" >
<svg xmlns="http://www.w3.org/2000/svg" xmlns:xlink="http://www.w3.org/1999/xlink" version="1.1">
<metadata>
Created by FontForge 20170812 at Thu Feb 17 10:08:18 2022
 By www-data
Copyright (c) 2020 by Fontcraft: Jutipong Poosumas. All rights reserved.
</metadata>
<defs>
<font id="FCIconic-ExtraBold" horiz-adv-x="0" >
  <font-face 
    font-family="FC Iconic ExtraBold"
    font-weight="800"
    font-stretch="normal"
    units-per-em="1000"
    panose-1="2 11 5 0 4 2 0 2 0 3"
    ascent="800"
    descent="-200"
    x-height="519"
    cap-height="700"
    bbox="-619 -454 1082 1094"
    underline-thickness="50"
    underline-position="-176"
    unicode-range="U+0020-FB02"
  />
<missing-glyph horiz-adv-x="817" 
d="M68 0v675h681v-675h-681zM722 22q7 0 7 7v619q0 6 -7 6h-626q-7 0 -7 -6v-619q0 -7 7 -7h626z" />
    <glyph glyph-name="Agrave" unicode="A&#x300;" horiz-adv-x="697" 
d="M454 765h-155l-135 205h181zM505 0l-40 136h-234l-40 -136h-196l234 700h239l235 -700h-198zM430 269l-81 271h-4l-78 -271h163z" />
    <glyph glyph-name="Aacute" unicode="A&#x301;" horiz-adv-x="697" 
d="M252 765l110 205h181l-135 -205h-156zM505 0l-40 136h-234l-40 -136h-196l234 700h239l235 -700h-198zM430 269l-81 271h-4l-78 -271h163z" />
    <glyph glyph-name="Atilde" unicode="A&#x303;" horiz-adv-x="697" 
d="M266 832q-17 0 -29 -14.5t-12 -50.5h-134q0 94 34 142t117 48q29 0 52.5 -11t44.5 -24t42 -24t45 -11q18 0 32 15.5t14 52.5h132q0 -91 -37.5 -140.5t-117.5 -49.5q-29 0 -53 10.5t-45 23t-41.5 23t-43.5 10.5zM505 0l-40 136h-234l-40 -136h-196l234 700h239l235 -700
h-198zM430 269l-81 271h-4l-78 -271h163z" />
    <glyph glyph-name="Egrave" unicode="E&#x300;" horiz-adv-x="594" 
d="M427 765h-155l-136 205h182zM225 559v-139h279v-140h-279v-141h336v-139h-521v700h521v-141h-336z" />
    <glyph glyph-name="Eacute" unicode="E&#x301;" horiz-adv-x="594" 
d="M217 765l109 205h182l-135 -205h-156zM225 559v-139h279v-140h-279v-141h336v-139h-521v700h521v-141h-336z" />
    <glyph glyph-name="Igrave" unicode="I&#x300;" horiz-adv-x="277" 
d="M231 765h-156l-135 205h181zM46 700h185v-700h-185v700z" />
    <glyph glyph-name="Iacute" unicode="I&#x301;" horiz-adv-x="277" 
d="M46 765l110 205h181l-135 -205h-156zM46 700h185v-700h-185v700z" />
    <glyph glyph-name="Ograve" unicode="O&#x300;" horiz-adv-x="733" 
d="M480 765h-155l-137 205h183zM367 708q80 0 144 -24.5t109 -70.5t69.5 -112.5t24.5 -149.5q0 -84 -24.5 -150.5t-69.5 -113t-109 -71t-144 -24.5t-144.5 24.5t-109.5 71t-69.5 113t-24.5 150.5q0 83 24.5 149.5t69.5 112.5t109.5 70.5t144.5 24.5zM367 143q72 0 112.5 54
t40.5 154q0 99 -40.5 151t-112.5 52q-73 0 -113.5 -52t-40.5 -151q0 -100 40.5 -154t113.5 -54z" />
    <glyph glyph-name="Oacute" unicode="O&#x301;" horiz-adv-x="733" 
d="M273 765l109 205h183l-137 -205h-155zM367 708q80 0 144 -24.5t109 -70.5t69.5 -112.5t24.5 -149.5q0 -84 -24.5 -150.5t-69.5 -113t-109 -71t-144 -24.5t-144.5 24.5t-109.5 71t-69.5 113t-24.5 150.5q0 83 24.5 149.5t69.5 112.5t109.5 70.5t144.5 24.5zM367 143
q72 0 112.5 54t40.5 154q0 99 -40.5 151t-112.5 52q-73 0 -113.5 -52t-40.5 -151q0 -100 40.5 -154t113.5 -54z" />
    <glyph glyph-name="Otilde" unicode="O&#x303;" horiz-adv-x="733" 
d="M288 832q-17 0 -29 -14.5t-12 -50.5h-132q0 94 34 142t116 48q29 0 52.5 -11t44.5 -24t42 -24t45 -11q18 0 32 15.5t14 52.5h131q0 -91 -36.5 -140.5t-117.5 -49.5q-29 0 -52.5 10.5t-45 23t-42 23t-44.5 10.5zM367 708q80 0 144 -24.5t109 -70.5t69.5 -112.5
t24.5 -149.5q0 -84 -24.5 -150.5t-69.5 -113t-109 -71t-144 -24.5t-144.5 24.5t-109.5 71t-69.5 113t-24.5 150.5q0 83 24.5 149.5t69.5 112.5t109.5 70.5t144.5 24.5zM367 143q72 0 112.5 54t40.5 154q0 99 -40.5 151t-112.5 52q-73 0 -113.5 -52t-40.5 -151
q0 -100 40.5 -154t113.5 -54z" />
    <glyph glyph-name="Ugrave" unicode="U&#x300;" horiz-adv-x="685" 
d="M176 970h183l109 -205h-156zM224 269q0 -62 30.5 -93t87.5 -31q118 0 118 124v431h185v-452q0 -59 -21.5 -106.5t-61.5 -80.5t-96 -51t-124 -18t-124 18t-95.5 51t-61 80.5t-21.5 106.5v452h184v-431z" />
    <glyph glyph-name="Uacute" unicode="U&#x301;" horiz-adv-x="685" 
d="M539 970l-136 -205h-156l110 205h182zM224 269q0 -62 30.5 -93t87.5 -31q118 0 118 124v431h185v-452q0 -59 -21.5 -106.5t-61.5 -80.5t-96 -51t-124 -18t-124 18t-95.5 51t-61 80.5t-21.5 106.5v452h184v-431z" />
    <glyph glyph-name="Yacute" unicode="Y&#x301;" horiz-adv-x="656" 
d="M357 970h182l-136 -205h-156zM420 285v-285h-185v285l-239 415h215l115 -236h4l115 236h215z" />
    <glyph glyph-name="agrave" unicode="a&#x300;" horiz-adv-x="580" 
d="M445 588h-156l-135 205h182zM299 524q57 0 102 -13t77 -37t49 -57.5t17 -74.5v-342h-174v76h-3q-10 -21 -28.5 -36.5t-41 -26t-48 -16t-50.5 -5.5q-36 0 -68.5 11t-56.5 31.5t-38 49t-14 63.5q0 78 55.5 118.5t161.5 46.5l124 9v13q0 31 -19.5 48.5t-54.5 17.5
q-29 0 -51 -11t-27 -33h-162q9 77 74.5 122.5t175.5 45.5zM363 224l-96 -7q-34 -2 -50 -16.5t-16 -38.5q0 -26 19 -38.5t45 -12.5q20 0 37.5 7.5t31 20t21.5 28.5t8 34v23z" />
    <glyph glyph-name="aacute" unicode="a&#x301;" horiz-adv-x="580" 
d="M224 588l109 205h183l-137 -205h-155zM299 524q57 0 102 -13t77 -37t49 -57.5t17 -74.5v-342h-174v76h-3q-10 -21 -28.5 -36.5t-41 -26t-48 -16t-50.5 -5.5q-36 0 -68.5 11t-56.5 31.5t-38 49t-14 63.5q0 78 55.5 118.5t161.5 46.5l124 9v13q0 31 -19.5 48.5t-54.5 17.5
q-29 0 -51 -11t-27 -33h-162q9 77 74.5 122.5t175.5 45.5zM363 224l-96 -7q-34 -2 -50 -16.5t-16 -38.5q0 -26 19 -38.5t45 -12.5q20 0 37.5 7.5t31 20t21.5 28.5t8 34v23z" />
    <glyph glyph-name="atilde" unicode="a&#x303;" horiz-adv-x="580" 
d="M229 656q-17 0 -25.5 -14t-8.5 -50h-132q0 47 7 82t23.5 58.5t43.5 35.5t68 12q27 0 48.5 -10.5t41 -22.5t39 -22.5t40.5 -10.5q17 0 27.5 14.5t10.5 51.5h132q0 -91 -33.5 -140t-113.5 -49q-27 0 -49 10t-42 22.5t-38.5 22.5t-38.5 10zM299 524q57 0 102 -13t77 -37
t49 -57.5t17 -74.5v-342h-174v76h-3q-10 -21 -28.5 -36.5t-41 -26t-48 -16t-50.5 -5.5q-36 0 -68.5 11t-56.5 31.5t-38 49t-14 63.5q0 78 55.5 118.5t161.5 46.5l124 9v13q0 31 -19.5 48.5t-54.5 17.5q-29 0 -51 -11t-27 -33h-162q9 77 74.5 122.5t175.5 45.5zM363 224
l-96 -7q-34 -2 -50 -16.5t-16 -38.5q0 -26 19 -38.5t45 -12.5q20 0 37.5 7.5t31 20t21.5 28.5t8 34v23z" />
    <glyph glyph-name="egrave" unicode="e&#x300;" horiz-adv-x="576" 
d="M270 588l-136 205h181l111 -205h-156zM201 221q3 -45 31 -70t67 -25q29 0 51.5 13t30.5 42h168q-11 -94 -77 -141.5t-176 -47.5q-128 0 -199 68t-71 199q0 63 19 112.5t54.5 83.5t85 51.5t110.5 17.5q63 0 110.5 -18.5t80 -52.5t48.5 -83t16 -109v-40h-349zM295 393
q-36 0 -60.5 -21t-32.5 -55h181q-6 34 -29.5 55t-58.5 21z" />
    <glyph glyph-name="eacute" unicode="e&#x301;" horiz-adv-x="576" 
d="M311 793h183l-137 -205h-155zM201 221q3 -45 31 -70t67 -25q29 0 51.5 13t30.5 42h168q-11 -94 -77 -141.5t-176 -47.5q-128 0 -199 68t-71 199q0 63 19 112.5t54.5 83.5t85 51.5t110.5 17.5q63 0 110.5 -18.5t80 -52.5t48.5 -83t16 -109v-40h-349zM295 393
q-36 0 -60.5 -21t-32.5 -55h181q-6 34 -29.5 55t-58.5 21z" />
    <glyph glyph-name="igrave" unicode="i&#x300;" horiz-adv-x="276" 
d="M72 588l-136 205h181l111 -205h-156zM48 519h180v-519h-180v519z" />
    <glyph glyph-name="iacute" unicode="i&#x301;" horiz-adv-x="276" 
d="M157 793h183l-137 -205h-155zM48 519h180v-519h-180v519z" />
    <glyph glyph-name="ograve" unicode="o&#x300;" horiz-adv-x="584" 
d="M315 793l111 -205h-156l-136 205h181zM291 524q63 0 114.5 -17t87.5 -51t55.5 -83.5t19.5 -114.5q0 -66 -19.5 -115.5t-55.5 -83t-87 -50.5t-115 -17q-63 0 -114 17t-86.5 50.5t-55 83t-19.5 115.5q0 65 19.5 114.5t55.5 83.5t86.5 51t113.5 17zM291 126q19 0 37 8
t32.5 24.5t23 41.5t8.5 58q0 34 -8.5 59t-23 41.5t-32.5 25t-37 8.5t-37 -8.5t-32 -25t-22.5 -41.5t-8.5 -59q0 -33 8.5 -58t22.5 -41.5t32 -24.5t37 -8z" />
    <glyph glyph-name="oacute" unicode="o&#x301;" horiz-adv-x="584" 
d="M362 588h-156l111 205h181zM291 524q63 0 114.5 -17t87.5 -51t55.5 -83.5t19.5 -114.5q0 -66 -19.5 -115.5t-55.5 -83t-87 -50.5t-115 -17q-63 0 -114 17t-86.5 50.5t-55 83t-19.5 115.5q0 65 19.5 114.5t55.5 83.5t86.5 51t113.5 17zM291 126q19 0 37 8t32.5 24.5
t23 41.5t8.5 58q0 34 -8.5 59t-23 41.5t-32.5 25t-37 8.5t-37 -8.5t-32 -25t-22.5 -41.5t-8.5 -59q0 -33 8.5 -58t22.5 -41.5t32 -24.5t37 -8z" />
    <glyph glyph-name="otilde" unicode="o&#x303;" horiz-adv-x="584" 
d="M216 656q-17 0 -26 -14t-9 -50h-132q0 47 7 82t23.5 58.5t43.5 35.5t68 12q27 0 48.5 -10.5t41 -22.5t39 -22.5t40.5 -10.5q17 0 27.5 14.5t10.5 51.5h133q0 -91 -34 -140t-114 -49q-27 0 -49 10t-41.5 22.5t-38 22.5t-38.5 10zM291 524q63 0 114.5 -17t87.5 -51
t55.5 -83.5t19.5 -114.5q0 -66 -19.5 -115.5t-55.5 -83t-87 -50.5t-115 -17q-63 0 -114 17t-86.5 50.5t-55 83t-19.5 115.5q0 65 19.5 114.5t55.5 83.5t86.5 51t113.5 17zM291 126q19 0 37 8t32.5 24.5t23 41.5t8.5 58q0 34 -8.5 59t-23 41.5t-32.5 25t-37 8.5t-37 -8.5
t-32 -25t-22.5 -41.5t-8.5 -59q0 -33 8.5 -58t22.5 -41.5t32 -24.5t37 -8z" />
    <glyph glyph-name="ugrave" unicode="u&#x300;" horiz-adv-x="603" 
d="M143 793h183l109 -205h-155zM568 519v-519h-174v97h-2q-10 -30 -27.5 -50.5t-39.5 -32.5t-48 -17t-55 -5q-91 0 -139 50t-48 150v327h181v-291q0 -48 21 -74t63 -26t65.5 30t23.5 75v286h179z" />
    <glyph glyph-name="uacute" unicode="u&#x301;" horiz-adv-x="603" 
d="M509 793l-136 -205h-156l109 205h183zM568 519v-519h-174v97h-2q-10 -30 -27.5 -50.5t-39.5 -32.5t-48 -17t-55 -5q-91 0 -139 50t-48 150v327h181v-291q0 -48 21 -74t63 -26t65.5 30t23.5 75v286h179z" />
    <glyph glyph-name="yacute" unicode="y&#x301;" horiz-adv-x="550" 
d="M306 793h182l-136 -205h-156zM555 519q-35 -115 -77.5 -249t-84.5 -266q-15 -51 -39 -87t-56 -58.5t-70.5 -32.5t-81.5 -10q-23 0 -43.5 2.5t-42.5 8.5v123q17 -3 30 -3q15 0 29.5 1.5t26.5 6t20 13t10 22.5q-45 134 -90.5 264.5t-90.5 264.5h192l90 -378h3l88 378h187z
" />
    <glyph glyph-name="fi" unicode="fi" horiz-adv-x="644" 
d="M506 744q48 0 73 -27t25 -65t-25 -64.5t-73 -26.5t-73 26.5t-25 64.5t25 65t73 27zM368 573q-20 2 -32 2.5t-22 -1.5q-23 -2 -32 -12.5t-9 -33.5v-22h82v-117h-82v-389h-180v389h-79v117h79v26q0 48 14 81.5t39.5 54t60.5 30t77 9.5q20 0 40.5 -3t43.5 -8v-123zM416 519
h180v-519h-180v519z" />
    <glyph glyph-name="fl" unicode="fl" horiz-adv-x="707" 
d="M368 573q-20 2 -32 2.5t-22 -1.5q-23 -2 -32 -12.5t-9 -33.5v-22h82v-117h-82v-389h-180v389h-79v117h79v26q0 48 14 81.5t39.5 54t60.5 30t77 9.5q20 0 40.5 -3t43.5 -8v-123zM695 130v-123q-27 -5 -52.5 -7.5t-48.5 -2.5q-78 2 -125 43.5t-47 136.5v524h181v-517
q0 -32 20 -45.5t72 -8.5z" />
    <glyph glyph-name="uni1EA0" unicode="A&#x323;" horiz-adv-x="588" 
 />
    <glyph glyph-name="uni1EA1" unicode="a&#x323;" horiz-adv-x="517" 
 />
    <glyph glyph-name="uni1EA2" unicode="A&#x309;" horiz-adv-x="371" 
 />
    <glyph glyph-name="uni1EA3" unicode="a&#x309;" horiz-adv-x="469" 
 />
    <glyph glyph-name="uni1EA4" unicode="&#xc2;&#x301;" horiz-adv-x="546" 
 />
    <glyph glyph-name="uni1EA5" unicode="&#xe2;&#x301;" horiz-adv-x="469" 
 />
    <glyph glyph-name="uni1EA6" unicode="&#xc2;&#x300;" horiz-adv-x="546" 
 />
    <glyph glyph-name="uni1EA7" unicode="&#xe2;&#x300;" horiz-adv-x="469" 
 />
    <glyph glyph-name="uni1EA8" unicode="&#xc2;&#x309;" horiz-adv-x="546" 
 />
    <glyph glyph-name="uni1EA9" unicode="&#xe2;&#x309;" horiz-adv-x="469" 
 />
    <glyph glyph-name="uni1EAA" unicode="&#xc2;&#x303;" horiz-adv-x="546" 
 />
    <glyph glyph-name="uni1EAB" unicode="&#xe2;&#x303;" horiz-adv-x="469" 
 />
    <glyph glyph-name="uni1EAC" unicode="&#xc2;&#x323;" horiz-adv-x="546" 
 />
    <glyph glyph-name="uni1EAD" unicode="&#xe2;&#x323;" horiz-adv-x="469" 
 />
    <glyph glyph-name="uni1EAE" unicode="&#x102;&#x301;" horiz-adv-x="546" 
 />
    <glyph glyph-name="uni1EAF" unicode="&#x103;&#x301;" horiz-adv-x="469" 
 />
    <glyph glyph-name="uni1EB0" unicode="&#x102;&#x300;" horiz-adv-x="546" 
 />
    <glyph glyph-name="uni1EB1" unicode="&#x103;&#x300;" horiz-adv-x="469" 
 />
    <glyph glyph-name="uni1EB2" unicode="&#x102;&#x309;" horiz-adv-x="546" 
 />
    <glyph glyph-name="uni1EB3" unicode="&#x103;&#x309;" horiz-adv-x="469" 
 />
    <glyph glyph-name="uni1EB4" unicode="&#x102;&#x303;" horiz-adv-x="546" 
 />
    <glyph glyph-name="uni1EB5" unicode="&#x103;&#x303;" horiz-adv-x="469" 
 />
    <glyph glyph-name="uni1EB6" unicode="&#x102;&#x323;" horiz-adv-x="546" 
 />
    <glyph glyph-name="uni1EB7" unicode="&#x103;&#x323;" horiz-adv-x="469" 
 />
    <glyph glyph-name="uni1EB8" unicode="E&#x323;" horiz-adv-x="512" 
 />
    <glyph glyph-name="uni1EB9" unicode="e&#x323;" horiz-adv-x="520" 
 />
    <glyph glyph-name="uni1EBA" unicode="E&#x309;" horiz-adv-x="479" 
 />
    <glyph glyph-name="uni1EBB" unicode="e&#x309;" horiz-adv-x="510" 
 />
    <glyph glyph-name="uni1EBC" unicode="E&#x303;" horiz-adv-x="512" 
 />
    <glyph glyph-name="uni1EBD" unicode="e&#x303;" horiz-adv-x="520" 
 />
    <glyph glyph-name="uni1EBE" unicode="&#xca;&#x301;" horiz-adv-x="479" 
 />
    <glyph glyph-name="uni1EBF" unicode="&#xea;&#x301;" horiz-adv-x="510" 
 />
    <glyph glyph-name="uni1EC0" unicode="&#xca;&#x300;" horiz-adv-x="479" 
 />
    <glyph glyph-name="uni1EC1" unicode="&#xea;&#x300;" horiz-adv-x="510" 
 />
    <glyph glyph-name="uni1EC2" unicode="&#xca;&#x309;" horiz-adv-x="479" 
 />
    <glyph glyph-name="uni1EC3" unicode="&#xea;&#x309;" horiz-adv-x="510" 
 />
    <glyph glyph-name="uni1EC4" unicode="&#xca;&#x303;" horiz-adv-x="479" 
 />
    <glyph glyph-name="uni1EC5" unicode="&#xea;&#x303;" horiz-adv-x="510" 
 />
    <glyph glyph-name="uni1EC6" unicode="&#xca;&#x323;" horiz-adv-x="479" 
 />
    <glyph glyph-name="uni1EC7" unicode="&#xea;&#x323;" horiz-adv-x="510" 
 />
    <glyph glyph-name="uni1EC8" unicode="I&#x309;" horiz-adv-x="201" 
 />
    <glyph glyph-name="uni1EC9" unicode="i&#x309;" horiz-adv-x="195" 
 />
    <glyph glyph-name="uni1ECA" unicode="I&#x323;" horiz-adv-x="312" 
 />
    <glyph glyph-name="uni1ECB" unicode="i&#x323;" horiz-adv-x="237" 
 />
    <glyph glyph-name="uni1ECC" unicode="O&#x323;" horiz-adv-x="720" 
 />
    <glyph glyph-name="uni1ECD" unicode="o&#x323;" horiz-adv-x="558" 
 />
    <glyph glyph-name="uni1ECE" unicode="O&#x309;" horiz-adv-x="663" 
 />
    <glyph glyph-name="uni1ECF" unicode="o&#x309;" horiz-adv-x="543" 
 />
    <glyph glyph-name="uni1ED0" unicode="&#xd4;&#x301;" horiz-adv-x="663" 
 />
    <glyph glyph-name="uni1ED1" unicode="&#xf4;&#x301;" horiz-adv-x="543" 
 />
    <glyph glyph-name="uni1ED2" unicode="&#xd4;&#x300;" horiz-adv-x="663" 
 />
    <glyph glyph-name="uni1ED3" unicode="&#xf4;&#x300;" horiz-adv-x="543" 
 />
    <glyph glyph-name="uni1ED4" unicode="&#xd4;&#x309;" horiz-adv-x="663" 
 />
    <glyph glyph-name="uni1ED5" unicode="&#xf4;&#x309;" horiz-adv-x="543" 
 />
    <glyph glyph-name="uni1ED6" unicode="&#xd4;&#x303;" horiz-adv-x="663" 
 />
    <glyph glyph-name="uni1ED7" unicode="&#xf4;&#x303;" horiz-adv-x="543" 
 />
    <glyph glyph-name="uni1ED8" unicode="&#xd4;&#x323;" horiz-adv-x="663" 
 />
    <glyph glyph-name="uni1ED9" unicode="&#xf4;&#x323;" horiz-adv-x="543" 
 />
    <glyph glyph-name="uni1EDA" unicode="&#x1a0;&#x301;" horiz-adv-x="663" 
 />
    <glyph glyph-name="uni1EDB" unicode="&#x1a1;&#x301;" horiz-adv-x="543" 
 />
    <glyph glyph-name="uni1EDC" unicode="&#x1a0;&#x300;" horiz-adv-x="663" 
 />
    <glyph glyph-name="uni1EDD" unicode="&#x1a1;&#x300;" horiz-adv-x="543" 
 />
    <glyph glyph-name="uni1EDE" unicode="&#x1a0;&#x309;" horiz-adv-x="663" 
 />
    <glyph glyph-name="uni1EDF" unicode="&#x1a1;&#x309;" horiz-adv-x="543" 
 />
    <glyph glyph-name="uni1EE0" unicode="&#x1a0;&#x303;" horiz-adv-x="663" 
 />
    <glyph glyph-name="uni1EE1" unicode="&#x1a1;&#x303;" horiz-adv-x="543" 
 />
    <glyph glyph-name="uni1EE2" unicode="&#x1a0;&#x323;" horiz-adv-x="663" 
 />
    <glyph glyph-name="uni1EE3" unicode="&#x1a1;&#x323;" horiz-adv-x="543" 
 />
    <glyph glyph-name="uni1EE4" unicode="U&#x323;" horiz-adv-x="674" 
 />
    <glyph glyph-name="uni1EE5" unicode="u&#x323;" horiz-adv-x="570" 
 />
    <glyph glyph-name="uni1EE6" unicode="U&#x309;" horiz-adv-x="636" 
 />
    <glyph glyph-name="uni1EE7" unicode="u&#x309;" horiz-adv-x="532" 
 />
    <glyph glyph-name="uni1EE8" unicode="&#x1af;&#x301;" horiz-adv-x="636" 
 />
    <glyph glyph-name="uni1EE9" unicode="&#x1b0;&#x301;" horiz-adv-x="509" 
 />
    <glyph glyph-name="uni1EEA" unicode="&#x1af;&#x300;" horiz-adv-x="636" 
 />
    <glyph glyph-name="uni1EEB" unicode="&#x1b0;&#x300;" horiz-adv-x="509" 
 />
    <glyph glyph-name="uni1EEC" unicode="&#x1af;&#x309;" horiz-adv-x="636" 
 />
    <glyph glyph-name="uni1EED" unicode="&#x1b0;&#x309;" horiz-adv-x="509" 
 />
    <glyph glyph-name="uni1EEE" unicode="&#x1af;&#x303;" horiz-adv-x="636" 
 />
    <glyph glyph-name="uni1EEF" unicode="&#x1b0;&#x303;" horiz-adv-x="509" 
 />
    <glyph glyph-name="uni1EF0" unicode="&#x1af;&#x323;" horiz-adv-x="636" 
 />
    <glyph glyph-name="uni1EF1" unicode="&#x1b0;&#x323;" horiz-adv-x="509" 
 />
    <glyph glyph-name="Ygrave" unicode="Y&#x300;" horiz-adv-x="523" 
 />
    <glyph glyph-name="ygrave" unicode="y&#x300;" horiz-adv-x="472" 
 />
    <glyph glyph-name="uni1EF4" unicode="Y&#x323;" horiz-adv-x="499" 
 />
    <glyph glyph-name="uni1EF5" unicode="y&#x323;" horiz-adv-x="460" 
 />
    <glyph glyph-name="uni1EF6" unicode="Y&#x309;" horiz-adv-x="499" 
 />
    <glyph glyph-name="uni1EF7" unicode="y&#x309;" horiz-adv-x="460" 
 />
    <glyph glyph-name="uni1EF8" unicode="Y&#x303;" horiz-adv-x="523" 
 />
    <glyph glyph-name="uni1EF9" unicode="y&#x303;" horiz-adv-x="472" 
 />
    <glyph glyph-name="Itilde" unicode="I&#x303;" horiz-adv-x="277" 
d="M57 832q-17 0 -29 -14.5t-12 -50.5h-133q0 94 34 142t116 48q29 0 52.5 -11t44.5 -24t42 -24t45 -11q19 0 32.5 15.5t13.5 52.5h133q0 -91 -37.5 -140.5t-118.5 -49.5q-29 0 -52.5 10.5t-45 23t-42 23t-43.5 10.5zM46 700h185v-700h-185v700z" />
    <glyph glyph-name="itilde" unicode="i&#x303;" horiz-adv-x="276" 
d="M64 656q-17 0 -25.5 -14t-8.5 -50h-132q0 47 6.5 82t23 58.5t44 35.5t68.5 12q27 0 48.5 -10.5t41 -22.5t38.5 -22.5t41 -10.5q17 0 27.5 14.5t10.5 51.5h132q0 -91 -33.5 -140t-113.5 -49q-27 0 -49 10t-42 22.5t-38.5 22.5t-38.5 10zM48 519h180v-519h-180v519z" />
    <glyph glyph-name="Utilde" unicode="U&#x303;" horiz-adv-x="685" 
d="M266 832q-17 0 -29 -14.5t-12 -50.5h-132q0 94 34 142t116 48q29 0 52.5 -11t44.5 -24t42 -24t45 -11q19 0 32.5 15.5t13.5 52.5h131q0 -91 -36.5 -140.5t-117.5 -49.5q-29 0 -52.5 10.5t-45 23t-42 23t-44.5 10.5zM224 269q0 -62 30.5 -93t87.5 -31q118 0 118 124v431
h185v-452q0 -59 -21.5 -106.5t-61.5 -80.5t-96 -51t-124 -18t-124 18t-95.5 51t-61 80.5t-21.5 106.5v452h184v-431z" />
    <glyph glyph-name="utilde" unicode="u&#x303;" horiz-adv-x="603" 
d="M235 656q-17 0 -25 -14t-8 -50h-134q0 47 7 82t23.5 58.5t44 35.5t68.5 12q26 0 47.5 -10.5t41 -22.5t39 -22.5t40.5 -10.5q19 0 29 14.5t11 51.5h131q0 -91 -33.5 -140t-112.5 -49q-27 0 -49 10t-42 22.5t-39 22.5t-39 10zM568 0h-175v97h-3q-10 -30 -27 -50.5
t-39 -32.5t-48 -17t-55 -5q-90 0 -138 50t-48 150v327h179v-291q0 -48 21.5 -74t64.5 -26q40 0 64 30t24 75v286h180v-519z" />
    <glyph glyph-name="uniF880" unicode="&#xe4f;&#x22;" horiz-adv-x="574" 
d="M314 768h150l-11 -159h-130zM111 768h150l-11 -159h-130zM287 570q53 0 99.5 -20t81 -54t54.5 -80t20 -99t-20 -100t-54.5 -81.5t-81 -54.5t-99.5 -20t-99.5 20t-81 54.5t-54 81.5t-19.5 100t19.5 99t54 80t81 54t99.5 20zM287 147q35 0 65 13.5t52.5 36.5t35.5 54t13 66
t-13 65t-35.5 52.5t-52.5 35.5t-65 13t-66 -13t-54 -35.5t-36.5 -52.5t-13.5 -65t13.5 -66t36.5 -54t54 -36.5t66 -13.5zM287 442q26 0 48.5 -9.5t39 -26.5t26.5 -39.5t10 -49.5q0 -26 -10 -49t-26.5 -40t-39 -27t-48.5 -10t-49 10t-40 27t-27 40t-10 49q0 27 10 49.5
t27 39.5t40 26.5t49 9.5zM287 263q23 0 37 15.5t14 38.5q0 21 -14 35.5t-37 14.5q-22 0 -37 -14.5t-15 -35.5q0 -23 15 -38.5t37 -15.5z" />
    <glyph glyph-name="uniF881" unicode="&#xe24;&#xe32;" horiz-adv-x="978" 
d="M760 -199v566q0 31 -20.5 50t-64.5 21q-18 1 -36.5 -2.5t-36.5 -9.5q13 -37 13 -84v-541h-181v522q0 53 -30 84t-87 31q-53 0 -86.5 -17.5t-46.5 -54.5h115v-48q-72 -34 -72 -115q0 -46 23.5 -61.5t70.5 -13.5l13 2v-126q-35 -7 -68.5 -10t-64.5 -1q-34 3 -62.5 13.5
t-49.5 31t-32.5 50.5t-11.5 72q0 58 31 97.5t82 53.5h-131q0 135 69 202.5t226 67.5q67 0 118 -14.5t88 -41.5q38 25 87.5 40.5t103.5 15.5q45 0 85.5 -9t71 -29t48.5 -52t18 -78v-612h-182z" />
    <glyph glyph-name="uniF882" unicode="&#xe26;&#xe32;" horiz-adv-x="976" 
d="M757 -199v566q0 31 -20 50t-64 21q-19 1 -37 -2.5t-37 -9.5q8 -17 11 -39t3 -45v-541h-182v522q0 53 -30 84t-86 31q-108 0 -134 -72h118v-47q-20 -12 -29.5 -35t-11.5 -57q-3 -55 -7 -96.5t-17 -70.5t-37.5 -45.5t-69.5 -19.5q-27 -4 -58 -1t-66 10v124l11 -1
q42 -1 55.5 14t13.5 55q0 21 2 39t9.5 32.5t21.5 25.5t37 18h-128q0 135 69 202.5t225 67.5q67 0 118 -14.5t88 -41.5q38 25 87.5 40.5t103.5 15.5q45 0 85.5 -9t71 -29t48.5 -52t18 -78v-612h-182z" />
    <glyph glyph-name=".notdef" horiz-adv-x="817" 
d="M68 0v675h681v-675h-681zM722 22q7 0 7 7v619q0 6 -7 6h-626q-7 0 -7 -6v-619q0 -7 7 -7h626z" />
    <glyph glyph-name=".null" 
 />
    <glyph glyph-name=".null" 
 />
    <glyph glyph-name="uni000D" horiz-adv-x="295" 
 />
    <glyph glyph-name="space" unicode=" " horiz-adv-x="293" 
 />
    <glyph glyph-name="uni00A0" unicode="&#xa0;" horiz-adv-x="293" 
 />
    <glyph glyph-name="exclam" unicode="!" horiz-adv-x="302" 
d="M71 251l-12 205v244h183v-244l-13 -205h-158zM151 194q50 0 77 -28.5t27 -68.5t-27 -68.5t-77 -28.5t-77.5 28.5t-27.5 68.5t27.5 68.5t77.5 28.5z" />
    <glyph glyph-name="quotedbl" unicode="&#x22;" horiz-adv-x="419" 
d="M33 700h150l-11 -243h-130zM236 700h150l-11 -243h-129z" />
    <glyph glyph-name="numbersign" unicode="#" horiz-adv-x="697" 
d="M570 413l-28 -136h97v-106h-118l-35 -171h-159l35 171h-93l-36 -171h-161l36 171h-96v106h119l29 136h-103v107h124l37 180h160l-38 -180h94l38 180h158l-38 -180h93v-107h-115zM412 413h-94l-29 -136h94z" />
    <glyph glyph-name="dollar" unicode="$" horiz-adv-x="634" 
d="M382 419q118 -23 174.5 -69t56.5 -132q0 -91 -59 -149t-165 -72v-101h-157v103q-98 16 -153.5 73t-56.5 146h177q6 -38 35.5 -60.5t80.5 -22.5t79 17.5t28 49.5q0 14 -5 24.5t-18 18.5t-34 14.5t-53 12.5l-70 13q-106 20 -160.5 71t-54.5 131q0 42 15 77.5t42 63t65 46
t83 26.5v98h157v-98q101 -17 153 -75.5t54 -144.5h-178q-2 37 -30 61t-76 24t-73 -17.5t-25 -46.5q0 -18 9 -30t29.5 -21t52.5 -16t77 -15z" />
    <glyph glyph-name="percent" unicode="%" horiz-adv-x="764" 
d="M340 547q0 -37 -13 -66.5t-35 -50t-51 -31.5t-61 -11q-31 0 -60 11t-50.5 31.5t-34.5 50t-13 66.5q0 38 13 67.5t34.5 50.5t50.5 32t60 11q32 0 61 -11t51 -32t35 -50.5t13 -67.5zM666 700l-414 -700h-152l413 700h153zM134 547q0 -26 12 -41t34 -15q20 0 33.5 15
t13.5 41t-13.5 41t-33.5 15q-22 0 -34 -15t-12 -41zM583 311q32 0 61 -11t51 -32t34.5 -50.5t12.5 -67.5q0 -36 -12.5 -65.5t-34.5 -50t-51 -31.5t-61 -11t-61 11t-50.5 31.5t-34.5 50t-13 65.5q0 38 13 67.5t34.5 50.5t50.5 32t61 11zM583 94q20 0 32.5 15t12.5 41
t-12.5 41.5t-32.5 15.5q-22 0 -34.5 -15t-12.5 -42q0 -26 12.5 -41t34.5 -15z" />
    <glyph glyph-name="ampersand" unicode="&#x26;" horiz-adv-x="708" 
d="M644 329q-1 -23 -6 -49.5t-13 -52t-18.5 -48t-23.5 -38.5l139 -141h-187l-53 52q-36 -31 -91.5 -45.5t-121.5 -14.5q-118 0 -177 48.5t-59 139.5q0 137 142 195q-25 25 -40 46.5t-23.5 41.5t-11.5 39t-3 38q0 36 13.5 67t40 53.5t65 35t88.5 12.5q51 0 89 -13.5
t63.5 -36.5t38.5 -55t13 -68q0 -54 -28.5 -99t-97.5 -83l93 -102q8 12 14.5 35.5t9.5 42.5h145zM244 529q0 -19 9.5 -39t43.5 -49q36 18 51.5 40.5t15.5 49.5q0 28 -14.5 44t-43.5 16t-45.5 -16.5t-16.5 -45.5zM288 115q31 0 52.5 10t38.5 26l-118 129l-22 -8
q-30 -20 -35.5 -42.5t-5.5 -42.5q0 -12 5 -24.5t16 -23t28 -17.5t41 -7z" />
    <glyph glyph-name="quotesingle" unicode="'" horiz-adv-x="216" 
d="M33 700h150l-11 -243h-130z" />
    <glyph glyph-name="parenleft" unicode="(" horiz-adv-x="352" 
d="M348 740q-27 -39 -48.5 -87t-37 -101.5t-23.5 -110t-8 -112.5t8 -113t23.5 -110.5t37 -101.5t48.5 -86h-162q-61 82 -93.5 187t-32.5 224q0 118 32.5 222.5t93.5 188.5h162z" />
    <glyph glyph-name="parenright" unicode=")" horiz-adv-x="352" 
d="M165 740q61 -84 94 -188.5t33 -222.5q0 -119 -33 -224t-94 -187h-161q27 38 48.5 86t37 101.5t23.5 110.5t8 113t-8 112.5t-23.5 110t-37 101.5t-48.5 87h161z" />
    <glyph glyph-name="asterisk" unicode="*" horiz-adv-x="382" 
d="M273 504l63 -80l-89 -65l-56 86l-56 -86l-89 65l63 80l-97 27l33 102l96 -34l-3 101h108l-4 -101l95 34l33 -102z" />
    <glyph glyph-name="plus" unicode="+" horiz-adv-x="589" 
d="M554 246h-179v-155h-161v155h-179v140h179v154h161v-154h179v-140z" />
    <glyph glyph-name="comma" unicode="," horiz-adv-x="231" 
d="M-12 -123l54 240h172l-78 -240h-148z" />
    <glyph glyph-name="hyphen" unicode="-" horiz-adv-x="490" 
d="M454 246h-419v140h419v-140z" />
    <glyph glyph-name="hyphen" unicode="&#xad;" horiz-adv-x="490" 
d="M454 246h-419v140h419v-140z" />
    <glyph glyph-name="period" unicode="." horiz-adv-x="240" 
d="M15 97q0 40 27 68.5t78 28.5t78 -28.5t27 -68.5t-27 -68.5t-78 -28.5t-78 28.5t-27 68.5z" />
    <glyph glyph-name="slash" unicode="/" horiz-adv-x="449" 
d="M443 700l-252 -700h-186l254 700h184z" />
    <glyph glyph-name="zero" unicode="0" horiz-adv-x="655" 
d="M19 351q0 87 22 153.5t62.5 111.5t97.5 68t126 23q70 0 127 -23t97.5 -68t62.5 -111.5t22 -153.5q0 -86 -22 -153t-62.5 -112.5t-97.5 -69t-127 -23.5t-126.5 23.5t-97 69t-62.5 112t-22 153.5zM442 351q0 58 -7.5 97.5t-22.5 64t-36.5 35t-48.5 10.5t-48.5 -10.5
t-36.5 -35t-23 -64t-8 -97.5q0 -57 8 -97t23 -65t36.5 -36.5t48.5 -11.5t48.5 11.5t36.5 36.5t22.5 65t7.5 97z" />
    <glyph glyph-name="one" unicode="1" horiz-adv-x="457" 
d="M357 700v-700h-185v543l-164 -44v137l213 64h136z" />
    <glyph glyph-name="two" unicode="2" horiz-adv-x="583" 
d="M551 141v-141h-525v102q3 3 18 17.5t37.5 36t49.5 48t54 52.5t51 49.5t40 39.5q32 31 51 53t30 38t14.5 28t3.5 24q0 38 -21 59.5t-70 21.5q-29 0 -48 -9.5t-30 -25t-15.5 -36t-4.5 -41.5h-167q0 49 14 94t45 80t81.5 56t124.5 21q68 0 118 -15.5t82.5 -43.5t48.5 -66
t16 -82q0 -38 -6.5 -64.5t-24.5 -53.5t-50 -60t-82 -83l-99 -97v-2h264z" />
    <glyph glyph-name="three" unicode="3" horiz-adv-x="624" 
d="M472 360q56 -14 91 -54t35 -112q0 -36 -15.5 -72.5t-50 -65t-90.5 -46.5t-136 -18q-71 0 -123.5 20.5t-87.5 55.5t-52 80.5t-17 94.5h170q0 -16 7 -35t21 -35.5t34.5 -27t48.5 -10.5q48 0 77 20.5t29 68.5q0 38 -28.5 53t-73.5 15h-60v123h59q39 0 66.5 22t27.5 56
q0 40 -26 59.5t-70 19.5q-25 0 -44.5 -9t-32.5 -25t-19.5 -36.5t-6.5 -44.5h-165q0 55 17.5 101t51 79.5t83.5 52t115 18.5q70 0 121.5 -15.5t85.5 -41t50.5 -58.5t16.5 -68t-7.5 -61t-22 -45.5t-34.5 -32.5t-45 -23v-3z" />
    <glyph glyph-name="four" unicode="4" horiz-adv-x="613" 
d="M604 124h-80v-124h-186v124h-330v119l349 457h159v-435h88v-141zM349 261v206l-153 -206h153z" />
    <glyph glyph-name="five" unicode="5" horiz-adv-x="619" 
d="M371 475q49 0 90 -17t70.5 -47t46 -71.5t16.5 -91.5q0 -52 -15.5 -99t-50 -81.5t-91 -55t-137.5 -20.5q-70 0 -121.5 20.5t-85.5 55.5t-50.5 80.5t-16.5 94.5h172q0 -16 6 -35t19 -35.5t34 -27t50 -10.5q48 0 80.5 28.5t32.5 79.5q0 49 -29 79.5t-77 30.5q-40 0 -64 -9.5
t-44 -29.5h-168l38 386h474v-141h-330l-18 -146h3q29 34 69 48t97 14z" />
    <glyph glyph-name="six" unicode="6" horiz-adv-x="636" 
d="M388 476q51 0 92.5 -17t71 -47.5t45.5 -72.5t16 -91q0 -55 -21.5 -102t-60 -81.5t-90.5 -53.5t-114 -19q-73 0 -129.5 25.5t-95.5 73t-59 115.5t-20 154t23 151t64.5 108.5t97.5 66t122 22.5q56 0 104 -14.5t84.5 -41t59.5 -64t29 -83.5h-180q-11 34 -34.5 48.5
t-62.5 14.5q-70 0 -104 -50.5t-34 -134.5h3q28 51 74 72t119 21zM323 135q23 0 43.5 8.5t35.5 23.5t23.5 35t8.5 42q0 24 -8.5 44t-23 34.5t-34 22.5t-42.5 8q-24 0 -44.5 -8.5t-35.5 -23t-23.5 -34.5t-8.5 -43t8.5 -43t23.5 -34.5t35 -23t42 -8.5z" />
    <glyph glyph-name="seven" unicode="7" horiz-adv-x="544" 
d="M542 700v-112l-232 -588h-206l233 559h-334v141h539z" />
    <glyph glyph-name="eight" unicode="8" horiz-adv-x="625" 
d="M23 195q0 71 34.5 112.5t89.5 55.5v3q-52 20 -77 61.5t-25 99.5q0 33 15.5 65t48 58t83 42t120.5 16t120.5 -16t83.5 -42t48.5 -58t15.5 -65q0 -56 -25 -98.5t-77 -62.5v-3q54 -14 89 -55.5t35 -112.5q0 -37 -15 -73t-49.5 -65t-89.5 -47t-136 -18q-80 0 -135.5 18
t-89.5 47t-49 65t-15 73zM412 504q0 17 -7.5 32.5t-21 27t-32 18t-39.5 6.5q-41 0 -68.5 -24.5t-27.5 -59.5t27.5 -58.5t68.5 -23.5q42 0 71 23.5t29 58.5zM424 222q0 20 -8.5 37t-23.5 30t-35.5 20.5t-44.5 7.5q-23 0 -43 -7.5t-35 -20.5t-23.5 -30t-8.5 -37t8.5 -38
t23.5 -31.5t35 -21t43 -7.5q49 0 80.5 28.5t31.5 69.5z" />
    <glyph glyph-name="nine" unicode="9" horiz-adv-x="636" 
d="M613 338q0 -85 -23 -150t-64.5 -108.5t-97.5 -65.5t-122 -22q-57 0 -105.5 14.5t-85 40.5t-59.5 63.5t-29 83.5h180q11 -34 35.5 -48.5t63.5 -14.5q69 0 103 50.5t33 133.5h-3q-26 -49 -72 -71t-119 -22q-51 0 -92.5 17.5t-71 48.5t-45.5 73t-16 91q0 56 21.5 102.5
t60 81t90.5 53.5t113 19q74 0 130.5 -25.5t95.5 -73.5t59 -116.5t20 -154.5zM201 454q0 -47 31 -78t78 -31q24 0 44.5 8.5t35.5 23.5t23.5 35t8.5 42q0 47 -31.5 78.5t-79.5 31.5q-23 0 -43 -8.5t-35 -23.5t-23.5 -35t-8.5 -43z" />
    <glyph glyph-name="colon" unicode=":" horiz-adv-x="308" 
d="M49 422q0 41 27.5 69.5t79.5 28.5q49 0 76 -28.5t27 -69.5t-27 -69t-76 -28q-52 0 -79.5 28t-27.5 69zM49 97q0 40 27.5 68.5t79.5 28.5q49 0 76 -28.5t27 -68.5t-27 -68.5t-76 -28.5q-52 0 -79.5 28.5t-27.5 68.5z" />
    <glyph glyph-name="semicolon" unicode=";" horiz-adv-x="308" 
d="M49 422q0 41 27.5 69.5t79.5 28.5q49 0 76 -28.5t27 -69.5t-27 -69t-76 -28q-52 0 -79.5 28t-27.5 69zM22 -123l54 240h172l-77 -240h-149z" />
    <glyph glyph-name="less" unicode="&#x3c;" horiz-adv-x="535" 
d="M42 270v93l451 273v-172l-262 -146v-1l262 -148v-170z" />
    <glyph glyph-name="equal" unicode="=" horiz-adv-x="520" 
d="M35 487h449v-135h-449v135zM484 277v-134h-449v134h449z" />
    <glyph glyph-name="greater" unicode="&#x3e;" horiz-adv-x="535" 
d="M42 -1v170l262 148v1l-262 146v172l451 -273v-93z" />
    <glyph glyph-name="question" unicode="?" horiz-adv-x="568" 
d="M282 708q131 0 192 -50t61 -138q0 -37 -11 -65t-27.5 -50t-36 -39.5t-36 -33.5t-27.5 -32.5t-11 -37.5v-11h-194v11q0 30 12.5 53.5t31.5 43.5t41 37.5t41 35t31.5 36t12.5 40.5q0 26 -18 43.5t-56 17.5q-40 0 -62 -27t-27 -66h-166q2 47 17.5 89t45.5 73.5t76.5 50.5
t109.5 19zM292 194q49 0 76.5 -28.5t27.5 -68.5t-27.5 -68.5t-76.5 -28.5q-51 0 -78 28.5t-27 68.5t27 68.5t78 28.5z" />
    <glyph glyph-name="at" unicode="@" horiz-adv-x="847" 
d="M431 666q76 0 147.5 -23t127 -67.5t89 -110t33.5 -151.5q0 -66 -13.5 -112t-37.5 -75t-56.5 -42t-69.5 -13q-35 0 -69 17.5t-51 49.5h-2q-19 -29 -54 -43t-70 -14q-38 0 -72 11t-59 34.5t-39.5 60t-14.5 88.5q0 41 11.5 77t34.5 62.5t57.5 41.5t81.5 15q28 0 58 -11
t46 -34h1v40h103v-243q0 -28 9.5 -36.5t18.5 -8.5q27 0 41.5 31t14.5 104q0 55 -18.5 98.5t-53.5 74t-84.5 47t-112.5 16.5q-59 0 -110 -18t-88.5 -52.5t-58.5 -84.5t-21 -113q0 -64 20 -112.5t57 -81.5t90.5 -49.5t120.5 -16.5q23 0 49 1.5t59 6.5v-120q-60 -6 -109 -6
q-93 0 -169.5 24.5t-132 72.5t-86 118.5t-30.5 162.5q0 87 30 157.5t84.5 121t130.5 78t167 27.5zM419 188q34 0 54 22t20 70q0 44 -19.5 65t-54.5 21q-34 0 -54.5 -23t-20.5 -67q0 -16 4.5 -32t13.5 -28.5t23 -20t34 -7.5z" />
    <glyph glyph-name="A" unicode="A" horiz-adv-x="697" 
d="M505 0l-40 136h-234l-40 -136h-196l234 700h239l235 -700h-198zM430 269l-81 271h-4l-78 -271h163z" />
    <glyph glyph-name="B" unicode="B" horiz-adv-x="660" 
d="M475 359q36 -1 65.5 -15t50 -37t31.5 -53.5t11 -65.5q0 -91 -66 -139.5t-179 -48.5h-348v700h259q70 0 126 -7t95.5 -26t60.5 -52t21 -86q0 -30 -8.5 -58.5t-24.5 -51t-39.5 -38t-54.5 -19.5v-3zM323 411q45 0 69 18t24 55q0 77 -91 77h-101v-150h99zM333 139
q54 0 80 17.5t26 60.5q0 42 -26.5 59t-79.5 17h-109v-154h109z" />
    <glyph glyph-name="C" unicode="C" horiz-adv-x="704" 
d="M367 139q51 0 85 26t47 77h186q-7 -57 -33 -103.5t-68 -79t-97 -50t-120 -17.5q-79 0 -142 24t-107.5 69.5t-68 112.5t-23.5 153t24 152.5t68 112t107 69t142 23.5q63 0 118 -18t97 -50.5t68.5 -79t33.5 -103.5h-186q-12 50 -46 77t-85 27q-71 0 -112 -55t-41 -155
q0 -103 40.5 -157.5t112.5 -54.5z" />
    <glyph glyph-name="D" unicode="D" horiz-adv-x="690" 
d="M315 700q80 0 144.5 -22.5t110.5 -66t70.5 -108t24.5 -148.5t-24.5 -150t-70.5 -111.5t-110.5 -69.5t-144.5 -24h-275v700h275zM289 139q86 0 131 55.5t45 160.5q0 97 -46 150.5t-128 53.5h-66v-420h64z" />
    <glyph glyph-name="E" unicode="E" horiz-adv-x="594" 
d="M225 559v-139h279v-140h-279v-141h336v-139h-521v700h521v-141h-336z" />
    <glyph glyph-name="F" unicode="F" horiz-adv-x="587" 
d="M224 559v-139h280v-140h-280v-280h-184v700h521v-141h-337z" />
    <glyph glyph-name="G" unicode="G" horiz-adv-x="715" 
d="M686 304q0 -28 -4.5 -62t-17 -69t-34.5 -67.5t-57.5 -57.5t-86 -40.5t-119.5 -15.5q-79 0 -142 24t-107 69.5t-68 112.5t-24 153t24 152.5t68.5 112t107.5 69t142 23.5q64 0 119.5 -18t98 -50.5t69.5 -79t34 -103.5h-185q-13 50 -48.5 77t-87.5 27q-71 0 -112.5 -55
t-41.5 -155q0 -103 41 -157.5t113 -54.5q65 0 94.5 32.5t34.5 82.5h-115v132h304v-82z" />
    <glyph glyph-name="H" unicode="H" horiz-adv-x="719" 
d="M680 700v-700h-186v280h-270v-280h-184v700h184v-280h270v280h186z" />
    <glyph glyph-name="I" unicode="I" horiz-adv-x="277" 
d="M46 700h185v-700h-185v700z" />
    <glyph glyph-name="J" unicode="J" horiz-adv-x="579" 
d="M535 700v-461q0 -121 -70 -184t-193 -63q-61 0 -110.5 17t-84 49.5t-53.5 79t-19 104.5h183q2 -45 23.5 -68.5t57.5 -23.5q38 0 59 22.5t21 79.5v448h186z" />
    <glyph glyph-name="K" unicode="K" horiz-adv-x="700" 
d="M509 310q19 -32 48 -80.5t57.5 -96.5t51.5 -85.5t29 -47.5h-204q-27 47 -52 89q-21 37 -43 74t-36 57q-15 23 -34.5 39.5t-48.5 22.5l-52 -53v-229h-185v700h185v-251l236 251h216l-296 -310q35 -7 70 -26t58 -54z" />
    <glyph glyph-name="L" unicode="L" horiz-adv-x="529" 
d="M40 700h184v-561h300v-139h-484v700z" />
    <glyph glyph-name="M" unicode="M" horiz-adv-x="880" 
d="M841 700v-700h-182v433h-4l-172 -433h-87l-174 433h-2v-433h-180v700h233l165 -422h4l164 422h235z" />
    <glyph glyph-name="N" unicode="N" horiz-adv-x="707" 
d="M667 700v-700h-159l-283 407h-4v-407h-181v700h161l281 -401h4v401h181z" />
    <glyph glyph-name="O" unicode="O" horiz-adv-x="733" 
d="M367 708q80 0 144 -24.5t109 -70.5t69.5 -112.5t24.5 -149.5q0 -84 -24.5 -150.5t-69.5 -113t-109 -71t-144 -24.5t-144.5 24.5t-109.5 71t-69.5 113t-24.5 150.5q0 83 24.5 149.5t69.5 112.5t109.5 70.5t144.5 24.5zM367 143q72 0 112.5 54t40.5 154q0 99 -40.5 151
t-112.5 52q-73 0 -113.5 -52t-40.5 -151t40.5 -153.5t113.5 -54.5z" />
    <glyph glyph-name="P" unicode="P" horiz-adv-x="611" 
d="M366 700q52 0 93.5 -15t71 -43t45 -68t15.5 -90q0 -49 -15.5 -88.5t-45 -67.5t-71 -43t-93.5 -15h-142v-270h-184v700h326zM327 411q44 0 68 19t24 54q0 44 -30.5 59.5t-81.5 15.5h-83v-148h103z" />
    <glyph glyph-name="Q" unicode="Q" horiz-adv-x="734" 
d="M725 75v-127l-383 44q-79 10 -139.5 35.5t-101 69.5t-61.5 107t-21 147q0 83 24.5 149.5t69.5 112.5t109.5 70.5t144.5 24.5t144 -24.5t109 -70.5t69.5 -112.5t24.5 -149.5q0 -94 -41 -160t-108 -101v-4zM213 351q0 -99 40.5 -152.5t112.5 -53.5q73 0 113.5 53t40.5 153
q0 99 -40.5 151t-112.5 52q-73 0 -113.5 -52t-40.5 -151z" />
    <glyph glyph-name="R" unicode="R" horiz-adv-x="645" 
d="M428 0l-140 270h-64v-270h-184v700h328q53 0 95 -15t71 -43t45 -68t16 -90q0 -72 -35 -122.5t-102 -69.5l167 -292h-197zM224 411h106q44 0 68 19t24 54t-24 55t-68 20h-106v-148z" />
    <glyph glyph-name="S" unicode="S" horiz-adv-x="634" 
d="M392 416q113 -20 167 -67t54 -131q0 -52 -20.5 -94t-59.5 -71.5t-95 -45t-126 -15.5q-66 0 -119.5 15.5t-91.5 45t-58.5 71.5t-20.5 94h177q6 -37 35.5 -60t80.5 -23t79 17.5t28 49.5q0 14 -5.5 24.5t-18.5 18.5t-34 14.5t-52 12.5l-70 13q-106 20 -160.5 71t-54.5 131
q0 51 21.5 92t59.5 69.5t90 44t112 15.5q69 0 122 -17t89 -47t55 -72t20 -92h-178q-2 37 -30 61t-76 24t-73 -17.5t-25 -46.5t24.5 -45t82.5 -26z" />
    <glyph glyph-name="T" unicode="T" horiz-adv-x="565" 
d="M564 559h-189v-559h-185v559h-189v141h563v-141z" />
    <glyph glyph-name="U" unicode="U" horiz-adv-x="685" 
d="M224 269q0 -62 30.5 -93t87.5 -31q118 0 118 124v431h185v-452q0 -59 -21.5 -106.5t-61.5 -80.5t-96 -51t-124 -18t-124 18t-95.5 51t-61 80.5t-21.5 106.5v452h184v-431z" />
    <glyph glyph-name="V" unicode="V" horiz-adv-x="697" 
d="M229 0l-234 700h196l156 -534h4l154 534h198l-235 -700h-239z" />
    <glyph glyph-name="W" unicode="W" horiz-adv-x="952" 
d="M951 700l-175 -700h-184l-114 441h-5l-113 -441h-185l-174 700h193l91 -460h4l114 460h146l113 -460h5l92 460h192z" />
    <glyph glyph-name="X" unicode="X" horiz-adv-x="673" 
d="M453 0l-115 236h-4l-114 -236h-216l206 351l-206 349h216l114 -236h4l115 236h216l-206 -349l206 -351h-216z" />
    <glyph glyph-name="Y" unicode="Y" horiz-adv-x="656" 
d="M420 285v-285h-185v285l-239 415h215l115 -236h4l115 236h215z" />
    <glyph glyph-name="Z" unicode="Z" horiz-adv-x="613" 
d="M580 141v-141h-547v116l316 439v4h-312v141h533v-117l-308 -441v-1h318z" />
    <glyph glyph-name="bracketleft" unicode="[" horiz-adv-x="405" 
d="M252 619v-584h141v-117h-306v822h306v-121h-141z" />
    <glyph glyph-name="backslash" unicode="\" horiz-adv-x="449" 
d="M443 0h-185l-253 700h185z" />
    <glyph glyph-name="bracketright" unicode="]" horiz-adv-x="405" 
d="M12 740h306v-822h-306v117h141v584h-141v121z" />
    <glyph glyph-name="asciicircum" unicode="^" horiz-adv-x="443" 
d="M428 457h-147l-59 100h-2l-59 -100h-146l149 243h116z" />
    <glyph glyph-name="underscore" unicode="_" horiz-adv-x="587" 
d="M572 -147h-557v129h557v-129z" />
    <glyph glyph-name="grave" unicode="`" horiz-adv-x="303" 
d="M287 457h-156l-135 243h183z" />
    <glyph glyph-name="a" unicode="a" horiz-adv-x="580" 
d="M299 524q57 0 102 -13t77 -37t49 -57.5t17 -74.5v-342h-174v76h-3q-10 -21 -28.5 -36.5t-41 -26t-48 -16t-50.5 -5.5q-36 0 -68.5 11t-56.5 31.5t-38 49t-14 63.5q0 78 55.5 118.5t161.5 46.5l124 9v13q0 31 -19.5 48.5t-54.5 17.5q-29 0 -51 -11t-27 -33h-162
q9 77 74.5 122.5t175.5 45.5zM363 224l-96 -7q-34 -2 -50 -16.5t-16 -38.5q0 -26 19 -38.5t45 -12.5q20 0 37.5 7.5t31 20t21.5 28.5t8 34v23z" />
    <glyph glyph-name="b" unicode="b" horiz-adv-x="609" 
d="M385 524q44 0 81.5 -17t65 -51t43.5 -83.5t16 -114.5q0 -66 -17 -115.5t-45 -83t-65 -50.5t-76 -17q-61 0 -107 20.5t-70 52.5h-2v-65h-174v700h182v-252h3q26 38 66 57t99 19zM312 130q47 0 73.5 32.5t26.5 95.5q0 62 -27 94.5t-73 32.5t-72.5 -33.5t-26.5 -94.5
q0 -62 26.5 -94.5t72.5 -32.5z" />
    <glyph glyph-name="c" unicode="c" horiz-adv-x="565" 
d="M299 126q28 0 49.5 13t28.5 42h169q-11 -94 -76 -141.5t-174 -47.5q-128 0 -199 67t-71 199q0 130 71.5 198t197.5 68q107 0 173.5 -49t77.5 -143h-168q-8 31 -29.5 44.5t-49.5 13.5q-40 0 -66.5 -34.5t-26.5 -97.5t26.5 -97.5t66.5 -34.5z" />
    <glyph glyph-name="d" unicode="d" horiz-adv-x="609" 
d="M224 524q60 0 99 -19t67 -57h2v252h181v-700h-173v65h-3q-23 -32 -69 -52.5t-107 -20.5q-39 0 -76 17t-65 50.5t-45 83t-17 115.5q0 65 16 114.5t43.5 83.5t65.5 51t81 17zM296 130q46 0 73.5 32.5t27.5 94.5q0 61 -27.5 94.5t-73.5 33.5q-45 0 -72.5 -32.5t-27.5 -94.5
q0 -63 27 -95.5t73 -32.5z" />
    <glyph glyph-name="e" unicode="e" horiz-adv-x="576" 
d="M201 221q3 -45 31 -70t67 -25q29 0 51.5 13t30.5 42h168q-11 -94 -77 -141.5t-176 -47.5q-128 0 -199 68t-71 199q0 63 19 112.5t54.5 83.5t85 51.5t110.5 17.5q63 0 110.5 -18.5t80 -52.5t48.5 -83t16 -109v-40h-349zM295 393q-36 0 -60.5 -21t-32.5 -55h181
q-6 34 -29.5 55t-58.5 21z" />
    <glyph glyph-name="f" unicode="f" horiz-adv-x="368" 
d="M368 573q-20 2 -32 2.5t-22 -1.5q-23 -2 -32 -12.5t-9 -33.5v-22h82v-117h-82v-389h-180v389h-79v117h79v26q0 48 14 81.5t39.5 54t60.5 30t77 9.5q20 0 40.5 -3t43.5 -8v-123z" />
    <glyph glyph-name="g" unicode="g" horiz-adv-x="609" 
d="M573 519v-494q0 -53 -20.5 -92t-56.5 -64.5t-85.5 -38.5t-106.5 -13q-53 0 -98.5 10t-80.5 31t-58 53.5t-32 76.5h164q11 -23 36 -34t60 -11q46 0 71.5 20.5t25.5 71.5v65h-2q-14 -22 -30 -36.5t-35.5 -23.5t-43.5 -13t-53 -4q-43 0 -81.5 17t-67.5 49.5t-46 79
t-17 104.5q0 62 18 108.5t47.5 78.5t67.5 48t78 16q58 0 101.5 -16.5t68.5 -55.5h3v67h173zM296 161q46 0 73.5 29.5t27.5 83.5q0 51 -27.5 82.5t-73.5 31.5t-73 -30.5t-27 -84.5q0 -51 27.5 -81.5t72.5 -30.5z" />
    <glyph glyph-name="h" unicode="h" horiz-adv-x="602" 
d="M379 524q91 0 139 -49t48 -149v-326h-177v288q0 45 -21.5 72.5t-65.5 27.5q-41 0 -64.5 -30.5t-23.5 -76.5v-281h-179v700h175v-278h1q21 58 63.5 80t104.5 22z" />
    <glyph glyph-name="i" unicode="i" horiz-adv-x="276" 
d="M138 744q48 0 73 -27t25 -65t-25 -64.5t-73 -26.5t-73 26.5t-25 64.5t25 65t73 27zM48 519h180v-519h-180v519z" />
    <glyph glyph-name="j" unicode="j" horiz-adv-x="276" 
d="M138 744q48 0 73 -27t25 -65t-25 -64.5t-73 -26.5t-73 26.5t-25 64.5t25 65t73 27zM48 519h180v-529q0 -48 -14.5 -81t-40 -53.5t-60.5 -29.5t-76 -9q-43 0 -86 10v124q15 -2 24 -2.5t15 -0.5q30 0 44 10t14 37v524z" />
    <glyph glyph-name="k" unicode="k" horiz-adv-x="602" 
d="M596 0h-198q-9 17 -21 37.5t-24.5 42.5t-24.5 43t-22 38q-20 35 -49 42l-41 -39v-164h-181v700h181v-349l155 168h210l-226 -220q28 -5 53 -16t42 -37z" />
    <glyph glyph-name="l" unicode="l" horiz-adv-x="338" 
d="M326 130v-123q-26 -5 -51.5 -7.5t-49.5 -2.5q-78 2 -125 43.5t-47 136.5v524h182v-517q0 -32 20 -45.5t71 -8.5z" />
    <glyph glyph-name="m" unicode="m" horiz-adv-x="903" 
d="M693 525q89 0 132 -49.5t43 -143.5v-332h-179v292q0 43 -16 69.5t-56 26.5t-57.5 -28.5t-17.5 -70.5v-289h-180v292q0 43 -16.5 69.5t-56.5 26.5q-39 0 -57 -28.5t-18 -72.5v-287h-179v519h174v-95h2q20 56 57 78.5t99 22.5q63 0 103 -26.5t57 -74.5h1q23 57 63 79
t102 22z" />
    <glyph glyph-name="n" unicode="n" horiz-adv-x="603" 
d="M379 524q91 0 140 -49t49 -149v-326h-179v288q0 45 -21.5 72.5t-65.5 27.5q-41 0 -64.5 -30.5t-23.5 -76.5v-281h-179v519h175v-97h1q23 57 64 79.5t104 22.5z" />
    <glyph glyph-name="o" unicode="o" horiz-adv-x="584" 
d="M291 524q63 0 114.5 -17t87.5 -51t55.5 -83.5t19.5 -114.5q0 -66 -19.5 -115.5t-55.5 -83t-87 -50.5t-115 -17q-63 0 -114 17t-86.5 50.5t-55 83t-19.5 115.5q0 65 19.5 114.5t55.5 83.5t86.5 51t113.5 17zM291 126q19 0 37 8t32.5 24.5t23 41.5t8.5 58q0 34 -8.5 59
t-23 41.5t-32.5 25t-37 8.5t-37 -8.5t-32 -25t-22.5 -41.5t-8.5 -59q0 -33 8.5 -58t22.5 -41.5t32 -24.5t37 -8z" />
    <glyph glyph-name="p" unicode="p" horiz-adv-x="609" 
d="M388 524q39 0 76 -17t65 -50.5t45 -83t17 -115.5q0 -69 -17 -119t-46 -82.5t-68.5 -48.5t-84.5 -16q-46 0 -86.5 14t-68.5 50h-3v-233h-182v696h175v-69h1q24 34 65.5 54t111.5 20zM312 131q46 0 73.5 32.5t27.5 94.5t-27 95t-74 33q-45 0 -72 -32.5t-27 -94.5t27 -95
t72 -33z" />
    <glyph glyph-name="q" unicode="q" horiz-adv-x="609" 
d="M221 524q70 0 111.5 -20t64.5 -54h1v69h175v-696h-181v233h-3q-28 -36 -68.5 -50t-87.5 -14q-45 0 -84 16t-68.5 48.5t-46 82.5t-16.5 119q0 66 17 115.5t45 83t65 50.5t76 17zM296 131q45 0 72.5 33t27.5 95t-27.5 94.5t-72.5 32.5q-46 0 -73.5 -33t-27.5 -95t28 -94.5
t73 -32.5z" />
    <glyph glyph-name="r" unicode="r" horiz-adv-x="397" 
d="M213 438q17 50 61 72.5t114 13.5v-136q-41 5 -73 -4t-54 -27.5t-33.5 -43t-11.5 -51.5v-262h-179v519h173v-81h3z" />
    <glyph glyph-name="s" unicode="s" horiz-adv-x="531" 
d="M340 311q85 -17 127 -50t42 -92q0 -81 -61 -129t-179 -48q-45 0 -86.5 8.5t-75 28t-56 51t-29.5 78.5h172q6 -21 25.5 -33.5t49.5 -12.5q26 0 42 10.5t16 27.5q0 5 -1.5 10t-7 10t-16.5 9t-30 8l-86 16q-75 14 -116 53t-41 97q0 45 19.5 77t51.5 53t74.5 31t87.5 10
q44 0 83.5 -9t70.5 -29.5t51 -52.5t24 -78h-162q-5 23 -23 35.5t-44 12.5q-23 0 -41 -10t-18 -30q0 -9 7 -16t23 -12.5t42 -11t65 -12.5z" />
    <glyph glyph-name="t" unicode="t" horiz-adv-x="386" 
d="M321 130q22 -3 47 1v-124q-15 -3 -29.5 -5t-28.5 -3q-48 -4 -88.5 3t-70 28t-46 57t-16.5 90v212h-77v117h84v116h173v-116h93v-117h-93v-205q0 -25 12 -38.5t40 -15.5z" />
    <glyph glyph-name="u" unicode="u" horiz-adv-x="603" 
d="M568 519v-519h-174v97h-2q-10 -30 -27.5 -50.5t-39.5 -32.5t-48 -17t-55 -5q-91 0 -139 50t-48 150v327h181v-291q0 -48 21 -74t63 -26t65.5 30t23.5 75v286h179z" />
    <glyph glyph-name="v" unicode="v" horiz-adv-x="562" 
d="M400 0h-234l-171 519h192l97 -378h3l94 378h187z" />
    <glyph glyph-name="w" unicode="w" horiz-adv-x="812" 
d="M692 0h-204l-81 359h-3l-82 -359h-199l-122 519h183l59 -362h3l79 362h166l81 -362h4l57 362h178z" />
    <glyph glyph-name="x" unicode="x" horiz-adv-x="559" 
d="M353 0l-72 168h-3l-72 -168h-196l150 259l-150 260h196l71 -168h3l73 168h197l-152 -260l152 -259h-197z" />
    <glyph glyph-name="y" unicode="y" horiz-adv-x="550" 
d="M555 519q-35 -115 -77.5 -249t-84.5 -266q-15 -51 -39 -87t-56 -58.5t-70.5 -32.5t-81.5 -10q-23 0 -43.5 2.5t-42.5 8.5v123q17 -3 30 -3q15 0 29.5 1.5t26.5 6t20 13t10 22.5q-45 134 -90.5 264.5t-90.5 264.5h192l90 -378h3l88 378h187z" />
    <glyph glyph-name="z" unicode="z" horiz-adv-x="514" 
d="M482 132v-132h-449v91l232 291v4h-232v133h449v-108l-217 -275v-4h217z" />
    <glyph glyph-name="braceleft" unicode="{" horiz-adv-x="420" 
d="M287 458q0 -28 -9 -50.5t-22 -38.5t-28 -26.5t-27 -15.5v-1q13 -6 28 -17.5t28 -29.5t21.5 -42.5t8.5 -56.5v-74q1 -43 20.5 -56t59.5 -13h41v-119h-76q-106 0 -158.5 38t-52.5 122v90q0 48 -22 75.5t-73 32.5v105q51 4 73 31.5t22 75.5v91q0 83 52.5 122t158.5 39h76
v-121h-41q-22 0 -37.5 -3.5t-25 -13t-13.5 -26.5t-4 -44v-74z" />
    <glyph glyph-name="bar" unicode="|" horiz-adv-x="332" 
d="M244 798v-902h-157v902h157z" />
    <glyph glyph-name="braceright" unicode="}" horiz-adv-x="420" 
d="M134 458v74q0 27 -4 44t-14 26.5t-25 13t-38 3.5h-41v121h77q105 0 157.5 -39t52.5 -122v-91q0 -48 22 -75.5t73 -31.5v-105q-51 -5 -73 -32.5t-22 -75.5v-90q0 -84 -52.5 -122t-157.5 -38h-77v119h41q40 0 59.5 13t21.5 56v74q0 32 8.5 56.5t21.5 42.5t28 29.5t28 17.5
v1q-12 5 -27 15.5t-28 26.5t-22 38.5t-9 50.5z" />
    <glyph glyph-name="asciitilde" unicode="~" horiz-adv-x="589" 
d="M211 284q-16 0 -29 -15t-13 -52h-134q0 93 35.5 148t117.5 55q30 0 53.5 -11t45 -24.5t42.5 -24.5t45 -11q20 0 34 16t14 54h132q0 -46 -9.5 -84t-28.5 -65t-48.5 -41.5t-69.5 -14.5q-30 0 -54 11t-46 24t-42.5 24t-44.5 11z" />
    <glyph glyph-name="uni0E33.alt1" horiz-adv-x="471" 
d="M-284 826q65 0 99 -26t34 -77t-34 -76.5t-99 -25.5q-134 0 -134 102q0 51 34 77t100 26zM-284 689q16 0 26 8.5t10 25.5t-10 25.5t-26 8.5q-17 0 -27.5 -8.5t-10.5 -25.5t10.5 -25.5t27.5 -8.5zM252 0v367q0 65 -86 71q-35 2 -70 -4.5t-77 -17.5v133q45 16 91 24t100 8
q46 0 86.5 -9t71 -29t48.5 -52t18 -78v-413h-182z" />
    <glyph glyph-name="uni00AD" horiz-adv-x="295" 
 />
    <glyph glyph-name="exclamdown" unicode="&#xa1;" horiz-adv-x="302" 
d="M150 401q-49 0 -76.5 29t-27.5 69q0 41 27.5 69t76.5 28q51 0 78 -28t27 -69q0 -40 -27 -69t-78 -29zM242 141v-245h-183v245q3 51 6.5 101.5t5.5 102.5h158z" />
    <glyph glyph-name="cent" unicode="&#xa2;" horiz-adv-x="565" 
d="M375 619v-103q73 -16 118 -62.5t53 -121.5h-168q-8 31 -29.5 44.5t-49.5 13.5q-40 0 -66.5 -34.5t-26.5 -97.5t26.5 -97.5t66.5 -34.5q28 0 49.5 13t28.5 42h169q-8 -75 -53 -121t-118 -61v-103h-158v103q-91 18 -141 83.5t-50 175.5t50 175.5t141 82.5v103h158z" />
    <glyph glyph-name="sterling" unicode="&#xa3;" horiz-adv-x="602" 
d="M40 368h75q-18 31 -37 64.5t-19 71.5q0 44 14.5 81.5t45 64.5t79 42.5t117.5 15.5q74 0 123.5 -21t79 -56t42 -80t12.5 -94h-165q0 21 -3.5 41.5t-13.5 36t-28 25t-47 9.5q-69 0 -78 -55q-3 -8 -1.5 -19.5t6.5 -25.5q4 -18 17.5 -44t24.5 -57h177v-117h-173
q-8 -33 -22 -58.5t-31 -49.5v-2h338v-141h-532v106q17 17 33.5 32t30.5 32t24 36.5t14 44.5h-103v117z" />
    <glyph glyph-name="currency" unicode="&#xa4;" horiz-adv-x="550" 
d="M61 332q0 26 6 51.5t22 49.5l-56 54l84 85l56 -55q22 16 47.5 21t52.5 5q26 0 52 -6t48 -20l53 53l91 -82l-59 -57q15 -23 21.5 -48t6.5 -51q0 -28 -6 -53t-22 -48l56 -55l-86 -86l-55 55q-22 -16 -47 -20.5t-53 -4.5q-27 0 -52.5 5.5t-47.5 19.5l-57 -56l-81 90l54 52
q-17 23 -22.5 48t-5.5 53zM180 332q0 -38 25.5 -65.5t67.5 -27.5t66.5 27.5t24.5 65.5q0 37 -24.5 64.5t-66.5 27.5t-67.5 -27.5t-25.5 -64.5z" />
    <glyph glyph-name="yen" unicode="&#xa5;" horiz-adv-x="656" 
d="M191 383l-195 317h215l115 -236h4l115 236h215l-196 -317h89v-110h-133v-53h133v-111h-133v-109h-185v109h-131v111h131v53h-131v110h87z" />
    <glyph glyph-name="brokenbar" unicode="&#xa6;" horiz-adv-x="332" 
d="M244 798v-333h-157v333h157zM244 228v-332h-157v332h157z" />
    <glyph glyph-name="section" unicode="&#xa7;" horiz-adv-x="524" 
d="M184 153q-80 17 -121 50.5t-41 102.5q0 24 6.5 41t17 29t24 21t27.5 16q-34 19 -56.5 52t-22.5 71q0 81 61.5 128.5t179.5 47.5q45 0 87 -8.5t76 -28t56.5 -51.5t29.5 -80h-170q-16 44 -79 44q-29 0 -44.5 -14.5t-15.5 -31.5q0 -11 9.5 -20.5t48.5 -17.5l83 -17
q80 -17 121 -50.5t41 -102.5q0 -24 -6.5 -41.5t-17 -30t-24.5 -21.5t-28 -16q32 -18 56 -51t24 -70q0 -81 -61.5 -128t-179.5 -47q-45 0 -87 8t-75.5 27.5t-56.5 51.5t-30 80h170q17 -44 79 -44q26 0 43 14.5t17 31.5q0 11 -9.5 20.5t-48.5 17.5zM341 319q0 25 -20.5 39
t-53.5 17q-42 3 -63 -14t-21 -42q0 -10 6 -21t18 -19t30 -12.5t41 -1.5q32 1 47.5 17t15.5 37z" />
    <glyph glyph-name="dieresis" unicode="&#xa8;" horiz-adv-x="519" 
d="M291 633q0 18 7.5 33.5t20 27.5t29 19t35.5 7q18 0 34 -7t28 -19t19.5 -27.5t7.5 -33.5q0 -19 -7.5 -35.5t-19.5 -29.5t-28 -20.5t-34 -7.5q-19 0 -35.5 7.5t-29 20.5t-20 29.5t-7.5 35.5zM46 633q0 18 7 33.5t19.5 27.5t29.5 19t36 7q18 0 34 -7t28.5 -19t19.5 -27.5
t7 -33.5q0 -19 -7 -35.5t-19.5 -29.5t-28.5 -20.5t-34 -7.5q-19 0 -36 7.5t-29.5 20.5t-19.5 29.5t-7 35.5z" />
    <glyph glyph-name="copyright" unicode="&#xa9;" horiz-adv-x="794" 
d="M19 342q0 78 29.5 147t81 120.5t120.5 81t147 29.5t147 -29.5t120.5 -81t81 -120.5t29.5 -147t-29.5 -146.5t-81 -120t-120.5 -81t-147 -29.5t-147 29.5t-120.5 81t-81 120t-29.5 146.5zM128 342q0 -55 21 -104t57.5 -85.5t85.5 -57.5t105 -21t105 21t86 57.5t58 85.5
t21 104q0 56 -21 105.5t-58 86t-86 58t-105 21.5t-105 -21.5t-85.5 -58t-57.5 -86t-21 -105.5zM403 227q27 0 45 14t25 43h123q-3 -36 -19 -65t-41.5 -49t-59 -31t-73.5 -11q-98 0 -153.5 55.5t-55.5 160.5q0 104 55.5 159t153.5 55q39 0 72.5 -11t59 -31t42 -48.5
t19.5 -63.5h-124q-6 28 -24 42.5t-45 14.5q-39 0 -61.5 -30t-22.5 -87q0 -58 22.5 -87.5t61.5 -29.5z" />
    <glyph glyph-name="ordfeminine" unicode="&#xaa;" horiz-adv-x="392" 
d="M205 708q71 0 112.5 -30.5t41.5 -79.5v-206h-117v43h-2q-12 -24 -41 -36.5t-57 -12.5q-22 0 -42 6.5t-35 19t-23.5 30.5t-8.5 40q0 47 34.5 71.5t98.5 29.5l71 4v5q0 33 -38 33q-15 0 -26 -5t-13 -14h-110q7 48 47 75t108 27zM237 523l-50 -3q-34 -4 -34 -29
q0 -14 10 -19t24 -5q20 0 35 13.5t15 31.5v11z" />
    <glyph glyph-name="guillemotleft" unicode="&#xab;" horiz-adv-x="924" 
d="M881 636v-172l-262 -146v-1l262 -148v-170l-450 271v93zM493 636v-172l-262 -146v-1l262 -148v-170l-451 271v93z" />
    <glyph glyph-name="logicalnot" unicode="&#xac;" horiz-adv-x="490" 
d="M282 141v105h-247v140h419v-245h-172z" />
    <glyph glyph-name="registered" unicode="&#xae;" horiz-adv-x="794" 
d="M19 342q0 78 29.5 147t81 120.5t120.5 81t147 29.5t147 -29.5t120.5 -81t81 -120.5t29.5 -147t-29.5 -146.5t-81 -120t-120.5 -81t-147 -29.5t-147 29.5t-120.5 81t-81 120t-29.5 146.5zM128 342q0 -55 21 -104t57.5 -85.5t85.5 -57.5t105 -21q48 0 90.5 14.5t76.5 42.5
h-93l-79 157h-28v-157h-124v419h205q63 0 99.5 -35.5t36.5 -95.5q0 -43 -19.5 -73.5t-57.5 -42.5l84 -150q37 37 58 85.5t21 103.5q0 56 -21 105.5t-58 86t-86 58t-105 21.5t-105 -21.5t-85.5 -58t-57.5 -86t-21 -105.5zM364 381h56q22 0 34.5 10.5t12.5 27.5t-12.5 27.5
t-34.5 10.5h-56v-76z" />
    <glyph glyph-name="macron" unicode="&#xaf;" horiz-adv-x="587" 
d="M572 738h-557v130h557v-130z" />
    <glyph glyph-name="degree" unicode="&#xb0;" horiz-adv-x="416" 
d="M209 368q-40 0 -73 12.5t-56.5 35t-36.5 53.5t-13 69q0 76 47.5 123t131.5 47q39 0 72 -12.5t56 -35t36 -53.5t13 -69t-13 -69t-36 -53.5t-56 -35t-72 -12.5zM209 483q29 0 41.5 15t12.5 40q0 27 -13 42t-41 15q-30 0 -43 -15t-13 -42q0 -25 13 -40t43 -15z" />
    <glyph glyph-name="plusminus" unicode="&#xb1;" horiz-adv-x="589" 
d="M554 318h-179v-142h-161v142h-179v128h179v142h161v-142h179v-128zM554 0h-519v128h519v-128z" />
    <glyph glyph-name="twosuperior" unicode="&#xb2;" horiz-adv-x="392" 
d="M211 461v-3h148v-92h-322v68q32 31 61 58l50 48t39 37q18 18 29 30.5t17 21t8 15t2 12.5q0 21 -10.5 32t-37.5 11q-16 0 -26.5 -5.5t-16 -14.5t-7.5 -20t-2 -23h-110q0 30 8 57.5t26.5 49t50 34.5t77.5 13q85 0 124.5 -35.5t39.5 -89.5q0 -22 -3.5 -37t-12 -29.5t-24 -31
t-39.5 -40.5z" />
    <glyph glyph-name="threesuperior" unicode="&#xb3;" horiz-adv-x="418" 
d="M314 583q31 -10 51 -34t20 -66q0 -21 -9.5 -43t-30.5 -40t-55.5 -29t-84.5 -11q-43 0 -75.5 13t-54 34.5t-32 49.5t-10.5 59h113q0 -9 4 -19.5t11.5 -19.5t18.5 -15t26 -6q25 0 40.5 10t15.5 38q0 19 -15 26.5t-37 7.5h-35v80h34q20 0 34.5 11.5t14.5 28.5q0 23 -14 32.5
t-37 9.5q-29 0 -43 -19t-14 -45h-109q0 68 42 111t123 43q44 0 76 -9.5t52.5 -25t30.5 -35t10 -39.5q0 -43 -16.5 -64t-44.5 -33v-1z" />
    <glyph glyph-name="acute" unicode="&#xb4;" horiz-adv-x="357" 
d="M33 588l109 205h183l-137 -205h-155z" />
    <glyph glyph-name="uni00B5" unicode="&#xb5;" horiz-adv-x="603" 
d="M393 0v78h-1q-14 -42 -41 -64t-71 -22q-23 0 -42 6t-29 20h-2v-195h-172v696h179v-290q0 -48 23 -74.5t63 -26.5q27 0 44 11.5t26.5 32t13.5 47.5t4 57v243h180v-519h-175z" />
    <glyph glyph-name="paragraph" unicode="&#xb6;" horiz-adv-x="745" 
d="M671 0h-155v570h-81v-570h-154v281q-14 -4 -32 -6.5t-33 -2.5q-43 0 -78 11.5t-60 36.5t-38.5 65.5t-13.5 97.5q0 62 14.5 103.5t41.5 66.5t64.5 36t82.5 11h442v-700z" />
    <glyph glyph-name="periodcentered" unicode="&#xb7;" horiz-adv-x="337" 
d="M60 317q0 22 8.5 41t23 33.5t34.5 23t43 8.5t42.5 -8.5t34 -23t23 -33.5t8.5 -41q0 -23 -8.5 -43.5t-23 -35.5t-34 -23.5t-42.5 -8.5t-43 8.5t-34.5 23.5t-23 35.5t-8.5 43.5z" />
    <glyph glyph-name="cedilla" unicode="&#xb8;" horiz-adv-x="404" 
d="M56 -285l109 204h183l-137 -204h-155z" />
    <glyph glyph-name="onesuperior" unicode="&#xb9;" horiz-adv-x="287" 
d="M162 782h92v-419h-124v317l-97 -22v88z" />
    <glyph glyph-name="ordmasculine" unicode="&#xba;" horiz-adv-x="443" 
d="M221 790q87 0 138.5 -54t51.5 -159t-51 -160t-139 -55q-87 0 -137.5 55t-50.5 160t51.5 159t136.5 54zM221 460q29 0 45 25t16 92q0 66 -16 90.5t-45 24.5q-28 0 -44 -24.5t-16 -90.5q0 -67 16 -92t44 -25z" />
    <glyph glyph-name="guillemotright" unicode="&#xbb;" horiz-adv-x="924" 
d="M493 363v-93l-451 -271v170l262 148v1l-262 146v172zM881 363v-93l-450 -271v170l262 148v1l-262 146v172z" />
    <glyph glyph-name="onequarter" unicode="&#xbc;" horiz-adv-x="791" 
d="M557 700l-253 -700h-124l254 700h123zM138 700h91v-419h-124v317l-97 -22v89zM733 165h50v-93h-46v-72h-123v72h-196v79l208 268h107v-254zM621 267l-81 -105h81v105z" />
    <glyph glyph-name="onehalf" unicode="&#xbd;" horiz-adv-x="826" 
d="M138 700h91v-419h-124v317l-97 -22v89zM557 700l-253 -700h-124l254 700h123zM647 96v-3h147v-93h-322v68q32 31 61 58l50 48t39 37q18 18 29 30.5t17 21.5t8 15.5t2 12.5q0 20 -10.5 31t-37.5 11q-32 0 -41.5 -19.5t-9.5 -43.5h-111q0 30 8 57.5t26.5 49t50 34.5
t77.5 13q86 0 125 -35.5t39 -89.5q0 -21 -3.5 -36.5t-12 -30t-24 -31t-39.5 -40.5z" />
    <glyph glyph-name="threequarters" unicode="&#xbe;" horiz-adv-x="901" 
d="M307 501q31 -10 51 -34t20 -66q0 -21 -9.5 -43t-30.5 -40t-55.5 -29t-84.5 -11q-43 0 -75.5 13t-54 34.5t-32 49.5t-10.5 59h113q0 -9 4 -19.5t11.5 -19.5t18.5 -15t26 -6q25 0 40.5 10t15.5 38q0 20 -15 27t-37 7h-35v80h34q20 0 34.5 11.5t14.5 28.5q0 23 -13.5 32.5
t-36.5 9.5q-29 0 -43.5 -19t-14.5 -45h-109q0 68 42 111t123 43q44 0 76 -9.5t52.5 -24.5t30.5 -34.5t10 -40.5q0 -43 -16.5 -63.5t-44.5 -33.5v-1zM666 700l-253 -700h-124l254 700h123zM842 165h50v-93h-46v-72h-123v72h-196v79l208 268h107v-254zM730 267l-80 -105h80
v105z" />
    <glyph glyph-name="questiondown" unicode="&#xbf;" horiz-adv-x="569" 
d="M277 401q-50 0 -77 29t-27 69q0 41 27 69t77 28q51 0 78 -28t27 -69q0 -40 -27 -69t-78 -29zM287 -112q-134 0 -194 51t-60 143q0 36 11 62.5t28 47.5t36 38t36 33t28 33t11 37v12h194v-12q1 -32 -11.5 -56t-31.5 -44t-41.5 -36.5t-41.5 -33t-32 -34t-13 -38.5
q0 -26 17 -45t58 -19q40 0 62 26.5t27 65.5h166q-2 -46 -17.5 -88t-45.5 -73.5t-76.5 -50.5t-109.5 -19z" />
    <glyph glyph-name="Acircumflex" unicode="&#xc2;" horiz-adv-x="697" 
d="M553 750h-148l-58 95h-5l-58 -95h-145l149 228h115zM505 0l-40 136h-234l-40 -136h-196l234 700h239l235 -700h-198zM430 269l-81 271h-4l-78 -271h163z" />
    <glyph glyph-name="Adieresis" unicode="&#xc4;" horiz-adv-x="697" 
d="M379 862q0 18 7 34t19.5 28.5t29.5 19.5t36 7q17 0 33 -7t28 -19.5t19.5 -28.5t7.5 -34q0 -19 -7.5 -35.5t-19.5 -29t-28 -19.5t-33 -7q-19 0 -36 7t-29.5 19.5t-19.5 29t-7 35.5zM134 862q0 18 7 34t19.5 28.5t29 19.5t35.5 7q18 0 34 -7t28.5 -19.5t19.5 -28.5t7 -34
q0 -19 -7 -35.5t-19.5 -29t-28.5 -19.5t-34 -7q-38 0 -64.5 26.5t-26.5 64.5zM505 0l-40 136h-234l-40 -136h-196l234 700h239l235 -700h-198zM430 269l-81 271h-4l-78 -271h163z" />
    <glyph glyph-name="Aring" unicode="&#xc5;" horiz-adv-x="682" 
d="M186 793q0 70 43.5 114.5t119.5 44.5q36 0 66 -12t51.5 -33t33.5 -50t12 -64q0 -65 -41 -109l232 -684h-198l-40 136h-234l-40 -136h-196l230 685q-18 20 -28.5 48t-10.5 60zM349 744q26 0 38.5 13.5t12.5 35.5q0 25 -13 39t-38 14q-26 0 -39 -14t-13 -39q0 -22 13 -35.5
t39 -13.5zM430 269l-81 271h-4l-78 -271h163z" />
    <glyph glyph-name="AE" unicode="&#xc6;" horiz-adv-x="1048" 
d="M680 559v-139h278v-140h-278v-141h335v-139h-521v136h-213l-79 -136h-207l425 700h595v-141h-335zM494 269v239l-139 -239h139z" />
    <glyph glyph-name="Ccedilla" unicode="&#xc7;" horiz-adv-x="704" 
d="M367 139q51 0 85 26t47 77h186q-7 -57 -33 -103.5t-68 -79t-97 -50t-120 -17.5q-79 0 -142 24t-107.5 69.5t-68 112.5t-23.5 153t24 152.5t68 112t107 69t142 23.5q63 0 118 -18t97 -50.5t68.5 -79t33.5 -103.5h-186q-12 50 -46 77t-85 27q-71 0 -112 -55t-41 -155
q0 -103 40.5 -157.5t112.5 -54.5zM362 -285h-156l109 204h183z" />
    <glyph glyph-name="Ecircumflex" unicode="&#xca;" horiz-adv-x="594" 
d="M513 750h-147l-59 95h-4l-59 -95h-144l148 228h115zM225 559v-139h279v-140h-279v-141h336v-139h-521v700h521v-141h-336z" />
    <glyph glyph-name="Edieresis" unicode="&#xcb;" horiz-adv-x="594" 
d="M340 862q0 18 7 34t19.5 28.5t29 19.5t35.5 7q18 0 34 -7t28 -19.5t19.5 -28.5t7.5 -34q0 -19 -7.5 -35.5t-19.5 -29t-28 -19.5t-34 -7q-38 0 -64.5 26.5t-26.5 64.5zM94 862q0 18 7 34t19.5 28.5t29.5 19.5t36 7q18 0 34 -7t28 -19.5t19 -28.5t7 -34q0 -19 -7 -35.5
t-19 -29t-28 -19.5t-34 -7q-19 0 -36 7t-29.5 19.5t-19.5 29t-7 35.5zM225 559v-139h279v-140h-279v-141h336v-139h-521v700h521v-141h-336z" />
    <glyph glyph-name="Icircumflex" unicode="&#xce;" horiz-adv-x="277" 
d="M345 750h-147l-59 95h-4l-59 -95h-144l149 228h114zM46 700h185v-700h-185v700z" />
    <glyph glyph-name="Idieresis" unicode="&#xcf;" horiz-adv-x="277" 
d="M171 862q0 18 7 34t19.5 28.5t29 19.5t35.5 7q17 0 33 -7t28.5 -19.5t20 -28.5t7.5 -34q0 -19 -7.5 -35.5t-20 -29t-28.5 -19.5t-33 -7q-19 0 -35.5 7t-29 19.5t-19.5 29t-7 35.5zM-74 862q0 18 7 34t19.5 28.5t29.5 19.5t36 7q18 0 34 -7t28 -19.5t19 -28.5t7 -34
q0 -19 -7 -35.5t-19 -29t-28 -19.5t-34 -7q-19 0 -36 7t-29.5 19.5t-19.5 29t-7 35.5zM46 700h185v-700h-185v700z" />
    <glyph glyph-name="Eth" unicode="&#xd0;" horiz-adv-x="749" 
d="M12 408h86v292h276q80 0 144.5 -22.5t110 -66t70 -108t24.5 -148.5t-24.5 -150t-70 -111.5t-110 -69.5t-144.5 -24h-276v297h-86v111zM348 139q85 0 130.5 55.5t45.5 160.5q0 97 -46.5 150.5t-128.5 53.5h-65v-151h136v-111h-136v-158h64z" />
    <glyph glyph-name="Ntilde" unicode="&#xd1;" horiz-adv-x="707" 
d="M284 832q-17 0 -29 -14.5t-12 -50.5h-132q0 94 33.5 142t116.5 48q29 0 52.5 -11t44.5 -24t41.5 -24t43.5 -11q19 0 33 15.5t15 52.5h131q0 -91 -37 -140.5t-117 -49.5q-30 0 -53.5 10.5t-45 23t-42 23t-43.5 10.5zM486 700h181v-700h-159l-283 407h-4v-407h-181v700h161
l281 -401h4v401z" />
    <glyph glyph-name="Ocircumflex" unicode="&#xd4;" horiz-adv-x="733" 
d="M427 978l149 -228h-148l-58 95h-3l-59 -95h-146l149 228h116zM367 708q80 0 144 -24.5t109 -70.5t69.5 -112.5t24.5 -149.5q0 -84 -24.5 -150.5t-69.5 -113t-109 -71t-144 -24.5t-144.5 24.5t-109.5 71t-69.5 113t-24.5 150.5q0 83 24.5 149.5t69.5 112.5t109.5 70.5
t144.5 24.5zM367 143q72 0 112.5 54t40.5 154q0 99 -40.5 151t-112.5 52q-73 0 -113.5 -52t-40.5 -151q0 -100 40.5 -154t113.5 -54z" />
    <glyph glyph-name="Odieresis" unicode="&#xd6;" horiz-adv-x="733" 
d="M397 862q0 18 7 34t19.5 28.5t29 19.5t35.5 7q18 0 34 -7t28.5 -19.5t19.5 -28.5t7 -34q0 -19 -7 -35.5t-19.5 -29t-28.5 -19.5t-34 -7q-38 0 -64.5 26.5t-26.5 64.5zM151 862q0 18 7.5 34t20.5 28.5t29.5 19.5t35.5 7q18 0 34 -7t28 -19.5t19 -28.5t7 -34
q0 -19 -7 -35.5t-19 -29t-28 -19.5t-34 -7q-38 0 -65.5 26.5t-27.5 64.5zM367 708q80 0 144 -24.5t109 -70.5t69.5 -112.5t24.5 -149.5q0 -84 -24.5 -150.5t-69.5 -113t-109 -71t-144 -24.5t-144.5 24.5t-109.5 71t-69.5 113t-24.5 150.5q0 83 24.5 149.5t69.5 112.5
t109.5 70.5t144.5 24.5zM367 143q72 0 112.5 54t40.5 154q0 99 -40.5 151t-112.5 52q-73 0 -113.5 -52t-40.5 -151q0 -100 40.5 -154t113.5 -54z" />
    <glyph glyph-name="multiply" unicode="&#xd7;" horiz-adv-x="553" 
d="M375 315l142 -139l-101 -101l-140 141l-140 -141l-101 101l142 139l-142 142l100 98l141 -140l142 140l99 -98z" />
    <glyph glyph-name="Oslash" unicode="&#xd8;" horiz-adv-x="733" 
d="M367 708q80 0 144 -24.5t109 -70.5t69.5 -112.5t24.5 -149.5q0 -84 -24.5 -150.5t-69.5 -113t-109 -71t-144 -24.5t-144.5 24.5t-109.5 71t-69.5 113t-24.5 150.5q0 83 24.5 149.5t69.5 112.5t109.5 70.5t144.5 24.5zM213 351q0 -88 33 -135l121 335q-73 2 -113.5 -50.5
t-40.5 -149.5zM359 145q76 -5 118.5 49.5t42.5 156.5q0 89 -36 137z" />
    <glyph glyph-name="Ucircumflex" unicode="&#xdb;" horiz-adv-x="685" 
d="M400 978l149 -228h-148l-59 95h-2l-59 -95h-146l149 228h116zM224 269q0 -62 30.5 -93t87.5 -31q118 0 118 124v431h185v-452q0 -59 -21.5 -106.5t-61.5 -80.5t-96 -51t-124 -18t-124 18t-95.5 51t-61 80.5t-21.5 106.5v452h184v-431z" />
    <glyph glyph-name="Udieresis" unicode="&#xdc;" horiz-adv-x="685" 
d="M131 862q0 18 7 34t19.5 28.5t29 19.5t35.5 7q18 0 34 -7t28 -19.5t19.5 -28.5t7.5 -34q0 -19 -7.5 -35.5t-19.5 -29t-28 -19.5t-34 -7q-38 0 -64.5 26.5t-26.5 64.5zM375 862q0 18 7.5 34t20.5 28.5t29.5 19.5t35.5 7q17 0 33 -7t28 -19.5t19 -28.5t7 -34
q0 -38 -26 -64.5t-61 -26.5q-38 0 -65.5 26.5t-27.5 64.5zM224 269q0 -62 30.5 -93t87.5 -31q118 0 118 124v431h185v-452q0 -59 -21.5 -106.5t-61.5 -80.5t-96 -51t-124 -18t-124 18t-95.5 51t-61 80.5t-21.5 106.5v452h184v-431z" />
    <glyph glyph-name="Thorn" unicode="&#xde;" horiz-adv-x="611" 
d="M224 564h142q52 0 93.5 -15t71 -43t45 -68t15.5 -89t-15.5 -89t-45 -67.5t-71 -42.5t-93.5 -15h-142v-135h-184v700h184v-136zM224 423v-149h98q45 0 71 18.5t26 56.5q0 35 -24 54.5t-68 19.5h-103z" />
    <glyph glyph-name="germandbls" unicode="&#xdf;" horiz-adv-x="674" 
d="M40 0v487q0 104 67.5 162.5t209.5 58.5q71 0 123.5 -20t87.5 -51.5t52.5 -70.5t17.5 -76q0 -21 -6 -44t-18 -42.5t-29 -33.5t-40 -18q30 -4 55 -15.5t44 -29t29.5 -41.5t10.5 -53q0 -64 -21 -106.5t-56 -68t-80.5 -36t-94.5 -10.5q-51 0 -101 9v123q27 -3 56.5 0t54 13.5
t40 29t15.5 46.5q0 20 -11.5 34t-29 23.5t-38.5 14t-41 4.5h-33v123h33q39 0 61 20.5t22 54.5t-26 54.5t-77 20.5t-74 -26.5t-23 -83.5v-452h-180z" />
    <glyph glyph-name="acircumflex" unicode="&#xe2;" horiz-adv-x="580" 
d="M509 569h-147l-59 93h-4l-59 -93h-144l148 228h115zM299 524q57 0 102 -13t77 -37t49 -57.5t17 -74.5v-342h-174v76h-3q-10 -21 -28.5 -36.5t-41 -26t-48 -16t-50.5 -5.5q-36 0 -68.5 11t-56.5 31.5t-38 49t-14 63.5q0 78 55.5 118.5t161.5 46.5l124 9v13
q0 31 -19.5 48.5t-54.5 17.5q-29 0 -51 -11t-27 -33h-162q9 77 74.5 122.5t175.5 45.5zM363 224l-96 -7q-34 -2 -50 -16.5t-16 -38.5q0 -26 19 -38.5t45 -12.5q20 0 37.5 7.5t31 20t21.5 28.5t8 34v23z" />
    <glyph glyph-name="adieresis" unicode="&#xe4;" horiz-adv-x="580" 
d="M341 680q0 17 7.5 33t20 28t29.5 19.5t36 7.5q17 0 33 -7.5t28 -19.5t19 -28t7 -33q0 -19 -7 -36t-19 -29.5t-28 -20t-33 -7.5q-19 0 -36 7.5t-29.5 20t-20 29.5t-7.5 36zM97 680q0 17 7 33t19.5 28t29 19.5t35.5 7.5q18 0 34 -7.5t28 -19.5t19.5 -28t7.5 -33
q0 -19 -7.5 -36t-19.5 -29.5t-28 -20t-34 -7.5q-19 0 -35.5 7.5t-29 20t-19.5 29.5t-7 36zM299 524q57 0 102 -13t77 -37t49 -57.5t17 -74.5v-342h-174v76h-3q-10 -21 -28.5 -36.5t-41 -26t-48 -16t-50.5 -5.5q-36 0 -68.5 11t-56.5 31.5t-38 49t-14 63.5q0 78 55.5 118.5
t161.5 46.5l124 9v13q0 31 -19.5 48.5t-54.5 17.5q-29 0 -51 -11t-27 -33h-162q9 77 74.5 122.5t175.5 45.5zM363 224l-96 -7q-34 -2 -50 -16.5t-16 -38.5q0 -26 19 -38.5t45 -12.5q20 0 37.5 7.5t31 20t21.5 28.5t8 34v23z" />
    <glyph glyph-name="aring" unicode="&#xe5;" horiz-adv-x="580" 
d="M165 719q0 62 39.5 100.5t106.5 38.5q64 0 103 -38.5t39 -100.5q0 -30 -10 -55.5t-29 -43.5t-45 -28.5t-58 -10.5t-59 10.5t-46.5 28.5t-30 43.5t-10.5 55.5zM311 674q22 0 33 12.5t11 32.5q0 23 -11 35.5t-33 12.5q-23 0 -35.5 -12.5t-12.5 -35.5q0 -20 12.5 -32.5
t35.5 -12.5zM299 524q57 0 102 -13t77 -37t49 -57.5t17 -74.5v-342h-174v76h-3q-10 -21 -28.5 -36.5t-41 -26t-48 -16t-50.5 -5.5q-36 0 -68.5 11t-56.5 31.5t-38 49t-14 63.5q0 78 55.5 118.5t161.5 46.5l124 9v13q0 31 -19.5 48.5t-54.5 17.5q-29 0 -51 -11t-27 -33h-162
q9 77 74.5 122.5t175.5 45.5zM363 224l-96 -7q-34 -2 -50 -16.5t-16 -38.5q0 -26 19 -38.5t45 -12.5q20 0 37.5 7.5t31 20t21.5 28.5t8 34v23z" />
    <glyph glyph-name="ae" unicode="&#xe6;" horiz-adv-x="910" 
d="M534 221q4 -45 32 -70t67 -25q29 0 51.5 13t30.5 42h168q-11 -94 -77 -141.5t-176 -47.5q-136 0 -204 76q-22 -27 -50 -42t-57 -22.5t-57 -9.5t-49 -2q-36 0 -70.5 11t-61.5 31.5t-43 49t-16 63.5q0 79 57.5 120t167.5 47l117 7v13q0 31 -20 48.5t-55 17.5q-29 0 -51 -11
t-27 -33h-162q9 77 74.5 122.5t175.5 45.5q52 0 95 -12.5t74 -35.5q32 23 72.5 35.5t88.5 12.5q63 0 110.5 -18.5t80 -52.5t48.5 -83t16 -109v-40h-350zM628 393q-36 0 -60 -21t-32 -55h182q-6 34 -29.5 55t-60.5 21zM364 224l-97 -7q-34 -2 -50 -17t-16 -38q0 -26 20 -38.5
t46 -12.5q19 0 36.5 7.5t31 20t21.5 28.5t8 34v23z" />
    <glyph glyph-name="ccedilla" unicode="&#xe7;" horiz-adv-x="565" 
d="M299 126q28 0 49.5 13t28.5 42h169q-11 -94 -76 -141.5t-174 -47.5q-128 0 -199 67t-71 199q0 130 71.5 198t197.5 68q107 0 173.5 -49t77.5 -143h-168q-8 31 -29.5 44.5t-49.5 13.5q-40 0 -66.5 -34.5t-26.5 -97.5t26.5 -97.5t66.5 -34.5zM297 -285h-155l109 204h183z
" />
    <glyph glyph-name="ecircumflex" unicode="&#xea;" horiz-adv-x="576" 
d="M505 569h-148l-58 93h-4l-59 -93h-145l148 228h116zM201 221q3 -45 31 -70t67 -25q29 0 51.5 13t30.5 42h168q-11 -94 -77 -141.5t-176 -47.5q-128 0 -199 68t-71 199q0 63 19 112.5t54.5 83.5t85 51.5t110.5 17.5q63 0 110.5 -18.5t80 -52.5t48.5 -83t16 -109v-40h-349z
M295 393q-36 0 -60.5 -21t-32.5 -55h181q-6 34 -29.5 55t-58.5 21z" />
    <glyph glyph-name="edieresis" unicode="&#xeb;" horiz-adv-x="576" 
d="M327 680q0 17 7.5 33t20.5 28t29.5 19.5t35.5 7.5q18 0 34 -7.5t28 -19.5t19 -28t7 -33q0 -19 -7 -36t-19 -29.5t-28 -20t-34 -7.5q-19 0 -35.5 7.5t-29.5 20t-20.5 29.5t-7.5 36zM82 680q0 17 7.5 33t20 28t29.5 19.5t36 7.5q17 0 33 -7.5t28 -19.5t19.5 -28t7.5 -33
q0 -19 -7.5 -36t-19.5 -29.5t-28 -20t-33 -7.5q-19 0 -36 7.5t-29.5 20t-20 29.5t-7.5 36zM201 221q3 -45 31 -70t67 -25q29 0 51.5 13t30.5 42h168q-11 -94 -77 -141.5t-176 -47.5q-128 0 -199 68t-71 199q0 63 19 112.5t54.5 83.5t85 51.5t110.5 17.5q63 0 110.5 -18.5
t80 -52.5t48.5 -83t16 -109v-40h-349zM295 393q-36 0 -60.5 -21t-32.5 -55h181q-6 34 -29.5 55t-58.5 21z" />
    <glyph glyph-name="icircumflex" unicode="&#xee;" horiz-adv-x="276" 
d="M344 569h-146l-59 93h-4l-59 -93h-144l147 228h116zM48 519h180v-519h-180v519z" />
    <glyph glyph-name="idieresis" unicode="&#xef;" horiz-adv-x="276" 
d="M171 680q0 17 7.5 33t20 28t29 19.5t35.5 7.5q18 0 34 -7.5t28 -19.5t19 -28t7 -33q0 -19 -7 -36t-19 -29.5t-28 -20t-34 -7.5q-19 0 -35.5 7.5t-29 20t-20 29.5t-7.5 36zM-75 680q0 17 7.5 33t20 28t29.5 19.5t36 7.5q17 0 33 -7.5t28 -19.5t19.5 -28t7.5 -33
q0 -19 -7.5 -36t-19.5 -29.5t-28 -20t-33 -7.5q-19 0 -36 7.5t-29.5 20t-20 29.5t-7.5 36zM48 519h180v-519h-180v519z" />
    <glyph glyph-name="eth" unicode="&#xf0;" horiz-adv-x="648" 
d="M625 654l-93 -55q42 -43 66 -103t24 -136q0 -86 -20 -154t-59 -115.5t-95.5 -73t-129.5 -25.5q-61 0 -113.5 17t-90.5 49t-59.5 77.5t-21.5 101.5q0 40 16 79t45 69.5t71 49t93 18.5q73 0 122.5 -21.5t80.5 -60.5h3q0 45 -14 85.5t-42 70.5l-105 -62l-30 56l79 45
q-19 10 -38.5 15.5t-43.5 5.5v121q57 0 111 -16.5t99 -48.5l114 67zM321 123q23 0 43 8.5t35 23.5t23.5 35t8.5 43t-8.5 42.5t-23.5 34t-35.5 23t-44.5 8.5q-23 0 -43 -8t-34.5 -22.5t-23 -34.5t-8.5 -44q0 -22 8.5 -42t23.5 -35t35.5 -23.5t43.5 -8.5z" />
    <glyph glyph-name="ntilde" unicode="&#xf1;" horiz-adv-x="603" 
d="M237 656q-16 0 -25 -14t-9 -50h-132q0 47 7 82t23.5 58.5t43.5 35.5t68 12q27 0 48.5 -10.5t41 -22.5t39 -22.5t40.5 -10.5q17 0 27.5 14.5t10.5 51.5h133q0 -91 -34 -140t-114 -49q-27 0 -49 10t-41.5 22.5t-38.5 22.5t-39 10zM379 524q91 0 140 -49t49 -149v-326h-179
v288q0 45 -21.5 72.5t-65.5 27.5q-41 0 -64.5 -30.5t-23.5 -76.5v-281h-179v519h175v-97h1q23 57 64 79.5t104 22.5z" />
    <glyph glyph-name="ocircumflex" unicode="&#xf4;" horiz-adv-x="584" 
d="M497 569h-148l-58 93h-3l-59 -93h-146l149 228h116zM291 524q63 0 114.5 -17t87.5 -51t55.5 -83.5t19.5 -114.5q0 -66 -19.5 -115.5t-55.5 -83t-87 -50.5t-115 -17q-63 0 -114 17t-86.5 50.5t-55 83t-19.5 115.5q0 65 19.5 114.5t55.5 83.5t86.5 51t113.5 17zM291 126
q19 0 37 8t32.5 24.5t23 41.5t8.5 58q0 34 -8.5 59t-23 41.5t-32.5 25t-37 8.5t-37 -8.5t-32 -25t-22.5 -41.5t-8.5 -59q0 -33 8.5 -58t22.5 -41.5t32 -24.5t37 -8z" />
    <glyph glyph-name="odieresis" unicode="&#xf6;" horiz-adv-x="584" 
d="M325 680q0 17 7 33t19.5 28t29 19.5t35.5 7.5q18 0 34 -7.5t28 -19.5t19.5 -28t7.5 -33q0 -19 -7.5 -36t-19.5 -29.5t-28 -20t-34 -7.5q-19 0 -35.5 7.5t-29 20t-19.5 29.5t-7 36zM79 680q0 17 7.5 33t20 28t29.5 19.5t36 7.5q17 0 33 -7.5t28 -19.5t19 -28t7 -33
q0 -19 -7 -36t-19 -29.5t-28 -20t-33 -7.5q-19 0 -36 7.5t-29.5 20t-20 29.5t-7.5 36zM291 524q63 0 114.5 -17t87.5 -51t55.5 -83.5t19.5 -114.5q0 -66 -19.5 -115.5t-55.5 -83t-87 -50.5t-115 -17q-63 0 -114 17t-86.5 50.5t-55 83t-19.5 115.5q0 65 19.5 114.5t55.5 83.5
t86.5 51t113.5 17zM291 126q19 0 37 8t32.5 24.5t23 41.5t8.5 58q0 34 -8.5 59t-23 41.5t-32.5 25t-37 8.5t-37 -8.5t-32 -25t-22.5 -41.5t-8.5 -59q0 -33 8.5 -58t22.5 -41.5t32 -24.5t37 -8z" />
    <glyph glyph-name="divide" unicode="&#xf7;" horiz-adv-x="589" 
d="M192 505q0 39 27.5 66.5t75.5 27.5q47 0 74 -27.5t27 -66.5q0 -38 -27 -65.5t-74 -27.5q-48 0 -75.5 27.5t-27.5 65.5zM554 257h-519v120h519v-120zM192 127q0 39 27.5 66.5t75.5 27.5q47 0 74 -27.5t27 -66.5t-27 -66.5t-74 -27.5q-48 0 -75.5 27.5t-27.5 66.5z" />
    <glyph glyph-name="oslash" unicode="&#xf8;" horiz-adv-x="584" 
d="M291 524q63 0 114.5 -17t87.5 -51t55.5 -83.5t19.5 -114.5q0 -66 -19.5 -115.5t-55.5 -83t-87 -50.5t-115 -17q-63 0 -114 17t-86.5 50.5t-55 83t-19.5 115.5q0 65 19.5 114.5t55.5 83.5t86.5 51t113.5 17zM191 258q0 -27 5.5 -48t14.5 -37l80 219q-19 -1 -37.5 -9.5
t-32 -25t-22 -41.5t-8.5 -58zM295 126q19 0 36.5 9t31 25.5t21.5 41t8 56.5q0 26 -5 46t-14 37z" />
    <glyph glyph-name="ucircumflex" unicode="&#xfb;" horiz-adv-x="603" 
d="M360 797l150 -228h-147l-59 93h-4l-58 -93h-145l149 228h114zM568 519v-519h-174v97h-2q-10 -30 -27.5 -50.5t-39.5 -32.5t-48 -17t-55 -5q-91 0 -139 50t-48 150v327h181v-291q0 -48 21 -74t63 -26t65.5 30t23.5 75v286h179z" />
    <glyph glyph-name="udieresis" unicode="&#xfc;" horiz-adv-x="603" 
d="M91 680q0 17 7 33t19.5 28t29.5 19.5t36 7.5q18 0 34 -7.5t28.5 -19.5t19.5 -28t7 -33q0 -19 -7 -36t-19.5 -29.5t-28.5 -20t-34 -7.5q-19 0 -36 7.5t-29.5 20t-19.5 29.5t-7 36zM336 680q0 17 7.5 33t20 28t29 19.5t35.5 7.5q18 0 34 -7.5t28 -19.5t19.5 -28t7.5 -33
q0 -19 -7.5 -36t-19.5 -29.5t-28 -20t-34 -7.5q-19 0 -35.5 7.5t-29 20t-20 29.5t-7.5 36zM568 519v-519h-174v97h-2q-10 -30 -27.5 -50.5t-39.5 -32.5t-48 -17t-55 -5q-91 0 -139 50t-48 150v327h181v-291q0 -48 21 -74t63 -26t65.5 30t23.5 75v286h179z" />
    <glyph glyph-name="thorn" unicode="&#xfe;" horiz-adv-x="609" 
d="M591 258q0 -69 -17 -119t-46 -82.5t-68.5 -48.5t-84.5 -16q-46 0 -86.5 14t-68.5 50h-3v-233h-182v859h182v-222h3q28 36 68.5 49.5t86.5 13.5q45 0 84.5 -15.5t68.5 -48t46 -82.5t17 -119zM413 258q0 62 -27.5 93.5t-73.5 31.5q-45 0 -72 -31.5t-27 -92.5q0 -62 27 -95
t72 -33q46 0 73.5 32.5t27.5 94.5z" />
    <glyph glyph-name="ydieresis" unicode="&#xff;" horiz-adv-x="550" 
d="M75 680q0 17 7 33t19.5 28t29 19.5t35.5 7.5q18 0 34 -7.5t28.5 -19.5t19.5 -28t7 -33q0 -19 -7 -36t-19.5 -29.5t-28.5 -20t-34 -7.5q-19 0 -35.5 7.5t-29 20t-19.5 29.5t-7 36zM319 680q0 17 7.5 33t20.5 28t29.5 19.5t35.5 7.5q17 0 33 -7.5t28.5 -19.5t20 -28
t7.5 -33q0 -19 -7.5 -36t-20 -29.5t-28.5 -20t-33 -7.5q-19 0 -35.5 7.5t-29.5 20t-20.5 29.5t-7.5 36zM555 519q-35 -115 -77.5 -249t-84.5 -266q-15 -51 -39 -87t-56 -58.5t-70.5 -32.5t-81.5 -10q-23 0 -43.5 2.5t-42.5 8.5v123q17 -3 30 -3q15 0 29.5 1.5t26.5 6t20 13
t10 22.5q-45 134 -90.5 264.5t-90.5 264.5h192l90 -378h3l88 378h187z" />
    <glyph glyph-name="dotlessi" unicode="&#x131;" horiz-adv-x="276" 
d="M48 519h180v-519h-180v519z" />
    <glyph glyph-name="Lslash" unicode="&#x141;" horiz-adv-x="592" 
d="M101 297h-86v111h86v292h186v-292h170v-111h-170v-158h300v-139h-486v297z" />
    <glyph glyph-name="lslash" unicode="&#x142;" horiz-adv-x="469" 
d="M14 408h128v292h185v-292h129v-111h-129v-297h-185v297h-128v111z" />
    <glyph glyph-name="OE" unicode="&#x152;" horiz-adv-x="1040" 
d="M367 708q43 0 86 -8h554v-141h-351q22 -27 34.5 -62t17.5 -77h242v-140h-242q-5 -42 -18 -77.5t-34 -63.5h351v-139h-554q-43 -8 -86 -8q-80 0 -144.5 24.5t-109.5 71t-69.5 113t-24.5 150.5q0 83 24.5 149.5t69.5 112.5t109.5 70.5t144.5 24.5zM367 143q72 0 112.5 54
t40.5 154q0 99 -40.5 151t-112.5 52q-73 0 -113.5 -52t-40.5 -151q0 -100 40.5 -154t113.5 -54z" />
    <glyph glyph-name="oe" unicode="&#x153;" horiz-adv-x="942" 
d="M565 221q0 -22 8.5 -40t22.5 -30t31.5 -18.5t35.5 -6.5q30 0 52.5 13t30.5 42h168q-10 -94 -76 -141.5t-176 -47.5q-118 0 -186 60q-32 -30 -79.5 -45t-105.5 -15q-63 0 -114 17t-86.5 50.5t-55 83t-19.5 115.5q0 65 19.5 114.5t55.5 83.5t86.5 51t113.5 17
q119 0 188 -63q34 30 79 46.5t101 16.5q63 0 111 -18.5t80.5 -52.5t49 -83t16.5 -109v-40h-351zM659 393q-36 0 -59.5 -21t-31.5 -55h181q-6 34 -30 55t-60 21zM291 126q19 0 37 8t32.5 24.5t23 41.5t8.5 58q0 34 -8.5 59t-23 41.5t-32.5 25t-37 8.5t-37 -8.5t-32 -25
t-22.5 -41.5t-8.5 -59q0 -33 8.5 -58t22.5 -41.5t32 -24.5t37 -8z" />
    <glyph glyph-name="Scaron" unicode="&#x160;" horiz-adv-x="634" 
d="M371 750h-114l-149 228h144l59 -97h4l59 97h147zM392 416q113 -20 167 -67t54 -131q0 -52 -20.5 -94t-59.5 -71.5t-95 -45t-126 -15.5q-66 0 -119.5 15.5t-91.5 45t-58.5 71.5t-20.5 94h177q6 -37 35.5 -60t80.5 -23t79 17.5t28 49.5q0 14 -5.5 24.5t-18.5 18.5t-34 14.5
t-52 12.5l-70 13q-106 20 -160.5 71t-54.5 131q0 51 21.5 92t59.5 69.5t90 44t112 15.5q69 0 122 -17t89 -47t55 -72t20 -92h-178q-2 37 -30 61t-76 24t-73 -17.5t-25 -46.5t24.5 -45t82.5 -26z" />
    <glyph glyph-name="scaron" unicode="&#x161;" horiz-adv-x="531" 
d="M206 569l-149 228h145l59 -97h4l58 97h148l-150 -228h-115zM340 311q85 -17 127 -50t42 -92q0 -81 -61 -129t-179 -48q-45 0 -86.5 8.5t-75 28t-56 51t-29.5 78.5h172q6 -21 25.5 -33.5t49.5 -12.5q26 0 42 10.5t16 27.5q0 5 -1.5 10t-7 10t-16.5 9t-30 8l-86 16
q-75 14 -116 53t-41 97q0 45 19.5 77t51.5 53t74.5 31t87.5 10q44 0 83.5 -9t70.5 -29.5t51 -52.5t24 -78h-162q-5 23 -23 35.5t-44 12.5q-23 0 -41 -10t-18 -30q0 -9 7 -16t23 -12.5t42 -11t65 -12.5z" />
    <glyph glyph-name="Ydieresis" unicode="&#x178;" horiz-adv-x="656" 
d="M360 862q0 18 7 34t19.5 28.5t29.5 19.5t36 7q17 0 33 -7t28 -19.5t19.5 -28.5t7.5 -34q0 -19 -7.5 -35.5t-19.5 -29t-28 -19.5t-33 -7q-19 0 -36 7t-29.5 19.5t-19.5 29t-7 35.5zM115 862q0 18 7 34t19.5 28.5t29 19.5t35.5 7q18 0 34 -7t28.5 -19.5t19.5 -28.5t7 -34
q0 -19 -7 -35.5t-19.5 -29t-28.5 -19.5t-34 -7q-38 0 -64.5 26.5t-26.5 64.5zM420 285v-285h-185v285l-239 415h215l115 -236h4l115 236h215z" />
    <glyph glyph-name="uni008E" horiz-adv-x="613" 
d="M254 750l-149 228h145l58 -97h4l59 97h148l-151 -228h-114zM580 141v-141h-547v116l316 439v4h-312v141h533v-117l-308 -441v-1h318z" />
    <glyph glyph-name="uni008E" unicode="&#x17d;" horiz-adv-x="613" 
d="M254 750l-149 228h145l58 -97h4l59 97h148l-151 -228h-114zM580 141v-141h-547v116l316 439v4h-312v141h533v-117l-308 -441v-1h318z" />
    <glyph glyph-name="uni009E" horiz-adv-x="514" 
d="M469 797l-150 -228h-114l-149 228h145l58 -93h4l59 93h147zM482 132v-132h-449v91l232 291v4h-232v133h449v-108l-217 -275v-4h217z" />
    <glyph glyph-name="uni009E" unicode="&#x17e;" horiz-adv-x="514" 
d="M469 797l-150 -228h-114l-149 228h145l58 -93h4l59 93h147zM482 132v-132h-449v91l232 291v4h-232v133h449v-108l-217 -275v-4h217z" />
    <glyph glyph-name="florin" unicode="&#x192;" horiz-adv-x="403" 
d="M374 505v-117h-83v-213q0 -52 -14.5 -88t-41 -57.5t-64 -30t-82.5 -6.5q-18 2 -36 3t-38 5v125q15 -2 26.5 -3.5t21.5 0.5q26 1 37 11.5t11 36.5v217h-80v117h80v27q0 50 15.5 84t42.5 54.5t64.5 28.5t80.5 6q35 -2 74 -9v-123q-16 1 -27.5 2t-22.5 1q-26 -2 -36.5 -12.5
t-10.5 -35.5v-23h83z" />
    <glyph glyph-name="circumflex" unicode="&#x2c6;" horiz-adv-x="525" 
d="M469 569h-147l-59 93h-4l-58 -93h-145l149 228h114z" />
    <glyph glyph-name="caron" unicode="&#x2c7;" horiz-adv-x="525" 
d="M319 569h-114l-149 228h145l58 -93h4l59 93h147z" />
    <glyph glyph-name="breve" unicode="&#x2d8;" horiz-adv-x="450" 
d="M394 746q0 -36 -12 -66t-34.5 -52t-53.5 -34.5t-70 -12.5q-38 0 -69 12.5t-53 34.5t-34 52t-12 66h115q0 -24 13.5 -39t39.5 -15q28 0 41 15t13 39h116z" />
    <glyph glyph-name="dotaccent" unicode="&#x2d9;" horiz-adv-x="291" 
d="M147 720q17 0 33 -7t28 -19t19.5 -27.5t7.5 -33.5q0 -19 -7.5 -35.5t-19.5 -29t-28 -19.5t-33 -7q-38 0 -64.5 26.5t-26.5 64.5q0 18 7 33.5t19.5 27.5t29 19t35.5 7z" />
    <glyph glyph-name="ring" unicode="&#x2da;" horiz-adv-x="400" 
d="M56 719q0 62 39 100.5t106 38.5q32 0 58 -10t45 -28.5t29.5 -44t10.5 -56.5q0 -30 -10.5 -55.5t-29.5 -43.5t-45 -28.5t-58 -10.5t-59 10.5t-46 28.5t-29.5 43.5t-10.5 55.5zM201 674q23 0 33 12.5t10 32.5q0 23 -11 35.5t-32 12.5q-24 0 -35.5 -12.5t-11.5 -35.5
q0 -20 11.5 -32.5t35.5 -12.5z" />
    <glyph glyph-name="ogonek" unicode="&#x2db;" horiz-adv-x="227" 
 />
    <glyph glyph-name="tilde" unicode="&#x2dc;" horiz-adv-x="594" 
d="M222 656q-16 0 -25 -14t-9 -50h-132q0 94 30.5 141t111.5 47q27 0 48.5 -10.5t41 -22.5t39 -22.5t40.5 -10.5q19 0 28.5 14.5t9.5 51.5h133q0 -91 -34 -140t-114 -49q-27 0 -48.5 10t-41.5 22.5t-38.5 22.5t-39.5 10z" />
    <glyph glyph-name="hungarumlaut" unicode="&#x2dd;" horiz-adv-x="584" 
d="M528 793l-136 -205h-131l109 205h158zM323 793l-136 -205h-131l109 205h158z" />
    <glyph glyph-name="uni0E00" unicode="&#xe00;" 
 />
    <glyph glyph-name="uni0E01" unicode="&#xe01;" horiz-adv-x="650" 
d="M322 581q144 0 218.5 -63.5t74.5 -175.5v-342h-181v323q0 53 -30 84t-87 31q-107 0 -133 -72h113v-47q-19 -10 -31 -22t-19.5 -28t-10.5 -37.5t-3 -50.5v-181h-180v166q0 57 27.5 95.5t80.5 49.5h-134q0 135 69 202.5t226 67.5z" />
    <glyph glyph-name="uni0E02" unicode="&#xe02;" horiz-adv-x="606" 
d="M572 577v-379q0 -103 -66 -154.5t-207 -51.5q-140 0 -206 51.5t-66 154.5v26q0 31 8 53.5t20.5 40t27 31t27 25.5t20.5 24t8 28q0 20 -13 22t-39 2h-44v127h66q39 0 76 -1.5t65 -13t45 -37t17 -73.5q0 -28 -16 -55t-35 -54t-35 -53.5t-16 -53.5q0 -51 19.5 -75.5
t70.5 -24.5t71 25t20 76v340h182z" />
    <glyph glyph-name="uni0E03" unicode="&#xe03;" horiz-adv-x="632" 
d="M598 577v-379q0 -103 -66 -154.5t-207 -51.5t-206.5 51.5t-65.5 154.5v26q0 32 12.5 57.5t30.5 46t38.5 37.5t37 33t25.5 31t4 32q-3 11 -13 11q-7 0 -14.5 -7.5t-9.5 -22.5h-85l-86 135h116l27 -67q5 30 27.5 50.5t67.5 20.5q23 0 44 -4.5t37.5 -15.5t26 -31t9.5 -52
q0 -42 -17.5 -76t-39 -64t-39 -57t-17.5 -54q0 -44 19.5 -67.5t70.5 -23.5t71 25t20 76v340h182z" />
    <glyph glyph-name="uni0E04" unicode="&#xe04;" horiz-adv-x="659" 
d="M329 581q143 0 217.5 -60.5t74.5 -165.5v-355h-182v323q0 52 -29.5 82t-80.5 30t-80 -30t-29 -82v-88q15 34 45.5 51.5t68.5 17.5h34v-129h-35q-16 0 -35.5 -5t-36.5 -15.5t-29 -27.5t-12 -41v-86h-182v355q0 105 74 165.5t217 60.5z" />
    <glyph glyph-name="uni0E05" unicode="&#xe05;" horiz-adv-x="658" 
d="M207 581q104 0 122 -84q10 42 38.5 63t82.5 21q53 0 86 -11t51.5 -32.5t25 -54t6.5 -76.5v-407h-180v385q0 25 -7.5 39t-27.5 14q-26 0 -38 -46h-73q-7 26 -17 36t-21 10q-12 0 -19 -5.5t-10.5 -15t-4.5 -21t-1 -23.5v-138q14 34 45 51.5t69 17.5h34v-129h-35
q-15 0 -35 -5t-37 -15.5t-29 -27t-12 -40.5v-87h-182v407q0 44 6.5 76.5t25 54t51.5 32.5t86 11z" />
    <glyph glyph-name="uni0E06" unicode="&#xe06;" horiz-adv-x="675" 
d="M71 224q0 32 11.5 57.5t28.5 46t36 37.5t34 33t23 31t3 32q-3 11 -12 11q-8 0 -15.5 -7.5t-10.5 -22.5h-83l-86 135h116l27 -67q5 30 27 50.5t67 20.5q23 0 44.5 -4.5t38 -15.5t26 -31t9.5 -52q0 -45 -16.5 -78t-36 -60t-36 -51.5t-16.5 -51.5q0 -43 31 -72t79 -29
q53 0 78 26t25 84v331h178v-381q0 -48 -14.5 -86t-40.5 -64t-62 -40t-78 -14q-78 0 -128.5 30.5t-67.5 85.5h-4v-108h-175v224z" />
    <glyph glyph-name="uni0E07" unicode="&#xe07;" horiz-adv-x="626" 
d="M295 579q68 6 125 -2t98 -35.5t64.5 -77t23.5 -127.5q0 -43 -11 -89t-33.5 -90.5t-58 -85t-85.5 -72.5h-193l-233 577h179l166 -451q53 54 73 106.5t20 92.5q0 31 -6.5 53.5t-22 36.5t-41.5 19.5t-65 2.5v142z" />
    <glyph glyph-name="uni0E08" unicode="&#xe08;" horiz-adv-x="603" 
d="M287 581q90 0 146.5 -28t88.5 -71t43.5 -94t11.5 -96q0 -58 -21 -111t-60 -93.5t-93.5 -64t-121.5 -23.5h-91l-88 216h-71v106h190l74 -183q51 8 78 51.5t27 104.5q0 42 -11 69t-28.5 42.5t-37.5 21.5t-38 6q-31 0 -60 -13.5t-37 -46.5h-172q4 48 27.5 86.5t60.5 65
t84 41t99 14.5z" />
    <glyph glyph-name="uni0E09" unicode="&#xe09;" horiz-adv-x="645" 
d="M16 322h206v-80q0 -57 26 -81.5t77 -24.5t79.5 32t28.5 83v72q0 31 -9 52t-25.5 34.5t-39 19.5t-49.5 6q-37 0 -64.5 -16t-38.5 -45h-173q6 46 29.5 84t60 65.5t84.5 42.5t102 15q143 0 222 -62.5t79 -196.5v-322h-174v108h-4q-17 -55 -65 -85.5t-126 -30.5
q-37 0 -69.5 14t-56.5 41t-38 65t-14 86v18h-48v106z" />
    <glyph glyph-name="uni0E0A" unicode="&#xe0a;" horiz-adv-x="599" 
d="M394 263q0 50 -14.5 78.5t-56.5 36.5v93q45 6 63.5 37t18.5 73h168q0 -69 -24.5 -109.5t-84.5 -58.5q62 -24 85 -72t23 -121q0 -109 -65 -168.5t-208 -59.5q-140 0 -206 51.5t-66 154.5v26q0 47 15 75.5t33 49t33 37.5t15 40q0 20 -12 22t-39 2h-30v127h92
q34 0 63.5 -4.5t51.5 -17.5t34.5 -37.5t12.5 -65.5q0 -28 -13.5 -55t-30 -54t-30 -53.5t-13.5 -53.5q0 -51 19.5 -75.5t70.5 -24.5q54 0 74.5 29t20.5 98z" />
    <glyph glyph-name="uni0E0B" unicode="&#xe0b;" horiz-adv-x="632" 
d="M497 413q60 -23 83.5 -70.5t23.5 -117.5q0 -112 -63.5 -172.5t-207.5 -60.5q-141 0 -206.5 51.5t-65.5 154.5v26q0 32 11 57t27.5 46t35 38t33 33t22 31t2.5 32q-3 11 -12 11q-8 0 -15.5 -7.5t-10.5 -22.5h-75l-86 135h116l25 -63q5 29 25.5 48t58.5 19q23 0 44.5 -4.5
t38 -15.5t26 -31t9.5 -52q0 -42 -14.5 -76t-32.5 -64t-32.5 -57t-14.5 -54q0 -45 20 -68t71 -23t72.5 27.5t21.5 93.5q0 52 -14.5 82.5t-56.5 38.5v93q45 6 63.5 37t18.5 73h168q0 -69 -24.5 -109.5t-84.5 -58.5z" />
    <glyph glyph-name="uni0E0C" unicode="&#xe0c;" horiz-adv-x="981" 
d="M422 323q0 53 -27.5 84t-83.5 31q-54 0 -84 -17.5t-43 -54.5h115v-48q-72 -34 -72 -115q0 -51 28.5 -64.5t80.5 -10.5v-124q-67 -12 -120 -11q-37 1 -68.5 11t-54 30t-35.5 51.5t-13 74.5q0 58 31 97.5t82 53.5h-131q0 68 15.5 118.5t50 84t89.5 50.5t133 17
q144 0 215.5 -63.5t71.5 -175.5v-79q0 -24 6.5 -47t18.5 -41t28.5 -28.5t36.5 -10.5q40 0 58 24.5t18 82.5v334h179v-383q0 -96 -47 -149t-133 -53q-66 0 -108.5 29t-59.5 81h-4v-102h-173v323z" />
    <glyph glyph-name="uni0E0D" unicode="&#xe0d;" horiz-adv-x="980" 
d="M946 68q0 -117 -70 -178t-196 -61q-51 0 -94.5 11.5t-76.5 33.5t-55 53.5t-30 72.5h170q8 -25 31 -37t55 -12q92 0 92 102v86h-4q-17 -54 -62.5 -83t-117.5 -23q-79 3 -122.5 54t-43.5 142v94q0 53 -28.5 84t-82.5 31t-84 -17.5t-43 -54.5h113v-48q-70 -34 -70 -115
q0 -50 28.5 -64t78.5 -11v-124q-65 -12 -118 -11q-36 1 -67.5 11t-54.5 30t-36 51.5t-13 74.5q0 58 31 97.5t82 53.5h-131q0 68 15.5 118.5t50 84t89.5 50.5t133 17q144 0 216 -63.5t72 -175.5v-64q0 -57 19 -79.5t58 -22.5q21 0 36.5 11t26.5 29.5t16.5 42.5t5.5 51v267
h181v-509z" />
    <glyph glyph-name="uni0E0E" unicode="&#xe0e;" horiz-adv-x="647" 
d="M472 -199q-52 32 -91.5 45.5t-69.5 11.5q-34 -2 -52 -19t-22 -38h-167q2 52 21.5 87t50.5 55.5t70.5 27t80.5 2.5q35 -3 70.5 -12.5t67.5 -25.5v388q0 53 -30.5 84t-85.5 31q-108 0 -134 -72h118v-47q-20 -12 -30 -36t-11 -59q-2 -61 -8 -105t-22.5 -72t-47 -41
t-82.5 -13q-23 0 -46 3t-49 8v124q5 -1 9 -1h8q30 0 42.5 11t16.5 28.5t4 38.5t5 41.5t19 38t46 26.5h-128q0 135 69 202.5t225 67.5q144 0 219 -63.5t75 -175.5v-541h-141z" />
    <glyph glyph-name="uni0E0F" unicode="&#xe0f;" horiz-adv-x="647" 
d="M319 581q144 0 219 -63.5t75 -175.5v-369q0 -82 -45 -127t-130 -45q-21 0 -43.5 5t-42.5 14t-36 21.5t-25 27.5l-216 -74h-16v127l222 68h40q3 -13 10 -22t16 -14t17.5 -7.5t14.5 -2.5q8 0 17 2.5t17 8.5t13 16t5 25v327q0 53 -30.5 84t-85.5 31q-108 0 -134 -72h118v-47
q-20 -12 -30 -36t-11 -59q-2 -61 -8 -105t-22.5 -72t-47 -41t-82.5 -13q-23 0 -46 3t-49 8v124q5 -1 9 -1h8q30 0 42.5 11t16.5 28.5t4 38.5t5 41.5t19 38t46 26.5h-128q0 135 69 202.5t225 67.5z" />
    <glyph glyph-name="uni0E10" unicode="&#xe10;" horiz-adv-x="617" 
d="M401 -44q0 15 -7 24t-17.5 14t-22.5 6.5t-22 0.5q-15 -1 -23.5 -1h-16.5h-93l-93 216h-73v106h189l80 -183q26 4 44.5 19t30.5 37.5t17.5 50.5t5.5 58q0 66 -32.5 99.5t-82.5 33.5q-15 0 -30 -4t-28.5 -12t-24 -20t-14.5 -27h-172q5 48 27 84.5t57 62t82.5 40.5t104.5 20
l322 33v-115l-138 -11v-4q54 -26 81 -72t27 -108q0 -81 -33.5 -149t-95.5 -109v-2q52 -8 85.5 -36.5t33.5 -82.5q0 -69 -45.5 -111.5t-127.5 -42.5q-22 0 -44 5t-42 14t-36.5 21.5t-25.5 27.5l-199 -74h-16v119l206 68h39q4 -13 11.5 -22t16 -14t17 -7.5t14.5 -2.5
q8 0 18.5 1t21 5.5t17.5 15t7 28.5z" />
    <glyph glyph-name="uni0E11" unicode="&#xe11;" horiz-adv-x="665" 
d="M512 581q37 0 60 -13.5t36 -35.5t17.5 -50.5t4.5 -58.5v-423h-178v375q0 55 -34 55q-18 0 -45 -18q-13 -7 -35 -26t-43 -45.5t-36.5 -57.5t-15.5 -63v-220h-179v224q0 32 12 57.5t29 46.5t36.5 38.5t34.5 33t23.5 30.5t2.5 31q-3 11 -13 11q-8 0 -16 -7.5t-11 -22.5h-83
l-86 135h116l27 -67q5 30 27.5 50.5t67.5 20.5q100 0 88 -91q41 46 85 68.5t108 22.5z" />
    <glyph glyph-name="uni0E12" unicode="&#xe12;" horiz-adv-x="988" 
d="M428 385q0 25 -6 39t-26 14q-13 0 -21.5 -10t-14.5 -36h-73q-7 27 -16 36.5t-23 9.5q-15 0 -23.5 -12.5t-12.5 -32.5t-4.5 -46.5t-0.5 -53.5q0 -39 6.5 -70.5t23 -53t44 -31.5t68.5 -7v-130q-15 -2 -30.5 -3.5t-30.5 -1.5q-59 0 -107.5 16t-83 50.5t-53.5 88.5t-19 129
q0 65 6 120t25 95t55 63t95 23q53 0 80 -20.5t37 -62.5q10 42 36 62.5t80 20.5q59 0 93 -12.5t51 -37t22 -61t5 -84.5v-113q0 -25 6 -50t17.5 -44t28 -31t37.5 -12q40 0 58 24.5t18 82.5v334h179v-383q0 -96 -47 -149t-132 -53q-66 0 -109 29t-60 81h-3v-102h-175v385z" />
    <glyph glyph-name="uni0E13" unicode="&#xe13;" horiz-adv-x="981" 
d="M772 0v102h-2q-18 -54 -63 -84.5t-118 -24.5q-80 3 -123.5 55.5t-43.5 143.5v131q0 53 -27.5 84t-83.5 31q-54 0 -84 -17.5t-43 -54.5h115v-48q-72 -34 -72 -115q0 -51 28.5 -64.5t80.5 -10.5v-124q-32 -7 -61.5 -9.5t-57.5 -1.5q-37 1 -68.5 10.5t-54.5 29.5t-36 51.5
t-13 75.5q0 58 31 97.5t82 53.5h-131q0 68 15.5 118.5t50 84t89.5 50.5t133 17q145 0 216.5 -63.5t71.5 -175.5v-88q0 -59 13.5 -87t52.5 -28q41 0 68.5 35.5t27.5 98.5v304h182v-577h-175z" />
    <glyph glyph-name="uni0E14" unicode="&#xe14;" horiz-adv-x="644" 
d="M327 581q53 0 104 -13t91 -42t64 -74.5t24 -110.5v-341h-179v341q0 25 -10 43t-25.5 29t-33.5 16.5t-35 5.5q-57 0 -88.5 -38t-31.5 -110q0 -49 10 -79.5t28 -47.5t44.5 -23t59.5 -6v-130q-14 -3 -28.5 -4t-28.5 -1q-60 0 -109.5 16t-84.5 51.5t-54 90.5t-19 133
q0 71 20.5 125.5t59.5 92t95 57t127 19.5z" />
    <glyph glyph-name="uni0E15" unicode="&#xe15;" horiz-adv-x="645" 
d="M439 581q55 0 88.5 -11t52 -32.5t25 -54t6.5 -76.5v-407h-181v385q0 25 -6.5 39t-26.5 14q-12 0 -21 -10t-14 -36h-74q-8 27 -17 36.5t-21 9.5q-16 0 -25 -12.5t-13 -32.5t-5 -46.5t-1 -53.5q0 -38 8 -69t25.5 -52t44.5 -32t65 -9v-130q-15 -2 -30.5 -3.5t-30.5 -1.5
q-59 0 -108 16t-84 50.5t-54 88.5t-19 129q0 65 6.5 120t26 95t55.5 63t95 23q54 0 80.5 -20.5t36.5 -62.5q11 42 37.5 62.5t78.5 20.5z" />
    <glyph glyph-name="uni0E16" unicode="&#xe16;" horiz-adv-x="650" 
d="M322 581q144 0 218.5 -63.5t74.5 -175.5v-342h-181v323q0 53 -30 84t-87 31q-53 0 -86.5 -17.5t-46.5 -54.5h115v-48q-72 -34 -72 -115q0 -50 28.5 -64t78.5 -11v-124q-65 -12 -118 -11q-36 1 -67.5 11t-54.5 30t-36 51.5t-13 74.5q0 58 31 97.5t82 53.5h-131
q0 135 69 202.5t226 67.5z" />
    <glyph glyph-name="uni0E17" unicode="&#xe17;" horiz-adv-x="648" 
d="M411 581q43 0 80 -13t64.5 -38.5t43 -62.5t15.5 -85v-382h-180v330q0 58 -27.5 82.5t-80.5 24.5q-59 0 -86 -39t-27 -106v-292h-179v577h175v-101h2q18 55 72.5 80t127.5 25z" />
    <glyph glyph-name="uni0E18" unicode="&#xe18;" horiz-adv-x="592" 
d="M202 394q81 -15 148 -33t114.5 -43t74 -58t26.5 -80q0 -49 -20.5 -84t-57 -57.5t-86.5 -33t-110 -10.5q-56 0 -104.5 13t-84 37t-55.5 59t-20 79q0 23 4.5 40t12.5 31h150q-3 -14 -5.5 -30t-1.5 -36q1 -15 11 -26t25 -17.5t33.5 -9.5t35.5 -3q15 0 32.5 2.5t32.5 8.5
t25 16.5t10 26.5q0 25 -22 43.5t-67 34t-113 30.5t-159 32v18q0 64 23.5 109t61 73.5t85.5 41.5t96 13q50 0 95.5 -14t81.5 -38.5t59 -59.5t29 -77h-170q-8 20 -33.5 35.5t-61.5 15.5q-34 0 -59 -10.5t-36 -38.5z" />
    <glyph glyph-name="uni0E19" unicode="&#xe19;" horiz-adv-x="640" 
d="M606 0h-176v108h-4q-17 -55 -66 -85.5t-127 -30.5q-42 0 -78.5 13.5t-63.5 40t-42 64t-15 85.5v382h179v-331q0 -58 27 -84t79 -26q51 0 79 32t28 83v326h180v-577z" />
    <glyph glyph-name="uni0E1A" unicode="&#xe1a;" horiz-adv-x="641" 
d="M607 577v-366q0 -105 -71.5 -162t-214.5 -57t-215 57t-72 162v366h182v-337q0 -51 27 -77.5t78 -26.5t78 26.5t27 77.5v337h181z" />
    <glyph glyph-name="uni0E1B" unicode="&#xe1b;" horiz-adv-x="641" 
d="M607 708v-497q0 -105 -71.5 -162t-214.5 -57t-215 57t-72 162v366h182v-337q0 -51 27 -77.5t78 -26.5t78 26.5t27 77.5v468h181z" />
    <glyph glyph-name="uni0E1C" unicode="&#xe1c;" horiz-adv-x="659" 
d="M621 577v-577h-157l-134 156l-135 -156h-157v401q1 49 16.5 83.5t42 56t62 31t76.5 9.5q17 0 34 -1.5t34 -3.5v-113q-8 1 -14.5 1h-8.5q-22 0 -34.5 -8.5t-19 -22.5t-8 -31.5t-1.5 -36.5v-184l91 111h43l91 -111v396h179z" />
    <glyph glyph-name="uni0E1D" unicode="&#xe1d;" horiz-adv-x="659" 
d="M621 708v-708h-157l-134 156l-135 -156h-157v401q1 49 16.5 83.5t42 56t62 31t76.5 9.5q17 0 34 -1.5t34 -3.5v-113q-8 1 -14.5 1h-8.5q-22 0 -34.5 -8.5t-19 -22.5t-8 -31.5t-1.5 -36.5v-184l91 111h43l91 -111v527h179z" />
    <glyph glyph-name="uni0E1E" unicode="&#xe1e;" horiz-adv-x="783" 
d="M780 577l-129 -577h-161l-98 344l-99 -344h-161l-129 577h183l51 -330l92 317h125l93 -317l51 330h182z" />
    <glyph glyph-name="uni0E1F" unicode="&#xe1f;" horiz-adv-x="783" 
d="M809 708l-158 -708h-161l-98 344l-99 -344h-161l-129 577h183l51 -330l92 317h125l93 -317l86 461h176z" />
    <glyph glyph-name="uni0E20" unicode="&#xe20;" horiz-adv-x="647" 
d="M319 581q144 0 219 -63.5t75 -175.5v-342h-182v323q0 53 -30 84t-86 31q-108 0 -134 -72h118v-47q-20 -12 -29.5 -35t-11.5 -57q-3 -60 -8 -104t-20.5 -73t-45.5 -43t-83 -14q-43 0 -98 11v124q5 -1 9 -1h8q30 0 42.5 11t16.5 28.5t4 38.5t5 41.5t19 38t46 26.5h-128
q0 135 69 202.5t225 67.5z" />
    <glyph glyph-name="uni0E21" unicode="&#xe21;" horiz-adv-x="640" 
d="M34 0v577h179v-326q0 -51 30.5 -83t81.5 -32t76 26t25 84v331h180v-381q0 -48 -14.5 -86t-41 -64t-62.5 -40t-79 -14q-79 0 -129 30.5t-67 85.5h-4v-108h-175z" />
    <glyph glyph-name="uni0E22" unicode="&#xe22;" horiz-adv-x="628" 
d="M594 577v-366q0 -105 -69 -162t-211 -57q-144 0 -213.5 49.5t-69.5 131.5q0 56 21.5 86.5t66.5 50.5q-42 17 -62.5 48t-22.5 68q-2 43 10 73t35 49t56.5 27.5t73.5 8.5q23 0 48 -2.5t51 -7.5v-125q-54 6 -77.5 -4t-23.5 -42q0 -14 8.5 -23t22.5 -14.5t32 -8t36 -2.5h30
v-98h-21q-20 0 -38.5 -1.5t-32.5 -7t-22.5 -15t-8.5 -26.5q0 -34 25 -52.5t76 -18.5t75 27t24 84v330h181z" />
    <glyph glyph-name="uni0E23" unicode="&#xe23;" horiz-adv-x="564" 
d="M314 351q41 -12 84.5 -25t76.5 -36.5t49 -61t4 -98.5q-7 -39 -33 -65t-62 -42.5t-78 -23.5t-81 -7q-43 0 -87.5 10.5t-80 33t-58.5 58.5t-23 87h158q9 -24 37 -37.5t56 -13.5q15 0 30.5 2.5t28 7.5t20.5 13t8 20q0 20 -27 30t-67 19q-37 8 -79 18.5t-77.5 29.5t-59 50
t-23.5 80q0 48 23 82.5t59 56t81 32t88 10.5q42 0 86 -9.5t80 -31.5t59.5 -58.5t24.5 -89.5h-160q-6 29 -32.5 39t-57.5 10q-12 0 -25.5 -2t-25 -6.5t-19.5 -12t-8 -17.5q0 -11 9.5 -18.5t25 -13t35.5 -10t41 -10.5z" />
    <glyph glyph-name="uni0E24" unicode="&#xe24;" horiz-adv-x="650" 
d="M322 581q144 0 218.5 -63.5t74.5 -175.5v-541h-181v522q0 53 -30 84t-87 31q-53 0 -86.5 -17.5t-46.5 -54.5h115v-48q-72 -34 -72 -115q0 -50 28.5 -64t78.5 -11v-124q-35 -7 -68.5 -10t-64.5 -1q-34 3 -62.5 13.5t-49.5 31t-32.5 50.5t-11.5 72q0 58 31 97.5t82 53.5
h-131q0 135 69 202.5t226 67.5z" />
    <glyph glyph-name="uni0E25" unicode="&#xe25;" horiz-adv-x="619" 
d="M585 0h-180v232q-37 -3 -72 -4.5t-62.5 -7t-44 -16.5t-16.5 -33q0 -46 89 -41q4 0 8.5 0.5t9.5 0.5v-123q-60 -12 -114 -12q-36 1 -68.5 10t-56.5 28t-38 49t-14 73q0 59 27 93t76.5 52.5t120 26t157.5 13.5q-2 51 -31 72.5t-77 21.5q-31 0 -54.5 -16t-34.5 -45h-173
q6 46 28 84t56.5 65.5t80 42.5t97.5 15q141 0 213.5 -61.5t72.5 -196.5v-323z" />
    <glyph glyph-name="uni0E26" unicode="&#xe26;" horiz-adv-x="647" 
d="M319 581q144 0 219 -63.5t75 -175.5v-541h-182v522q0 53 -30 84t-86 31q-108 0 -134 -72h118v-47q-20 -12 -29.5 -35t-11.5 -57q-3 -60 -8 -104t-20.5 -73t-45.5 -43t-83 -14q-43 0 -98 11v124q5 -1 9 -1h8q30 0 42.5 11t16.5 28.5t4 38.5t5 41.5t19 38t46 26.5h-128
q0 135 69 202.5t225 67.5z" />
    <glyph glyph-name="uni0E27" unicode="&#xe27;" horiz-adv-x="595" 
d="M285 581q134 0 209.5 -75.5t75.5 -216.5q0 -138 -72 -215.5t-213 -77.5q-52 0 -98 15t-81 42t-57.5 65t-28.5 84h174q10 -29 35 -45t56 -16q50 0 79 41t29 107t-29 106t-79 40q-31 0 -56 -16t-35 -45h-174q6 46 28.5 84t57.5 65.5t81 42.5t98 15z" />
    <glyph glyph-name="uni0E28" unicode="&#xe28;" horiz-adv-x="659" 
d="M38 355q0 56 19 96t56 67t91.5 42t125.5 21q78 8 161.5 16.5t159.5 16.5v-115l-135 -11v-4q103 -39 103 -169v-315h-181v322q0 64 -29 88t-79 24q-51 0 -80.5 -29.5t-29.5 -81.5v-88q15 34 45.5 51.5t68.5 17.5h34v-129h-35q-16 0 -35.5 -5t-36.5 -15.5t-29 -27.5
t-12 -41v-86h-182v355z" />
    <glyph glyph-name="uni0E29" unicode="&#xe29;" horiz-adv-x="651" 
d="M379 392q0 -22 9 -29t32 -7h6v221h181v-220h40v-107h-40v-39q0 -105 -72 -162t-214 -57q-143 0 -215 57t-72 162v366h182v-325q0 -57 24 -86.5t81 -29.5q105 0 105 107v8q-58 0 -92 10.5t-50.5 29.5t-20 44.5t-2.5 56.5h118z" />
    <glyph glyph-name="uni0E2A" unicode="&#xe2a;" horiz-adv-x="626" 
d="M618 614v-115l-136 -11v-4q103 -39 103 -169v-315h-180v232q-37 -3 -72 -4.5t-62.5 -7t-44 -16.5t-16.5 -33q0 -46 89 -41q4 0 8.5 0.5t9.5 0.5v-123q-60 -12 -114 -12q-36 1 -68.5 10t-56.5 28t-38 49t-14 73q0 59 27 93t76.5 52.5t120 26t157.5 13.5q-5 51 -30.5 72.5
t-73.5 21.5q-31 0 -57.5 -16t-36.5 -45h-174q25 182 268 207z" />
    <glyph glyph-name="uni0E2B" unicode="&#xe2b;" horiz-adv-x="633" 
d="M471 348q69 -12 99 -54.5t30 -113.5v-180h-178v180q0 38 -20.5 54.5t-61.5 16.5h-123v-251h-179v577h179v-202h93l101 202h188l-128 -228v-1z" />
    <glyph glyph-name="uni0E2C" unicode="&#xe2c;" horiz-adv-x="780" 
d="M809 708q-11 -63 -42 -97.5t-82 -49.5q42 -17 57 -51.5t3 -91.5l-94 -418h-161l-98 344l-99 -344h-161l-129 577h183l51 -330l92 317h125l93 -317l36 186q8 46 -1.5 71.5t-49.5 27.5v82q47 0 76.5 19.5t36.5 74.5h164z" />
    <glyph glyph-name="uni0E2D" unicode="&#xe2d;" horiz-adv-x="617" 
d="M303 581q62 0 115.5 -20t92.5 -57.5t61 -92t22 -123.5q0 -66 -20 -120.5t-57.5 -93.5t-91.5 -60.5t-122 -21.5q-72 0 -129 26t-93 71t-48 105t7 128h240v-106h-89q2 -16 12 -31t26 -25.5t34.5 -17t36.5 -6.5q61 0 90.5 43.5t29.5 111.5q0 43 -12 70.5t-29.5 44t-38 23
t-38.5 6.5q-31 0 -59 -15t-38 -46h-171q6 48 29.5 86.5t59.5 65t82.5 41t97.5 14.5z" />
    <glyph glyph-name="uni0E2E" unicode="&#xe2e;" horiz-adv-x="625" 
d="M617 614v-115l-135 -11v-2q54 -26 83.5 -76t29.5 -122q0 -65 -20 -119.5t-58 -93.5t-91.5 -61t-121.5 -22q-72 0 -129.5 26t-94 71t-48 105t7.5 128h240v-106h-88q2 -16 12.5 -31t26 -25.5t34 -17t35.5 -6.5q61 0 90.5 43.5t29.5 111.5q0 38 -9 65t-25 44.5t-37.5 26
t-45.5 8.5q-37 0 -62.5 -15t-34.5 -46h-172q12 96 82.5 145.5t185.5 61.5z" />
    <glyph glyph-name="uni0E2F" unicode="&#xe2f;" horiz-adv-x="633" 
d="M403 0v318h-3q-17 -54 -61.5 -83.5t-121.5 -29.5q-38 0 -72.5 13t-61 38.5t-42 62t-15.5 84.5q0 50 15.5 84t42.5 55t63 30t77 9q37 0 69 -7v-109q-38 3 -60.5 -11t-22.5 -43q0 -33 19 -52t59 -19q49 0 79.5 34.5t30.5 88.5v114h179v-577h-174z" />
    <glyph glyph-name="uni0E30" unicode="&#xe30;" horiz-adv-x="362" 
d="M337 449v-117h-142q-59 0 -95.5 15t-56 39.5t-24 55.5t-0.5 62h147q-3 -33 13.5 -44t56.5 -11h101zM337 164v-118h-142q-59 0 -95.5 15t-56 39.5t-24 55.5t-0.5 62h147q-3 -32 13.5 -43t56.5 -11h101z" />
    <glyph glyph-name="uni0E31" unicode="&#xe31;" 
d="M23 757v-107h-299q-60 0 -96.5 13t-56 35t-24 50.5t-0.5 59.5h149q-2 -33 14 -42.5t57 -8.5h256z" />
    <glyph glyph-name="uni0E32" unicode="&#xe32;" horiz-adv-x="471" 
d="M252 0v367q0 65 -86 71q-35 2 -70 -4.5t-77 -17.5v133q45 16 91 24t100 8q46 0 86.5 -9t71 -29t48.5 -52t18 -78v-413h-182z" />
    <glyph glyph-name="uni0E33" unicode="&#xe33;" horiz-adv-x="471" 
d="M-160 826q65 0 99 -26t34 -77t-34 -76.5t-99 -25.5q-133 0 -133 102q0 103 133 103zM-160 689q16 0 26 8.5t10 25.5t-10 25.5t-26 8.5q-17 0 -27.5 -8.5t-10.5 -25.5t10.5 -25.5t27.5 -8.5zM252 0v367q0 65 -86 71q-35 2 -70 -4.5t-77 -17.5v133q45 16 91 24t100 8
q46 0 86.5 -9t71 -29t48.5 -52t18 -78v-413h-182z" />
    <glyph glyph-name="uni0E34" unicode="&#xe34;" 
d="M-34 650h-528v107h528v-107z" />
    <glyph glyph-name="uni0E35" unicode="&#xe35;" 
d="M-34 821v-171h-528v107h368v64h160z" />
    <glyph glyph-name="uni0E36" unicode="&#xe36;" 
d="M-135 828q61 0 83.5 -22.5t22.5 -65.5q0 -45 -22 -67.5t-83 -22.5h-428v107h322q2 38 28 54t77 17zM-135 710q31 0 31 30q0 27 -31 27t-31 -27q0 -30 31 -30z" />
    <glyph glyph-name="uni0E37" unicode="&#xe37;" 
d="M-34 821v-171h-527v107h239v64h117v-64h54v64h117z" />
    <glyph glyph-name="uni0E38" unicode="&#xe38;" 
d="M-40 -263h-158v92h-84v104h242v-196z" />
    <glyph glyph-name="uni0E39" unicode="&#xe39;" 
d="M-40 -67v-91q0 -43 -19 -68.5t-46.5 -39t-59.5 -18t-59 -4.5q-26 0 -55.5 4t-55 16.5t-44 35.5t-22.5 61h-57v104h195v-67q0 -23 7 -37.5t32 -14.5t31.5 15t6.5 40v64h146z" />
    <glyph glyph-name="uni0E3A" unicode="&#xe3a;" 
d="M-224 -161q0 19 7.5 36.5t20.5 30t30 20t36 7.5t36.5 -7.5t30.5 -20t20.5 -30t7.5 -36.5q0 -20 -7.5 -37t-20.5 -30.5t-30.5 -21t-36.5 -7.5t-36 7.5t-30 21t-20.5 30.5t-7.5 37z" />
    <glyph glyph-name="uni0E3F" unicode="&#xe3f;" horiz-adv-x="660" 
d="M475 359q36 -1 65.5 -15t50 -37t31.5 -53.5t11 -65.5q0 -45 -17.5 -80t-49.5 -59t-78 -36.5t-102 -12.5v-104h-158v104h-188v700h188v98h158v-99q102 -3 159 -46t57 -124q0 -30 -8.5 -58.5t-24.5 -51t-39.5 -38t-54.5 -19.5v-3zM323 411q45 0 69 18t24 55q0 77 -91 77
h-101v-150h99zM333 139q54 0 80 17.5t26 60.5q0 42 -26.5 59t-79.5 17h-109v-154h109z" />
    <glyph glyph-name="uni0E40" unicode="&#xe40;" horiz-adv-x="352" 
d="M336 8q-60 -12 -109 -9q-77 3 -123.5 46t-46.5 135v397h180v-371q0 -27 7 -43t19.5 -23.5t31 -8.5t41.5 1v-124z" />
    <glyph glyph-name="uni0E41" unicode="&#xe41;" horiz-adv-x="671" 
d="M336 8q-60 -12 -109 -9q-77 3 -123.5 46t-46.5 135v397h180v-371q0 -27 7 -43t19.5 -23.5t31 -8.5t41.5 1v-124zM655 8q-60 -12 -109 -9q-77 3 -123 46t-46 135v397h180v-371q0 -27 6.5 -43t19.5 -23.5t31 -8.5t41 1v-124z" />
    <glyph glyph-name="uni0E42" unicode="&#xe42;" horiz-adv-x="401" 
d="M385 8q-17 -3 -35 -5.5t-33 -3.5q-47 -3 -86 5.5t-66.5 30t-43 57.5t-15.5 88v322q0 21 -4.5 38t-17 31t-35.5 26t-59 22v11q0 54 20 92t51.5 62t71.5 35t80 11q42 0 80 -11.5t68 -32t49.5 -50t24.5 -65.5h-148q-10 18 -30.5 25t-42.5 7q-23 0 -41.5 -7t-29.5 -21
q59 -16 89 -42.5t42 -60.5t12.5 -72.5t0.5 -77.5v-216q0 -48 20.5 -63t65.5 -12h3l6 1h3v-124z" />
    <glyph glyph-name="uni0E43" unicode="&#xe43;" horiz-adv-x="401" 
d="M383 8q-17 -3 -34 -5.5t-32 -3.5q-47 -3 -86 5.5t-67 30t-43.5 57.5t-15.5 88v254q0 33 10.5 58.5t27 46t35 36.5t35 30t27 27t10.5 26q0 20 -12 32.5t-40 12.5q-24 0 -40 -13t-19 -54h-144q1 52 17.5 89t44 60t64.5 34t80 11q45 0 82 -9.5t63.5 -29.5t40.5 -51t14 -75
q0 -29 -8.5 -50.5t-21 -39t-27.5 -33.5t-27.5 -33t-21 -37.5t-8.5 -47.5v-218q0 -27 6.5 -42.5t18.5 -23.5t30 -9t41 1v-124z" />
    <glyph glyph-name="uni0E44" unicode="&#xe44;" horiz-adv-x="401" 
d="M383 8q-26 -5 -51.5 -7t-49.5 -2q-40 1 -72.5 11.5t-55.5 32t-36 55.5t-13 82v291q0 48 20 82.5t43.5 61t43.5 46.5t20 39q0 11 -11 16.5t-25 2.5q-10 -2 -19.5 -9.5t-14.5 -23.5h-102l-105 138h138l34 -59q11 26 39.5 45.5t75.5 19.5q24 0 50 -4.5t47.5 -16t35.5 -31.5
t14 -52q0 -33 -7.5 -55.5t-19 -39.5t-24.5 -33t-24.5 -37t-19 -50t-7.5 -74v-231q0 -48 20.5 -62.5t62.5 -12.5q8 0 13 1v-124z" />
    <glyph glyph-name="uni0E45" unicode="&#xe45;" horiz-adv-x="471" 
d="M252 -199v566q0 65 -86 71q-35 2 -70 -4.5t-77 -17.5v133q45 16 91 24t100 8q46 0 86.5 -9t71 -29t48.5 -52t18 -78v-612h-182z" />
    <glyph glyph-name="uni0E46" unicode="&#xe46;" horiz-adv-x="641" 
d="M418 581q54 0 87 -10.5t50.5 -32t23.5 -53.5t6 -74v-210q0 -51 -14 -88t-38.5 -61.5t-58 -37.5t-71.5 -17q-27 -2 -55 -1.5t-55 4.5v112q10 -1 19 -2t18 1q31 4 52.5 22t21.5 55v197q0 25 -6 38.5t-24 13.5q-11 0 -21 -9.5t-16 -35.5h-71q-6 26 -15 35.5t-22 9.5
q-17 0 -22.5 -15.5t-5.5 -38.5q0 -82 92 -68v-112q-21 -4 -41 -5.5t-41 0.5q-40 0 -74 10t-59 32t-39 57t-14 85v30q0 42 7 73.5t25 53t49.5 32t80.5 10.5q54 0 79.5 -21t35.5 -63q10 42 36.5 63t79.5 21z" />
    <glyph glyph-name="uni0E47" unicode="&#xe47;" 
d="M-326 821q-20 0 -32 -10t-12 -32q0 -18 13.5 -26.5t30.5 -8.5q14 0 28.5 12t16.5 35h41l136 -58v-105h-9l-135 64q-16 -30 -49 -44.5t-70 -14.5q-61 0 -101.5 36t-40.5 111q0 69 47.5 110t135.5 41h247v-110h-247z" />
    <glyph glyph-name="uni0E48" unicode="&#xe48;" 
d="M-38 864h-152v187h152v-187z" />
    <glyph glyph-name="uni0E49" unicode="&#xe49;" 
d="M8 962v-98h-342v56q26 7 41 14.5t22.5 15.5t9.5 16t2 16q0 16 -21.5 21.5t-53.5 0.5v77q19 7 39.5 10t41.5 3q23 0 45 -4.5t39 -13.5t27 -23t10 -34q0 -40 -28 -68q21 5 45 8t45 3h78z" />
    <glyph glyph-name="uni0E4A" unicode="&#xe4a;" 
d="M-19 936v-72h-175v102q0 30 -20 30q-11 0 -17 -6t-9 -21h-52q-4 17 -10.5 22t-14.5 5q-20 0 -20 -27q0 -17 16.5 -22t40.5 -3v-76q-20 -5 -41 -5.5t-39 1.5q-45 4 -74 27.5t-29 80.5v4q0 22 5 41.5t17 34.5t31 24t48 9q35 0 58.5 -9t37.5 -34q14 25 37.5 34t57.5 9
q28 0 47 -9t31 -24t17 -35t5 -43v-38h52z" />
    <glyph glyph-name="uni0E4B" unicode="&#xe4b;" 
d="M20 920h-72v-56h-127v56h-72v77h72v55h127v-55h72v-77z" />
    <glyph glyph-name="uni0E4C" unicode="&#xe4c;" 
d="M4 881q-41 -5 -76.5 -6.5t-61 -5.5t-40 -14t-12.5 -32h-146q-2 28 0.5 51.5t16.5 42t44 30.5t84 18l191 20v-104z" />
    <glyph glyph-name="uni0E4D" unicode="&#xe4d;" 
d="M-160 826q65 0 99 -26t34 -77t-34 -76.5t-99 -25.5q-133 0 -133 102q0 103 133 103zM-160 689q16 0 26 8.5t10 25.5t-10 25.5t-26 8.5q-17 0 -27.5 -8.5t-10.5 -25.5t10.5 -25.5t27.5 -8.5z" />
    <glyph glyph-name="uni0E4E" unicode="&#xe4e;" 
d="M-348 0v675h681v-675h-681zM306 22q6 0 6 7v619q0 6 -6 6h-627q-6 0 -6 -6v-619q0 -7 6 -7h627z" />
    <glyph glyph-name="uni0E4F" unicode="&#xe4f;" horiz-adv-x="574" 
d="M287 570q53 0 99.5 -20t81 -54t54.5 -80t20 -99t-20 -100t-54.5 -81.5t-81 -54.5t-99.5 -20t-99.5 20t-81 54.5t-54 81.5t-19.5 100t19.5 99t54 80t81 54t99.5 20zM287 147q35 0 65 13.5t52.5 36.5t35.5 54t13 66t-13 65t-35.5 52.5t-52.5 35.5t-65 13t-66 -13t-54 -35.5
t-36.5 -52.5t-13.5 -65t13.5 -66t36.5 -54t54 -36.5t66 -13.5zM287 442q26 0 48.5 -9.5t39 -26.5t26.5 -39.5t10 -49.5q0 -26 -10 -49t-26.5 -40t-39 -27t-48.5 -10t-49 10t-40 27t-27 40t-10 49q0 27 10 49.5t27 39.5t40 26.5t49 9.5zM287 263q23 0 37 15.5t14 38.5
q0 21 -14 35.5t-37 14.5q-22 0 -37 -14.5t-15 -35.5q0 -23 15 -38.5t37 -15.5z" />
    <glyph glyph-name="uni0E50" unicode="&#xe50;" horiz-adv-x="621" 
d="M310 524q63 0 116.5 -17t92.5 -51t61 -83.5t22 -114.5q0 -66 -22 -115.5t-61 -83t-92.5 -50.5t-116.5 -17t-116.5 17t-92 50.5t-60.5 83t-22 115.5q0 65 22 114.5t61 83.5t92 51t116 17zM310 130q24 0 45 7.5t36.5 23t25 40t9.5 57.5q0 34 -9.5 58.5t-25 40.5t-36.5 23.5
t-45 7.5t-44.5 -7.5t-36.5 -23.5t-25 -40.5t-9 -58.5q0 -33 9 -57.5t25 -40t36.5 -23t44.5 -7.5z" />
    <glyph glyph-name="uni0E51" unicode="&#xe51;" horiz-adv-x="622" 
d="M296 89q-49 -5 -98.5 2.5t-89 30.5t-64.5 63t-25 100q0 65 22 110.5t61 74t92 41.5t116 13t117 -19t93 -56t61 -92t22 -128q0 -59 -20 -118.5t-65.5 -107t-119.5 -75.5t-182 -25v128q62 -2 102.5 16t64.5 47t34 65t10 70q0 39 -9.5 69t-25.5 50t-37 30t-45 10t-44.5 -5
t-36.5 -17t-25 -32t-9 -49q0 -17 8 -31t21.5 -23.5t32 -13.5t39.5 -1v-127z" />
    <glyph glyph-name="uni0E52" unicode="&#xe52;" horiz-adv-x="811" 
d="M41 682h169v-431q0 -45 21.5 -71.5t52 -41t64 -19t57.5 -4.5q25 0 58.5 5t64 19.5t51.5 41t21 70.5v76q0 26 -3.5 40t-22.5 14q-12 0 -21 -10.5t-15 -34.5h-71q-7 24 -15 34.5t-22 10.5q-19 0 -22.5 -14t-3.5 -40q0 -19 7.5 -30.5t20.5 -17t30 -6t36 2.5v-100
q-35 -7 -69 -7q-37 0 -69 7.5t-56 24.5t-38 45.5t-14 71.5v41q0 41 6 72t21 51.5t41 31t66 10.5q54 0 79.5 -20.5t36.5 -62.5q11 42 37.5 62.5t78.5 20.5q46 0 75.5 -10.5t46.5 -32t23.5 -54t6.5 -75.5v-117q0 -64 -30 -110t-80.5 -75.5t-116.5 -43.5t-138 -14t-137.5 14
t-116 43.5t-80.5 75.5t-30 110v447z" />
    <glyph glyph-name="uni0E53" unicode="&#xe53;" horiz-adv-x="678" 
d="M465 524q55 0 88.5 -10.5t52 -32t25 -54t6.5 -75.5v-352h-181v327q0 26 -7 40.5t-26 14.5q-27 0 -37 -46h-86q-6 26 -16.5 36t-22.5 10q-15 0 -24 -10.5t-13 -28t-5 -40.5t-1 -48q0 -70 32 -102.5t112 -22.5v-129q-17 -2 -32.5 -3.5t-30.5 -1.5q-59 -3 -107.5 8
t-83.5 39.5t-54 77t-19 119.5q0 61 6 113t25.5 90t55.5 59.5t95 21.5q51 0 83 -20.5t42 -62.5q10 42 41 62.5t82 20.5z" />
    <glyph glyph-name="uni0E54" unicode="&#xe54;" horiz-adv-x="647" 
d="M311 389q-39 0 -67 -34t-28 -97t25 -98.5t70 -35.5q22 0 41 1.5t31 5.5q-3 8 -6.5 18t-3.5 19q-2 42 7.5 74t35 52t69 28.5t107.5 4.5v-107q-29 1 -48.5 -9.5t-19.5 -33.5q0 -32 19.5 -43t43.5 -11h46v-123h-48q-75 0 -132 31q-40 -39 -145 -39q-127 0 -200 67.5
t-73 198.5q0 66 19 115.5t54.5 83t86 50.5t113.5 17h73q57 0 85.5 22t26.5 79h140q6 -59 -10 -103.5t-44 -74t-65 -44t-73 -14.5h-130z" />
    <glyph glyph-name="uni0E55" unicode="&#xe55;" horiz-adv-x="647" 
d="M308 -8q-127 0 -200 67.5t-73 198.5q0 91 37.5 151.5t103.5 87.5q-14 22 -14 57q0 53 35 85t102 32t100.5 -32t33.5 -85q0 -8 -1.5 -13t-3.5 -10q33 8 49.5 29.5t15.5 64.5h140q6 -60 -10.5 -104.5t-45.5 -74t-67 -43.5t-76 -14h-86q-25 0 -49 -4t-42.5 -18t-29.5 -39.5
t-11 -69.5q0 -63 25 -98.5t70 -35.5q22 0 41 1.5t31 5.5q-3 8 -6.5 18t-3.5 19q-2 42 7.5 74t35 52t69 28.5t107.5 4.5v-107q-29 1 -48.5 -9.5t-19.5 -33.5q0 -32 19.5 -43t43.5 -11h46v-123h-48q-75 0 -132 31q-40 -39 -145 -39zM299 520q17 0 27 8.5t10 25.5t-10 26t-27 9
t-27.5 -9t-10.5 -26t10.5 -25.5t27.5 -8.5z" />
    <glyph glyph-name="uni0E56" unicode="&#xe56;" horiz-adv-x="690" 
d="M332 227q-44 6 -64 -4.5t-20 -35.5q0 -17 9 -28.5t24.5 -18t36 -9.5t44.5 -3q23 0 44.5 6.5t37.5 22t25.5 40.5t9.5 62q0 33 -10.5 58t-28.5 41.5t-42 25.5t-51 12q-16 2 -37 0.5t-42.5 -4.5t-41 -7.5t-32.5 -9.5h-93l-127 253h164l65 -148q12 9 29.5 17t37 14t39.5 9.5
t38 3.5q89 0 148 -19.5t94.5 -54.5t50 -83.5t14.5 -107.5q0 -73 -22 -123.5t-61 -82.5t-92.5 -46.5t-116.5 -14.5t-116 9.5t-92 32t-60.5 60t-21.5 93.5q0 45 12.5 74.5t34.5 46.5t51.5 24t63.5 7q23 0 47.5 -2.5t50.5 -6.5v-103z" />
    <glyph glyph-name="uni0E57" unicode="&#xe57;" horiz-adv-x="905" 
d="M453 524q54 0 85 -10.5t47.5 -32t21 -54t4.5 -75.5v-180q0 -20 10.5 -33t32.5 -13q20 0 30.5 13t10.5 33v510h169v-490q0 -55 -18.5 -92.5t-48.5 -61t-67.5 -33.5t-75.5 -10q-41 0 -79.5 11t-68 35.5t-47 65t-17.5 100.5v120q0 26 -5.5 40.5t-25.5 14.5q-27 0 -37 -46
h-75q-8 26 -17.5 36t-22.5 10q-16 0 -24 -10.5t-12 -28t-4.5 -40.5t-0.5 -48q0 -70 32 -102.5t112 -22.5v-129q-18 -2 -35 -3.5t-34 -1.5q-58 -3 -105.5 9t-81.5 41t-52.5 77t-18.5 117q0 61 6 113t25 90t54.5 59.5t95.5 21.5q45 0 77 -20.5t43 -62.5q9 42 40.5 62.5
t76.5 20.5z" />
    <glyph glyph-name="uni0E58" unicode="&#xe58;" horiz-adv-x="660" 
d="M25 257q0 65 19 115t54.5 83.5t85.5 51t113 17.5h81q62 0 92.5 21t28.5 80h141q6 -59 -10 -103.5t-44.5 -74t-65 -44t-72.5 -14.5h-129q-23 0 -43.5 -6.5t-36.5 -22t-25 -40.5t-9 -63q0 -22 1.5 -44t6.5 -40t15 -29.5t26 -11.5q14 0 24 15t13 41h86q5 -28 15 -42t23 -14
q16 0 25 6t13.5 14.5t5.5 18.5t1 17v4q0 8 -1 16t-7 15t-18.5 11.5t-36.5 5.5q-8 0 -17 -0.5t-20 -2.5v105l36 5q17 1 31.5 1.5t28.5 0.5q88 -1 129 -43t41 -120q0 -32 -7 -66t-25.5 -61.5t-51 -45t-84.5 -17.5q-49 0 -81 20.5t-43 62.5q-10 -42 -41 -63t-82 -21
q-54 0 -90 22t-57 58.5t-30 84t-9 97.5z" />
    <glyph glyph-name="uni0E59" unicode="&#xe59;" horiz-adv-x="765" 
d="M564 345q0 17 -9.5 27.5t-34.5 10.5q-17 0 -28 -13t-6 -33l150 -337h-172l-149 336q-11 24 -21.5 35.5t-30.5 11.5q-15 0 -23.5 -10.5t-12.5 -28.5t-5 -41t-1 -48q0 -59 16.5 -89.5t65.5 -35.5q21 -3 49 0v-129q-14 -2 -29 -3.5t-28 -1.5q-56 -4 -103.5 7t-81.5 40
t-53 77.5t-19 119.5q0 61 7.5 113t28.5 90t59 59.5t99 21.5q110 0 149 -85q6 25 19 41.5t29 26t34.5 13.5t35.5 4q34 0 61.5 -11.5t41.5 -36.5l46 118h143l-106 -249h-121z" />
    <glyph glyph-name="uni0E5A" unicode="&#xe5a;" horiz-adv-x="883" 
d="M403 0v318h-3q-17 -54 -61.5 -83.5t-121.5 -29.5q-38 0 -72.5 13t-61 38.5t-42 62t-15.5 84.5q0 50 15.5 84t42.5 55t63 30t77 9q37 0 69 -7v-109q-38 3 -60.5 -11t-22.5 -43q0 -33 19 -52t59 -19q49 0 79.5 34.5t30.5 88.5v114h179v-577h-174zM651 0v577h176v-577h-176z
" />
    <glyph glyph-name="uni0E5B" unicode="&#xe5b;" horiz-adv-x="804" 
d="M61 0v675h681v-675h-681zM715 22q7 0 7 7v619q0 6 -7 6h-626q-7 0 -7 -6v-619q0 -7 7 -7h626z" />
    <glyph glyph-name="uni200C" unicode="&#x200c;" 
 />
    <glyph glyph-name="uni200D" unicode="&#x200d;" 
 />
    <glyph glyph-name="uni200E" unicode="&#x200e;" 
 />
    <glyph glyph-name="uni200F" unicode="&#x200f;" 
 />
    <glyph glyph-name="endash" unicode="&#x2013;" horiz-adv-x="490" 
d="M454 246h-419v140h419v-140z" />
    <glyph glyph-name="emdash" unicode="&#x2014;" horiz-adv-x="718" 
d="M682 246h-647v140h647v-140z" />
    <glyph glyph-name="quoteleft" unicode="&#x2018;" horiz-adv-x="312" 
d="M297 457h-155l-145 243h183z" />
    <glyph glyph-name="quoteright" unicode="&#x2019;" horiz-adv-x="312" 
d="M15 457l117 243h183l-144 -243h-156z" />
    <glyph glyph-name="quotesinglbase" unicode="&#x201a;" horiz-adv-x="231" 
d="M-12 -123l54 240h172l-78 -240h-148z" />
    <glyph glyph-name="quotedblleft" unicode="&#x201c;" horiz-adv-x="520" 
d="M217 700h171l117 -243h-143zM-3 700h171l117 -243h-143z" />
    <glyph glyph-name="quotedblright" unicode="&#x201d;" horiz-adv-x="520" 
d="M132 700h171l-145 -243h-143zM352 700h171l-145 -243h-143z" />
    <glyph glyph-name="quotedblbase" unicode="&#x201e;" horiz-adv-x="433" 
d="M416 117l-79 -240h-135l55 240h159zM203 117l-79 -240h-136l54 240h161z" />
    <glyph glyph-name="dagger" unicode="&#x2020;" horiz-adv-x="542" 
d="M180 536v164h182v-164h136v-129h-136v-407h-182v407h-136v129h136z" />
    <glyph glyph-name="daggerdbl" unicode="&#x2021;" horiz-adv-x="542" 
d="M180 536v164h182v-164h136v-129h-136v-114h136v-129h-136v-164h-182v164h-136v129h136v114h-136v129h136z" />
    <glyph glyph-name="bullet" unicode="&#x2022;" horiz-adv-x="457" 
d="M231 147q-34 0 -65.5 13.5t-54.5 36.5t-37 54t-14 66t14 65.5t37 53t54.5 35.5t65.5 13q35 0 65 -13t52.5 -35.5t35.5 -53t13 -65.5q0 -33 -13 -63.5t-35.5 -54.5t-52.5 -38t-65 -14z" />
    <glyph glyph-name="ellipsis" unicode="&#x2026;" horiz-adv-x="742" 
d="M519 97q0 40 27 68.5t78 28.5q50 0 76.5 -28.5t26.5 -68.5t-26.5 -68.5t-76.5 -28.5q-51 0 -78 28.5t-27 68.5zM15 97q0 40 27 68.5t78 28.5t78 -28.5t27 -68.5t-27 -68.5t-78 -28.5t-78 28.5t-27 68.5zM267 97q0 40 27.5 68.5t78.5 28.5q49 0 76 -28.5t27 -68.5
t-27 -68.5t-76 -28.5q-51 0 -78.5 28.5t-27.5 68.5z" />
    <glyph glyph-name="perthousand" unicode="&#x2030;" horiz-adv-x="1104" 
d="M340 547q0 -37 -13 -66.5t-35 -50t-51 -31.5t-61 -11q-31 0 -60 11t-50.5 31.5t-34.5 50t-13 66.5q0 38 13 67.5t34.5 50.5t50.5 32t60 11q32 0 61 -11t51 -32t35 -50.5t13 -67.5zM666 700l-414 -700h-152l413 700h153zM134 547q0 -26 12 -41t34 -15q20 0 33.5 15
t13.5 41t-13.5 41t-33.5 15q-22 0 -34 -15t-12 -41zM583 311q32 0 61 -11t51 -32t34.5 -50.5t12.5 -67.5q0 -36 -12.5 -65.5t-34.5 -50t-51 -31.5t-61 -11t-61 11t-50.5 31.5t-34.5 50t-13 65.5q0 38 13 67.5t34.5 50.5t50.5 32t61 11zM924 311q32 0 60.5 -11t50 -32
t34.5 -50.5t13 -67.5q0 -36 -13 -65.5t-34.5 -50t-50 -31.5t-60.5 -11t-61 11t-51 31.5t-35 50t-13 65.5q0 38 13 67.5t35 50.5t51 32t61 11zM583 94q20 0 32.5 15t12.5 41t-12.5 41.5t-32.5 15.5q-22 0 -34.5 -15t-12.5 -42q0 -26 12.5 -41t34.5 -15zM924 94q20 0 32.5 15
t12.5 41t-12.5 41.5t-32.5 15.5q-23 0 -35.5 -15t-12.5 -42q0 -26 12.5 -41t35.5 -15z" />
    <glyph glyph-name="minute" unicode="&#x2032;" horiz-adv-x="312" 
d="M15 457l117 244h183l-144 -244h-156z" />
    <glyph glyph-name="second" unicode="&#x2033;" horiz-adv-x="520" 
d="M303 701l-145 -244h-143l117 244h171zM523 701l-145 -244h-143l117 244h171z" />
    <glyph glyph-name="guilsinglleft" unicode="&#x2039;" horiz-adv-x="535" 
d="M42 270v93l451 273v-172l-262 -146v-1l262 -148v-170z" />
    <glyph glyph-name="guilsinglright" unicode="&#x203a;" horiz-adv-x="535" 
d="M42 -1v170l262 148v1l-262 146v172l451 -273v-93z" />
    <glyph glyph-name="fraction" unicode="&#x2044;" horiz-adv-x="449" 
d="M443 700l-252 -700h-186l254 700h184z" />
    <glyph glyph-name="Euro" unicode="&#x20ac;" horiz-adv-x="764" 
d="M105 488q33 107 115.5 163.5t206.5 56.5q63 0 118 -18t97 -50.5t68.5 -79t33.5 -103.5h-186q-12 50 -46 77t-85 27q-82 0 -120 -73h149v-110h-182v-57h182v-111h-149q39 -71 120 -71q51 0 85 26t47 77h186q-7 -57 -33 -103.5t-68 -79t-97 -50t-120 -17.5
q-124 0 -207 55.5t-115 162.5h-85v111h66v57h-66v110h85z" />
    <glyph glyph-name="uni2113" unicode="&#x2113;" horiz-adv-x="480" 
 />
    <glyph glyph-name="trademark" unicode="&#x2122;" horiz-adv-x="950" 
d="M374 607h-109v-326h-123v326h-109v93h341v-93zM796 524h-3l-96 -243h-56l-97 243h-2v-243h-120v419h155l92 -233h1l91 233h156v-419h-121v243z" />
    <glyph glyph-name="uni2126" unicode="&#x2126;" horiz-adv-x="723" 
 />
    <glyph glyph-name="estimated" unicode="&#x212e;" horiz-adv-x="570" 
 />
    <glyph glyph-name="partialdiff" unicode="&#x2202;" horiz-adv-x="536" 
 />
    <glyph glyph-name="uni2206" unicode="&#x2206;" horiz-adv-x="536" 
 />
    <glyph glyph-name="product" unicode="&#x220f;" horiz-adv-x="630" 
d="M546 700v-877h-158v754h-145v-754h-158v877h461z" />
    <glyph glyph-name="summation" unicode="&#x2211;" horiz-adv-x="624" 
 />
    <glyph glyph-name="minus" unicode="&#x2212;" horiz-adv-x="490" 
d="M454 246h-419v140h419v-140z" />
    <glyph glyph-name="radical" unicode="&#x221a;" horiz-adv-x="528" 
 />
    <glyph glyph-name="infinity" unicode="&#x221e;" horiz-adv-x="637" 
 />
    <glyph glyph-name="integral" unicode="&#x222b;" horiz-adv-x="357" 
 />
    <glyph glyph-name="approxequal" unicode="&#x2248;" horiz-adv-x="589" 
d="M211 392q-8 0 -15.5 -2t-13.5 -8t-9.5 -17t-3.5 -29h-134q0 94 35 142.5t118 48.5q30 0 53.5 -11t45 -24t42.5 -24t45 -11q20 0 34 15.5t14 52.5h132q0 -91 -38 -147t-118 -56q-30 0 -54 11t-46 24t-42.5 24t-44.5 11zM211 176q-16 0 -29 -15t-13 -52h-134q0 95 35.5 149
t117.5 54q30 0 53.5 -11t45 -24t42.5 -24t45 -11q20 0 34 9.5t14 47.5h132q0 -92 -37.5 -141.5t-118.5 -49.5q-30 0 -54 10.5t-46 23.5t-42.5 23.5t-44.5 10.5z" />
    <glyph glyph-name="notequal" unicode="&#x2260;" horiz-adv-x="527" 
 />
    <glyph glyph-name="lessequal" unicode="&#x2264;" horiz-adv-x="540" 
d="M48 464l450 196v-161l-246 -92v-2l246 -94v-158l-450 194v117zM498 0h-456v128h456v-128z" />
    <glyph glyph-name="greaterequal" unicode="&#x2265;" horiz-adv-x="540" 
d="M493 347l-451 -194v158l246 94v2l-246 92v161l451 -196v-117zM42 128h456v-128h-456v128z" />
    <glyph glyph-name="lozenge" unicode="&#x25ca;" horiz-adv-x="663" 
d="M332 813l285 -477l-285 -481l-286 481zM332 602l-159 -266l159 -269l158 269z" />
    <glyph glyph-name="uni25CC" unicode="&#x25cc;" horiz-adv-x="580" 
d="M291 457q-18 0 -30.5 12.5t-12.5 31.5q0 17 12.5 30t30.5 13t31.5 -13t13.5 -30q0 -19 -13.5 -31.5t-31.5 -12.5zM158 403q-17 0 -29.5 12.5t-12.5 30.5q0 17 12.5 30.5t29.5 13.5q19 0 32 -13.5t13 -30.5q0 -18 -13 -30.5t-32 -12.5zM423 403q-17 0 -29.5 12.5
t-12.5 30.5q0 17 12.5 30.5t29.5 13.5q19 0 32 -13.5t13 -30.5q0 -18 -13 -30.5t-32 -12.5zM476 359q17 0 30.5 -13.5t13.5 -30.5q0 -18 -13.5 -30.5t-30.5 -12.5q-18 0 -30.5 12.5t-12.5 30.5q0 17 12.5 30.5t30.5 13.5zM104 359q17 0 30 -13.5t13 -30.5q0 -18 -13 -30.5
t-30 -12.5q-19 0 -31.5 12.5t-12.5 30.5q0 17 12.5 30.5t31.5 13.5zM158 232q19 0 32 -13.5t13 -31.5q0 -17 -13 -29.5t-32 -12.5q-17 0 -29.5 12.5t-12.5 29.5q0 18 12.5 31.5t29.5 13.5zM423 232q19 0 32 -13.5t13 -31.5q0 -17 -13 -29.5t-32 -12.5q-17 0 -29.5 12.5
t-12.5 29.5q0 18 12.5 31.5t29.5 13.5zM291 172q18 0 31.5 -13.5t13.5 -31.5q0 -17 -13.5 -29.5t-31.5 -12.5t-30.5 12.5t-12.5 29.5q0 18 12.5 31.5t30.5 13.5z" />
    <glyph glyph-name="uniF700" unicode="&#xf700;" horiz-adv-x="617" 
d="M579 304q0 -61 -19.5 -116t-56 -97t-90 -66.5t-121.5 -24.5h-93l-93 216h-73v106h188l81 -183q26 4 44.5 19t30.5 37.5t17.5 50.5t5.5 58q0 66 -32.5 99.5t-82.5 33.5q-31 0 -59 -16t-38 -47h-172q5 48 26.5 84.5t57 62t83 40.5t104.5 20l322 33v-115l-138 -11v-5
q54 -25 81 -71.5t27 -107.5z" />
    <glyph glyph-name="uniF701" unicode="&#xf701;" 
d="M-168 650h-451v107h451v-107z" />
    <glyph glyph-name="uniF702" unicode="&#xf702;" 
d="M-168 821v-171h-451v107h292v64h159z" />
    <glyph glyph-name="uniF703" unicode="&#xf703;" 
d="M-270 828q62 0 85 -22.5t23 -65.5q0 -45 -22.5 -67.5t-84.5 -22.5h-350v107h244q3 38 28.5 54t76.5 17zM-270 710q14 0 23.5 7.5t9.5 22.5q0 13 -9.5 20t-23.5 7t-23 -7t-9 -20q0 -15 9 -22.5t23 -7.5z" />
    <glyph glyph-name="uniF704" unicode="&#xf704;" 
d="M-168 821v-171h-451v107h165v64h116v-64h53v64h117z" />
    <glyph glyph-name="uniF705" unicode="&#xf705;" 
d="M-259 650h-154v197h154v-197z" />
    <glyph glyph-name="uniF706" unicode="&#xf706;" 
d="M-169 757v-107h-360v60q28 8 44.5 16.5t24.5 17.5t10 17.5t2 17.5q0 17 -23 23.5t-58 1.5v84q20 8 43.5 11.5t46.5 3.5q25 0 49 -5t42.5 -15t29.5 -25.5t11 -36.5q0 -45 -29 -76q24 5 50.5 8.5t49.5 3.5h67z" />
    <glyph glyph-name="uniF707" unicode="&#xf707;" 
d="M-101 744v-93h-195v116q0 34 -23 34q-11 0 -17.5 -6.5t-11.5 -23.5h-55q-4 17 -11.5 23.5t-16.5 6.5q-11 0 -16.5 -7t-5.5 -24q0 -20 18 -26t45 -4v-85q-22 -4 -44 -5t-42 1q-50 4 -84 31t-34 88v5q0 24 6 46.5t19 39.5t34.5 27.5t52.5 10.5q41 0 65.5 -10t41.5 -38
q17 28 42 38t64 10q31 0 52 -10t33.5 -26.5t18 -38.5t5.5 -46v-34h59z" />
    <glyph glyph-name="uniF708" unicode="&#xf708;" 
d="M-195 718h-77v-58h-135v58h-75v86h75v58h135v-58h77v-86z" />
    <glyph glyph-name="uniF709" unicode="&#xf709;" 
d="M-71 879v-109q-27 -2 -50 -4q-21 -2 -42 -3t-32 -3q-28 -3 -44 -6.5t-24.5 -9t-10.5 -14t-2 -22.5h-152q-2 29 0 54.5t17.5 45t48.5 33t93 19.5z" />
    <glyph glyph-name="uniF70A" unicode="&#xf70a;" 
d="M-48 650h-154v197h154v-197z" />
    <glyph glyph-name="uniF70B" unicode="&#xf70b;" 
d="M-3 757v-107h-378v60q29 8 45.5 16.5t25 17.5t11 17.5t2.5 17.5q0 17 -23.5 23.5t-58.5 1.5v84q20 8 43.5 11.5t46.5 3.5q25 0 49 -5t42.5 -15t29.5 -25.5t11 -36.5q0 -44 -30 -76q23 5 49.5 8.5t50.5 3.5h84z" />
    <glyph glyph-name="uniF70C" unicode="&#xf70c;" 
d="M-19 730v-79h-195v116q0 34 -23 34q-11 0 -17.5 -6.5t-11.5 -23.5h-55q-4 17 -11.5 23.5t-16.5 6.5q-11 0 -16.5 -7t-5.5 -24q0 -20 18 -26t45 -4v-85q-22 -4 -44 -5t-42 1q-50 4 -84 31t-34 88v5q0 24 6 46.5t19 39.5t34.5 27.5t52.5 10.5q40 0 65 -10t42 -38
q16 28 41.5 38t64.5 10q31 0 52 -10t33.5 -26.5t18 -38.5t5.5 -46v-48h59z" />
    <glyph glyph-name="uniF70D" unicode="&#xf70d;" 
d="M10 707h-77v-57h-136v57h-75v87h75v57h136v-57h77v-87z" />
    <glyph glyph-name="uniF70E" unicode="&#xf70e;" 
d="M-8 806v-109q-26 -2 -50 -4q-20 -2 -41 -3t-32 -2q-28 -3 -44 -6.5t-24.5 -9.5t-10.5 -14.5t-1 -21.5h-153q-2 29 0 54t17.5 44.5t48.5 33t93 19.5z" />
    <glyph glyph-name="uniF70F" unicode="&#xf70f;" horiz-adv-x="981" 
d="M603 235q0 -51 15.5 -75t66.5 -24q31 0 47 9t23.5 27.5t8.5 46.5t1 66v292h182v-371q0 -52 -14.5 -92t-46 -67t-81.5 -41t-120 -14q-71 0 -121 14t-81.5 41t-46 67t-14.5 92v117q0 53 -27.5 84t-83.5 31q-54 0 -84 -17.5t-43 -54.5h115v-48q-72 -34 -72 -115
q0 -51 28.5 -64.5t80.5 -10.5v-124q-32 -7 -61.5 -9.5t-57.5 -1.5q-37 1 -68.5 10.5t-54.5 29.5t-36 51.5t-13 75.5q0 58 31 97.5t82 53.5h-131q0 68 15.5 118.5t50 84t89.5 50.5t133 17q145 0 216.5 -63.5t71.5 -175.5v-107z" />
    <glyph glyph-name="uniF710" unicode="&#xf710;" 
d="M-101 757v-107h-239q-60 0 -96.5 13t-56 35t-24 50.5t-0.5 59.5h149q-4 -33 12.5 -42.5t58.5 -8.5h196z" />
    <glyph glyph-name="uniF711" unicode="&#xf711;" 
d="M-284 826q65 0 99 -26t34 -77t-34 -76.5t-99 -25.5q-134 0 -134 102q0 51 34 77t100 26zM-284 689q16 0 26 8.5t10 25.5t-10 25.5t-26 8.5q-17 0 -27.5 -8.5t-10.5 -25.5t10.5 -25.5t27.5 -8.5z" />
    <glyph glyph-name="uniF712" unicode="&#xf712;" 
d="M-398 821q-20 0 -32.5 -9.5t-12.5 -29.5q0 -17 11.5 -27.5t31.5 -10.5q14 0 27.5 12t15.5 35h40l129 -58v-105h-11l-126 64q-15 -30 -47.5 -44.5t-69.5 -14.5q-27 0 -52 9t-44.5 27t-31 46t-11.5 65q0 76 52.5 113.5t149.5 37.5h218v-110h-237z" />
    <glyph glyph-name="uniF713" unicode="&#xf713;" 
d="M-172 864h-153v187h153v-187z" />
    <glyph glyph-name="uniF714" unicode="&#xf714;" 
d="M-41 962v-98h-342v56q26 7 41 14.5t23 15.5t10 16t2 16q0 16 -21.5 21.5t-53.5 0.5v77q18 7 39 10t41 3q23 0 45 -4.5t39 -13.5t27 -23t10 -34q0 -40 -26 -68q20 5 44 8t46 3h76z" />
    <glyph glyph-name="uniF715" unicode="&#xf715;" 
d="M-86 936v-72h-175v102q0 30 -20 30q-11 0 -17 -6t-9 -21h-52q-4 17 -10 22t-14 5q-21 0 -21 -27q0 -17 16.5 -22t40.5 -3v-76q-20 -5 -41 -5.5t-39 1.5q-45 4 -73.5 27.5t-28.5 80.5v4q0 22 5 41.5t16.5 34.5t31 24t48.5 9q35 0 58 -9t37 -34q14 25 38 34t58 9
q28 0 47 -9t30.5 -24t16.5 -35t5 -43v-38h52z" />
    <glyph glyph-name="uniF716" unicode="&#xf716;" 
d="M-113 920h-73v-56h-126v56h-74v77h74v55h126v-55h73v-77z" />
    <glyph glyph-name="uniF717" unicode="&#xf717;" 
d="M-57 881q-41 -4 -76 -5.5t-61 -6t-40.5 -14.5t-12.5 -32h-146q-2 28 0 51.5t16 42t44 30.5t83 18l193 20v-104z" />
    <glyph glyph-name="uniF718" unicode="&#xf718;" 
d="M-40 -428h-158v77h-79v105h237v-182z" />
    <glyph glyph-name="uniF719" unicode="&#xf719;" 
d="M-40 -246v-77q0 -43 -19 -68.5t-46.5 -39.5t-59.5 -18.5t-59 -4.5q-25 0 -53 3.5t-53 15t-43.5 31.5t-24.5 53h-60v105h195v-54q0 -22 7 -37t32 -15t31.5 15.5t6.5 40.5v50h146z" />
    <glyph glyph-name="uniF71A" unicode="&#xf71a;" 
d="M-224 -341q0 20 7.5 37.5t20.5 30t30 20t36 7.5t36.5 -7.5t30.5 -20t20.5 -30t7.5 -37.5t-7.5 -37t-20.5 -30.5t-30.5 -21t-36.5 -7.5t-36 7.5t-30 21t-20.5 30.5t-7.5 37z" />
    <glyph glyph-name="uniF71C" unicode="&#xf71c;" horiz-adv-x="647" 
d="M319 581q144 0 219 -63.5t75 -175.5v-369q0 -82 -45 -127t-130 -45q-21 0 -43.5 5t-42.5 14t-36 21.5t-25 27.5l-216 -74h-16v127l222 68h40q3 -13 10 -22t16 -14t17.5 -7.5t14.5 -2.5q8 0 17 2.5t17 8.5t13 16t5 25v327q0 53 -30.5 84t-85.5 31q-108 0 -134 -72h118v-47
q-20 -12 -30 -36t-11 -59q-2 -61 -8 -105t-22.5 -72t-47 -41t-82.5 -13q-23 0 -46 3t-49 8v124q5 -1 9 -1h8q30 0 42.5 11t16.5 28.5t4 38.5t5 41.5t19 38t46 26.5h-128q0 135 69 202.5t225 67.5z" />
    <glyph glyph-name="uniF71D" unicode="&#xf71d;" horiz-adv-x="771" 
d="M800 656q-11 -62 -41.5 -96t-81.5 -50q40 -17 56 -51.5t2 -91.5l-84 -367h-161l-98 344l-99 -344h-161l-129 577h183l51 -334l92 321h125l93 -321l30 139q8 46 -3 70.5t-51 27.5v84q46 0 76 19t38 73h163z" />
    <glyph glyph-name="uni0E4E.alt1" 
d="M-348 0v675h681v-675h-681zM306 22q6 0 6 7v619q0 6 -6 6h-627q-6 0 -6 -6v-619q0 -7 6 -7h627z" />
    <glyph glyph-name="franc" unicode="&#x20a3;" horiz-adv-x="528" 
 />
    <glyph glyph-name="dong" unicode="&#x20ab;" horiz-adv-x="569" 
 />
    <glyph glyph-name="Abreve" unicode="&#x102;" horiz-adv-x="708" 
d="M517 929q0 -36 -12 -66t-34.5 -52t-53.5 -34.5t-70 -12.5q-38 0 -69 12.5t-53.5 34.5t-35 52t-12.5 66h116q0 -26 13.5 -41t40.5 -15t40 15t13 41h117zM505 0l-40 136h-234l-40 -136h-196l234 700h239l235 -700h-198zM430 269l-81 271h-4l-78 -271h163z" />
    <glyph glyph-name="abreve" unicode="&#x103;" horiz-adv-x="580" 
d="M471 746q0 -36 -12 -66t-34.5 -52t-54 -34.5t-70.5 -12.5q-38 0 -69 12.5t-53.5 34.5t-34.5 52t-12 66h116q0 -24 13.5 -39t39.5 -15q28 0 40.5 15t12.5 39h118zM299 524q57 0 102 -13t77 -37t49 -57.5t17 -74.5v-342h-174v76h-3q-10 -21 -28.5 -36.5t-41 -26t-48 -16
t-50.5 -5.5q-36 0 -68.5 11t-56.5 31.5t-38 49t-14 63.5q0 78 55.5 118.5t161.5 46.5l124 9v13q0 32 -20 49t-54 17q-29 0 -51 -11t-27 -33h-162q9 77 74.5 122.5t175.5 45.5zM363 224l-96 -7q-34 -2 -50 -17t-16 -38q0 -26 19 -38.5t45 -12.5q20 0 37.5 7.5t31 20
t21.5 28.5t8 34v23z" />
    <glyph glyph-name="Cacute" unicode="&#x106;" horiz-adv-x="704" 
d="M434 765h-156l110 205h182zM367 139q51 0 85 26t47 77h186q-7 -57 -33 -103.5t-68 -79t-97 -50t-120 -17.5q-79 0 -142 24t-107.5 69.5t-68 112.5t-23.5 153t24 152.5t68 112t107 69t142 23.5q63 0 118 -18t97 -50.5t68.5 -79t33.5 -103.5h-186q-12 50 -46 77t-85 27
q-71 0 -112 -55t-41 -155q0 -103 40.5 -157.5t112.5 -54.5z" />
    <glyph glyph-name="cacute" unicode="&#x107;" horiz-adv-x="565" 
d="M362 588h-156l111 205h181zM299 126q28 0 49.5 13t28.5 42h169q-11 -94 -76 -141.5t-174 -47.5q-128 0 -199 67t-71 199q0 130 71.5 198t197.5 68q107 0 173.5 -49t77.5 -143h-168q-8 31 -29.5 44.5t-49.5 13.5q-40 0 -66.5 -34.5t-26.5 -97.5t26.5 -97.5t66.5 -34.5z
" />
    <glyph glyph-name="Ccaron" unicode="&#x10c;" horiz-adv-x="704" 
d="M312 750l-148 228h144l59 -97h4l59 97h147l-150 -228h-115zM367 139q51 0 85 26t47 77h186q-7 -57 -33 -103.5t-68 -79t-97 -50t-120 -17.5q-79 0 -142 24t-107.5 69.5t-68 112.5t-23.5 153t24 152.5t68 112t107 69t142 23.5q63 0 118 -18t97 -50.5t68.5 -79t33.5 -103.5
h-186q-12 50 -46 77t-85 27q-71 0 -112 -55t-41 -155q0 -103 40.5 -157.5t112.5 -54.5z" />
    <glyph glyph-name="ccaron" unicode="&#x10d;" horiz-adv-x="565" 
d="M239 569l-148 228h145l59 -97h4l58 97h148l-150 -228h-116zM299 126q28 0 49.5 13t28.5 42h169q-11 -94 -76 -141.5t-174 -47.5q-128 0 -199 67t-71 199q0 130 71.5 198t197.5 68q107 0 173.5 -49t77.5 -143h-168q-8 31 -29.5 44.5t-49.5 13.5q-40 0 -66.5 -34.5
t-26.5 -97.5t26.5 -97.5t66.5 -34.5z" />
    <glyph glyph-name="Dcroat" unicode="&#x110;" horiz-adv-x="749" 
d="M12 408h86v292h276q80 0 144.5 -22.5t110 -66t70 -108t24.5 -148.5t-24.5 -150t-70 -111.5t-110 -69.5t-144.5 -24h-276v297h-86v111zM348 139q85 0 130.5 55.5t45.5 160.5q0 97 -46.5 150.5t-128.5 53.5h-65v-151h136v-111h-136v-158h64z" />
    <glyph glyph-name="dcroat" unicode="&#x111;" horiz-adv-x="609" 
d="M222 524q60 0 99.5 -19t67.5 -57h1v120h-226v87h226v68h182v-68h61v-87h-61v-568h-174v65h-2q-24 -32 -70 -52.5t-106 -20.5q-39 0 -76 17t-65.5 50.5t-45.5 83t-17 115.5q0 65 16 114.5t43.5 83.5t65.5 51t81 17zM295 130q46 0 73.5 32.5t27.5 94.5q0 61 -27.5 94.5
t-73.5 33.5q-45 0 -72.5 -32.5t-27.5 -94.5q0 -63 26.5 -95.5t73.5 -32.5z" />
    <glyph glyph-name="Gbreve" unicode="&#x11e;" horiz-adv-x="715" 
d="M539 929q0 -36 -12 -66t-34.5 -52t-54 -34.5t-70.5 -12.5q-38 0 -69 12.5t-53.5 34.5t-34.5 52t-12 66h116q0 -26 13.5 -41t39.5 -15q28 0 41 15t13 41h117zM686 304q0 -28 -4.5 -62t-17 -69t-34.5 -67.5t-57.5 -57.5t-86 -40.5t-119.5 -15.5q-79 0 -142 24t-107 69.5
t-68 112.5t-24 153t24 152.5t68.5 112t107.5 69t142 23.5q64 0 119.5 -18t98 -50.5t69.5 -79t34 -103.5h-185q-13 50 -48.5 77t-87.5 27q-71 0 -112.5 -55t-41.5 -155q0 -103 41 -157.5t113 -54.5q65 0 94.5 32.5t34.5 82.5h-115v132h304v-82z" />
    <glyph glyph-name="gbreve" unicode="&#x11f;" horiz-adv-x="609" 
d="M471 746q0 -36 -12 -66t-34.5 -52t-54 -34.5t-70.5 -12.5q-38 0 -69 12.5t-53.5 34.5t-34.5 52t-12 66h116q0 -24 13.5 -39t39.5 -15q28 0 40.5 15t12.5 39h118zM573 519v-494q0 -53 -20.5 -92t-56.5 -64.5t-85.5 -38.5t-106.5 -13q-53 0 -98.5 10t-80.5 31t-58 53.5
t-32 76.5h164q11 -23 36 -34t60 -11q46 0 71.5 20.5t25.5 71.5v65h-2q-14 -22 -30 -36.5t-35.5 -23.5t-43.5 -13t-53 -4q-43 0 -81.5 17t-67.5 49.5t-46 79t-17 104.5q0 62 18 108.5t47.5 78.5t67.5 48t78 16q58 0 101.5 -16.5t68.5 -55.5h3v67h173zM296 161q46 0 73.5 29.5
t27.5 83.5q0 51 -27.5 82.5t-73.5 31.5t-73 -30.5t-27 -84.5q0 -51 27.5 -81.5t72.5 -30.5z" />
    <glyph glyph-name="Idotaccent" unicode="&#x130;" horiz-adv-x="277" 
d="M139 925q48 0 73 -26.5t25 -64.5t-25 -65t-73 -27t-73 27t-25 65t25 64.5t73 26.5zM46 700h185v-700h-185v700z" />
    <glyph glyph-name="Scedilla" unicode="&#x15e;" horiz-adv-x="634" 
d="M392 416q113 -20 167 -67t54 -131q0 -52 -20.5 -94t-59.5 -71.5t-95 -45t-126 -15.5q-66 0 -119.5 15.5t-91.5 45t-58.5 71.5t-20.5 94h177q6 -37 35.5 -60t80.5 -23t79 17.5t28 49.5q0 14 -5.5 24.5t-18.5 18.5t-34 14.5t-52 12.5l-70 13q-106 20 -160.5 71t-54.5 131
q0 51 21.5 92t59.5 69.5t90 44t112 15.5q69 0 122 -17t89 -47t55 -72t20 -92h-178q-2 37 -30 61t-76 24t-73 -17.5t-25 -46.5t24.5 -45t82.5 -26zM269 -81h181l-136 -204h-154z" />
    <glyph glyph-name="scedilla" unicode="&#x15f;" horiz-adv-x="531" 
d="M340 311q85 -17 127 -50t42 -92q0 -81 -61 -129t-179 -48q-45 0 -86.5 8.5t-75 28t-56 51t-29.5 78.5h172q6 -21 25.5 -33.5t49.5 -12.5q26 0 42 10.5t16 27.5q0 5 -1.5 10t-7 10t-16.5 9t-30 8l-86 16q-75 14 -116 53t-41 97q0 45 19.5 77t51.5 53t74.5 31t87.5 10
q44 0 83.5 -9t70.5 -29.5t51 -52.5t24 -78h-162q-5 23 -23 35.5t-44 12.5q-23 0 -41 -10t-18 -30q0 -9 7 -16t23 -12.5t42 -11t65 -12.5zM101 -285l109 204h182l-137 -204h-154z" />
    <glyph glyph-name="Ohorn" unicode="&#x1a0;" horiz-adv-x="723" 
 />
    <glyph glyph-name="ohorn" unicode="&#x1a1;" horiz-adv-x="568" 
 />
    <glyph glyph-name="Uhorn" unicode="&#x1af;" horiz-adv-x="719" 
 />
    <glyph glyph-name="uhorn" unicode="&#x1b0;" horiz-adv-x="622" 
 />
    <glyph glyph-name="hookabovecomb" unicode="&#x309;" 
 />
    <glyph glyph-name="tildecomb" unicode="&#x303;" 
d="M-366 656q-17 0 -24.5 -14t-7.5 -50h-134q0 47 7 82t23.5 58.5t44 35.5t68.5 12q26 0 47.5 -10.5t41 -22.5t39 -22.5t40.5 -10.5q19 0 28.5 14.5t11.5 51.5h131q0 -91 -33 -140t-113 -49q-27 0 -49 10t-42 22.5t-39 22.5t-40 10z" />
    <glyph glyph-name="acutecomb" unicode="&#x301;" 
d="M-367 588l109 205h183l-136 -205h-156z" />
    <glyph glyph-name="dotbelowcomb" unicode="&#x323;" 
d="M-285 -63q46 0 72 -27t26 -66q0 -38 -26 -64.5t-72 -26.5q-48 0 -74 26.5t-26 64.5q0 39 26 66t74 27z" />
    <glyph glyph-name="gravecomb" unicode="&#x300;" 
d="M-143 588h-156l-136 205h183z" />
    <glyph glyph-name="oneeighth" unicode="&#x215b;" horiz-adv-x="765" 
 />
    <glyph glyph-name="threeeighths" unicode="&#x215c;" horiz-adv-x="765" 
 />
    <glyph glyph-name="fiveeighths" unicode="&#x215d;" horiz-adv-x="764" 
 />
    <glyph glyph-name="seveneighths" unicode="&#x215e;" horiz-adv-x="761" 
 />
    <glyph glyph-name="uniF71B" unicode="&#xf71b;" horiz-adv-x="647" 
d="M472 -199q-52 32 -91.5 45.5t-69.5 11.5q-34 -2 -52 -19t-22 -38h-167q2 52 21.5 87t50.5 55.5t70.5 27t80.5 2.5q35 -3 70.5 -12.5t67.5 -25.5v388q0 53 -30.5 84t-85.5 31q-108 0 -134 -72h118v-47q-20 -12 -30 -36t-11 -59q-2 -61 -8 -105t-22.5 -72t-47 -41
t-82.5 -13q-23 0 -46 3t-49 8v124q5 -1 9 -1h8q30 0 42.5 11t16.5 28.5t4 38.5t5 41.5t19 38t46 26.5h-128q0 135 69 202.5t225 67.5q144 0 219 -63.5t75 -175.5v-541h-141z" />
    <glyph glyph-name="onethird" unicode="&#x2153;" horiz-adv-x="765" 
 />
    <glyph glyph-name="twothirds" unicode="&#x2154;" horiz-adv-x="832" 
 />
    <glyph glyph-name="uni2155" unicode="&#x2155;" horiz-adv-x="731" 
 />
    <glyph glyph-name="uni2156" unicode="&#x2156;" horiz-adv-x="776" 
 />
    <glyph glyph-name="uni2157" unicode="&#x2157;" horiz-adv-x="793" 
 />
    <glyph glyph-name="uni2158" unicode="&#x2158;" horiz-adv-x="770" 
 />
    <glyph glyph-name="uni2159" unicode="&#x2159;" horiz-adv-x="710" 
 />
    <glyph glyph-name="uni215A" unicode="&#x215a;" horiz-adv-x="759" 
 />
    <glyph glyph-name="Fontcraft" horiz-adv-x="693" 
d="M347 667q60 0 113 -22.5t92.5 -62t63 -93t23.5 -114.5q0 -60 -23 -113t-62.5 -92.5t-92.5 -63t-114 -23.5q-60 0 -113.5 23t-93 62.5t-62.5 92.5t-23 114q0 60 23 113.5t62.5 93t93 62.5t113.5 23zM347 136q48 0 91.5 19t76 51t51.5 76t19 93q0 37 -10.5 69.5t-28.5 61.5
l-38 -166q-3 -16 -12.5 -32t-24 -28.5t-32.5 -20t-38 -7.5t-35 7.5t-26 20.5q-16 -13 -33.5 -20.5t-37.5 -7.5q-39 0 -60.5 25t-21.5 56q0 2 0.5 5t1.5 10t3.5 19t6.5 31q-10 -3 -20 7.5t-10 21.5t8.5 20t36.5 9q8 0 16.5 -1.5t15.5 -5.5t10.5 -11t1.5 -18l-15 -80
q-3 -13 3 -23t23 -10q20 0 34.5 14t19.5 31l17 79q2 11 9 16.5t17 5.5q12 0 19 -8.5t7 -17.5q0 -1 -0.5 -3.5t-2 -10.5t-5 -25t-10.5 -48q-2 -13 5 -23t22 -10q17 0 34.5 14t21.5 31l47 203q-32 27 -72.5 42.5t-84.5 15.5q-50 0 -93.5 -18.5t-76 -50.5t-51 -75.5
t-18.5 -93.5q0 -49 18.5 -93t51 -76t76 -51t93.5 -19zM624 30q8 0 8 -7q0 -8 -8 -8h-14l-7 -31q-1 -4 -1 -9q0 -2 0.5 -4t3.5 -2q2 0 3.5 0.5t4.5 0.5q7 0 7 -7q0 -4 -4.5 -6.5t-9.5 -2.5q-7 0 -13.5 6.5t-6.5 17.5q0 6 1 10l7 27h-22l-12 -53q-2 -14 -11 -23t-25 -9
q-3 0 -4.5 3t-1.5 6q0 6 4 6.5t8.5 1.5t9 4t5.5 14l11 50h-11q-7 0 -7 8q0 7 7 7h13l2 12q0 3 2 7.5t6 9.5t11 8.5t18 3.5q5 0 5 -7q0 -5 -3 -6t-7.5 -2t-9 -4t-6.5 -12l-3 -10h24l2 11q0 5 6 5q3 0 6 -1.5t3 -4.5q0 -2 -0.5 -3t-0.5 -7h10zM132 23q0 -8 -8 -8h-11l-12 -53
q-6 -32 -34 -32q-5 0 -7.5 3t-2.5 6q0 6 4 7t9 2t10 4t6 13l10 50h-9q-9 0 -9 8q0 7 9 7h11l3 12q6 29 35 29q10 0 10 -7t-4 -7.5t-9 -0.5t-10 -2.5t-7 -13.5l-1 -10h9q8 0 8 -7zM327 30q7 0 7 -7q0 -8 -7 -8h-15l-6 -31v-9q0 -6 2 -6t4 0.5t3 0.5q10 0 10 -5t-5.5 -8
t-9.5 -3q-11 0 -16 7t-5 17q0 2 1 4.5t1 5.5l5 27h-7q-8 0 -8 8q0 7 8 7h11l6 27q0 2 2 4t4 2q10 0 10 -8l-5 -25h10zM521 -31q-13 -13 -33 -13q-10 0 -18.5 7t-6.5 21q2 13 14 16.5t22 4.5h15v1l2 3q0 10 -12 10q-4 0 -11.5 -2t-12.5 -2t-5 4q0 8 11.5 11.5t19.5 3.5
q17 0 21 -8.5t4 -13.5q0 -2 -1 -4l-2 -4zM203 3q0 -20 -12.5 -34.5t-32.5 -14.5q-17 0 -23.5 9.5t-6.5 20.5q0 14 4.5 23.5t11.5 14.5t14.5 7t13.5 2q31 0 31 -28zM272 19q2 -6 2 -11q0 -1 -0.5 -2t-0.5 -3l-8 -41q-4 -8 -8 -8t-6.5 3t-2.5 5q0 1 2 3l8 42q0 7 -2 8t-4 3
q-2 0 -9.5 -2.5t-14.5 -10.5l-11 -43q0 -8 -7 -8q-3 0 -5 3t-2 5v3l13 61q1 5 8 5q8 0 8 -5q8 5 18 5q4 0 12 -1.5t10 -10.5zM415 15q0 -10 -7 -10q-6 0 -8.5 6.5t-13.5 6.5q-9 0 -17.5 -9t-8.5 -25q0 -15 14 -15q7 0 11 3t8 3q8 0 8 -9q0 -5 -10 -8.5t-17 -3.5
q-17 0 -23.5 9.5t-6.5 20.5q0 26 13.5 36.5t28.5 10.5q13 0 18.5 -4t8.5 -9zM465 25q0 -7 -8 -7q-14 0 -19 -17l-10 -41q0 -2 -1.5 -4t-3.5 -2q-4 0 -7 3t-3 5v3l10 38q3 17 12.5 22.5t21.5 5.5q8 0 8 -6zM187 -4q2 7 -1 14.5t-14 7.5q-14 0 -20.5 -11.5t-6.5 -25.5
q0 -2 2 -7t11 -5q13 0 19.5 7.5t9.5 19.5zM510 -10q-17 0 -24 -2t-8 -10q0 -5 5 -7t10 -2q9 0 13 2z" />
    </font>
</defs>
</svg>
