<?xml version="1.0" standalone="no"?>
<!DOCTYPE svg PUBLIC "-//W3C//DTD SVG 1.1//EN" "http://www.w3.org/Graphics/SVG/1.1/DTD/svg11.dtd" >
<svg xmlns="http://www.w3.org/2000/svg" xmlns:xlink="http://www.w3.org/1999/xlink" version="1.1">
<metadata>
Created by FontForge 20170812 at Thu Feb 17 10:05:22 2022
 By www-data
Copyright (c) 2020 by Fontcraft: Jutipong Poosumas. All rights reserved.
</metadata>
<defs>
<font id="FCIconic-SemiBold" horiz-adv-x="0" >
  <font-face 
    font-family="FC Iconic SemiBold"
    font-weight="600"
    font-stretch="normal"
    units-per-em="1000"
    panose-1="2 11 5 0 4 2 0 2 0 3"
    ascent="800"
    descent="-200"
    x-height="514"
    cap-height="700"
    bbox="-614 -437 1051 1077"
    underline-thickness="50"
    underline-position="-176"
    unicode-range="U+0020-FB02"
  />
<missing-glyph horiz-adv-x="817" 
d="M68 0v675h681v-675h-681zM722 22q7 0 7 7v619q0 6 -7 6h-626q-7 0 -7 -6v-619q0 -7 7 -7h626z" />
    <glyph glyph-name="Agrave" unicode="A&#x300;" horiz-adv-x="667" 
d="M438 768h-123l-129 197h144zM517 0l-49 154h-267l-51 -154h-153l246 700h181l246 -700h-153zM438 258l-102 312h-4l-103 -312h209z" />
    <glyph glyph-name="Aacute" unicode="A&#x301;" horiz-adv-x="667" 
d="M261 768l106 197h146l-130 -197h-122zM517 0l-49 154h-267l-51 -154h-153l246 700h181l246 -700h-153zM438 258l-102 312h-4l-103 -312h209z" />
    <glyph glyph-name="Atilde" unicode="A&#x303;" horiz-adv-x="667" 
d="M250 846q-21 0 -35 -18t-14 -57h-105q0 85 32.5 128.5t103.5 43.5q30 0 53.5 -12t45 -27t42.5 -27t45 -12q23 0 38.5 19t16.5 58h104q0 -83 -36 -128.5t-106 -45.5q-30 0 -54 12t-45.5 27t-42 27t-43.5 12zM517 0l-49 154h-267l-51 -154h-153l246 700h181l246 -700h-153z
M438 258l-102 312h-4l-103 -312h209z" />
    <glyph glyph-name="Egrave" unicode="E&#x300;" horiz-adv-x="579" 
d="M397 768h-123l-129 197h144zM190 589v-185h294v-109h-294v-186h349v-109h-494v700h494v-111h-349z" />
    <glyph glyph-name="Eacute" unicode="E&#x301;" horiz-adv-x="579" 
d="M225 768l107 197h146l-130 -197h-123zM190 589v-185h294v-109h-294v-186h349v-109h-494v700h494v-111h-349z" />
    <glyph glyph-name="Igrave" unicode="I&#x300;" horiz-adv-x="247" 
d="M195 768h-123l-129 197h144zM52 700h143v-700h-143v700z" />
    <glyph glyph-name="Iacute" unicode="I&#x301;" horiz-adv-x="247" 
d="M52 768l106 197h146l-129 -197h-123zM52 700h143v-700h-143v700z" />
    <glyph glyph-name="Ograve" unicode="O&#x300;" horiz-adv-x="722" 
d="M460 768h-123l-130 197h145zM362 708q77 0 139 -24.5t105.5 -71t67 -112.5t23.5 -149q0 -84 -23.5 -150.5t-67 -113t-105.5 -71t-139 -24.5q-78 0 -140.5 24.5t-106 71t-67 113t-23.5 150.5q0 83 23.5 149t67 112.5t106 71t140.5 24.5zM362 111q86 0 135.5 62.5
t49.5 177.5q0 113 -49.5 174.5t-135.5 61.5q-89 0 -138 -61.5t-49 -174.5q0 -115 49 -177.5t138 -62.5z" />
    <glyph glyph-name="Oacute" unicode="O&#x301;" horiz-adv-x="722" 
d="M280 768l108 197h144l-129 -197h-123zM362 708q77 0 139 -24.5t105.5 -71t67 -112.5t23.5 -149q0 -84 -23.5 -150.5t-67 -113t-105.5 -71t-139 -24.5q-78 0 -140.5 24.5t-106 71t-67 113t-23.5 150.5q0 83 23.5 149t67 112.5t106 71t140.5 24.5zM362 111q86 0 135.5 62.5
t49.5 177.5q0 113 -49.5 174.5t-135.5 61.5q-89 0 -138 -61.5t-49 -174.5q0 -115 49 -177.5t138 -62.5z" />
    <glyph glyph-name="Otilde" unicode="O&#x303;" horiz-adv-x="722" 
d="M280 846q-21 0 -35 -18t-14 -57h-105q0 85 32.5 128.5t103.5 43.5q30 0 53.5 -12t45 -27t42.5 -27t46 -12q23 0 39 19t16 58h103q0 -83 -36 -128.5t-106 -45.5q-30 0 -53.5 12t-45 27t-42.5 27t-44 12zM362 708q77 0 139 -24.5t105.5 -71t67 -112.5t23.5 -149
q0 -84 -23.5 -150.5t-67 -113t-105.5 -71t-139 -24.5q-78 0 -140.5 24.5t-106 71t-67 113t-23.5 150.5q0 83 23.5 149t67 112.5t106 71t140.5 24.5zM362 111q86 0 135.5 62.5t49.5 177.5q0 113 -49.5 174.5t-135.5 61.5q-89 0 -138 -61.5t-49 -174.5q0 -115 49 -177.5
t138 -62.5z" />
    <glyph glyph-name="Ugrave" unicode="U&#x300;" horiz-adv-x="671" 
d="M192 965h145l108 -197h-123zM188 263q0 -73 39 -112t109 -39q71 0 109 38.5t38 112.5v437h143v-452q0 -59 -20.5 -106.5t-58.5 -80.5t-91.5 -51t-119.5 -18t-119.5 18t-92 51t-59 80.5t-20.5 106.5v452h143v-437z" />
    <glyph glyph-name="Uacute" unicode="U&#x301;" horiz-adv-x="671" 
d="M510 965l-129 -197h-123l108 197h144zM188 263q0 -73 39 -112t109 -39q71 0 109 38.5t38 112.5v437h143v-452q0 -59 -20.5 -106.5t-58.5 -80.5t-91.5 -51t-119.5 -18t-119.5 18t-92 51t-59 80.5t-20.5 106.5v452h143v-437z" />
    <glyph glyph-name="Yacute" unicode="Y&#x301;" horiz-adv-x="634" 
d="M366 965h144l-129 -197h-123zM389 300v-300h-143v302l-245 398h167l147 -262h4l148 262h166z" />
    <glyph glyph-name="agrave" unicode="a&#x300;" horiz-adv-x="554" 
d="M409 591h-122l-130 196h145zM285 521q53 0 95 -13t71.5 -36.5t45 -56.5t15.5 -74v-341h-134v86h-3q-10 -23 -29 -40.5t-42.5 -29.5t-50.5 -18t-54 -6q-36 0 -67.5 11t-55 31t-36.5 48.5t-13 62.5q0 73 53 113t153 46l138 8v22q0 42 -24 65t-69 23q-40 0 -66.5 -17
t-32.5 -49h-127q9 75 70 120t163 45zM371 235l-116 -8q-90 -8 -90 -73q0 -32 24 -50t59 -18q25 0 47 9.5t39 25.5t27 37t10 43v34z" />
    <glyph glyph-name="aacute" unicode="a&#x301;" horiz-adv-x="554" 
d="M229 591l108 196h146l-131 -196h-123zM285 521q53 0 95 -13t71.5 -36.5t45 -56.5t15.5 -74v-341h-134v86h-3q-10 -23 -29 -40.5t-42.5 -29.5t-50.5 -18t-54 -6q-36 0 -67.5 11t-55 31t-36.5 48.5t-13 62.5q0 73 53 113t153 46l138 8v22q0 42 -24 65t-69 23
q-40 0 -66.5 -17t-32.5 -49h-127q9 75 70 120t163 45zM371 235l-116 -8q-90 -8 -90 -73q0 -32 24 -50t59 -18q25 0 47 9.5t39 25.5t27 37t10 43v34z" />
    <glyph glyph-name="atilde" unicode="a&#x303;" horiz-adv-x="554" 
d="M213 667q-20 0 -30.5 -16.5t-10.5 -55.5h-104q0 85 28 127t99 42q26 0 47.5 -11t41 -24.5t39 -25t40.5 -11.5q22 0 33 18t12 57h104q0 -84 -32 -128t-101 -44q-27 0 -48.5 11.5t-41 25t-38 24.5t-38.5 11zM285 521q53 0 95 -13t71.5 -36.5t45 -56.5t15.5 -74v-341h-134
v86h-3q-10 -23 -29 -40.5t-42.5 -29.5t-50.5 -18t-54 -6q-36 0 -67.5 11t-55 31t-36.5 48.5t-13 62.5q0 73 53 113t153 46l138 8v22q0 42 -24 65t-69 23q-40 0 -66.5 -17t-32.5 -49h-127q9 75 70 120t163 45zM371 235l-116 -8q-90 -8 -90 -73q0 -32 24 -50t59 -18
q25 0 47 9.5t39 25.5t27 37t10 43v34z" />
    <glyph glyph-name="egrave" unicode="e&#x300;" horiz-adv-x="562" 
d="M396 591h-123l-130 196h145zM168 228q2 -62 36 -97t87 -35q41 0 68 18.5t38 56.5h130q-14 -89 -74.5 -134t-164.5 -45q-121 0 -189 67.5t-68 197.5q0 62 18 111t51.5 83t81 52t105.5 18q59 0 104 -18.5t76.5 -52t47.5 -81.5t16 -107v-34h-363zM287 418q-49 0 -80.5 -30.5
t-37.5 -81.5h231q-5 49 -35 80.5t-78 31.5z" />
    <glyph glyph-name="eacute" unicode="e&#x301;" horiz-adv-x="562" 
d="M228 591l108 196h146l-131 -196h-123zM168 228q2 -62 36 -97t87 -35q41 0 68 18.5t38 56.5h130q-14 -89 -74.5 -134t-164.5 -45q-121 0 -189 67.5t-68 197.5q0 62 18 111t51.5 83t81 52t105.5 18q59 0 104 -18.5t76.5 -52t47.5 -81.5t16 -107v-34h-363zM287 418
q-49 0 -80.5 -30.5t-37.5 -81.5h231q-5 49 -35 80.5t-78 31.5z" />
    <glyph glyph-name="igrave" unicode="i&#x300;" horiz-adv-x="257" 
d="M198 591h-123l-130 196h145zM59 514h139v-514h-139v514z" />
    <glyph glyph-name="iacute" unicode="i&#x301;" horiz-adv-x="257" 
d="M59 591l107 196h146l-131 -196h-122zM59 514h139v-514h-139v514z" />
    <glyph glyph-name="ograve" unicode="o&#x300;" horiz-adv-x="565" 
d="M296 787l108 -196h-123l-131 196h146zM282 521q60 0 108 -17.5t82 -51.5t52.5 -83.5t18.5 -113.5q0 -63 -18.5 -112t-52 -82.5t-82 -51t-108.5 -17.5q-59 0 -107 17.5t-82 51t-52.5 82.5t-18.5 112q0 64 18.5 113.5t52.5 83.5t82 51.5t107 17.5zM282 97q26 0 49 10.5
t40 30.5t27 49.5t10 67.5q0 39 -10 69.5t-27 50.5t-40 30.5t-49 10.5q-51 0 -87.5 -41t-36.5 -120q0 -38 10 -67.5t26.5 -49.5t39.5 -30.5t48 -10.5z" />
    <glyph glyph-name="oacute" unicode="o&#x301;" horiz-adv-x="565" 
d="M340 591h-123l108 196h144zM282 521q60 0 108 -17.5t82 -51.5t52.5 -83.5t18.5 -113.5q0 -63 -18.5 -112t-52 -82.5t-82 -51t-108.5 -17.5q-59 0 -107 17.5t-82 51t-52.5 82.5t-18.5 112q0 64 18.5 113.5t52.5 83.5t82 51.5t107 17.5zM282 97q26 0 49 10.5t40 30.5
t27 49.5t10 67.5q0 39 -10 69.5t-27 50.5t-40 30.5t-49 10.5q-51 0 -87.5 -41t-36.5 -120q0 -38 10 -67.5t26.5 -49.5t39.5 -30.5t48 -10.5z" />
    <glyph glyph-name="otilde" unicode="o&#x303;" horiz-adv-x="565" 
d="M207 667q-20 0 -30.5 -16.5t-10.5 -55.5h-103q0 85 28 127t99 42q26 0 47.5 -11t41 -24.5t38.5 -25t40 -11.5q22 0 33 18t13 57h103q0 -84 -31.5 -128t-100.5 -44q-27 0 -48.5 11.5t-41 25t-38.5 24.5t-39 11zM282 521q60 0 108 -17.5t82 -51.5t52.5 -83.5t18.5 -113.5
q0 -63 -18.5 -112t-52 -82.5t-82 -51t-108.5 -17.5q-59 0 -107 17.5t-82 51t-52.5 82.5t-18.5 112q0 64 18.5 113.5t52.5 83.5t82 51.5t107 17.5zM282 97q26 0 49 10.5t40 30.5t27 49.5t10 67.5q0 39 -10 69.5t-27 50.5t-40 30.5t-49 10.5q-51 0 -87.5 -41t-36.5 -120
q0 -38 10 -67.5t26.5 -49.5t39.5 -30.5t48 -10.5z" />
    <glyph glyph-name="ugrave" unicode="u&#x300;" horiz-adv-x="580" 
d="M154 787h145l108 -196h-123zM538 514v-514h-134v105h-3q-10 -33 -29.5 -55t-43.5 -35t-50.5 -18t-50.5 -5q-89 0 -137 50.5t-48 152.5v319h139v-293q0 -60 26 -91.5t80 -31.5q52 0 81.5 39.5t29.5 101.5v275h140z" />
    <glyph glyph-name="uacute" unicode="u&#x301;" horiz-adv-x="580" 
d="M473 787l-131 -196h-122l107 196h146zM538 514v-514h-134v105h-3q-10 -33 -29.5 -55t-43.5 -35t-50.5 -18t-50.5 -5q-89 0 -137 50.5t-48 152.5v319h139v-293q0 -60 26 -91.5t80 -31.5q52 0 81.5 39.5t29.5 101.5v275h140z" />
    <glyph glyph-name="yacute" unicode="y&#x301;" horiz-adv-x="523" 
d="M312 787h146l-131 -196h-122zM523 514q-12 -41 -31.5 -99t-42 -125t-46.5 -138t-47 -138q-20 -63 -46 -102.5t-59.5 -61.5t-74 -28.5t-90.5 -1.5q-11 1 -18 2.5t-18 4.5v95q11 -1 19 -2t16 -1q19 0 34.5 1t28 7t23 18t19.5 33q-47 135 -94.5 268.5t-95.5 267.5h150
l112 -403h3l113 403h145z" />
    <glyph glyph-name="fi" unicode="fi" horiz-adv-x="606" 
d="M478 723q37 0 58 -21.5t21 -51.5q0 -32 -21 -54t-58 -22q-38 0 -59 22t-21 54q0 30 21 51.5t59 21.5zM349 600q-26 2 -39 2.5t-22 -0.5q-27 -3 -37.5 -17t-10.5 -43v-32h90v-92h-90v-418h-139v418h-82v92h82v34q0 45 12.5 76t35 50.5t54.5 28t70 8.5q34 0 76 -11v-96z
M408 514h139v-514h-139v514z" />
    <glyph glyph-name="fl" unicode="fl" horiz-adv-x="660" 
d="M349 600q-26 2 -39 2.5t-22 -0.5q-27 -3 -37.5 -17t-10.5 -43v-32h90v-92h-90v-418h-139v418h-82v92h82v34q0 45 12.5 76t35 50.5t54.5 28t70 8.5q34 0 76 -11v-96zM647 102v-97q-22 -4 -42 -6t-40 -2q-79 1 -118 42.5t-39 139.5v522h141v-533q0 -35 14 -50.5t55 -16.5
h14.5t14.5 1z" />
    <glyph glyph-name="uni1EA0" unicode="A&#x323;" horiz-adv-x="588" 
 />
    <glyph glyph-name="uni1EA1" unicode="a&#x323;" horiz-adv-x="517" 
 />
    <glyph glyph-name="uni1EA2" unicode="A&#x309;" horiz-adv-x="371" 
 />
    <glyph glyph-name="uni1EA3" unicode="a&#x309;" horiz-adv-x="469" 
 />
    <glyph glyph-name="uni1EA4" unicode="&#xc2;&#x301;" horiz-adv-x="546" 
 />
    <glyph glyph-name="uni1EA5" unicode="&#xe2;&#x301;" horiz-adv-x="469" 
 />
    <glyph glyph-name="uni1EA6" unicode="&#xc2;&#x300;" horiz-adv-x="546" 
 />
    <glyph glyph-name="uni1EA7" unicode="&#xe2;&#x300;" horiz-adv-x="469" 
 />
    <glyph glyph-name="uni1EA8" unicode="&#xc2;&#x309;" horiz-adv-x="546" 
 />
    <glyph glyph-name="uni1EA9" unicode="&#xe2;&#x309;" horiz-adv-x="469" 
 />
    <glyph glyph-name="uni1EAA" unicode="&#xc2;&#x303;" horiz-adv-x="546" 
 />
    <glyph glyph-name="uni1EAB" unicode="&#xe2;&#x303;" horiz-adv-x="469" 
 />
    <glyph glyph-name="uni1EAC" unicode="&#xc2;&#x323;" horiz-adv-x="546" 
 />
    <glyph glyph-name="uni1EAD" unicode="&#xe2;&#x323;" horiz-adv-x="469" 
 />
    <glyph glyph-name="uni1EAE" unicode="&#x102;&#x301;" horiz-adv-x="546" 
 />
    <glyph glyph-name="uni1EAF" unicode="&#x103;&#x301;" horiz-adv-x="469" 
 />
    <glyph glyph-name="uni1EB0" unicode="&#x102;&#x300;" horiz-adv-x="546" 
 />
    <glyph glyph-name="uni1EB1" unicode="&#x103;&#x300;" horiz-adv-x="469" 
 />
    <glyph glyph-name="uni1EB2" unicode="&#x102;&#x309;" horiz-adv-x="546" 
 />
    <glyph glyph-name="uni1EB3" unicode="&#x103;&#x309;" horiz-adv-x="469" 
 />
    <glyph glyph-name="uni1EB4" unicode="&#x102;&#x303;" horiz-adv-x="546" 
 />
    <glyph glyph-name="uni1EB5" unicode="&#x103;&#x303;" horiz-adv-x="469" 
 />
    <glyph glyph-name="uni1EB6" unicode="&#x102;&#x323;" horiz-adv-x="546" 
 />
    <glyph glyph-name="uni1EB7" unicode="&#x103;&#x323;" horiz-adv-x="469" 
 />
    <glyph glyph-name="uni1EB8" unicode="E&#x323;" horiz-adv-x="512" 
 />
    <glyph glyph-name="uni1EB9" unicode="e&#x323;" horiz-adv-x="520" 
 />
    <glyph glyph-name="uni1EBA" unicode="E&#x309;" horiz-adv-x="479" 
 />
    <glyph glyph-name="uni1EBB" unicode="e&#x309;" horiz-adv-x="510" 
 />
    <glyph glyph-name="uni1EBC" unicode="E&#x303;" horiz-adv-x="512" 
 />
    <glyph glyph-name="uni1EBD" unicode="e&#x303;" horiz-adv-x="520" 
 />
    <glyph glyph-name="uni1EBE" unicode="&#xca;&#x301;" horiz-adv-x="479" 
 />
    <glyph glyph-name="uni1EBF" unicode="&#xea;&#x301;" horiz-adv-x="510" 
 />
    <glyph glyph-name="uni1EC0" unicode="&#xca;&#x300;" horiz-adv-x="479" 
 />
    <glyph glyph-name="uni1EC1" unicode="&#xea;&#x300;" horiz-adv-x="510" 
 />
    <glyph glyph-name="uni1EC2" unicode="&#xca;&#x309;" horiz-adv-x="479" 
 />
    <glyph glyph-name="uni1EC3" unicode="&#xea;&#x309;" horiz-adv-x="510" 
 />
    <glyph glyph-name="uni1EC4" unicode="&#xca;&#x303;" horiz-adv-x="479" 
 />
    <glyph glyph-name="uni1EC5" unicode="&#xea;&#x303;" horiz-adv-x="510" 
 />
    <glyph glyph-name="uni1EC6" unicode="&#xca;&#x323;" horiz-adv-x="479" 
 />
    <glyph glyph-name="uni1EC7" unicode="&#xea;&#x323;" horiz-adv-x="510" 
 />
    <glyph glyph-name="uni1EC8" unicode="I&#x309;" horiz-adv-x="201" 
 />
    <glyph glyph-name="uni1EC9" unicode="i&#x309;" horiz-adv-x="195" 
 />
    <glyph glyph-name="uni1ECA" unicode="I&#x323;" horiz-adv-x="312" 
 />
    <glyph glyph-name="uni1ECB" unicode="i&#x323;" horiz-adv-x="237" 
 />
    <glyph glyph-name="uni1ECC" unicode="O&#x323;" horiz-adv-x="720" 
 />
    <glyph glyph-name="uni1ECD" unicode="o&#x323;" horiz-adv-x="558" 
 />
    <glyph glyph-name="uni1ECE" unicode="O&#x309;" horiz-adv-x="663" 
 />
    <glyph glyph-name="uni1ECF" unicode="o&#x309;" horiz-adv-x="543" 
 />
    <glyph glyph-name="uni1ED0" unicode="&#xd4;&#x301;" horiz-adv-x="663" 
 />
    <glyph glyph-name="uni1ED1" unicode="&#xf4;&#x301;" horiz-adv-x="543" 
 />
    <glyph glyph-name="uni1ED2" unicode="&#xd4;&#x300;" horiz-adv-x="663" 
 />
    <glyph glyph-name="uni1ED3" unicode="&#xf4;&#x300;" horiz-adv-x="543" 
 />
    <glyph glyph-name="uni1ED4" unicode="&#xd4;&#x309;" horiz-adv-x="663" 
 />
    <glyph glyph-name="uni1ED5" unicode="&#xf4;&#x309;" horiz-adv-x="543" 
 />
    <glyph glyph-name="uni1ED6" unicode="&#xd4;&#x303;" horiz-adv-x="663" 
 />
    <glyph glyph-name="uni1ED7" unicode="&#xf4;&#x303;" horiz-adv-x="543" 
 />
    <glyph glyph-name="uni1ED8" unicode="&#xd4;&#x323;" horiz-adv-x="663" 
 />
    <glyph glyph-name="uni1ED9" unicode="&#xf4;&#x323;" horiz-adv-x="543" 
 />
    <glyph glyph-name="uni1EDA" unicode="&#x1a0;&#x301;" horiz-adv-x="663" 
 />
    <glyph glyph-name="uni1EDB" unicode="&#x1a1;&#x301;" horiz-adv-x="543" 
 />
    <glyph glyph-name="uni1EDC" unicode="&#x1a0;&#x300;" horiz-adv-x="663" 
 />
    <glyph glyph-name="uni1EDD" unicode="&#x1a1;&#x300;" horiz-adv-x="543" 
 />
    <glyph glyph-name="uni1EDE" unicode="&#x1a0;&#x309;" horiz-adv-x="663" 
 />
    <glyph glyph-name="uni1EDF" unicode="&#x1a1;&#x309;" horiz-adv-x="543" 
 />
    <glyph glyph-name="uni1EE0" unicode="&#x1a0;&#x303;" horiz-adv-x="663" 
 />
    <glyph glyph-name="uni1EE1" unicode="&#x1a1;&#x303;" horiz-adv-x="543" 
 />
    <glyph glyph-name="uni1EE2" unicode="&#x1a0;&#x323;" horiz-adv-x="663" 
 />
    <glyph glyph-name="uni1EE3" unicode="&#x1a1;&#x323;" horiz-adv-x="543" 
 />
    <glyph glyph-name="uni1EE4" unicode="U&#x323;" horiz-adv-x="674" 
 />
    <glyph glyph-name="uni1EE5" unicode="u&#x323;" horiz-adv-x="570" 
 />
    <glyph glyph-name="uni1EE6" unicode="U&#x309;" horiz-adv-x="636" 
 />
    <glyph glyph-name="uni1EE7" unicode="u&#x309;" horiz-adv-x="532" 
 />
    <glyph glyph-name="uni1EE8" unicode="&#x1af;&#x301;" horiz-adv-x="636" 
 />
    <glyph glyph-name="uni1EE9" unicode="&#x1b0;&#x301;" horiz-adv-x="509" 
 />
    <glyph glyph-name="uni1EEA" unicode="&#x1af;&#x300;" horiz-adv-x="636" 
 />
    <glyph glyph-name="uni1EEB" unicode="&#x1b0;&#x300;" horiz-adv-x="509" 
 />
    <glyph glyph-name="uni1EEC" unicode="&#x1af;&#x309;" horiz-adv-x="636" 
 />
    <glyph glyph-name="uni1EED" unicode="&#x1b0;&#x309;" horiz-adv-x="509" 
 />
    <glyph glyph-name="uni1EEE" unicode="&#x1af;&#x303;" horiz-adv-x="636" 
 />
    <glyph glyph-name="uni1EEF" unicode="&#x1b0;&#x303;" horiz-adv-x="509" 
 />
    <glyph glyph-name="uni1EF0" unicode="&#x1af;&#x323;" horiz-adv-x="636" 
 />
    <glyph glyph-name="uni1EF1" unicode="&#x1b0;&#x323;" horiz-adv-x="509" 
 />
    <glyph glyph-name="Ygrave" unicode="Y&#x300;" horiz-adv-x="523" 
 />
    <glyph glyph-name="ygrave" unicode="y&#x300;" horiz-adv-x="472" 
 />
    <glyph glyph-name="uni1EF4" unicode="Y&#x323;" horiz-adv-x="499" 
 />
    <glyph glyph-name="uni1EF5" unicode="y&#x323;" horiz-adv-x="460" 
 />
    <glyph glyph-name="uni1EF6" unicode="Y&#x309;" horiz-adv-x="499" 
 />
    <glyph glyph-name="uni1EF7" unicode="y&#x309;" horiz-adv-x="460" 
 />
    <glyph glyph-name="uni1EF8" unicode="Y&#x303;" horiz-adv-x="523" 
 />
    <glyph glyph-name="uni1EF9" unicode="y&#x303;" horiz-adv-x="472" 
 />
    <glyph glyph-name="Itilde" unicode="I&#x303;" horiz-adv-x="247" 
d="M37 846q-20 0 -34.5 -18t-14.5 -57h-105q0 85 32.5 128.5t103.5 43.5q30 0 53.5 -12t45 -27t42.5 -27t45 -12q23 0 38.5 19t17.5 58h103q0 -83 -36 -128.5t-106 -45.5q-30 0 -54 12t-45.5 27t-42 27t-43.5 12zM52 700h143v-700h-143v700z" />
    <glyph glyph-name="itilde" unicode="i&#x303;" horiz-adv-x="257" 
d="M52 667q-20 0 -30.5 -16.5t-10.5 -55.5h-104q0 85 28 127t99 42q26 0 47.5 -11t40.5 -24.5t38 -25t41 -11.5q21 0 32 18t13 57h103q0 -84 -31.5 -128t-100.5 -44q-27 0 -48.5 11.5t-41 25t-37.5 24.5t-38 11zM59 514h139v-514h-139v514z" />
    <glyph glyph-name="Utilde" unicode="U&#x303;" horiz-adv-x="671" 
d="M258 846q-20 0 -34.5 -18t-14.5 -57h-105q0 85 32.5 128.5t103.5 43.5q30 0 53.5 -12t45 -27t43 -27t45.5 -12q23 0 39 19t16 58h103q0 -83 -36 -128.5t-106 -45.5q-30 0 -53.5 12t-45 27t-42 27t-44.5 12zM188 263q0 -73 39 -112t109 -39q71 0 109 38.5t38 112.5v437
h143v-452q0 -59 -20.5 -106.5t-58.5 -80.5t-91.5 -51t-119.5 -18t-119.5 18t-92 51t-59 80.5t-20.5 106.5v452h143v-437z" />
    <glyph glyph-name="utilde" unicode="u&#x303;" horiz-adv-x="580" 
d="M222 667q-20 0 -29.5 -16.5t-9.5 -55.5h-105q0 85 28.5 127t99.5 42q26 0 47 -11t40.5 -24.5t38.5 -25t41 -11.5q21 0 33 18t13 57h102q0 -84 -31 -128t-100 -44q-27 0 -49 11.5t-41.5 25t-38.5 24.5t-39 11zM538 514v-514h-134v105h-3q-10 -33 -29.5 -55t-43.5 -35
t-50.5 -18t-50.5 -5q-89 0 -137 50.5t-48 152.5v319h139v-293q0 -60 26 -91.5t80 -31.5q52 0 81.5 39.5t29.5 101.5v275h140z" />
    <glyph glyph-name="uniF880" unicode="&#xe4f;&#x22;" horiz-adv-x="555" 
d="M306 768h120l-10 -170h-101zM130 768h120l-10 -170h-101zM278 555q50 0 93.5 -18.5t76 -51t51 -75.5t18.5 -93t-18.5 -94t-51 -76.5t-76 -51.5t-93.5 -19t-93.5 19t-76 51.5t-51.5 76.5t-19 94t19 93t51.5 75.5t76 51t93.5 18.5zM278 147q35 0 65.5 13.5t53 36.5t35.5 54
t13 66t-13 65t-35.5 52.5t-53 35.5t-65.5 13q-34 0 -65 -13t-54 -35.5t-36.5 -52.5t-13.5 -65t13.5 -66t36.5 -54t54 -36.5t65 -13.5zM278 442q26 0 48.5 -9.5t39.5 -26.5t27 -39.5t10 -49.5q0 -26 -10 -49t-27 -40t-39.5 -27t-48.5 -10q-25 0 -48 10t-40 27t-27 40t-10 49
q0 27 10 49.5t27 39.5t40 26.5t48 9.5zM278 251q27 0 45 19t18 47q0 26 -18 43.5t-45 17.5t-46 -17.5t-19 -43.5q0 -28 19 -47t46 -19z" />
    <glyph glyph-name="uniF881" unicode="&#xe24;&#xe32;" horiz-adv-x="952" 
d="M765 -196v579q0 44 -27.5 64t-72.5 21q-25 1 -49 -4.5t-47 -13.5q11 -21 15.5 -47t4.5 -55v-544h-140v530q0 65 -34.5 99.5t-103.5 34.5q-60 0 -98 -20.5t-51 -70.5h118v-48q-42 -19 -65.5 -54.5t-23.5 -84.5q0 -27 6 -44t18 -26.5t28.5 -13.5t37.5 -5q18 0 40 3v-100
q-28 -7 -55 -9.5t-52 -1.5q-35 1 -65 12t-52 31t-34.5 51t-12.5 73q0 60 31 102.5t73 59.5h-119q0 128 68 193.5t211 65.5q65 0 113 -14t83 -40q42 26 88.5 40t98.5 14q43 0 81 -9.5t66.5 -30t45 -52.5t16.5 -76v-609h-141z" />
    <glyph glyph-name="uniF882" unicode="&#xe26;&#xe32;" horiz-adv-x="957" 
d="M770 -196v579q0 42 -28 63.5t-75 21.5q-25 1 -48 -4.5t-46 -13.5q11 -21 16 -47t5 -55v-544h-141v530q0 65 -34.5 99.5t-103.5 34.5q-60 0 -98 -21t-52 -70h126v-47q-29 -12 -44.5 -41t-17.5 -68l-1 -67q-1 -31 -6.5 -59.5t-18.5 -50.5t-36.5 -35t-61.5 -14
q-22 -2 -45.5 0t-51.5 8v98q20 -4 33 -1q32 3 42.5 19.5t10.5 51.5q0 24 1.5 46.5t8.5 42t21 35.5t39 27h-124q0 128 67.5 193.5t210.5 65.5q64 0 112.5 -14t83.5 -40q42 26 88.5 40t97.5 14q44 0 82 -9.5t66.5 -30t45 -52.5t16.5 -76v-609h-140z" />
    <glyph glyph-name=".notdef" horiz-adv-x="817" 
d="M68 0v675h681v-675h-681zM722 22q7 0 7 7v619q0 6 -7 6h-626q-7 0 -7 -6v-619q0 -7 7 -7h626z" />
    <glyph glyph-name=".null" 
 />
    <glyph glyph-name=".null" 
 />
    <glyph glyph-name="uni000D" horiz-adv-x="295" 
 />
    <glyph glyph-name="space" unicode=" " horiz-adv-x="307" 
 />
    <glyph glyph-name="uni00A0" unicode="&#xa0;" horiz-adv-x="307" 
 />
    <glyph glyph-name="exclam" unicode="!" horiz-adv-x="276" 
d="M76 236l-9 199v265h142v-265l-10 -199h-123zM138 161q40 0 63 -24t23 -56q0 -35 -23 -58t-63 -23t-63 23t-23 58q0 32 23 56t63 24z" />
    <glyph glyph-name="quotedbl" unicode="&#x22;" horiz-adv-x="373" 
d="M38 700h120l-9 -229h-101zM214 700h120l-9 -229h-101z" />
    <glyph glyph-name="numbersign" unicode="#" horiz-adv-x="686" 
d="M544 426l-34 -160h111v-85h-127l-37 -181h-124l37 181h-118l-38 -181h-125l38 181h-109v85h127l32 160h-112v86h130l40 188h124l-38 -188h116l41 188h124l-40 -188h107v-86h-125zM420 426h-118l-33 -160h117z" />
    <glyph glyph-name="dollar" unicode="$" horiz-adv-x="618" 
d="M347 408q63 -12 109 -29t76 -40.5t44.5 -55t14.5 -74.5q0 -90 -60 -146t-165 -68v-99h-123v100q-98 14 -155.5 69.5t-60.5 141.5h138q8 -46 45 -74.5t100 -28.5q60 0 96 24t36 68q0 19 -6.5 32.5t-21 24t-39 19t-60.5 16.5l-72 14q-104 23 -156 70t-52 125q0 41 15.5 76
t43 61t65.5 43.5t84 23.5v97h123v-97q51 -6 89 -25t64 -47.5t40 -64.5t15 -77h-139q-3 48 -37 78t-94 30q-57 0 -90.5 -24.5t-33.5 -64.5q0 -20 9.5 -35t30 -26t52 -20t75.5 -17z" />
    <glyph glyph-name="percent" unicode="%" horiz-adv-x="740" 
d="M332 547q0 -36 -12 -65t-33 -49.5t-48.5 -31.5t-58.5 -11t-59 11t-49 31.5t-33 49.5t-12 65q0 38 12 67.5t33 50.5t49 32t59 11t58.5 -11t48.5 -32t33 -50.5t12 -67.5zM639 700l-414 -700h-123l414 700h123zM121 547q0 -32 15.5 -50.5t43.5 -18.5q26 0 41.5 18.5
t15.5 50.5q0 33 -15.5 52t-41.5 19q-28 0 -43.5 -18.5t-15.5 -52.5zM559 308q32 0 60 -11t48.5 -31.5t32.5 -50t12 -65.5t-12 -65.5t-32.5 -50t-48.5 -31.5t-60 -11q-31 0 -59 11t-48 31.5t-32 50t-12 65.5t12 65.5t32 50t48 31.5t59 11zM559 79q26 0 42 19t16 52
q0 32 -16 51.5t-42 19.5t-42 -19t-16 -52t16 -52t42 -19z" />
    <glyph glyph-name="ampersand" unicode="&#x26;" horiz-adv-x="699" 
d="M626 322q-1 -24 -6.5 -49.5t-13.5 -50.5t-18.5 -47.5t-23.5 -39.5l135 -135h-148l-67 64q-38 -36 -95 -54t-123 -18q-112 0 -170 49.5t-58 137.5q0 65 36 115t114 84q-27 26 -43.5 48.5t-25.5 42.5t-12 39t-3 38q0 34 13 63.5t38 51.5t61.5 34.5t82.5 12.5
q45 0 80.5 -12.5t59.5 -35t36.5 -52.5t12.5 -65q0 -54 -31 -99t-105 -85l127 -138q11 19 20.5 47t13.5 54h113zM220 538q0 -22 12.5 -46.5t52.5 -63.5q50 25 70 52.5t20 58.5q0 34 -20 55t-56 21t-57.5 -21.5t-21.5 -55.5zM280 89q39 0 70 15t54 38l-149 160l-30 -14
q-37 -23 -47 -50.5t-10 -53.5q0 -18 6.5 -35t20.5 -30.5t35 -21.5t50 -8z" />
    <glyph glyph-name="quotesingle" unicode="'" horiz-adv-x="196" 
d="M38 700h120l-9 -229h-101z" />
    <glyph glyph-name="parenleft" unicode="(" horiz-adv-x="330" 
d="M318 740q-27 -39 -48.5 -87t-37 -101.5t-23.5 -110t-8 -112.5t8 -113t23.5 -110.5t37 -101.5t48.5 -86h-127q-60 82 -93 187t-33 224q0 118 33 222.5t93 188.5h127z" />
    <glyph glyph-name="parenright" unicode=")" horiz-adv-x="330" 
d="M12 740h127q61 -84 93.5 -188.5t32.5 -222.5q0 -119 -32.5 -224t-93.5 -187h-127q27 38 49 86t37.5 101.5t23.5 110.5t8 113t-8 112.5t-23.5 110t-37.5 101.5t-49 87z" />
    <glyph glyph-name="asterisk" unicode="*" horiz-adv-x="368" 
d="M248 519l66 -84l-71 -52l-59 89l-58 -89l-71 52l65 84l-102 28l27 82l100 -35l-4 106h87l-4 -106l99 35l28 -82z" />
    <glyph glyph-name="plus" unicode="+" horiz-adv-x="579" 
d="M538 261h-186v-164h-127v164h-184v110h184v164h127v-164h186v-110z" />
    <glyph glyph-name="comma" unicode="," horiz-adv-x="206" 
d="M-7 -123l55 232h136l-75 -232h-116z" />
    <glyph glyph-name="hyphen" unicode="-" horiz-adv-x="484" 
d="M443 261h-402v110h402v-110z" />
    <glyph glyph-name="hyphen" unicode="&#xad;" horiz-adv-x="484" 
d="M443 261h-402v110h402v-110z" />
    <glyph glyph-name="period" unicode="." horiz-adv-x="213" 
d="M20 81q0 32 22.5 56t63.5 24t63.5 -24t22.5 -56q0 -35 -22.5 -58t-63.5 -23t-63.5 23t-22.5 58z" />
    <glyph glyph-name="slash" unicode="/" horiz-adv-x="419" 
d="M408 700l-252 -700h-145l254 700h143z" />
    <glyph glyph-name="zero" unicode="0" horiz-adv-x="637" 
d="M25 351q0 86 21 152.5t59.5 111.5t93 68.5t120.5 23.5t120 -23.5t93 -68.5t60 -111.5t21 -152.5q0 -85 -21 -151.5t-59.5 -112.5t-92.5 -70t-121 -24t-121 24t-92.5 69.5t-59.5 112.5t-21 152zM464 351q0 125 -39 182.5t-106 57.5q-66 0 -106 -57.5t-40 -182.5
q0 -126 40 -184.5t106 -58.5q67 0 106 58.5t39 184.5z" />
    <glyph glyph-name="one" unicode="1" horiz-adv-x="433" 
d="M326 700v-700h-143v570l-169 -54v113l204 71h108z" />
    <glyph glyph-name="two" unicode="2" horiz-adv-x="569" 
d="M532 111v-111h-499v81l24.5 24.5t38.5 38t47.5 46.5t50.5 50l48 48t40 41q35 34 56.5 58.5t34 43.5t17 34t4.5 30q0 47 -28.5 75.5t-87.5 28.5q-33 0 -56 -10.5t-37.5 -28t-21 -40.5t-6.5 -49h-130q1 47 15 90t44.5 75.5t77.5 52t114 19.5q63 0 110 -15.5t78.5 -43
t47 -64.5t15.5 -80q0 -34 -6.5 -60t-24 -53t-46.5 -58.5t-74 -76.5l-143 -144v-2h297z" />
    <glyph glyph-name="three" unicode="3" horiz-adv-x="607" 
d="M434 357q63 -11 101.5 -52.5t38.5 -113.5q0 -38 -15.5 -74t-49.5 -63.5t-86 -44.5t-126 -17q-66 0 -116 19.5t-83.5 52t-50 75.5t-16.5 90h133q0 -21 9 -43t26 -40.5t42 -30t58 -11.5q60 0 96 27t36 80q0 49 -37.5 70.5t-96.5 21.5h-60v98h59q25 0 47 7.5t38.5 20.5
t26.5 31.5t10 40.5q0 48 -32.5 73.5t-86.5 25.5q-30 0 -53 -10t-38.5 -27.5t-24 -41t-8.5 -50.5h-130q0 52 17 95.5t49.5 75t79.5 49t108 17.5q64 0 111.5 -15t79.5 -40t48 -58.5t16 -69.5q0 -71 -32 -109.5t-88 -55.5v-3z" />
    <glyph glyph-name="four" unicode="4" horiz-adv-x="595" 
d="M581 131h-87v-131h-145v131h-335v93l350 476h124v-458h93v-111zM357 239v269l-191 -269h191z" />
    <glyph glyph-name="five" unicode="5" horiz-adv-x="603" 
d="M347 469q49 0 90.5 -17t71.5 -47.5t46.5 -72.5t16.5 -92q0 -52 -15.5 -97t-49 -78.5t-86.5 -53t-128 -19.5q-66 0 -115 19.5t-81.5 52t-48.5 75.5t-17 90h134q0 -21 8.5 -43t25 -40.5t41.5 -30t59 -11.5q62 0 100 36.5t38 96.5q0 30 -10 55t-27.5 43t-42 28t-53.5 10
q-44 0 -73.5 -14t-53.5 -40h-133l39 381h449v-111h-337l-23 -189h3q29 37 72 53t100 16z" />
    <glyph glyph-name="six" unicode="6" horiz-adv-x="619" 
d="M363 471q51 0 93 -17t72 -47.5t46.5 -72.5t16.5 -91q0 -55 -20.5 -101t-57 -79.5t-86 -52t-108.5 -18.5q-64 0 -117 22t-91.5 67t-60 112.5t-21.5 158.5q0 86 20.5 152.5t59 111.5t92.5 68.5t121 23.5q55 0 100.5 -15t79.5 -41.5t55.5 -64t27.5 -82.5h-140
q-13 46 -42.5 69.5t-80.5 23.5q-80 0 -121 -62.5t-40 -173.5h1q51 109 201 109zM317 104q29 0 53.5 10.5t42.5 29t28.5 43t10.5 52.5q0 29 -10 53.5t-28 42.5t-42.5 28t-53.5 10q-28 0 -53 -10.5t-44 -28t-29.5 -41.5t-10.5 -51q0 -29 10.5 -54.5t29 -44t43.5 -29t53 -10.5z
" />
    <glyph glyph-name="seven" unicode="7" horiz-adv-x="531" 
d="M524 700v-87l-257 -613h-159l255 589h-356v111h517z" />
    <glyph glyph-name="eight" unicode="8" horiz-adv-x="611" 
d="M29 194q0 70 37.5 114t97.5 58v1q-55 19 -83 60.5t-28 99.5q0 35 15.5 67.5t47 57.5t79.5 40.5t112 15.5q63 0 110.5 -15.5t79 -40.5t47 -57.5t15.5 -67.5q0 -56 -28 -98.5t-83 -61.5v-1q60 -14 97.5 -58t37.5 -114q0 -39 -16 -75.5t-49.5 -64.5t-85.5 -45t-125 -17
t-125.5 17t-86.5 45t-50 64.5t-16 75.5zM428 512q0 43 -34 72t-87 29q-54 0 -87.5 -29t-33.5 -72q0 -44 34 -71.5t87 -27.5t87 27.5t34 71.5zM446 211q0 24 -10.5 45t-29 36.5t-44 24t-55.5 8.5t-55.5 -8.5t-44 -24t-29 -36.5t-10.5 -45t10.5 -45t29 -36.5t44 -24.5t55.5 -9
t55.5 9t44 24.5t29 36.5t10.5 45z" />
    <glyph glyph-name="nine" unicode="9" horiz-adv-x="619" 
d="M591 347q0 -87 -21 -153t-59 -111t-92.5 -68t-121.5 -23q-55 0 -100.5 14.5t-79.5 41.5t-55 64t-28 82h139q14 -47 43.5 -70t80.5 -23q80 0 121.5 63t39.5 173h-2q-49 -109 -199 -109q-51 0 -93 17.5t-72 48t-46.5 72.5t-16.5 91q0 54 20.5 100t57 79.5t86 52.5t107.5 19
q64 0 117.5 -22.5t92 -67.5t60 -112.5t21.5 -158.5zM166 460q0 -29 10.5 -54t28.5 -43t43 -28t54 -10t53.5 10.5t43 28.5t29 42t10.5 51q0 29 -10.5 54t-28.5 43.5t-42.5 29t-53.5 10.5q-28 0 -53 -10.5t-44 -28.5t-29.5 -42.5t-10.5 -52.5z" />
    <glyph glyph-name="colon" unicode=":" horiz-adv-x="281" 
d="M55 437q0 34 22.5 57t64.5 23q39 0 62 -23t23 -57q0 -33 -23 -57t-62 -24q-42 0 -64.5 24t-22.5 57zM55 81q0 32 22.5 56t64.5 24q39 0 62 -24t23 -56q0 -35 -23 -58t-62 -23q-42 0 -64.5 23t-22.5 58z" />
    <glyph glyph-name="semicolon" unicode=";" horiz-adv-x="281" 
d="M55 437q0 34 22.5 57t64.5 23q39 0 62 -23t23 -57q0 -33 -23 -57t-62 -24q-42 0 -64.5 24t-22.5 57zM30 -123l55 232h136l-75 -232h-116z" />
    <glyph glyph-name="less" unicode="&#x3c;" horiz-adv-x="540" 
d="M45 277v79l450 273v-135l-305 -176v-1l305 -178v-134z" />
    <glyph glyph-name="equal" unicode="=" horiz-adv-x="519" 
d="M41 468h437v-105h-437v105zM478 267v-105h-437v105h437z" />
    <glyph glyph-name="greater" unicode="&#x3e;" horiz-adv-x="540" 
d="M495 277l-450 -272v134l306 178v1l-306 176v135l450 -273v-79z" />
    <glyph glyph-name="question" unicode="?" horiz-adv-x="546" 
d="M274 708q116 0 174 -47t58 -138q0 -36 -11.5 -63t-28.5 -49t-36.5 -40t-36.5 -36t-28.5 -37t-11.5 -44v-18h-150v6q-2 41 9.5 70t30.5 51t41 39.5t41.5 34.5t32.5 36.5t13 45.5q0 32 -22.5 54.5t-67.5 22.5q-54 0 -81.5 -30t-31.5 -82h-130q2 46 18 86.5t45 71t72.5 48.5
t100.5 18zM281 161q39 0 62 -24t23 -56q0 -35 -23 -58t-62 -23q-41 0 -63.5 23t-22.5 58q0 32 22.5 56t63.5 24z" />
    <glyph glyph-name="at" unicode="@" horiz-adv-x="843" 
d="M428 666q75 0 145.5 -22.5t125 -66t87.5 -108.5t33 -151q0 -64 -12.5 -110t-35 -75.5t-53.5 -43.5t-68 -14q-38 0 -71 19.5t-47 55.5h-1q-19 -35 -53.5 -51.5t-72.5 -16.5t-71 12t-57.5 36.5t-38.5 61.5t-14 86q0 41 11 77t33.5 63.5t56.5 43.5t80 16q33 0 65 -16t46 -40
h1v49h85v-250q0 -19 4 -30.5t10 -18.5t13.5 -9.5t14.5 -2.5q34 0 52.5 38t18.5 120q0 59 -20.5 106.5t-58 80.5t-91 51t-119.5 18q-64 0 -119 -19.5t-94.5 -56.5t-62 -91t-22.5 -122q0 -138 81.5 -211.5t225.5 -73.5q25 0 51 1.5t57 6.5v-95q-57 -6 -109 -6q-92 0 -167.5 25
t-129 73t-83 118.5t-29.5 161.5q0 87 29 157t82 120t127 77t165 27zM416 169q40 0 64 29t24 84t-23 82.5t-65 27.5t-66.5 -30t-24.5 -84q0 -19 5 -38.5t16.5 -35t28.5 -25.5t41 -10z" />
    <glyph glyph-name="A" unicode="A" horiz-adv-x="667" 
d="M517 0l-49 154h-267l-51 -154h-153l246 700h181l246 -700h-153zM438 258l-102 312h-4l-103 -312h209z" />
    <glyph glyph-name="B" unicode="B" horiz-adv-x="639" 
d="M448 356q36 -2 65 -15t50 -35.5t32 -53t11 -66.5q0 -45 -17.5 -79.5t-49 -58t-76.5 -36t-101 -12.5h-317v700h254q63 0 113.5 -9t86 -29t54.5 -52.5t19 -80.5q0 -30 -8 -58.5t-23.5 -51.5t-39 -39t-53.5 -21v-3zM310 397q57 0 87.5 26.5t30.5 71.5t-30.5 70.5t-86.5 25.5
h-123v-194h122zM322 109q66 0 100 23t34 74t-35.5 74.5t-101.5 23.5h-131v-195h134z" />
    <glyph glyph-name="C" unicode="C" horiz-adv-x="688" 
d="M362 106q60 0 101 31t56 88h144q-7 -54 -32.5 -97t-65 -73t-91 -46.5t-112.5 -16.5q-77 0 -138.5 24t-104 70t-65.5 113t-23 152t23 151.5t65.5 112t104 69.5t138.5 24q59 0 110.5 -17t91 -48t65 -75t33.5 -97h-143q-15 55 -56 88t-101 33q-87 0 -136 -63t-49 -178
q0 -117 49 -181t136 -64z" />
    <glyph glyph-name="D" unicode="D" horiz-adv-x="677" 
d="M297 700q80 0 144.5 -23t109.5 -67t69.5 -108.5t24.5 -148.5t-24.5 -150t-70 -111t-110 -68.5t-144.5 -23.5h-251v700h252zM278 109q102 0 158.5 62.5t56.5 180.5q0 113 -56.5 175t-156.5 62h-90v-480h88z" />
    <glyph glyph-name="E" unicode="E" horiz-adv-x="579" 
d="M190 589v-185h294v-109h-294v-186h349v-109h-494v700h494v-111h-349z" />
    <glyph glyph-name="F" unicode="F" horiz-adv-x="572" 
d="M188 589v-185h296v-109h-296v-295h-143v700h494v-111h-351z" />
    <glyph glyph-name="G" unicode="G" horiz-adv-x="701" 
d="M667 293q0 -55 -14.5 -108.5t-50 -96.5t-94 -69.5t-146.5 -26.5q-77 0 -138.5 24t-104 70t-65.5 113t-23 152t23.5 151.5t67 112t105 69.5t137.5 24q60 0 112.5 -17t93 -48t67 -75t33.5 -97h-143q-14 55 -58 88t-105 33q-86 0 -136.5 -63t-50.5 -178q0 -117 49 -181
t136 -64q47 0 77.5 14.5t49 38t26.5 53.5t9 61h-146v105h289v-85z" />
    <glyph glyph-name="H" unicode="H" horiz-adv-x="697" 
d="M652 700v-700h-144v295h-320v-295h-143v700h143v-296h320v296h144z" />
    <glyph glyph-name="I" unicode="I" horiz-adv-x="247" 
d="M52 700h143v-700h-143v700z" />
    <glyph glyph-name="J" unicode="J" horiz-adv-x="554" 
d="M504 700v-475q0 -116 -66.5 -174.5t-179.5 -58.5q-55 0 -100.5 16t-78 46.5t-50.5 73.5t-18 97h142q0 -30 9 -51t23.5 -34.5t33.5 -20t38 -6.5q21 0 39.5 5.5t32.5 20t22.5 39t8.5 61.5v461h144z" />
    <glyph glyph-name="K" unicode="K" horiz-adv-x="662" 
d="M650 0h-159q-31 53 -60 101q-24 42 -49 83t-41 64q-15 25 -36.5 41.5t-50.5 22.5l-64 -64v-248h-145v700h145v-281l277 281h169l-302 -304q36 -6 69.5 -25t53.5 -53z" />
    <glyph glyph-name="L" unicode="L" horiz-adv-x="519" 
d="M45 700h143v-591h320v-109h-463v700z" />
    <glyph glyph-name="M" unicode="M" horiz-adv-x="843" 
d="M798 700v-700h-140v486h-3l-198 -486h-72l-198 486h-3v-486h-139v700h183l192 -487h3l191 487h184z" />
    <glyph glyph-name="N" unicode="N" horiz-adv-x="688" 
d="M643 700v-700h-126l-327 472h-4v-472h-141v700h127l326 -467h4v467h141z" />
    <glyph glyph-name="O" unicode="O" horiz-adv-x="722" 
d="M362 708q77 0 139 -24.5t105.5 -71t67 -112.5t23.5 -149q0 -84 -23.5 -150.5t-67 -113t-105.5 -71t-139 -24.5q-78 0 -140.5 24.5t-106 71t-67 113t-23.5 150.5q0 83 23.5 149t67 112.5t106 71t140.5 24.5zM362 111q86 0 135.5 62.5t49.5 177.5q0 113 -49.5 174.5
t-135.5 61.5q-89 0 -138 -61.5t-49 -174.5q0 -115 49 -177.5t138 -62.5z" />
    <glyph glyph-name="P" unicode="P" horiz-adv-x="606" 
d="M338 700q104 0 163.5 -53.5t59.5 -152.5q0 -98 -59.5 -152t-163.5 -54h-150v-288h-143v700h293zM310 397q57 0 87 24.5t30 72.5q0 54 -34.5 74.5t-97.5 20.5h-107v-192h122z" />
    <glyph glyph-name="Q" unicode="Q" horiz-adv-x="735" 
d="M711 57v-109l-369 44q-160 21 -238.5 106.5t-78.5 252.5q0 83 23.5 149t67 112.5t106 71t140.5 24.5q77 0 139 -24.5t105.5 -71t67 -112.5t23.5 -149q0 -107 -47 -177.5t-125 -101.5v-4zM175 351q0 -113 48 -176t136 -63t138 62t50 177q0 113 -49.5 174.5t-135.5 61.5
q-89 0 -138 -61.5t-49 -174.5z" />
    <glyph glyph-name="R" unicode="R" horiz-adv-x="626" 
d="M445 0l-157 288h-100v-288h-143v700h304q105 0 164.5 -53.5t59.5 -152.5q0 -76 -38 -125t-112 -63l175 -306h-153zM188 397h133q57 0 87 24.5t30 72.5t-30 71.5t-87 23.5h-133v-192z" />
    <glyph glyph-name="S" unicode="S" horiz-adv-x="618" 
d="M375 401q112 -21 164 -66t52 -126q0 -50 -20 -90.5t-56.5 -68.5t-89 -43t-118.5 -15q-62 0 -113 15t-87.5 43t-57 68t-22.5 89h138q8 -46 45 -74.5t100 -28.5q62 0 97 24.5t35 67.5q0 36 -28.5 57t-98.5 35l-72 14q-208 42 -208 195q0 48 20.5 87t56.5 66.5t84.5 42.5
t105.5 15q65 0 115 -16.5t84.5 -46t53 -70t19.5 -88.5h-139q-3 48 -36.5 78t-94.5 30q-57 0 -90.5 -24.5t-33.5 -64.5q0 -36 28.5 -56.5t94.5 -33.5z" />
    <glyph glyph-name="T" unicode="T" horiz-adv-x="558" 
d="M553 589h-202v-589h-144v589h-202v111h548v-111z" />
    <glyph glyph-name="U" unicode="U" horiz-adv-x="671" 
d="M188 263q0 -73 39 -112t109 -39q71 0 109 38.5t38 112.5v437h143v-452q0 -59 -20.5 -106.5t-58.5 -80.5t-91.5 -51t-119.5 -18t-119.5 18t-92 51t-59 80.5t-20.5 106.5v452h143v-437z" />
    <glyph glyph-name="V" unicode="V" horiz-adv-x="667" 
d="M243 0l-246 700h153l183 -566h3l181 566h153l-246 -700h-181z" />
    <glyph glyph-name="W" unicode="W" horiz-adv-x="933" 
d="M926 700l-180 -700h-144l-134 494h-4l-132 -494h-146l-179 700h149l114 -510h3l132 510h122l132 -510h4l115 510h148z" />
    <glyph glyph-name="X" unicode="X" horiz-adv-x="652" 
d="M475 0l-148 261h-2l-149 -261h-166l219 351l-219 349h167l148 -262h2l148 262h168l-219 -349l219 -351h-168z" />
    <glyph glyph-name="Y" unicode="Y" horiz-adv-x="634" 
d="M389 300v-300h-143v302l-245 398h167l147 -262h4l148 262h166z" />
    <glyph glyph-name="Z" unicode="Z" horiz-adv-x="610" 
d="M572 111v-111h-534v91l352 494v4h-345v111h519v-93l-346 -495v-1h354z" />
    <glyph glyph-name="bracketleft" unicode="[" horiz-adv-x="381" 
d="M222 644v-633h141v-93h-270v822h270v-96h-141z" />
    <glyph glyph-name="backslash" unicode="\" horiz-adv-x="419" 
d="M408 0h-145l-252 700h143z" />
    <glyph glyph-name="bracketright" unicode="]" horiz-adv-x="381" 
d="M18 740h270v-822h-270v93h140v633h-140v96z" />
    <glyph glyph-name="asciicircum" unicode="^" horiz-adv-x="422" 
d="M401 471h-117l-73 116h-2l-73 -116h-116l144 229h94z" />
    <glyph glyph-name="underscore" unicode="_" horiz-adv-x="584" 
d="M564 -128h-544v102h544v-102z" />
    <glyph glyph-name="grave" unicode="`" horiz-adv-x="274" 
d="M252 471h-121l-128 229h146z" />
    <glyph glyph-name="a" unicode="a" horiz-adv-x="554" 
d="M285 521q53 0 95 -13t71.5 -36.5t45 -56.5t15.5 -74v-341h-134v86h-3q-10 -23 -29 -40.5t-42.5 -29.5t-50.5 -18t-54 -6q-36 0 -67.5 11t-55 31t-36.5 48.5t-13 62.5q0 73 53 113t153 46l138 8v22q0 42 -24 65t-69 23q-40 0 -66.5 -17t-32.5 -49h-127q9 75 70 120t163 45
zM371 235l-116 -8q-90 -8 -90 -73q0 -32 24 -50t59 -18q25 0 47 9.5t39 25.5t27 37t10 43v34z" />
    <glyph glyph-name="b" unicode="b" horiz-adv-x="591" 
d="M357 521q45 0 83 -18t65.5 -52t43.5 -83.5t16 -112.5t-16.5 -112t-45 -82.5t-66 -51t-78.5 -17.5q-63 0 -110 25t-69 66h-3v-83h-135v700h141v-273h3q49 94 171 94zM303 100q57 0 90.5 41t33.5 114q0 74 -33.5 115.5t-90.5 41.5q-56 0 -89 -42t-33 -115t33 -114t89 -41z
" />
    <glyph glyph-name="c" unicode="c" horiz-adv-x="549" 
d="M291 97q38 0 66 19t36 55h131q-11 -87 -73 -133t-163 -46q-121 0 -189 67.5t-68 195.5q0 129 69 197.5t187 68.5q100 0 163 -48t74 -135h-130q-10 38 -37.5 57.5t-65.5 19.5q-54 0 -87 -42t-33 -118q0 -74 33 -116t87 -42z" />
    <glyph glyph-name="d" unicode="d" horiz-adv-x="589" 
d="M232 521q63 0 105 -24t68 -70h2v273h140v-700h-135v83h-3q-21 -41 -68 -66t-110 -25q-42 0 -79 17.5t-65.5 51t-45 82.5t-16.5 112t15.5 112.5t43.5 83.5t65.5 52t82.5 18zM287 100q55 0 88.5 41t33.5 114t-33.5 115t-88.5 42q-57 0 -91 -41.5t-34 -115.5q0 -73 34 -114
t91 -41z" />
    <glyph glyph-name="e" unicode="e" horiz-adv-x="562" 
d="M168 228q2 -62 36 -97t87 -35q41 0 68 18.5t38 56.5h130q-14 -89 -74.5 -134t-164.5 -45q-121 0 -189 67.5t-68 197.5q0 62 18 111t51.5 83t81 52t105.5 18q59 0 104 -18.5t76.5 -52t47.5 -81.5t16 -107v-34h-363zM287 418q-49 0 -80.5 -30.5t-37.5 -81.5h231
q-5 49 -35 80.5t-78 31.5z" />
    <glyph glyph-name="f" unicode="f" horiz-adv-x="349" 
d="M349 600q-26 2 -39 2.5t-22 -0.5q-27 -3 -37.5 -17t-10.5 -43v-32h90v-92h-90v-418h-139v418h-82v92h82v34q0 45 12.5 76t35 50.5t54.5 28t70 8.5q34 0 76 -11v-96z" />
    <glyph glyph-name="g" unicode="g" horiz-adv-x="589" 
d="M547 514v-492q0 -51 -19.5 -89.5t-53 -64t-79.5 -38.5t-100 -13q-49 0 -90.5 9t-74 28.5t-54.5 50t-32 72.5h131q14 -33 44.5 -45.5t68.5 -12.5q27 0 49 5.5t37.5 19t24.5 35.5t9 54v75h-1q-27 -51 -68.5 -72t-102.5 -21q-44 0 -82.5 17.5t-67 50t-45 79t-16.5 104.5
q0 61 17 108.5t46 80t67 49.5t80 17q63 0 107 -23.5t69 -67.5h2v84h134zM287 123q55 0 89.5 39t34.5 105q0 65 -33.5 105.5t-90.5 40.5q-56 0 -89.5 -39.5t-33.5 -107.5q0 -65 33.5 -104t89.5 -39z" />
    <glyph glyph-name="h" unicode="h" horiz-adv-x="579" 
d="M349 521q90 0 138.5 -49.5t48.5 -153.5v-318h-136v291q0 60 -27 91t-81 31q-51 0 -81.5 -40t-30.5 -100v-273h-139v700h136v-292h2q21 62 64 87.5t106 25.5z" />
    <glyph glyph-name="i" unicode="i" horiz-adv-x="257" 
d="M128 723q37 0 58 -21.5t21 -51.5q0 -32 -21 -54t-58 -22q-38 0 -58.5 22t-20.5 54q0 30 20.5 51.5t58.5 21.5zM59 514h139v-514h-139v514z" />
    <glyph glyph-name="j" unicode="j" horiz-adv-x="258" 
d="M130 723q37 0 58 -21.5t21 -51.5q0 -32 -21 -54t-58 -22q-38 0 -59 22t-21 54q0 30 21 51.5t59 21.5zM59 514h139v-537q0 -83 -43 -120t-114 -40q-22 -1 -44.5 0.5t-45.5 7.5v99q13 -3 26 -3q39 -2 60.5 10.5t21.5 49.5v533z" />
    <glyph glyph-name="k" unicode="k" horiz-adv-x="562" 
d="M550 0h-154l-109 180q-11 17 -23.5 27.5t-31.5 14.5l-52 -47v-175h-139v700h139v-379l193 193h165l-228 -215q26 -5 50 -17t38 -36z" />
    <glyph glyph-name="l" unicode="l" horiz-adv-x="311" 
d="M297 102v-97q-21 -4 -41 -6t-40 -2q-79 1 -118 42.5t-39 139.5v522h140v-533q0 -35 14.5 -50.5t55.5 -16.5h13.5t14.5 1z" />
    <glyph glyph-name="m" unicode="m" horiz-adv-x="869" 
d="M656 523q85 0 128 -49t43 -140v-334h-139v303q0 51 -21.5 81.5t-67.5 30.5q-47 0 -70.5 -35t-23.5 -85v-295h-139v303q0 51 -22.5 81.5t-67.5 30.5q-47 0 -71 -35.5t-24 -90.5v-289h-139v514h135v-98h2q18 54 55.5 80.5t98.5 26.5q62 0 101 -28.5t56 -78.5h1
q43 107 165 107z" />
    <glyph glyph-name="n" unicode="n" horiz-adv-x="580" 
d="M351 521q89 0 138 -49.5t49 -153.5v-318h-137v291q0 60 -26.5 91t-81.5 31q-51 0 -81.5 -40t-30.5 -100v-273h-139v514h137v-106h1q22 62 64.5 87.5t106.5 25.5z" />
    <glyph glyph-name="o" unicode="o" horiz-adv-x="565" 
d="M282 521q60 0 108 -17.5t82 -51.5t52.5 -83.5t18.5 -113.5q0 -63 -18.5 -112t-52 -82.5t-82 -51t-108.5 -17.5q-59 0 -107 17.5t-82 51t-52.5 82.5t-18.5 112q0 64 18.5 113.5t52.5 83.5t82 51.5t107 17.5zM282 97q26 0 49 10.5t40 30.5t27 49.5t10 67.5q0 39 -10 69.5
t-27 50.5t-40 30.5t-49 10.5q-51 0 -87.5 -41t-36.5 -120q0 -38 10 -67.5t26.5 -49.5t39.5 -30.5t48 -10.5z" />
    <glyph glyph-name="p" unicode="p" horiz-adv-x="589" 
d="M357 521q42 0 80 -18t66.5 -52t45 -83.5t16.5 -112.5q0 -69 -17.5 -118.5t-48.5 -82t-72.5 -47.5t-88.5 -15q-48 0 -90 20.5t-65 63.5h-2v-253h-139v691h134v-86h1q24 45 66.5 69t113.5 24zM303 101q56 0 89.5 41t33.5 113q0 74 -33 116t-90 42q-56 0 -90 -42t-34 -114
t34 -114t90 -42z" />
    <glyph glyph-name="q" unicode="q" horiz-adv-x="589" 
d="M232 521q71 0 114 -24t66 -69h1v86h134v-691h-139v253h-1q-23 -43 -65.5 -63.5t-90.5 -20.5q-47 0 -88 15t-72 47.5t-48.5 82t-17.5 118.5q0 63 16.5 112.5t45 83.5t66 52t79.5 18zM287 101q55 0 89.5 42t34.5 114t-34.5 114t-89.5 42q-57 0 -90 -42t-33 -116
q0 -72 33.5 -113t89.5 -41z" />
    <glyph glyph-name="r" unicode="r" horiz-adv-x="375" 
d="M181 424q16 46 51 72t92 26q18 0 39 -3v-108q-42 6 -75.5 -3.5t-56.5 -30.5t-35.5 -51t-12.5 -63v-263h-138v514h134v-90h2z" />
    <glyph glyph-name="s" unicode="s" horiz-adv-x="509" 
d="M302 300q91 -18 135.5 -49.5t44.5 -92.5q0 -76 -58 -121t-166 -45q-42 0 -81 8.5t-70.5 27.5t-52.5 50t-27 75h134q6 -30 32.5 -48t64.5 -18q37 0 60 15t23 43q0 18 -15 31.5t-60 22.5l-78 15q-75 16 -114 52t-39 93q0 40 18 70t48 50t69 30t81 10q41 0 78 -9t66 -29
t48 -51t24 -75h-127q-5 32 -29 50t-60 18q-33 0 -56.5 -15.5t-23.5 -41.5q0 -12 7 -21t22.5 -16.5t40.5 -14t61 -14.5z" />
    <glyph glyph-name="t" unicode="t" horiz-adv-x="364" 
d="M292 101q11 0 22 0.5t24 2.5v-99q-15 -3 -28 -4.5t-28 -1.5q-44 -3 -79 4.5t-59 28t-37 56t-13 89.5v241h-79v92h85v120h135v-120h97v-92h-97v-250q0 -33 12 -49t45 -18z" />
    <glyph glyph-name="u" unicode="u" horiz-adv-x="580" 
d="M538 514v-514h-134v105h-3q-10 -33 -29.5 -55t-43.5 -35t-50.5 -18t-50.5 -5q-89 0 -137 50.5t-48 152.5v319h139v-293q0 -60 26 -91.5t80 -31.5q52 0 81.5 39.5t29.5 101.5v275h140z" />
    <glyph glyph-name="v" unicode="v" horiz-adv-x="531" 
d="M356 0h-179l-177 514h149l118 -403h3l116 403h145z" />
    <glyph glyph-name="w" unicode="w" horiz-adv-x="779" 
d="M645 0h-157l-98 386h-2l-99 -386h-155l-127 514h142l78 -390h2l96 390h131l97 -390h4l76 390h139z" />
    <glyph glyph-name="x" unicode="x" horiz-adv-x="535" 
d="M367 0l-100 186h-1l-98 -186h-153l158 258l-158 256h153l98 -184h1l100 184h153l-161 -256l161 -258h-153z" />
    <glyph glyph-name="y" unicode="y" horiz-adv-x="523" 
d="M523 514q-12 -41 -31.5 -99t-42 -125t-46.5 -138t-47 -138q-20 -63 -46 -102.5t-59.5 -61.5t-74 -28.5t-90.5 -1.5q-11 1 -18 2.5t-18 4.5v95q11 -1 19 -2t16 -1q19 0 34.5 1t28 7t23 18t19.5 33q-47 135 -94.5 268.5t-95.5 267.5h150l112 -403h3l113 403h145z" />
    <glyph glyph-name="z" unicode="z" horiz-adv-x="502" 
d="M464 102v-102h-426v74l259 333v4h-259v103h426v-86l-248 -322v-4h248z" />
    <glyph glyph-name="braceleft" unicode="{" horiz-adv-x="401" 
d="M259 458q0 -109 -88 -131v-1q41 -11 64.5 -41.5t23.5 -86.5v-113q0 -44 21.5 -58.5t61.5 -14.5h41v-94h-65q-97 0 -142.5 36.5t-45.5 123.5v101q0 48 -23.5 75.5t-75.5 32.5v83q52 4 75.5 31.5t23.5 76.5v101q0 87 46 124t142 37h65v-96h-41q-25 0 -41.5 -4.5
t-25.5 -16.5t-12.5 -33.5t-3.5 -54.5v-77z" />
    <glyph glyph-name="bar" unicode="|" horiz-adv-x="310" 
d="M217 798v-902h-124v902h124z" />
    <glyph glyph-name="braceright" unicode="}" horiz-adv-x="401" 
d="M142 458v77q0 33 -3.5 54.5t-12.5 33.5t-25 16.5t-42 4.5h-41v96h65q96 0 142.5 -37t46.5 -124v-101q0 -49 23.5 -76.5t74.5 -31.5v-83q-51 -5 -74.5 -32.5t-23.5 -75.5v-101q0 -87 -46 -123.5t-143 -36.5h-65v94h41q41 0 62 14.5t21 58.5v113q0 56 23.5 86.5t65.5 41.5
v1q-89 22 -89 131z" />
    <glyph glyph-name="asciitilde" unicode="~" horiz-adv-x="580" 
d="M199 304q-21 0 -36.5 -18.5t-16.5 -60.5h-105q0 88 34 137.5t108 49.5q31 0 55.5 -13t46.5 -28.5t44 -28.5t48 -13q23 0 39.5 20t17.5 62h105q0 -86 -37 -137.5t-109 -51.5q-31 0 -56.5 13t-48 28t-44 28t-45.5 13z" />
    <glyph glyph-name="uni0E33.alt1" horiz-adv-x="472" 
d="M-308 820q57 0 87.5 -24.5t30.5 -72.5q0 -45 -30.5 -70t-87.5 -25q-58 0 -89 24.5t-31 70.5q0 48 31.5 72.5t88.5 24.5zM-308 686q17 0 28 10t11 27q0 20 -11 30t-28 10q-19 0 -30 -10t-11 -30q0 -17 11 -27t30 -10zM285 0v383q0 44 -28.5 64t-73.5 21q-40 2 -77 -7
t-80 -23v105q45 20 90.5 29t99.5 9q44 0 82 -9.5t66.5 -30t45 -52.5t16.5 -76v-413h-141z" />
    <glyph glyph-name="uni00AD" horiz-adv-x="295" 
 />
    <glyph glyph-name="exclamdown" unicode="&#xa1;" horiz-adv-x="276" 
d="M138 428q-40 0 -63 24t-23 57t23 56.5t63 23.5t63 -23.5t23 -56.5t-23 -57t-63 -24zM209 154v-265h-142v265q2 50 4.5 99.5t4.5 99.5h123z" />
    <glyph glyph-name="cent" unicode="&#xa2;" horiz-adv-x="550" 
d="M351 617v-103q73 -12 118.5 -58t54.5 -118h-130q-10 38 -37.5 57.5t-65.5 19.5q-54 0 -87 -42t-33 -118q0 -74 33 -116t87 -42q38 0 66 19t36 55h131q-9 -72 -54.5 -116.5t-118.5 -58.5v-100h-124v100q-93 15 -144.5 81.5t-51.5 177.5q0 112 52 178.5t144 80.5v103h124z
" />
    <glyph glyph-name="sterling" unicode="&#xa3;" horiz-adv-x="594" 
d="M48 357h78q-8 19 -18 38t-19 38.5t-15 39.5t-6 39q0 42 14 78t43.5 62t74.5 41t107 15q68 0 114.5 -19.5t75.5 -52t42 -75.5t14 -90h-130q0 26 -5.5 49t-19 40.5t-36 28t-55.5 10.5q-54 0 -79 -27t-25 -70q0 -12 6.5 -28t16 -34.5t19.5 -39.5t17 -43h196v-94h-192
q-3 -25 -9 -45.5t-14 -38t-18.5 -33.5t-22.5 -33v-2h357v-111h-513v85q19 20 36 38t31 38.5t23 44.5t11 57h-99v94z" />
    <glyph glyph-name="currency" unicode="&#xa4;" horiz-adv-x="532" 
d="M63 327q0 28 7 55t24 51l-56 54l68 68l56 -54q22 17 49 24t56 7q28 0 54.5 -7t49.5 -24l53 53l74 -66l-59 -57q17 -23 25 -49.5t8 -54.5q0 -29 -7.5 -55t-25.5 -50l56 -54l-69 -70l-55 55q-23 -17 -49 -23.5t-55 -6.5t-56 6.5t-49 23.5l-57 -56l-64 72l53 53
q-17 24 -24 50t-7 55zM158 327q0 -22 8 -41.5t22.5 -34.5t34.5 -24t44 -9q23 0 43 9t34.5 24t22.5 34.5t8 41.5t-8 41.5t-22.5 34.5t-34.5 23.5t-43 8.5q-24 0 -44 -8.5t-34.5 -23.5t-22.5 -34.5t-8 -41.5z" />
    <glyph glyph-name="yen" unicode="&#xa5;" horiz-adv-x="634" 
d="M210 377l-209 323h167l147 -262h4l148 262h166l-209 -323h112v-89h-147v-71h147v-89h-147v-128h-143v128h-148v89h148v71h-148v89h112z" />
    <glyph glyph-name="brokenbar" unicode="&#xa6;" horiz-adv-x="310" 
d="M217 798v-327h-124v327h124zM217 221v-325h-124v325h124z" />
    <glyph glyph-name="section" unicode="&#xa7;" horiz-adv-x="510" 
d="M266 145q-65 14 -110.5 28t-74.5 33t-42 44t-13 61q0 25 7 43.5t18.5 32.5t27 24t33.5 17q-42 18 -64.5 52.5t-22.5 74.5q0 38 16 68t45.5 51t71.5 32.5t94 11.5q43 0 83 -8.5t72 -27.5t53.5 -50.5t27.5 -78.5h-125q-12 34 -39.5 47.5t-72.5 13.5q-42 0 -64.5 -16.5
t-22.5 -40.5q0 -19 16 -33.5t63 -24.5q66 -13 111.5 -27.5t74 -33t41.5 -44t13 -60.5q0 -50 -26 -78.5t-61 -42.5q40 -20 64 -52t24 -71q0 -75 -61 -118t-166 -43q-42 0 -82 8t-72 27t-53.5 50t-27.5 77h124q15 -34 42.5 -47.5t68.5 -13.5q16 0 32 4.5t28.5 12.5t20 18
t7.5 22q0 20 -16 34t-63 24zM357 322q0 18 -9 31.5t-24 22.5t-34 13.5t-39 4.5q-49 2 -73.5 -19.5t-24.5 -52.5q0 -29 28 -51t88 -20q44 0 66 20.5t22 50.5z" />
    <glyph glyph-name="dieresis" unicode="&#xa8;" horiz-adv-x="488" 
d="M52 636q0 14 6 27.5t16.5 24t25 16.5t30.5 6q15 0 28 -6t23 -16.5t16 -24t6 -27.5q0 -16 -6 -30t-16 -24.5t-23 -17t-28 -6.5q-16 0 -30.5 6.5t-25 17t-16.5 24.5t-6 30zM285 636q0 14 6 27.5t16.5 24t24.5 16.5t30 6q15 0 28.5 -6t24 -16.5t16.5 -24t6 -27.5
q0 -16 -6 -30t-16.5 -24.5t-24 -17t-28.5 -6.5q-16 0 -30 6.5t-24.5 17t-16.5 24.5t-6 30z" />
    <glyph glyph-name="copyright" unicode="&#xa9;" horiz-adv-x="805" 
d="M25 342q0 78 29.5 147t81 120.5t120.5 81t147 29.5t146.5 -29.5t120 -81t81 -120.5t29.5 -147t-29.5 -146.5t-81 -120t-120 -81t-146.5 -29.5t-147 29.5t-120.5 81t-81 120t-29.5 146.5zM117 342q0 -59 22.5 -111t61 -90.5t90.5 -61t112 -22.5q59 0 111 22.5t91 61
t61.5 90.5t22.5 111q0 60 -22.5 112t-61.5 91t-91 61.5t-111 22.5q-60 0 -112 -22.5t-90.5 -61.5t-61 -91t-22.5 -112zM409 214q34 0 57 17t31 49h98q-4 -33 -19.5 -60t-40 -46t-56.5 -29t-70 -10q-94 0 -147 56.5t-53 159.5t53 158.5t147 55.5q37 0 69 -10.5t56.5 -30
t40.5 -46t20 -59.5h-98q-8 31 -31 49t-57 18q-46 0 -73.5 -35t-27.5 -100q0 -66 27 -101.5t74 -35.5z" />
    <glyph glyph-name="ordfeminine" unicode="&#xaa;" horiz-adv-x="378" 
d="M198 708q67 0 104.5 -29.5t37.5 -78.5v-206h-93v49h-1q-13 -26 -42.5 -39.5t-60.5 -13.5q-44 0 -74.5 25.5t-30.5 67.5q0 45 32.5 68.5t94.5 28.5l78 5v10q0 46 -49 46q-22 0 -36 -8t-17 -24h-88q6 45 44 72t101 27zM243 532l-63 -4q-48 -5 -48 -38q0 -17 13.5 -26.5
t31.5 -9.5q27 0 46.5 18.5t19.5 43.5v16z" />
    <glyph glyph-name="guillemotleft" unicode="&#xab;" horiz-adv-x="918" 
d="M495 629v-135l-305 -176v-1l305 -178v-134l-450 272v79zM873 629v-135l-305 -176v-1l305 -178v-134l-450 272v79z" />
    <glyph glyph-name="logicalnot" unicode="&#xac;" horiz-adv-x="484" 
d="M310 146v115h-269v110h402v-225h-133z" />
    <glyph glyph-name="registered" unicode="&#xae;" horiz-adv-x="805" 
d="M25 342q0 78 29.5 147t81 120.5t120.5 81t147 29.5t146.5 -29.5t120 -81t81 -120.5t29.5 -147t-29.5 -146.5t-81 -120t-120 -81t-146.5 -29.5t-147 29.5t-120.5 81t-81 120t-29.5 146.5zM117 342q0 -59 22.5 -111t61 -90.5t90.5 -61t112 -22.5q59 0 111 22.5t91 61
t61.5 90.5t22.5 111q0 60 -22.5 112t-61.5 91t-91 61.5t-111 22.5q-60 0 -112 -22.5t-90.5 -61.5t-61 -91t-22.5 -112zM493 141l-90 167h-50v-167h-98v418h191q63 0 99 -32.5t36 -92.5q0 -45 -22 -74.5t-64 -40.5l103 -178h-105zM353 382h73q29 0 45.5 13t16.5 39
q0 25 -16.5 37.5t-45.5 12.5h-73v-102z" />
    <glyph glyph-name="macron" unicode="&#xaf;" horiz-adv-x="584" 
d="M564 744h-544v102h544v-102z" />
    <glyph glyph-name="degree" unicode="&#xb0;" horiz-adv-x="394" 
d="M198 398q-36 0 -66 11.5t-51.5 31.5t-33.5 49t-12 63t11.5 62.5t32.5 49t51 32t68 11.5q36 0 65.5 -11.5t50.5 -32t33 -49t12 -62.5t-12 -63t-33 -49t-50.5 -31.5t-65.5 -11.5zM198 488q34 0 49 18t15 47q0 31 -16 48.5t-48 17.5q-34 0 -50 -17.5t-16 -48.5q0 -29 16 -47
t50 -18z" />
    <glyph glyph-name="plusminus" unicode="&#xb1;" horiz-adv-x="579" 
d="M538 312h-186v-155h-127v155h-184v101h184v156h127v-156h186v-101zM538 0h-497v101h497v-101z" />
    <glyph glyph-name="twosuperior" unicode="&#xb2;" horiz-adv-x="388" 
d="M349 441v-75h-307v54q5 5 23 23.5t41.5 41t47 45.5t38.5 38q20 19 32 33t19 24.5t9.5 18.5t2.5 16q0 26 -15 41t-48 15q-37 0 -51 -22t-14 -50h-89q1 29 9.5 55t26.5 46.5t47 32.5t71 12q79 0 117.5 -35t38.5 -88q0 -21 -4 -37t-14.5 -32t-28.5 -35.5t-47 -48.5l-74 -72
v-1h169z" />
    <glyph glyph-name="threesuperior" unicode="&#xb3;" horiz-adv-x="411" 
d="M292 580q36 -8 58.5 -32t22.5 -68q0 -22 -9.5 -44t-30 -38.5t-53 -27t-78.5 -10.5q-42 0 -72.5 12t-51 32.5t-30.5 47t-10 54.5h90q1 -10 6 -22.5t14 -22.5t22.5 -17t31.5 -7q33 0 52.5 14.5t19.5 45.5q0 26 -20 36t-51 10h-35v67h34q26 0 45.5 15t19.5 38q0 27 -17.5 41
t-46.5 14q-32 0 -50 -22t-18 -52h-89q0 64 40.5 105t115.5 41q41 0 71 -9t49.5 -24t29.5 -35t10 -41q0 -43 -19 -65.5t-51 -32.5v-3z" />
    <glyph glyph-name="acute" unicode="&#xb4;" horiz-adv-x="330" 
d="M38 591l108 196h146l-131 -196h-123z" />
    <glyph glyph-name="uni00B5" unicode="&#xb5;" horiz-adv-x="579" 
d="M403 0v89h-2q-20 -52 -51.5 -74.5t-82.5 -22.5q-26 0 -51.5 9.5t-39.5 33.5h-1v-212h-134v691h139v-289q0 -59 30 -93t77 -34q48 0 79.5 40.5t31.5 112.5v263h140v-514h-135z" />
    <glyph glyph-name="paragraph" unicode="&#xb6;" horiz-adv-x="703" 
d="M622 0h-120v598h-94v-598h-121v288q-14 -5 -32 -7.5t-34 -2.5q-42 0 -77 11t-60 35.5t-39 64.5t-14 97q0 62 14.5 103t41.5 65.5t64.5 35t83.5 10.5h387v-700z" />
    <glyph glyph-name="periodcentered" unicode="&#xb7;" horiz-adv-x="319" 
d="M65 317q0 19 7.5 35.5t20.5 29t30.5 20t37.5 7.5t36.5 -7.5t29.5 -20t20 -29t7 -35.5q0 -20 -7 -38t-20 -31t-29.5 -20.5t-36.5 -7.5q-40 0 -68 28t-28 69z" />
    <glyph glyph-name="cedilla" unicode="&#xb8;" horiz-adv-x="371" 
d="M59 -282l107 196h146l-131 -196h-122z" />
    <glyph glyph-name="onesuperior" unicode="&#xb9;" horiz-adv-x="274" 
d="M236 782v-419h-98v333l-100 -29v75l124 40h74z" />
    <glyph glyph-name="ordmasculine" unicode="&#xba;" horiz-adv-x="439" 
d="M38 577q0 104 50 158.5t132 54.5t131.5 -54.5t49.5 -158.5q0 -103 -49.5 -158.5t-131.5 -55.5t-132 55t-50 159zM297 577q0 73 -21 103.5t-56 30.5q-36 0 -57.5 -30.5t-21.5 -103.5q0 -72 21.5 -104t57.5 -32q35 0 56 32t21 104z" />
    <glyph glyph-name="guillemotright" unicode="&#xbb;" horiz-adv-x="918" 
d="M495 277l-450 -272v134l306 178v1l-306 176v135l450 -273v-79zM873 277l-450 -272v134l306 178v1l-306 176v135l450 -273v-79z" />
    <glyph glyph-name="onequarter" unicode="&#xbc;" horiz-adv-x="771" 
d="M543 700l-252 -700h-97l254 700h95zM211 700v-419h-98v333l-99 -29v75l124 40h73zM757 76h-52v-76h-98v76h-200v63l211 280h83v-268h56v-75zM613 149v143l-104 -143h104z" />
    <glyph glyph-name="onehalf" unicode="&#xbd;" horiz-adv-x="828" 
d="M543 700l-252 -700h-97l254 700h95zM211 700v-419h-98v333l-99 -29v75l124 40h73zM791 75v-75h-307v55q5 5 23.5 23t41.5 40.5t46.5 45.5t38.5 38q20 20 32 33.5t19 24t9.5 19t2.5 16.5q0 26 -15 41t-48 15q-37 0 -51 -22.5t-14 -50.5h-89q1 29 9.5 55.5t26.5 46.5t47 32
t71 12q80 0 118 -35t38 -87q0 -22 -4 -38t-14.5 -32t-28.5 -35t-47 -48l-74 -73v-1h169z" />
    <glyph glyph-name="threequarters" unicode="&#xbe;" horiz-adv-x="875" 
d="M285 498q36 -8 58.5 -32t22.5 -68q0 -22 -9.5 -44t-30 -38.5t-53 -27t-78.5 -10.5q-41 0 -72 12t-51.5 32.5t-30.5 47t-10 54.5h90q1 -10 6 -22.5t14 -22.5t22.5 -17t31.5 -7q33 0 52.5 14.5t19.5 45.5q0 26 -20 36t-51 10h-35v67h34q27 0 46.5 15t19.5 38q0 27 -18 41
t-47 14q-32 0 -50 -22t-18 -52h-88q0 64 40 105t115 41q41 0 71 -9t49.5 -24t29.5 -35t10 -41q0 -43 -19 -65.5t-51 -32.5v-3zM647 700l-253 -700h-97l254 700h96zM861 76h-52v-76h-98v76h-201v63l212 280h83v-268h56v-75zM716 149v143l-103 -143h103z" />
    <glyph glyph-name="questiondown" unicode="&#xbf;" horiz-adv-x="546" 
d="M266 428q-40 0 -63 24t-23 57t23 56.5t63 23.5q42 0 64 -23.5t22 -56.5t-22 -57t-64 -24zM273 -119q-121 0 -177 48.5t-56 141.5q0 35 11.5 61t28 47t36.5 39t36.5 35.5t28 37.5t11.5 45v17h150v-11q2 -39 -10 -67t-30.5 -49.5t-41 -39t-42 -34t-32.5 -35t-13 -42.5
q0 -34 22 -58.5t70 -24.5q54 0 81.5 31t31.5 82h130q-1 -45 -16.5 -86t-45 -71.5t-73 -48.5t-100.5 -18z" />
    <glyph glyph-name="Acircumflex" unicode="&#xc2;" horiz-adv-x="667" 
d="M523 753h-118l-72 113h-4l-72 -113h-115l143 219h93zM517 0l-49 154h-267l-51 -154h-153l246 700h181l246 -700h-153zM438 258l-102 312h-4l-103 -312h209z" />
    <glyph glyph-name="Adieresis" unicode="&#xc4;" horiz-adv-x="667" 
d="M139 862q0 30 23 52t55 22q30 0 52 -22t22 -52q0 -32 -22 -54.5t-52 -22.5q-32 0 -55 22.5t-23 54.5zM374 862q0 30 22 52t54 22q30 0 52 -22t22 -52q0 -32 -22 -54.5t-52 -22.5q-32 0 -54 22.5t-22 54.5zM517 0l-49 154h-267l-51 -154h-153l246 700h181l246 -700h-153z
M438 258l-102 312h-4l-103 -312h209z" />
    <glyph glyph-name="Aring" unicode="&#xc5;" horiz-adv-x="667" 
d="M196 776q0 59 37.5 97t100.5 38q30 0 55.5 -10t43.5 -28t28 -43t10 -54q0 -61 -40 -96l239 -680h-153l-49 154h-267l-51 -154h-153l239 678q-19 19 -29.5 44t-10.5 54zM334 725q25 0 38.5 14t13.5 37q0 25 -13.5 40t-38.5 15q-26 0 -40 -15t-14 -40q0 -23 14 -37t40 -14z
M438 258l-102 312h-4l-103 -312h209z" />
    <glyph glyph-name="AE" unicode="&#xc6;" horiz-adv-x="1019" 
d="M630 589v-185h296v-109h-296v-186h350v-109h-494v154h-234l-94 -154h-161l437 700h546v-111h-350zM486 258v282l-175 -282h175z" />
    <glyph glyph-name="Ccedilla" unicode="&#xc7;" horiz-adv-x="688" 
d="M362 106q60 0 101 31t56 88h144q-7 -54 -32.5 -97t-65 -73t-91 -46.5t-112.5 -16.5q-77 0 -138.5 24t-104 70t-65.5 113t-23 152t23 151.5t65.5 112t104 69.5t138.5 24q59 0 110.5 -17t91 -48t65 -75t33.5 -97h-143q-15 55 -56 88t-101 33q-87 0 -136 -63t-49 -178
q0 -117 49 -181t136 -64zM330 -282h-123l108 196h146z" />
    <glyph glyph-name="Ecircumflex" unicode="&#xca;" horiz-adv-x="579" 
d="M490 753h-117l-73 113h-4l-72 -113h-115l143 219h93zM190 589v-185h294v-109h-294v-186h349v-109h-494v700h494v-111h-349z" />
    <glyph glyph-name="Edieresis" unicode="&#xcb;" horiz-adv-x="579" 
d="M105 862q0 30 23 52t55 22q15 0 28 -6t23.5 -16t16.5 -23.5t6 -28.5q0 -16 -6 -30t-16.5 -24.5t-23.5 -16.5t-28 -6q-32 0 -55 22.5t-23 54.5zM340 862q0 30 22 52t54 22q30 0 52 -22t22 -52q0 -32 -22 -54.5t-52 -22.5q-32 0 -54 22.5t-22 54.5zM190 589v-185h294v-109
h-294v-186h349v-109h-494v700h494v-111h-349z" />
    <glyph glyph-name="Icircumflex" unicode="&#xce;" horiz-adv-x="247" 
d="M314 753h-118l-72 113h-4l-72 -113h-115l143 219h93zM52 700h143v-700h-143v700z" />
    <glyph glyph-name="Idieresis" unicode="&#xcf;" horiz-adv-x="247" 
d="M-68 862q0 30 23 52t55 22q29 0 51 -22t22 -52q0 -16 -6 -30t-16 -24.5t-23 -16.5t-28 -6q-16 0 -30.5 6t-25 16.5t-16.5 24.5t-6 30zM165 862q0 30 22.5 52t54.5 22q29 0 51 -22t22 -52q0 -16 -6 -30t-16 -24.5t-23 -16.5t-28 -6q-32 0 -54.5 22.5t-22.5 54.5zM52 700
h143v-700h-143v700z" />
    <glyph glyph-name="Eth" unicode="&#xd0;" horiz-adv-x="744" 
d="M18 396h94v304h252q80 0 144.5 -23t109.5 -67t69.5 -108.5t24.5 -148.5t-24.5 -150t-70 -111t-110 -68.5t-144.5 -23.5h-251v307h-94v89zM345 109q102 0 158 62.5t56 180.5q0 113 -56 175t-156 62h-90v-193h163v-89h-163v-198h88z" />
    <glyph glyph-name="Ntilde" unicode="&#xd1;" horiz-adv-x="688" 
d="M266 846q-20 0 -34.5 -18t-14.5 -57h-104q0 85 32.5 128.5t104.5 43.5q29 0 52.5 -12t44.5 -27t42.5 -27t45.5 -12q23 0 39 19t17 58h103q0 -83 -36.5 -128.5t-105.5 -45.5q-30 0 -53.5 12t-45.5 27t-42.5 27t-44.5 12zM502 700h141v-700h-126l-327 472h-4v-472h-141v700
h127l326 -467h4v467z" />
    <glyph glyph-name="Ocircumflex" unicode="&#xd4;" horiz-adv-x="722" 
d="M411 972l143 -219h-117l-73 113h-2l-73 -113h-116l144 219h94zM362 708q77 0 139 -24.5t105.5 -71t67 -112.5t23.5 -149q0 -84 -23.5 -150.5t-67 -113t-105.5 -71t-139 -24.5q-78 0 -140.5 24.5t-106 71t-67 113t-23.5 150.5q0 83 23.5 149t67 112.5t106 71t140.5 24.5z
M362 111q86 0 135.5 62.5t49.5 177.5q0 113 -49.5 174.5t-135.5 61.5q-89 0 -138 -61.5t-49 -174.5q0 -115 49 -177.5t138 -62.5z" />
    <glyph glyph-name="Odieresis" unicode="&#xd6;" horiz-adv-x="722" 
d="M166 862q0 30 23 52t55 22q14 0 27.5 -6t24 -16t16.5 -23.5t6 -28.5q0 -32 -22.5 -54.5t-51.5 -22.5q-32 0 -55 22.5t-23 54.5zM400 862q0 30 23 52t55 22q29 0 51 -22t22 -52q0 -16 -6 -30t-16 -24.5t-23 -16.5t-28 -6q-16 0 -30.5 6t-25 16.5t-16.5 24.5t-6 30z
M362 708q77 0 139 -24.5t105.5 -71t67 -112.5t23.5 -149q0 -84 -23.5 -150.5t-67 -113t-105.5 -71t-139 -24.5q-78 0 -140.5 24.5t-106 71t-67 113t-23.5 150.5q0 83 23.5 149t67 112.5t106 71t140.5 24.5zM362 111q86 0 135.5 62.5t49.5 177.5q0 113 -49.5 174.5
t-135.5 61.5q-89 0 -138 -61.5t-49 -174.5q0 -115 49 -177.5t138 -62.5z" />
    <glyph glyph-name="multiply" unicode="&#xd7;" horiz-adv-x="539" 
d="M348 315l150 -147l-80 -81l-149 150l-149 -150l-79 81l150 147l-150 150l78 79l150 -150l150 150l79 -79z" />
    <glyph glyph-name="Oslash" unicode="&#xd8;" horiz-adv-x="722" 
d="M362 708q77 0 139 -24.5t105.5 -71t67 -112.5t23.5 -149q0 -84 -23.5 -150.5t-67 -113t-105.5 -71t-139 -24.5q-78 0 -140.5 24.5t-106 71t-67 113t-23.5 150.5q0 83 23.5 149t67 112.5t106 71t140.5 24.5zM175 351q0 -128 61 -187l153 419q-11 2 -20.5 2h-19.5
q-82 -4 -128 -65t-46 -169zM362 111q88 0 136.5 62.5t48.5 177.5q0 122 -59 181l-151 -420q5 -1 11.5 -1h13.5z" />
    <glyph glyph-name="Ucircumflex" unicode="&#xdb;" horiz-adv-x="671" 
d="M383 972l144 -219h-118l-72 113h-3l-72 -113h-116l143 219h94zM188 263q0 -73 39 -112t109 -39q71 0 109 38.5t38 112.5v437h143v-452q0 -59 -20.5 -106.5t-58.5 -80.5t-91.5 -51t-119.5 -18t-119.5 18t-92 51t-59 80.5t-20.5 106.5v452h143v-437z" />
    <glyph glyph-name="Udieresis" unicode="&#xdc;" horiz-adv-x="671" 
d="M377 862q0 30 22.5 52t54.5 22q15 0 28 -6t23.5 -16t16.5 -23.5t6 -28.5q0 -16 -6 -30t-16.5 -24.5t-23.5 -16.5t-28 -6q-32 0 -54.5 22.5t-22.5 54.5zM145 862q0 30 22 52t54 22q30 0 52 -22t22 -52q0 -32 -22 -54.5t-52 -22.5q-32 0 -54 22.5t-22 54.5zM188 263
q0 -73 39 -112t109 -39q71 0 109 38.5t38 112.5v437h143v-452q0 -59 -20.5 -106.5t-58.5 -80.5t-91.5 -51t-119.5 -18t-119.5 18t-92 51t-59 80.5t-20.5 106.5v452h143v-437z" />
    <glyph glyph-name="Thorn" unicode="&#xde;" horiz-adv-x="589" 
d="M188 554h150q104 0 163.5 -53.5t59.5 -151.5q0 -99 -59.5 -152.5t-163.5 -53.5h-150v-143h-143v700h143v-146zM188 443v-191h116q59 0 91 23t32 74q0 48 -30 71t-87 23h-122z" />
    <glyph glyph-name="germandbls" unicode="&#xdf;" horiz-adv-x="647" 
d="M45 0v480q0 116 62 172t195 56q66 0 115.5 -17t82.5 -46t49 -66t16 -78q0 -25 -7 -48.5t-19.5 -43t-31.5 -33t-43 -17.5q31 -5 57.5 -18t46.5 -33t31.5 -46.5t11.5 -58.5q0 -61 -20.5 -101.5t-54.5 -65t-78 -34.5t-90 -10q-49 0 -96 9v97q34 -4 69 -1.5t63 15t46 35
t18 56.5q0 25 -13.5 44.5t-34.5 32.5t-46.5 19.5t-50.5 6.5h-36v105h36q21 0 40 5t33.5 16t23 27.5t8.5 38.5q0 21 -6.5 38.5t-21.5 30.5t-39 20t-59 7t-57.5 -9t-36 -27t-19 -44t-5.5 -60v-454h-139z" />
    <glyph glyph-name="acircumflex" unicode="&#xe2;" horiz-adv-x="554" 
d="M479 572h-117l-73 113h-4l-72 -113h-115l144 219h92zM285 521q53 0 95 -13t71.5 -36.5t45 -56.5t15.5 -74v-341h-134v86h-3q-10 -23 -29 -40.5t-42.5 -29.5t-50.5 -18t-54 -6q-36 0 -67.5 11t-55 31t-36.5 48.5t-13 62.5q0 73 53 113t153 46l138 8v22q0 42 -24 65t-69 23
q-40 0 -66.5 -17t-32.5 -49h-127q9 75 70 120t163 45zM371 235l-116 -8q-90 -8 -90 -73q0 -32 24 -50t59 -18q25 0 47 9.5t39 25.5t27 37t10 43v34z" />
    <glyph glyph-name="adieresis" unicode="&#xe4;" horiz-adv-x="554" 
d="M102 674q0 30 22.5 52.5t54.5 22.5q15 0 28 -6t23 -16.5t16 -24t6 -28.5q0 -16 -6 -29.5t-16 -24t-23 -16.5t-28 -6q-32 0 -54.5 22t-22.5 54zM334 674q0 15 6.5 28.5t17 24t24.5 16.5t30 6q14 0 27.5 -6t24 -16.5t16.5 -24t6 -28.5q0 -32 -22.5 -54t-51.5 -22
q-32 0 -55 22t-23 54zM285 521q53 0 95 -13t71.5 -36.5t45 -56.5t15.5 -74v-341h-134v86h-3q-10 -23 -29 -40.5t-42.5 -29.5t-50.5 -18t-54 -6q-36 0 -67.5 11t-55 31t-36.5 48.5t-13 62.5q0 73 53 113t153 46l138 8v22q0 42 -24 65t-69 23q-40 0 -66.5 -17t-32.5 -49h-127
q9 75 70 120t163 45zM371 235l-116 -8q-90 -8 -90 -73q0 -32 24 -50t59 -18q25 0 47 9.5t39 25.5t27 37t10 43v34z" />
    <glyph glyph-name="aring" unicode="&#xe5;" horiz-adv-x="554" 
d="M162 708q0 56 36 92t97 36q29 0 52.5 -9.5t40.5 -26.5t26.5 -40.5t9.5 -51.5t-9.5 -51t-26.5 -40t-40.5 -26.5t-52.5 -9.5q-59 0 -96 35.5t-37 91.5zM295 658q23 0 36 13.5t13 36.5q0 25 -13 39t-36 14q-26 0 -39.5 -14t-13.5 -39q0 -23 13.5 -36.5t39.5 -13.5zM285 521
q53 0 95 -13t71.5 -36.5t45 -56.5t15.5 -74v-341h-134v86h-3q-10 -23 -29 -40.5t-42.5 -29.5t-50.5 -18t-54 -6q-36 0 -67.5 11t-55 31t-36.5 48.5t-13 62.5q0 73 53 113t153 46l138 8v22q0 42 -24 65t-69 23q-40 0 -66.5 -17t-32.5 -49h-127q9 75 70 120t163 45zM371 235
l-116 -8q-90 -8 -90 -73q0 -32 24 -50t59 -18q25 0 47 9.5t39 25.5t27 37t10 43v34z" />
    <glyph glyph-name="ae" unicode="&#xe6;" horiz-adv-x="905" 
d="M509 228q2 -62 36 -97t88 -35q85 0 107 75h129q-14 -89 -75 -134t-164 -45q-140 0 -204 95q-19 -30 -46 -48.5t-56 -29t-58 -14t-53 -3.5q-36 0 -70 11t-59.5 31t-41 48.5t-15.5 62.5q0 79 59 116.5t172 44.5l119 6v22q0 42 -27 65t-72 23q-40 0 -66.5 -17t-32.5 -49
h-127q9 75 70 120t163 45q57 0 102.5 -18t72.5 -50q29 32 72 50t97 18q59 0 104.5 -18.5t76 -52t46.5 -81.5t16 -107v-34h-363zM628 418q-48 0 -79 -30.5t-37 -81.5h230q-4 49 -34.5 80.5t-79.5 31.5zM377 235l-122 -8q-90 -8 -90 -73q0 -32 26.5 -50t62.5 -18q24 0 46 9.5
t39.5 25.5t27.5 37t10 43v34z" />
    <glyph glyph-name="ccedilla" unicode="&#xe7;" horiz-adv-x="549" 
d="M291 97q38 0 66 19t36 55h131q-11 -87 -73 -133t-163 -46q-121 0 -189 67.5t-68 195.5q0 129 69 197.5t187 68.5q100 0 163 -48t74 -135h-130q-10 38 -37.5 57.5t-65.5 19.5q-54 0 -87 -42t-33 -118q0 -74 33 -116t87 -42zM259 -282h-123l108 196h146z" />
    <glyph glyph-name="ecircumflex" unicode="&#xea;" horiz-adv-x="562" 
d="M480 572h-117l-72 113h-4l-73 -113h-114l143 219h93zM168 228q2 -62 36 -97t87 -35q41 0 68 18.5t38 56.5h130q-14 -89 -74.5 -134t-164.5 -45q-121 0 -189 67.5t-68 197.5q0 62 18 111t51.5 83t81 52t105.5 18q59 0 104 -18.5t76.5 -52t47.5 -81.5t16 -107v-34h-363z
M287 418q-49 0 -80.5 -30.5t-37.5 -81.5h231q-5 49 -35 80.5t-78 31.5z" />
    <glyph glyph-name="edieresis" unicode="&#xeb;" horiz-adv-x="562" 
d="M102 674q0 30 22.5 52.5t54.5 22.5q15 0 28 -6t23 -16.5t16 -24t6 -28.5q0 -16 -6 -29.5t-16 -24t-23 -16.5t-28 -6q-32 0 -54.5 22t-22.5 54zM334 674q0 15 6.5 28.5t17 24t24.5 16.5t30 6q14 0 27.5 -6t24 -16.5t16.5 -24t6 -28.5q0 -32 -22.5 -54t-51.5 -22
q-32 0 -55 22t-23 54zM168 228q2 -62 36 -97t87 -35q41 0 68 18.5t38 56.5h130q-14 -89 -74.5 -134t-164.5 -45q-121 0 -189 67.5t-68 197.5q0 62 18 111t51.5 83t81 52t105.5 18q59 0 104 -18.5t76.5 -52t47.5 -81.5t16 -107v-34h-363zM287 418q-49 0 -80.5 -30.5
t-37.5 -81.5h231q-5 49 -35 80.5t-78 31.5z" />
    <glyph glyph-name="icircumflex" unicode="&#xee;" horiz-adv-x="257" 
d="M318 572h-116l-72 113h-4l-73 -113h-114l143 219h93zM59 514h139v-514h-139v514z" />
    <glyph glyph-name="idieresis" unicode="&#xef;" horiz-adv-x="257" 
d="M-63 674q0 30 22.5 52.5t54.5 22.5q15 0 28 -6t23 -16.5t16 -24t6 -28.5q0 -16 -6 -29.5t-16 -24t-23 -16.5t-28 -6q-32 0 -54.5 22t-22.5 54zM168 674q0 30 23 52.5t55 22.5q14 0 27.5 -6t23.5 -16.5t16 -24t6 -28.5q0 -32 -22 -54t-51 -22q-32 0 -55 22t-23 54zM59 514
h139v-514h-139v514z" />
    <glyph glyph-name="eth" unicode="&#xf0;" horiz-adv-x="634" 
d="M606 665l-101 -61q43 -45 69 -108.5t26 -143.5q0 -91 -21.5 -158.5t-60 -112.5t-91.5 -67t-117 -22q-58 0 -108 17t-86.5 49t-57 77t-20.5 100q0 42 16.5 82t46.5 71t72 49.5t93 18.5q75 0 129.5 -26.5t79.5 -77.5h1q2 61 -17.5 110.5t-53.5 83.5l-121 -70l-26 48l99 59
q-23 13 -48 20.5t-54 7.5v97q56 0 108 -16.5t97 -48.5l120 69zM312 96q29 0 53.5 10.5t43 28.5t29 43t10.5 55q0 27 -10.5 51t-29 42t-43.5 28t-54 10q-28 0 -52.5 -10t-42.5 -28t-28.5 -43t-10.5 -54q0 -27 10.5 -51.5t28.5 -42.5t43 -28.5t53 -10.5z" />
    <glyph glyph-name="ntilde" unicode="&#xf1;" horiz-adv-x="580" 
d="M227 667q-21 0 -31 -16.5t-10 -55.5h-104q0 85 28 127t99 42q26 0 47.5 -11t41 -24.5t38.5 -25t41 -11.5q21 0 32 18t13 57h103q0 -84 -31.5 -128t-100.5 -44q-27 0 -48.5 11.5t-41 25t-38 24.5t-38.5 11zM351 521q89 0 138 -49.5t49 -153.5v-318h-137v291q0 60 -26.5 91
t-81.5 31q-51 0 -81.5 -40t-30.5 -100v-273h-139v514h137v-106h1q22 62 64.5 87.5t106.5 25.5z" />
    <glyph glyph-name="ocircumflex" unicode="&#xf4;" horiz-adv-x="565" 
d="M472 572h-117l-73 113h-2l-73 -113h-116l144 219h94zM282 521q60 0 108 -17.5t82 -51.5t52.5 -83.5t18.5 -113.5q0 -63 -18.5 -112t-52 -82.5t-82 -51t-108.5 -17.5q-59 0 -107 17.5t-82 51t-52.5 82.5t-18.5 112q0 64 18.5 113.5t52.5 83.5t82 51.5t107 17.5zM282 97
q26 0 49 10.5t40 30.5t27 49.5t10 67.5q0 39 -10 69.5t-27 50.5t-40 30.5t-49 10.5q-51 0 -87.5 -41t-36.5 -120q0 -38 10 -67.5t26.5 -49.5t39.5 -30.5t48 -10.5z" />
    <glyph glyph-name="odieresis" unicode="&#xf6;" horiz-adv-x="565" 
d="M91 674q0 15 6.5 28.5t17 24t24.5 16.5t30 6q14 0 27.5 -6t24 -16.5t16.5 -24t6 -28.5q0 -32 -22.5 -54t-51.5 -22q-32 0 -55 22t-23 54zM325 674q0 30 22 52.5t54 22.5q30 0 52 -22.5t22 -52.5q0 -32 -22 -54t-52 -22q-32 0 -54 22t-22 54zM282 521q60 0 108 -17.5
t82 -51.5t52.5 -83.5t18.5 -113.5q0 -63 -18.5 -112t-52 -82.5t-82 -51t-108.5 -17.5q-59 0 -107 17.5t-82 51t-52.5 82.5t-18.5 112q0 64 18.5 113.5t52.5 83.5t82 51.5t107 17.5zM282 97q26 0 49 10.5t40 30.5t27 49.5t10 67.5q0 39 -10 69.5t-27 50.5t-40 30.5t-49 10.5
q-51 0 -87.5 -41t-36.5 -120q0 -38 10 -67.5t26.5 -49.5t39.5 -30.5t48 -10.5z" />
    <glyph glyph-name="divide" unicode="&#xf7;" horiz-adv-x="579" 
d="M205 484q0 32 22.5 55t61.5 23t61.5 -23t22.5 -55t-22.5 -55.5t-61.5 -23.5t-61.5 23.5t-22.5 55.5zM538 266h-497v100h497v-100zM205 147q0 33 22.5 56.5t61.5 23.5t61.5 -23.5t22.5 -56.5q0 -32 -22.5 -54.5t-61.5 -22.5t-61.5 22.5t-22.5 54.5z" />
    <glyph glyph-name="oslash" unicode="&#xf8;" horiz-adv-x="565" 
d="M282 521q60 0 108 -17.5t82 -51.5t52.5 -83.5t18.5 -113.5q0 -63 -18.5 -112t-52 -82.5t-82 -51t-108.5 -17.5q-59 0 -107 17.5t-82 51t-52.5 82.5t-18.5 112q0 64 18.5 113.5t52.5 83.5t82 51.5t107 17.5zM158 255q0 -69 32 -110l98 271q-27 0 -50.5 -10t-41.5 -30
t-28 -50t-10 -71zM408 255q0 71 -33 113l-97 -271q34 0 58.5 13t40.5 35t23.5 50.5t7.5 59.5z" />
    <glyph glyph-name="ucircumflex" unicode="&#xfb;" horiz-adv-x="580" 
d="M336 791l144 -219h-117l-72 113h-4l-73 -113h-114l143 219h93zM538 514v-514h-134v105h-3q-10 -33 -29.5 -55t-43.5 -35t-50.5 -18t-50.5 -5q-89 0 -137 50.5t-48 152.5v319h139v-293q0 -60 26 -91.5t80 -31.5q52 0 81.5 39.5t29.5 101.5v275h140z" />
    <glyph glyph-name="udieresis" unicode="&#xfc;" horiz-adv-x="580" 
d="M333 674q0 30 22 52.5t54 22.5q30 0 52.5 -22.5t22.5 -52.5q0 -32 -22.5 -54t-52.5 -22q-32 0 -54 22t-22 54zM100 674q0 30 22.5 52.5t54.5 22.5q30 0 52 -22.5t22 -52.5q0 -32 -22 -54t-52 -22q-32 0 -54.5 22t-22.5 54zM538 514v-514h-134v105h-3q-10 -33 -29.5 -55
t-43.5 -35t-50.5 -18t-50.5 -5q-89 0 -137 50.5t-48 152.5v319h139v-293q0 -60 26 -91.5t80 -31.5q52 0 81.5 39.5t29.5 101.5v275h140z" />
    <glyph glyph-name="thorn" unicode="&#xfe;" horiz-adv-x="589" 
d="M565 255q0 -69 -17.5 -118.5t-48.5 -82t-72.5 -47.5t-88.5 -15q-48 0 -90 20.5t-65 63.5h-2v-253h-139v859h139v-248h2q23 43 65 64t90 21q47 0 88.5 -15.5t72.5 -47.5t48.5 -82t17.5 -119zM426 255q0 72 -33.5 113t-89.5 41t-90 -40.5t-34 -111.5q0 -72 34 -114t90 -42
t89.5 41t33.5 113z" />
    <glyph glyph-name="ydieresis" unicode="&#xff;" horiz-adv-x="523" 
d="M304 674q0 30 22.5 52.5t54.5 22.5q15 0 28.5 -6t24 -16.5t16.5 -24t6 -28.5q0 -16 -6 -29.5t-16.5 -24t-24 -16.5t-28.5 -6q-32 0 -54.5 22t-22.5 54zM71 674q0 30 23 52.5t55 22.5q15 0 28 -6t23 -16.5t16 -24t6 -28.5q0 -16 -6 -29.5t-16 -24t-23 -16.5t-28 -6
q-32 0 -55 22t-23 54zM523 514q-12 -41 -31.5 -99t-42 -125t-46.5 -138t-47 -138q-20 -63 -46 -102.5t-59.5 -61.5t-74 -28.5t-90.5 -1.5q-11 1 -18 2.5t-18 4.5v95q11 -1 19 -2t16 -1q19 0 34.5 1t28 7t23 18t19.5 33q-47 135 -94.5 268.5t-95.5 267.5h150l112 -403h3
l113 403h145z" />
    <glyph glyph-name="dotlessi" unicode="&#x131;" horiz-adv-x="257" 
d="M59 514h139v-514h-139v514z" />
    <glyph glyph-name="Lslash" unicode="&#x141;" horiz-adv-x="588" 
d="M115 307h-95v89h95v304h143v-304h188v-89h-188v-198h318v-109h-461v307z" />
    <glyph glyph-name="lslash" unicode="&#x142;" horiz-adv-x="452" 
d="M14 396h140v304h143v-304h141v-89h-141v-307h-143v307h-140v89z" />
    <glyph glyph-name="OE" unicode="&#x152;" horiz-adv-x="1029" 
d="M362 708q40 0 83 -8h546v-111h-377q35 -32 54 -78.5t24 -106.5h244v-109h-244q-9 -123 -78 -186h377v-109h-546q-43 -8 -83 -8q-78 0 -140.5 24.5t-106 71t-67 113t-23.5 150.5q0 83 23.5 149t67 112.5t106 71t140.5 24.5zM362 111q86 0 135.5 62.5t49.5 177.5
q0 113 -49.5 174.5t-135.5 61.5q-89 0 -138 -61.5t-49 -174.5q0 -115 49 -177.5t138 -62.5z" />
    <glyph glyph-name="oe" unicode="&#x153;" horiz-adv-x="939" 
d="M543 228q0 -31 10 -55.5t26.5 -41.5t39 -26t47.5 -9q41 0 68.5 18.5t37.5 56.5h131q-14 -89 -74.5 -134t-163.5 -45q-130 0 -192 84q-30 -41 -79 -62.5t-112 -21.5q-59 0 -107 17.5t-82 51t-52.5 82.5t-18.5 112q0 64 18.5 113.5t52.5 83.5t82 51.5t107 17.5
q64 0 113 -23t80 -64q31 40 78 63t109 24q59 0 104.5 -18.5t76.5 -52t47 -81.5t16 -107v-34h-363zM662 418q-48 0 -79 -30.5t-39 -81.5h232q-4 49 -35 80.5t-79 31.5zM282 97q26 0 49 10.5t40 30.5t27 49.5t10 67.5q0 39 -10 69.5t-27 50.5t-40 30.5t-49 10.5
q-51 0 -87.5 -41t-36.5 -120q0 -38 10 -67.5t26.5 -49.5t39.5 -30.5t48 -10.5z" />
    <glyph glyph-name="Scaron" unicode="&#x160;" horiz-adv-x="618" 
d="M351 753h-93l-143 219h114l73 -116h4l72 116h117zM375 401q112 -21 164 -66t52 -126q0 -50 -20 -90.5t-56.5 -68.5t-89 -43t-118.5 -15q-62 0 -113 15t-87.5 43t-57 68t-22.5 89h138q8 -46 45 -74.5t100 -28.5q62 0 97 24.5t35 67.5q0 36 -28.5 57t-98.5 35l-72 14
q-208 42 -208 195q0 48 20.5 87t56.5 66.5t84.5 42.5t105.5 15q65 0 115 -16.5t84.5 -46t53 -70t19.5 -88.5h-139q-3 48 -36.5 78t-94.5 30q-57 0 -90.5 -24.5t-33.5 -64.5q0 -36 28.5 -56.5t94.5 -33.5z" />
    <glyph glyph-name="scaron" unicode="&#x161;" horiz-adv-x="499" 
d="M207 574l-139 215h100l79 -123h4l79 123h103l-142 -215h-84zM284 296q47 -10 81.5 -22t57 -28.5t34 -39t11.5 -52.5q0 -74 -56.5 -118t-159.5 -44q-39 0 -76.5 9t-68 28t-51 49t-25.5 73h114q6 -35 35.5 -55.5t73.5 -20.5q42 0 68 17.5t26 49.5q0 23 -17.5 38t-67.5 26
l-72 14q-151 33 -151 142q0 38 16.5 67t45 48.5t66 29.5t79.5 10q39 0 74.5 -9t63.5 -28.5t46.5 -50t22.5 -74.5h-109q-5 38 -31.5 58.5t-67.5 20.5q-38 0 -65 -18.5t-27 -48.5q0 -26 30 -40.5t100 -30.5z" />
    <glyph glyph-name="Ydieresis" unicode="&#x178;" horiz-adv-x="634" 
d="M126 862q0 30 22.5 52t54.5 22q30 0 52 -22t22 -52q0 -32 -22 -54.5t-52 -22.5q-32 0 -54.5 22.5t-22.5 54.5zM360 862q0 30 22.5 52t54.5 22q29 0 51 -22t22 -52q0 -16 -6 -30t-16 -24.5t-23 -16.5t-28 -6q-32 0 -54.5 22.5t-22.5 54.5zM389 300v-300h-143v302l-245 398
h167l147 -262h4l148 262h166z" />
    <glyph glyph-name="uni008E" horiz-adv-x="610" 
d="M262 753l-143 219h114l73 -116h4l72 116h117l-144 -219h-93zM572 111v-111h-534v91l352 494v4h-345v111h519v-93l-346 -495v-1h354z" />
    <glyph glyph-name="uni008E" unicode="&#x17d;" horiz-adv-x="610" 
d="M262 753l-143 219h114l73 -116h4l72 116h117l-144 -219h-93zM572 111v-111h-534v91l352 494v4h-345v111h519v-93l-346 -495v-1h354z" />
    <glyph glyph-name="uni009E" horiz-adv-x="502" 
d="M450 791l-144 -219h-93l-143 219h114l73 -113h4l72 113h117zM464 102v-102h-426v74l259 333v4h-259v103h426v-86l-248 -322v-4h248z" />
    <glyph glyph-name="uni009E" unicode="&#x17e;" horiz-adv-x="502" 
d="M450 791l-144 -219h-93l-143 219h114l73 -113h4l72 113h117zM464 102v-102h-426v74l259 333v4h-259v103h426v-86l-248 -322v-4h248z" />
    <glyph glyph-name="florin" unicode="&#x192;" horiz-adv-x="392" 
d="M355 505v-93h-89v-229q0 -55 -12 -92.5t-35.5 -60t-59 -31.5t-83.5 -6q-14 2 -28.5 3t-29.5 5v97q15 -1 26 -2.5t21 0.5q35 0 48.5 13.5t13.5 47.5v255h-82v93h82v39q0 47 14 79t39.5 51t60 26t76.5 5q26 -1 57 -9v-96q-28 3 -47 3q-35 -1 -48 -15t-13 -46v-37h89z" />
    <glyph glyph-name="circumflex" unicode="&#x2c6;" horiz-adv-x="498" 
d="M439 572h-117l-72 113h-4l-73 -113h-114l143 219h93z" />
    <glyph glyph-name="caron" unicode="&#x2c7;" horiz-adv-x="498" 
d="M295 572h-93l-143 219h114l73 -113h4l72 113h117z" />
    <glyph glyph-name="breve" unicode="&#x2d8;" horiz-adv-x="430" 
d="M371 733q0 -33 -11.5 -61t-31.5 -48t-48.5 -31.5t-63.5 -11.5t-64 11.5t-49.5 31.5t-32 48t-11.5 61h94q0 -27 16.5 -43.5t46.5 -16.5q29 0 44.5 16.5t15.5 43.5h95z" />
    <glyph glyph-name="dotaccent" unicode="&#x2d9;" horiz-adv-x="263" 
d="M134 707q28 0 49.5 -21t21.5 -50q0 -32 -21.5 -53.5t-49.5 -21.5q-32 0 -53.5 21.5t-21.5 53.5q0 29 21.5 50t53.5 21z" />
    <glyph glyph-name="ring" unicode="&#x2da;" horiz-adv-x="381" 
d="M59 708q0 56 36 92t96 36q29 0 53 -9.5t41 -26.5t27 -40.5t10 -51.5t-10 -51t-27 -40t-41 -26.5t-53 -9.5q-59 0 -95.5 35.5t-36.5 91.5zM191 658q23 0 37 13.5t14 36.5q0 25 -14 39t-37 14q-25 0 -39 -14t-14 -39q0 -23 14 -36.5t39 -13.5z" />
    <glyph glyph-name="ogonek" unicode="&#x2db;" horiz-adv-x="227" 
 />
    <glyph glyph-name="tilde" unicode="&#x2dc;" horiz-adv-x="561" 
d="M203 667q-20 0 -29.5 -16.5t-9.5 -55.5h-105q0 85 28.5 127t99.5 42q26 0 47 -11t40.5 -24.5t38.5 -25t40 -11.5q23 0 34 18t13 57h102q0 -84 -31 -128t-100 -44q-27 0 -48.5 11.5t-41.5 25t-38.5 24.5t-39.5 11z" />
    <glyph glyph-name="hungarumlaut" unicode="&#x2dd;" horiz-adv-x="540" 
d="M295 787l-131 -196h-105l107 196h129zM482 787l-131 -196h-105l107 196h129z" />
    <glyph glyph-name="uni0E00" unicode="&#xe00;" 
 />
    <glyph glyph-name="uni0E01" unicode="&#xe01;" horiz-adv-x="633" 
d="M314 581q138 0 206.5 -60.5t68.5 -172.5v-348h-140v334q0 65 -34.5 99.5t-103.5 34.5q-60 0 -98 -21t-51 -70h115v-47q-41 -19 -58 -49t-17 -86v-195h-139v177q0 56 25 95t73 50h-126q0 128 68 193.5t211 65.5z" />
    <glyph glyph-name="uni0E02" unicode="&#xe02;" horiz-adv-x="589" 
d="M546 577v-376q0 -111 -65 -160t-190 -49q-126 0 -191 47.5t-65 158.5v31q0 47 18 77.5t39 53.5t39 42.5t18 42.5q0 20 -12 25.5t-44 5.5h-44v101h66q39 0 71 -3.5t55 -15t35.5 -33.5t12.5 -60q0 -30 -17.5 -57t-39 -54.5t-39 -56.5t-17.5 -64q0 -31 5 -55t17.5 -40.5
t35 -25t57.5 -8.5t57 9t34.5 26t17.5 41.5t5 55.5v341h141z" />
    <glyph glyph-name="uni0E03" unicode="&#xe03;" horiz-adv-x="611" 
d="M568 577v-376q0 -111 -64 -160t-190 -49q-127 0 -191 47.5t-64 158.5v31q0 41 18 72t42 55.5t47 45t32 41.5q5 13 5 25.5t-8 17.5q-8 4 -10 4q-20 0 -28 -40h-70l-86 127h97l33 -68q4 33 25.5 52.5t63.5 19.5q21 0 40.5 -4.5t34 -15.5t23 -29.5t8.5 -45.5
q0 -42 -20 -74.5t-43.5 -62.5t-43.5 -59t-20 -63q0 -29 5 -52t17.5 -38.5t35 -24t57.5 -8.5t57 9t34.5 26t17 41.5t4.5 55.5v341h141z" />
    <glyph glyph-name="uni0E04" unicode="&#xe04;" horiz-adv-x="641" 
d="M321 581q133 0 203.5 -57t70.5 -173v-351h-141v329q0 63 -32 100.5t-101 37.5q-70 0 -102 -37.5t-32 -100.5v-102q18 38 54.5 59t77.5 21h41v-111h-43q-23 0 -46.5 -6.5t-42 -19.5t-30 -31.5t-11.5 -42.5v-96h-141v351q0 116 71 173t204 57z" />
    <glyph glyph-name="uni0E05" unicode="&#xe05;" horiz-adv-x="640" 
d="M198 581q49 0 81 -21t42 -63q9 42 40.5 63t80.5 21q46 0 75.5 -11.5t46.5 -34t23.5 -56t6.5 -78.5v-401h-141v404q0 12 -1.5 23.5t-6 20.5t-14 14.5t-26.5 5.5q-20 0 -30.5 -16t-15.5 -44h-77q-6 28 -16 44t-30 16q-19 0 -29 -7.5t-14.5 -19t-5 -24.5t-0.5 -25v-165
q17 38 54 59t78 21h41v-111h-43q-22 0 -45 -6.5t-41.5 -19t-30.5 -30.5t-13 -42v-98h-141v401q0 45 6.5 78.5t23.5 56t46.5 34t75.5 11.5z" />
    <glyph glyph-name="uni0E06" unicode="&#xe06;" horiz-adv-x="655" 
d="M74 229q0 41 17 72t39.5 55.5t44 45t30.5 41.5q5 13 5 25.5t-8 17.5q-8 4 -10 4q-20 0 -28 -40h-70l-86 127h97l33 -68q4 33 25.5 52.5t63.5 19.5q21 0 40.5 -4.5t34 -15.5t23 -29.5t8.5 -45.5q0 -43 -18.5 -75.5t-41 -60.5t-41 -56t-18.5 -62q0 -25 12 -48t32 -41
t46.5 -28.5t55.5 -10.5q55 0 83.5 29t28.5 94v350h139v-383q0 -47 -14 -84.5t-38.5 -63.5t-59 -40t-76.5 -14q-81 0 -136.5 29t-73.5 83h-3v-104h-136v229z" />
    <glyph glyph-name="uni0E07" unicode="&#xe07;" horiz-adv-x="606" 
d="M284 579q68 6 122 -2.5t91.5 -35.5t58 -75t20.5 -122q0 -42 -12 -88t-36 -91t-61 -87.5t-88 -77.5h-148l-234 577h139l182 -477q36 33 59 66t36.5 64t19 58t5.5 48q0 35 -7 61.5t-24.5 43.5t-47.5 23.5t-75 2.5v112z" />
    <glyph glyph-name="uni0E08" unicode="&#xe08;" horiz-adv-x="592" 
d="M281 581q82 0 135.5 -26t85 -67t44 -91.5t12.5 -99.5q0 -62 -20.5 -116.5t-58 -94.5t-89 -63t-114.5 -23h-81l-84 224h-73v94h167l76 -209q36 3 62 19.5t43.5 43t25.5 59.5t8 69q0 42 -11 73.5t-30 52t-44 31t-54 10.5q-19 0 -39 -4.5t-36.5 -14.5t-29 -24t-18.5 -34
h-133q6 45 28.5 80t57.5 60t78.5 38t91.5 13z" />
    <glyph glyph-name="uni0E09" unicode="&#xe09;" horiz-adv-x="633" 
d="M25 317h177v-101q0 -62 29.5 -87t83.5 -25q31 0 56.5 11.5t43.5 30.5t27.5 44.5t9.5 53.5v93q0 61 -36.5 95.5t-109.5 34.5q-21 0 -41 -5.5t-37 -15t-29.5 -24t-18.5 -32.5h-135q7 43 30 78.5t58.5 60.5t79.5 38.5t93 13.5q132 0 207.5 -61t75.5 -186v-334h-135v104h-2
q-19 -54 -66.5 -83t-128.5 -29q-37 0 -71 13.5t-59 38.5t-40 61t-15 81v38h-47v93z" />
    <glyph glyph-name="uni0E0A" unicode="&#xe0a;" horiz-adv-x="583" 
d="M407 261q0 27 -2.5 48.5t-11.5 36.5t-26 24.5t-46 12.5v84q29 2 47 11t29 24t16 35t6 44h130q0 -71 -23.5 -109t-80.5 -53q32 -12 52 -29t31 -42.5t14.5 -59t3.5 -78.5q0 -115 -62.5 -166.5t-192.5 -51.5q-126 0 -191 47.5t-65 158.5v31q0 47 17 77.5t38 53.5t38 42.5
t17 42.5q0 20 -12 25.5t-44 5.5h-40v101h74q37 0 67 -4.5t51 -16.5t32.5 -34t11.5 -57q0 -30 -17 -57t-37.5 -54.5t-37.5 -56.5t-17 -64q0 -31 5 -55t17.5 -40.5t35 -25t57.5 -8.5q38 0 61 10.5t35 30.5t16 49.5t4 66.5z" />
    <glyph glyph-name="uni0E0B" unicode="&#xe0b;" horiz-adv-x="607" 
d="M469 419q29 -11 48.5 -26.5t31 -38t16.5 -52.5t5 -69q0 -63 -13.5 -109t-44 -75t-78.5 -43t-117 -14q-127 0 -191.5 47.5t-64.5 158.5v31q0 41 18 72t41.5 55.5t45.5 46t30 42.5q5 12 4.5 24t-8.5 17q-8 4 -10 4q-20 0 -28 -40h-67l-86 127h97l33 -67q4 32 25 51.5
t60 19.5q21 0 40.5 -4.5t34 -15.5t23 -29.5t8.5 -45.5q0 -28 -9 -51.5t-22 -44.5t-29 -41t-29 -39.5t-22 -39.5t-9 -43q0 -29 5 -52t17.5 -38.5t35 -24t57.5 -8.5q34 0 56 9t35 26.5t18 43.5t5 60q0 32 -2 56.5t-10 42t-25.5 27.5t-48.5 14v84q29 2 47.5 11t29.5 24t15.5 35
t5.5 44h130q0 -71 -23.5 -109t-80.5 -53z" />
    <glyph glyph-name="uni0E0C" unicode="&#xe0c;" horiz-adv-x="965" 
d="M433 334q0 65 -30.5 99.5t-99.5 34.5q-61 0 -94.5 -21t-46.5 -70h118v-48q-42 -19 -65.5 -54.5t-23.5 -84.5q0 -26 5.5 -42t15.5 -25.5t24 -14t31 -6.5q13 -2 25.5 -1t29.5 3v-100q-57 -12 -104 -11q-36 1 -66.5 11t-53 30t-35.5 51.5t-13 74.5q0 60 31 102.5t73 59.5
h-119q0 128 64 193.5t207 65.5q136 0 201 -60.5t65 -172.5v-96q0 -28 11 -54.5t28 -47.5t39 -33.5t43 -12.5q51 0 70 26t19 90v357h139v-390q0 -95 -46 -145t-130 -50q-70 0 -114.5 32.5t-60.5 77.5h-2v-102h-135v334z" />
    <glyph glyph-name="uni0E0D" unicode="&#xe0d;" horiz-adv-x="965" 
d="M921 78q0 -116 -61 -177t-186 -61q-46 0 -86.5 10.5t-71.5 30.5t-52 50t-29 69h133q9 -33 38.5 -48t67.5 -15q54 0 83 28t29 91v86h-4q-8 -22 -21.5 -42t-33 -35t-46.5 -23.5t-62 -8.5q-83 0 -134.5 47.5t-51.5 141.5v112q0 65 -30.5 99.5t-99.5 34.5q-61 0 -94.5 -21
t-46.5 -70h116v-48q-40 -19 -63.5 -54.5t-23.5 -84.5q0 -26 5.5 -42t15.5 -25.5t24 -14t31 -6.5q13 -2 25.5 -1t28.5 3v-100q-56 -12 -103 -11q-35 0 -66 10t-53.5 30.5t-35.5 52t-13 74.5q0 60 31 102.5t73 59.5h-119q0 128 64 193.5t207 65.5q137 0 202 -60.5t65 -172.5
v-93q0 -32 6.5 -53t19 -33.5t31 -17.5t41.5 -5q22 0 42 11.5t35.5 31.5t24.5 47.5t9 59.5v281h139v-499z" />
    <glyph glyph-name="uni0E0E" unicode="&#xe0e;" horiz-adv-x="637" 
d="M318 581q137 0 206.5 -60.5t69.5 -172.5v-544h-111q-53 35 -95 50.5t-76 15.5q-44 0 -68.5 -19.5t-32.5 -46.5h-129q4 48 23.5 80t49.5 50t66.5 24.5t75.5 3.5q39 -5 79.5 -16.5t76.5 -32.5v421q0 65 -34.5 99.5t-103.5 34.5q-60 0 -98 -21t-52 -70h126v-47
q-32 -14 -46 -47.5t-16 -75.5l-2 -58q-1 -29 -6 -57t-18.5 -49.5t-38 -35t-63.5 -14.5q-22 0 -44 2.5t-49 7.5v98q17 -2 27 -2.5t18 1.5q24 6 32.5 22.5t8.5 48.5q0 24 1.5 46.5t8.5 42t21 35t39 27.5h-124q0 128 67.5 193.5t210.5 65.5z" />
    <glyph glyph-name="uni0E0F" unicode="&#xe0f;" horiz-adv-x="637" 
d="M318 581q137 0 206.5 -60.5t69.5 -172.5v-370q0 -78 -40.5 -126t-120.5 -48q-22 0 -45 4.5t-43 13.5t-36.5 22t-24.5 30l-201 -76h-16v101l207 75h47q9 -29 30 -44.5t39 -15.5q22 0 42.5 13.5t20.5 46.5v360q0 65 -34.5 99.5t-103.5 34.5q-60 0 -98 -21t-52 -70h126v-47
q-30 -12 -46 -41.5t-16 -71.5v-59q0 -34 -6 -64t-21 -52.5t-40.5 -35.5t-64.5 -13q-40 0 -89 10v98q17 -2 27 -2.5t18 1.5q24 6 32.5 22.5t8.5 48.5q0 24 1.5 46t8.5 41.5t21 35.5t39 28h-124q0 128 67.5 193.5t210.5 65.5z" />
    <glyph glyph-name="uni0E10" unicode="&#xe10;" horiz-adv-x="602" 
d="M419 -50q0 18 -8 29t-20.5 17t-27 7.5t-27.5 0.5q-18 -3 -31.5 -3.5t-20.5 -0.5h-82l-87 224h-74v94h168l78 -209q36 3 61.5 20.5t42 45t24 62t7.5 70.5q0 71 -36.5 116t-104.5 45q-18 0 -37.5 -5t-36 -15t-29 -24.5t-18.5 -33.5h-135q6 45 28 78.5t55.5 57.5t78 37.5
t95.5 17.5l307 30v-95l-151 -11v-4q62 -24 91.5 -74.5t29.5 -119.5q0 -88 -33 -156.5t-96 -106.5v-3q52 -3 86 -31t34 -82q0 -31 -10 -57.5t-29.5 -46t-48 -30.5t-66.5 -11q-22 0 -44.5 5t-43 14t-36.5 22t-25 30l-190 -76h-16v98l196 76h47q9 -31 30 -45.5t39 -14.5
q11 0 22.5 2t21.5 8t16 17.5t6 30.5z" />
    <glyph glyph-name="uni0E11" unicode="&#xe11;" horiz-adv-x="641" 
d="M479 581q35 0 58 -12t36.5 -34t19 -51t5.5 -64v-420h-140v396q0 33 -8.5 47t-28.5 14q-14 0 -27 -4q-28 -2 -61.5 -31.5t-66.5 -68.5q-22 -26 -41.5 -60t-19.5 -76v-217h-138v229q0 42 18 73t40.5 56t44.5 46.5t29 43.5q5 11 5 22t-8 16q-3 2 -5.5 3t-5.5 1
q-20 0 -28 -40h-70l-86 127h97l33 -68q4 33 25.5 52.5t63.5 19.5q44 0 65 -20.5t15 -65.5q39 42 80.5 64t98.5 22z" />
    <glyph glyph-name="uni0E12" unicode="&#xe12;" horiz-adv-x="984" 
d="M450 404q0 12 -0.5 23.5t-4.5 20.5t-13 14.5t-25 5.5q-21 0 -31 -16t-16 -44h-76q-6 30 -17 45t-31 15q-22 0 -34.5 -15.5t-18.5 -40.5t-7 -56.5t-1 -63.5q0 -38 5.5 -71.5t20 -59t39.5 -41t63 -18.5q11 -1 22 0.5t22 2.5v-104q-15 -2 -30.5 -3.5t-31.5 -1.5
q-57 0 -103.5 16.5t-79.5 51.5t-51 89t-18 128q0 66 6.5 121.5t26 95t54 61.5t89.5 22q49 0 75.5 -20.5t37.5 -62.5q9 42 35.5 62.5t76.5 20.5t80.5 -11.5t47.5 -34t23 -56t6 -78.5v-146q0 -28 11 -55t28 -48.5t38.5 -34.5t43.5 -13q50 0 69.5 26t19.5 90v357h139v-390
q0 -95 -46 -145t-130 -50q-70 0 -114.5 32.5t-60.5 77.5h-2v-102h-137v404z" />
    <glyph glyph-name="uni0E13" unicode="&#xe13;" horiz-adv-x="965" 
d="M786 0v102h-3q-7 -21 -19.5 -40t-30.5 -34t-42.5 -24.5t-56.5 -10.5q-90 -4 -145.5 42t-55.5 146v153q0 65 -30.5 99.5t-99.5 34.5q-61 0 -94.5 -21t-46.5 -70h118v-48q-42 -19 -65.5 -54.5t-23.5 -84.5q0 -26 5.5 -42t15.5 -25.5t24 -14t31 -6.5q13 -2 25.5 -1t29.5 3
v-100q-58 -12 -102 -11q-36 0 -67 10t-54 30.5t-36 52t-13 74.5q0 60 31 102.5t73 59.5h-119q0 128 64 193.5t207 65.5q137 0 202 -60.5t65 -172.5v-97q0 -33 2 -57t8 -40.5t16.5 -26t28.5 -15.5q10 -5 22 -5t24 2q15 2 34 13t35.5 29.5t27.5 44.5t11 59v322h139v-577h-135z
" />
    <glyph glyph-name="uni0E14" unicode="&#xe14;" horiz-adv-x="634" 
d="M322 581q51 0 99.5 -12.5t86 -40t60.5 -71.5t23 -108v-349h-138v347q0 33 -12 56t-31 37t-42 20.5t-46 6.5q-37 0 -65 -14t-46 -38.5t-27 -58t-9 -72.5q0 -41 6.5 -74.5t22 -57.5t40.5 -37t62 -13q9 0 21.5 1t20.5 2v-104q-14 -3 -30.5 -4t-30.5 -1q-58 0 -105 16.5
t-80 51.5t-51 89.5t-18 130.5q0 71 20 126t57.5 93t91 58t120.5 20z" />
    <glyph glyph-name="uni0E15" unicode="&#xe15;" horiz-adv-x="636" 
d="M434 581q50 0 80.5 -11.5t48 -34t23.5 -56t6 -78.5v-401h-140v404q0 12 -1 23.5t-5.5 20.5t-13.5 14.5t-25 5.5q-20 0 -30 -16t-15 -44h-78q-6 30 -17 45t-31 15q-22 0 -35 -15.5t-19 -40.5t-7.5 -56.5t-1.5 -63.5q0 -37 6 -70.5t21 -59t40.5 -41t63.5 -17.5q10 -2 21 -1
l22 2v-104q-15 -2 -30.5 -3.5t-31.5 -1.5q-57 0 -103.5 16.5t-79.5 51.5t-51 89t-18 128q0 66 6.5 121.5t26 95t54 61.5t89.5 22q49 0 75.5 -20.5t37.5 -62.5q9 42 35.5 62.5t76.5 20.5z" />
    <glyph glyph-name="uni0E16" unicode="&#xe16;" horiz-adv-x="633" 
d="M314 581q138 0 206.5 -60.5t68.5 -172.5v-348h-140v334q0 65 -34.5 99.5t-103.5 34.5q-60 0 -98 -21t-51 -70h118v-48q-42 -19 -65.5 -54.5t-23.5 -84.5q0 -26 5.5 -42t15.5 -25.5t24 -14t31 -6.5q13 -2 25.5 -1t28.5 3v-100q-56 -12 -103 -11q-35 1 -66 11t-53.5 30
t-35.5 51.5t-13 74.5q0 60 31 102.5t73 59.5h-119q0 128 68 193.5t211 65.5z" />
    <glyph glyph-name="uni0E17" unicode="&#xe17;" horiz-adv-x="633" 
d="M386 581q42 0 79 -12.5t64.5 -37.5t43.5 -60.5t16 -82.5v-388h-139v349q0 65 -35.5 92.5t-91.5 27.5q-66 0 -103 -41.5t-37 -112.5v-315h-139v577h135v-104h2q18 54 73 81t132 27z" />
    <glyph glyph-name="uni0E18" unicode="&#xe18;" horiz-adv-x="577" 
d="M175 398q90 -15 159 -35t115 -47t69.5 -62t23.5 -82q0 -46 -19 -79.5t-53.5 -55t-81.5 -32t-103 -10.5q-52 0 -97 12t-79 34.5t-53.5 55.5t-20.5 75q0 26 6 46t14 36h120q-14 -34 -13 -79q1 -19 12.5 -33t29 -23t39.5 -13t44 -4q21 0 43 3.5t39 12.5t28 23.5t11 35.5
q0 27 -19.5 48t-63 39t-113 35.5t-170.5 36.5v24q0 59 21.5 101t57 68.5t80 39t90.5 12.5q47 0 90 -13.5t77 -37t55.5 -56t25.5 -71.5h-132q-8 29 -40.5 49t-75.5 20q-44 0 -76 -18t-40 -56z" />
    <glyph glyph-name="uni0E19" unicode="&#xe19;" horiz-adv-x="625" 
d="M581 0h-136v104h-3q-18 -54 -68.5 -83t-131.5 -29q-42 0 -78 13t-62.5 38.5t-42 62t-15.5 84.5v387h139v-350q0 -65 33.5 -94t89.5 -29q31 0 56 11.5t43 30.5t27.5 44.5t9.5 53.5v333h139v-577z" />
    <glyph glyph-name="uni0E1A" unicode="&#xe1a;" horiz-adv-x="629" 
d="M585 577v-360q0 -115 -68.5 -170t-201.5 -55q-134 0 -202.5 55t-68.5 170v360h140v-340q0 -63 30 -98t101 -35q70 0 100 35t30 98v340h140z" />
    <glyph glyph-name="uni0E1B" unicode="&#xe1b;" horiz-adv-x="629" 
d="M585 708v-491q0 -115 -68.5 -170t-201.5 -55q-134 0 -202.5 55t-68.5 170v360h140v-340q0 -63 30 -98t101 -35q70 0 100 35t30 98v471h140z" />
    <glyph glyph-name="uni0E1C" unicode="&#xe1c;" horiz-adv-x="643" 
d="M596 577v-577h-123l-151 183l-151 -183h-125v408q1 47 15 79.5t39 53.5t58.5 30.5t73.5 9.5q14 0 28.5 -1.5t28.5 -3.5v-93q-8 1 -15 1h-15q-25 0 -40 -9.5t-22 -24.5t-9 -35t-2 -41v-220l116 145h40l116 -145v423h138z" />
    <glyph glyph-name="uni0E1D" unicode="&#xe1d;" horiz-adv-x="643" 
d="M596 708v-708h-123l-151 183l-151 -183h-125v408q1 47 15 79.5t39 53.5t58.5 30.5t73.5 9.5q14 0 28.5 -1.5t28.5 -3.5v-93q-8 1 -15 1h-15q-25 0 -40 -9.5t-22 -24.5t-9 -35t-2 -41v-220l116 145h40l116 -145v554h138z" />
    <glyph glyph-name="uni0E1E" unicode="&#xe1e;" horiz-adv-x="774" 
d="M763 577l-131 -577h-124l-122 396l-121 -396h-124l-130 577h142l68 -382l115 369h102l115 -369l68 382h142z" />
    <glyph glyph-name="uni0E1F" unicode="&#xe1f;" horiz-adv-x="774" 
d="M791 708l-159 -708h-124l-122 396l-121 -396h-124l-130 577h142l68 -382l115 369h102l115 -369l102 513h136z" />
    <glyph glyph-name="uni0E20" unicode="&#xe20;" horiz-adv-x="637" 
d="M318 581q137 0 206.5 -60.5t69.5 -172.5v-348h-141v334q0 65 -34.5 99.5t-103.5 34.5q-60 0 -98 -21t-52 -70h126v-47q-29 -12 -44.5 -41t-17.5 -68l-1 -61q-1 -34 -6 -64t-18.5 -52.5t-38 -36t-64.5 -14.5q-22 0 -44 2.5t-49 7.5v98q17 -2 27 -2.5t18 1.5
q24 6 32.5 22.5t8.5 48.5q0 24 1.5 46.5t8.5 42t21 35t39 27.5h-124q0 128 67.5 193.5t210.5 65.5z" />
    <glyph glyph-name="uni0E21" unicode="&#xe21;" horiz-adv-x="625" 
d="M44 0v577h139v-333q0 -28 11.5 -53.5t31 -44.5t46.5 -30.5t58 -11.5q55 0 83.5 29t28.5 94v350h139v-383q0 -47 -14 -84.5t-38.5 -63.5t-59 -40t-76.5 -14q-81 0 -136.5 29t-73.5 83h-4v-104h-135z" />
    <glyph glyph-name="uni0E22" unicode="&#xe22;" horiz-adv-x="615" 
d="M572 577v-360q0 -115 -65.5 -170t-198.5 -55q-134 0 -201 47.5t-67 133.5q0 58 26 90t75 49q-45 16 -70.5 46t-26.5 75q-2 40 9.5 68.5t33 46.5t52.5 26.5t69 8.5q41 0 89 -9v-101q-24 3 -44 3q-38 0 -55.5 -13.5t-17.5 -44.5q0 -19 10.5 -31t27 -19t37 -10t40.5 -3h32
v-90h-25q-21 0 -42.5 -3t-39.5 -11t-29 -21.5t-11 -34.5q0 -41 29.5 -66t98.5 -25q70 0 97.5 35.5t27.5 103.5v334h139z" />
    <glyph glyph-name="uni0E23" unicode="&#xe23;" horiz-adv-x="549" 
d="M347 325q32 -10 62.5 -23t54.5 -32.5t38 -48.5t11 -71q-3 -45 -25.5 -75t-57 -48.5t-76 -26.5t-82.5 -8q-43 0 -85 10.5t-75 32.5t-54.5 56t-23.5 80h126q9 -33 41.5 -51.5t71.5 -18.5q21 0 40.5 3.5t34.5 12t24 21t9 30.5q0 28 -38.5 43.5t-115.5 32.5q-38 9 -71.5 21
t-59 30.5t-40 46t-14.5 66.5q0 44 21 76t54.5 54t75.5 32.5t84 10.5q41 0 82.5 -10t74.5 -31.5t54.5 -55.5t21.5 -81h-124q-6 35 -37.5 51.5t-71.5 16.5q-18 0 -36 -4t-32 -12t-23 -19.5t-9 -26.5q0 -18 15 -30t39 -20.5t54.5 -16t61.5 -17.5z" />
    <glyph glyph-name="uni0E24" unicode="&#xe24;" horiz-adv-x="633" 
d="M314 581q138 0 206.5 -60.5t68.5 -172.5v-544h-140v530q0 65 -34.5 99.5t-103.5 34.5q-60 0 -98 -21t-51 -70h118v-48q-42 -19 -65.5 -54.5t-23.5 -84.5q0 -26 5.5 -42t15.5 -25.5t24 -14t31 -6.5q13 -2 25.5 -1t28.5 3v-100q-28 -7 -55 -9.5t-52 -1.5q-35 1 -65 12
t-52 31t-34.5 51t-12.5 73q0 60 31 102.5t73 59.5h-119q0 128 68 193.5t211 65.5z" />
    <glyph glyph-name="uni0E25" unicode="&#xe25;" horiz-adv-x="607" 
d="M564 0h-140v247q-59 -3 -105 -6.5t-77.5 -12.5t-48 -24.5t-16.5 -41.5q0 -31 22 -44t59 -13q23 -2 52 3v-100q-60 -13 -112 -12q-33 1 -63 11t-52.5 29.5t-35.5 48.5t-13 68q0 62 30 97t82.5 54t123.5 26.5t154 13.5q-2 57 -31.5 90t-99.5 33q-38 0 -68.5 -20.5
t-43.5 -56.5h-135q7 43 28.5 78.5t54 60.5t74.5 38.5t90 13.5q131 0 201 -59t70 -188v-334z" />
    <glyph glyph-name="uni0E26" unicode="&#xe26;" horiz-adv-x="637" 
d="M318 581q137 0 206.5 -60.5t69.5 -172.5v-544h-141v530q0 65 -34.5 99.5t-103.5 34.5q-60 0 -98 -21t-52 -70h126v-47q-29 -12 -44.5 -41t-17.5 -68l-1 -61q-1 -34 -6 -64t-18.5 -52.5t-38 -36t-64.5 -14.5q-22 0 -44 2.5t-49 7.5v98q17 -2 27 -2.5t18 1.5
q24 6 32.5 22.5t8.5 48.5q0 24 1.5 46.5t8.5 42t21 35t39 27.5h-124q0 128 67.5 193.5t210.5 65.5z" />
    <glyph glyph-name="uni0E27" unicode="&#xe27;" horiz-adv-x="581" 
d="M277 581q128 0 199 -75.5t71 -216.5q0 -140 -68.5 -216.5t-201.5 -76.5q-48 0 -90.5 13.5t-75.5 38.5t-54.5 60t-27.5 78h135q13 -38 43.5 -58t69.5 -20q35 0 60 14.5t41 39.5t23.5 57.5t7.5 69.5q0 36 -7.5 68.5t-23.5 57t-41 38.5t-60 14q-39 0 -69.5 -20t-43.5 -57
h-135q6 43 27.5 78.5t54.5 60.5t75.5 38.5t90.5 13.5z" />
    <glyph glyph-name="uni0E28" unicode="&#xe28;" horiz-adv-x="641" 
d="M46 351q0 61 18 102.5t53.5 68t87 40t117.5 19.5q34 3 74 6.5t81 7.5t80.5 8.5t71.5 7.5v-95l-149 -11v-3q62 -18 88 -63t26 -124v-315h-140v334q0 66 -31 99.5t-101 33.5q-69 0 -102 -37.5t-33 -100.5v-102q18 38 54.5 59t77.5 21h41v-111h-43q-23 0 -46.5 -6.5
t-42 -19.5t-30 -31.5t-11.5 -42.5v-96h-141v351z" />
    <glyph glyph-name="uni0E29" unicode="&#xe29;" horiz-adv-x="641" 
d="M367 390q1 -25 12.5 -32t48.5 -7h15v226h141v-226h46v-93h-46v-41q0 -115 -68.5 -170t-201.5 -55t-202.5 55t-69.5 170v360h141v-327q0 -69 28 -107.5t103 -38.5q71 0 100 36.5t29 101.5v16q-64 0 -101.5 9t-57 26t-24 41.5t-2.5 55.5h109z" />
    <glyph glyph-name="uni0E2A" unicode="&#xe2a;" horiz-adv-x="611" 
d="M599 611v-95l-149 -11v-3q62 -18 88 -63t26 -124v-315h-140v247q-59 -3 -105 -6.5t-77.5 -12.5t-48 -24.5t-16.5 -41.5q0 -31 22 -44t59 -13q23 -2 52 3v-100q-60 -13 -112 -12q-33 1 -62.5 11t-52 29.5t-36 48.5t-13.5 68q0 62 30 97.5t83 54.5t124.5 26t154.5 13
q-3 56 -31.5 89.5t-97.5 33.5q-38 0 -70.5 -20t-45.5 -57h-135q14 90 77.5 135t173.5 56z" />
    <glyph glyph-name="uni0E2B" unicode="&#xe2b;" horiz-adv-x="613" 
d="M435 344q135 -18 135 -164v-180h-137v180q0 25 -8 41t-21.5 25.5t-32 13t-39.5 3.5h-146v-263h-140v577h140v-211h121l111 211h148l-131 -232v-1z" />
    <glyph glyph-name="uni0E2C" unicode="&#xe2c;" horiz-adv-x="772" 
d="M791 708q-12 -66 -42.5 -98.5t-79.5 -45.5q38 -17 54.5 -51.5t2.5 -97.5l-94 -415h-124l-122 396l-121 -396h-124l-130 577h142l68 -382l113 369h104l115 -369l46 231q5 27 6 47.5t-5.5 35t-22 22.5t-42.5 9v66q59 0 89.5 21.5t40.5 80.5h126z" />
    <glyph glyph-name="uni0E2D" unicode="&#xe2d;" horiz-adv-x="606" 
d="M297 581q60 0 111 -20t88 -57.5t57.5 -92t20.5 -123.5q0 -68 -19 -123t-54 -93.5t-86 -59t-116 -20.5q-71 0 -126 26t-88.5 70.5t-44 103.5t7.5 125h218v-93h-97q-1 -22 8 -43.5t26.5 -38.5t41.5 -27.5t52 -10.5q39 0 66 15t44 40.5t24.5 59t7.5 70.5q0 44 -11 77
t-30.5 55.5t-45.5 34t-56 11.5q-39 0 -72.5 -19.5t-47.5 -57.5h-132q6 45 28.5 80t57 60t77.5 38t90 13z" />
    <glyph glyph-name="uni0E2E" unicode="&#xe2e;" horiz-adv-x="609" 
d="M596 611v-95l-147 -11v-3q59 -23 92 -77t33 -137q0 -67 -19 -121.5t-54.5 -93.5t-86.5 -60t-115 -21q-70 0 -125 26t-88.5 70.5t-44.5 103.5t7 125h218v-93h-97q-1 -22 8.5 -43.5t27 -38.5t41.5 -27.5t51 -10.5q39 0 66 15t44 40.5t24.5 59t7.5 70.5q0 81 -36.5 129.5
t-105.5 48.5q-44 0 -76.5 -20t-44.5 -57h-134q14 89 80.5 134.5t170.5 56.5z" />
    <glyph glyph-name="uni0E2F" unicode="&#xe2f;" horiz-adv-x="614" 
d="M413 0v329h-2q-20 -53 -64 -82t-122 -29q-35 0 -69 12.5t-60.5 37t-42.5 60.5t-16 83t14.5 79.5t39.5 52.5t58.5 29t71.5 9q16 0 33 -1.5t34 -5.5v-87q-9 1 -14.5 1h-10.5q-34 0 -57 -18t-23 -54q0 -43 25 -66.5t66 -23.5q29 0 54 11.5t43.5 32t29 47t10.5 56.5v104h139
v-577h-137z" />
    <glyph glyph-name="uni0E30" unicode="&#xe30;" horiz-adv-x="378" 
d="M334 438v-100h-133q-58 0 -93.5 14t-53.5 37t-21.5 52t0.5 60h114q-3 -37 12 -50t62 -13h113zM334 153v-98h-133q-58 0 -93.5 13.5t-53.5 36t-21.5 51.5t0.5 60h114q-3 -36 12 -49.5t62 -13.5h113z" />
    <glyph glyph-name="uni0E31" unicode="&#xe31;" 
d="M15 745v-94h-272q-59 0 -94 12.5t-53 33t-21.5 48t-0.5 57.5h119q-2 -35 12.5 -46.5t61.5 -10.5h248z" />
    <glyph glyph-name="uni0E32" unicode="&#xe32;" horiz-adv-x="472" 
d="M285 0v383q0 44 -28.5 64t-73.5 21q-40 2 -77 -7t-80 -23v105q45 20 90.5 29t99.5 9q44 0 82 -9.5t66.5 -30t45 -52.5t16.5 -76v-413h-141z" />
    <glyph glyph-name="uni0E33" unicode="&#xe33;" horiz-adv-x="472" 
d="M-154 820q57 0 88 -24.5t31 -72.5q0 -45 -31 -70t-88 -25q-58 0 -89 24.5t-31 70.5q0 48 31.5 72.5t88.5 24.5zM-154 686q17 0 28 10t11 27q0 20 -11 30t-28 10q-19 0 -30 -10t-11 -30q0 -17 11 -27t30 -10zM285 0v383q0 44 -28.5 64t-73.5 21q-40 2 -77 -7t-80 -23v105
q45 20 90.5 29t99.5 9q44 0 82 -9.5t66.5 -30t45 -52.5t16.5 -76v-413h-141z" />
    <glyph glyph-name="uni0E34" unicode="&#xe34;" 
d="M-44 651h-499v94h499v-94z" />
    <glyph glyph-name="uni0E35" unicode="&#xe35;" 
d="M-44 816v-165h-499v94h375v71h124z" />
    <glyph glyph-name="uni0E36" unicode="&#xe36;" 
d="M-135 823q53 0 75.5 -23.5t22.5 -62.5q0 -40 -21.5 -63t-72.5 -23h-412v94h314q0 23 8 37.5t21 23.5t30 12.5t35 4.5zM-135 707q14 0 23.5 8t9.5 22t-9.5 22t-23.5 8t-22.5 -8t-8.5 -22q0 -30 31 -30z" />
    <glyph glyph-name="uni0E37" unicode="&#xe37;" 
d="M-44 816v-165h-498v94h246v71h100v-71h54v71h98z" />
    <glyph glyph-name="uni0E38" unicode="&#xe38;" 
d="M-48 -258h-123v98h-84v86h207v-184z" />
    <glyph glyph-name="uni0E39" unicode="&#xe39;" 
d="M-48 -74v-84q0 -39 -15.5 -62.5t-39.5 -36t-52 -16.5t-52 -4q-25 0 -51.5 4.5t-48.5 17t-36.5 35.5t-16.5 60h-56v86h164v-68q0 -26 10 -40t35 -14q26 0 35.5 15t9.5 49v58h114z" />
    <glyph glyph-name="uni0E3A" unicode="&#xe3a;" 
d="M-205 -156q0 34 24 58t58 24t58 -24t24 -58q0 -35 -24 -59.5t-58 -24.5t-58 24.5t-24 59.5z" />
    <glyph glyph-name="uni0E3F" unicode="&#xe3f;" horiz-adv-x="639" 
d="M448 356q36 -2 65 -15t50 -35.5t32 -53t11 -66.5q0 -46 -17.5 -80.5t-49.5 -58t-78 -35.5t-102 -12v-104h-124v104h-190v700h190v98h124v-99q100 -7 156.5 -48t56.5 -122q0 -30 -8 -58.5t-23.5 -51.5t-39 -39t-53.5 -21v-3zM310 397q57 0 87.5 26.5t30.5 71.5t-30.5 70.5
t-86.5 25.5h-123v-194h122zM322 109q66 0 100 23t34 74t-35.5 74.5t-101.5 23.5h-131v-195h134z" />
    <glyph glyph-name="uni0E40" unicode="&#xe40;" horiz-adv-x="337" 
d="M321 7q-23 -5 -43.5 -6.5t-40.5 -1.5q-84 1 -127 43.5t-43 140.5v394h140v-387q0 -27 5 -43.5t14 -26t21.5 -13t26.5 -3.5q11 -2 22.5 -1t24.5 2v-98z" />
    <glyph glyph-name="uni0E41" unicode="&#xe41;" horiz-adv-x="640" 
d="M321 7q-23 -5 -43.5 -6.5t-40.5 -1.5q-84 1 -127 43.5t-43 140.5v394h140v-387q0 -27 5 -43.5t14 -26t21.5 -13t26.5 -3.5q11 -2 22.5 -1t24.5 2v-98zM624 7q-23 -5 -43.5 -6.5t-40.5 -1.5q-85 1 -127.5 43.5t-42.5 140.5v394h140v-387q0 -27 5 -43.5t14 -26t21.5 -13
t26.5 -3.5q11 -2 22.5 -1t24.5 2v-98z" />
    <glyph glyph-name="uni0E42" unicode="&#xe42;" horiz-adv-x="389" 
d="M373 7q-20 -5 -38.5 -6.5t-35.5 -1.5q-88 -2 -134 40.5t-46 143.5v322q0 24 -3.5 43t-16 34t-36 27.5t-63.5 23.5v11q0 50 18.5 85t47.5 57t65 31.5t71 9.5q36 0 71 -10t62.5 -28.5t46 -45.5t22.5 -61h-116q-8 22 -32.5 33.5t-52.5 11.5q-34 0 -55 -14t-29 -32
q52 -16 80.5 -40.5t41.5 -54t15 -62.5t2 -66v-268q0 -28 6 -45.5t16.5 -26.5t25 -12t32.5 -2q8 0 16.5 0.5t18.5 0.5v-98z" />
    <glyph glyph-name="uni0E43" unicode="&#xe43;" horiz-adv-x="382" 
d="M364 7q-20 -5 -37.5 -6.5t-34.5 -1.5q-88 -2 -134.5 40.5t-46.5 143.5v256q0 50 21.5 84.5t48 60t48 46.5t21.5 43q0 23 -16 38t-50 15q-32 0 -49.5 -19.5t-18.5 -62.5h-116q1 94 50.5 138.5t135.5 44.5q42 0 76 -8.5t58 -27.5t37.5 -48t13.5 -70q0 -26 -9 -46t-22 -36.5
t-29 -32t-29 -32t-22 -37t-9 -47.5v-252q0 -27 5 -43.5t13.5 -26t21 -13t27.5 -3.5q11 -2 22.5 -1t23.5 2v-98z" />
    <glyph glyph-name="uni0E44" unicode="&#xe44;" horiz-adv-x="381" 
d="M363 7q-23 -5 -44 -6.5t-41 -1.5q-83 0 -126 43.5t-43 140.5v292q0 48 19 83t42.5 61.5t42.5 47.5t19 40q0 15 -9.5 21t-20.5 6q-16 0 -31.5 -13t-20.5 -36h-86l-104 136h119l38 -66q11 29 36.5 50.5t70.5 21.5q24 0 47 -4.5t42 -16t30.5 -30t11.5 -46.5q0 -31 -8 -51.5
t-19.5 -37t-25 -32t-25 -36t-19.5 -48.5t-8 -71v-264q0 -28 5.5 -45t15.5 -26t24 -12t31 -3h17t20 1v-98z" />
    <glyph glyph-name="uni0E45" unicode="&#xe45;" horiz-adv-x="472" 
d="M285 -196v579q0 44 -28.5 64t-73.5 21q-40 2 -77 -7t-80 -23v105q45 20 90.5 29t99.5 9q44 0 82 -9.5t66.5 -30t45 -52.5t16.5 -76v-609h-141z" />
    <glyph glyph-name="uni0E46" unicode="&#xe46;" horiz-adv-x="610" 
d="M393 581q49 0 78.5 -10.5t45.5 -32t21.5 -53.5t5.5 -74v-215q0 -99 -46.5 -146.5t-123.5 -53.5q-23 -1 -47 -0.5t-47 4.5v93q22 -3 41 -2q38 2 60.5 24t22.5 66v223q0 11 -1 22.5t-4.5 20.5t-11.5 14.5t-23 5.5q-17 0 -28 -15.5t-17 -43.5h-71q-7 28 -18 43.5t-31 15.5
q-13 0 -20 -7.5t-10.5 -18t-4 -21.5t-0.5 -19q0 -48 12.5 -69t48.5 -24q13 -1 26 -0.5t29 2.5v-93q-23 -3 -41.5 -5t-39.5 -1q-38 1 -69 11.5t-52.5 32t-33 55.5t-11.5 82v23q0 41 5 72t20 52t43 31.5t74 10.5q49 0 74.5 -22.5t34.5 -64.5q10 42 34.5 64.5t74.5 22.5z" />
    <glyph glyph-name="uni0E47" unicode="&#xe47;" 
d="M-337 820q-20 0 -34.5 -8.5t-14.5 -35.5q0 -28 16.5 -37t35.5 -9q17 0 32 13.5t20 39.5h42l123 -56v-88h-13l-118 58q-16 -28 -47.5 -41t-68.5 -13q-56 0 -93.5 32t-37.5 99q0 68 44 102.5t128 34.5h227v-91h-241z" />
    <glyph glyph-name="uni0E48" unicode="&#xe48;" 
d="M-46 861h-119v177h119v-177z" />
    <glyph glyph-name="uni0E49" unicode="&#xe49;" 
d="M8 947v-86h-323v53q25 6 40 14t23 17t10.5 18t2.5 17q0 11 -12 18.5t-34 7.5q-14 0 -30 -3v61q17 7 35.5 10t36.5 3q42 0 73.5 -17.5t31.5 -52.5q0 -19 -8.5 -37.5t-25.5 -32.5q22 5 49.5 7.5t47.5 2.5h83z" />
    <glyph glyph-name="uni0E4A" unicode="&#xe4a;" 
d="M-16 928v-67h-152v89q0 12 -5 22t-19 10q-19 0 -26 -7.5t-9 -24.5h-54q-5 20 -12.5 27t-20.5 7q-15 0 -20.5 -7.5t-5.5 -24.5q0 -18 15.5 -22.5t43.5 -4.5v-63q-14 -1 -27.5 -2.5t-25.5 0.5q-22 0 -41 5t-33 16t-22 29t-8 45v7q0 43 21.5 72t74.5 29q32 0 53 -10t34 -35
q14 25 36 35t53 10q53 0 74 -29.5t21 -74.5v-31h55z" />
    <glyph glyph-name="uni0E4B" unicode="&#xe4b;" 
d="M15 917h-72v-56h-100v56h-72v67h72v56h100v-56h72v-67z" />
    <glyph glyph-name="uni0E4C" unicode="&#xe4c;" 
d="M1 883q-49 -5 -90 -9t-72 -12q-17 -4 -22.5 -15.5t-3.5 -30.5h-116q-2 27 0.5 49.5t14 39.5t35.5 28.5t66 16.5l188 22v-89z" />
    <glyph glyph-name="uni0E4D" unicode="&#xe4d;" 
d="M-154 820q57 0 88 -24.5t31 -72.5q0 -45 -31 -70t-88 -25q-58 0 -89 24.5t-31 70.5q0 48 31.5 72.5t88.5 24.5zM-154 686q17 0 28 10t11 27q0 20 -11 30t-28 10q-19 0 -30 -10t-11 -30q0 -17 11 -27t30 -10z" />
    <glyph glyph-name="uni0E4E" unicode="&#xe4e;" 
d="M-348 0v675h681v-675h-681zM306 22q6 0 6 7v619q0 6 -6 6h-627q-6 0 -6 -6v-619q0 -7 6 -7h627z" />
    <glyph glyph-name="uni0E4F" unicode="&#xe4f;" horiz-adv-x="555" 
d="M278 555q50 0 93.5 -18.5t76 -51t51 -75.5t18.5 -93t-18.5 -94t-51 -76.5t-76 -51.5t-93.5 -19t-93.5 19t-76 51.5t-51.5 76.5t-19 94t19 93t51.5 75.5t76 51t93.5 18.5zM278 147q35 0 65.5 13.5t53 36.5t35.5 54t13 66t-13 65t-35.5 52.5t-53 35.5t-65.5 13
q-34 0 -65 -13t-54 -35.5t-36.5 -52.5t-13.5 -65t13.5 -66t36.5 -54t54 -36.5t65 -13.5zM278 442q26 0 48.5 -9.5t39.5 -26.5t27 -39.5t10 -49.5q0 -26 -10 -49t-27 -40t-39.5 -27t-48.5 -10q-25 0 -48 10t-40 27t-27 40t-10 49q0 27 10 49.5t27 39.5t40 26.5t48 9.5z
M278 251q27 0 45 19t18 47q0 26 -18 43.5t-45 17.5t-46 -17.5t-19 -43.5q0 -28 19 -47t46 -19z" />
    <glyph glyph-name="uni0E50" unicode="&#xe50;" horiz-adv-x="613" 
d="M306 521q60 0 111 -17.5t88.5 -51.5t58.5 -83.5t21 -113.5q0 -63 -21 -112t-58.5 -82.5t-88.5 -51t-111 -17.5t-111 17.5t-88.5 51t-58.5 82.5t-21 112q0 64 21.5 113.5t59 83.5t88.5 51.5t110 17.5zM306 100q29 0 55 10t46 29.5t31.5 48.5t11.5 67q0 39 -11.5 69
t-31.5 49.5t-46 29.5t-55 10t-55 -10t-46 -29.5t-31.5 -49.5t-11.5 -69q0 -38 11.5 -67t31.5 -48.5t46 -29.5t55 -10z" />
    <glyph glyph-name="uni0E51" unicode="&#xe51;" horiz-adv-x="617" 
d="M295 90q-49 -4 -97 4t-86 30.5t-61.5 61.5t-23.5 96q0 64 21.5 109.5t59 74t88.5 42t110 13.5q60 0 111.5 -18.5t89.5 -55.5t60 -90.5t22 -124.5q0 -59 -20 -118t-64 -105t-114 -72.5t-170 -19.5v101q63 -6 107 11.5t72 49t40.5 72t12.5 81.5q0 45 -12 78.5t-32.5 56.5
t-47 34.5t-55.5 11.5t-55 -7t-46 -22.5t-31.5 -40.5t-11.5 -61q0 -24 11 -42.5t30 -30.5t43 -17t49 -1v-101z" />
    <glyph glyph-name="uni0E52" unicode="&#xe52;" horiz-adv-x="774" 
d="M46 682h133v-439q0 -46 21 -75t52 -45t67 -21.5t67 -5.5q33 0 69.5 5.5t67.5 21.5t51.5 45t20.5 75v101q0 12 -1 23.5t-4.5 20.5t-11.5 14.5t-23 5.5q-20 0 -30 -16t-16 -43h-71q-6 27 -16 43t-30 16q-15 0 -23 -5.5t-11.5 -14.5t-4.5 -20.5t-1 -23.5q0 -42 14 -60
t41 -22q13 -2 28.5 -1t32.5 4v-86q-32 -6 -59.5 -6.5t-52.5 2.5q-56 7 -89.5 42.5t-33.5 103.5v45q0 77 28.5 116t102.5 39q50 0 75 -22t34 -64q11 42 36.5 64t73.5 22q44 0 72 -11t44 -33.5t22 -55t6 -76.5v-113q0 -63 -27.5 -108.5t-74.5 -74.5t-108.5 -43t-130.5 -14
q-68 0 -129.5 14t-108.5 43t-74.5 74.5t-27.5 108.5v450z" />
    <glyph glyph-name="uni0E53" unicode="&#xe53;" horiz-adv-x="665" 
d="M457 521q51 0 83 -11t49 -33t23 -55t6 -77v-345h-140v344q0 12 -1 23.5t-6 20.5t-14 15t-26 6q-20 0 -31.5 -16.5t-16.5 -43.5h-86q-6 28 -18.5 44t-31.5 16q-22 0 -35 -13.5t-19.5 -35t-8 -50t-1.5 -58.5q0 -31 5 -58t18 -47t35 -32t56 -14q13 -1 29 -1t30 2v-101
q-14 -2 -30.5 -3.5t-30.5 -1.5q-57 -2 -104 10t-80.5 41t-51.5 77.5t-18 118.5q0 60 7 111t27 88t55 58t90 21q46 0 77.5 -22t42.5 -64q9 42 40 64t77 22z" />
    <glyph glyph-name="uni0E54" unicode="&#xe54;" horiz-adv-x="647" 
d="M310 412q-26 0 -49.5 -10.5t-41.5 -30.5t-28.5 -49t-10.5 -67q0 -75 37 -116t93 -41q23 0 46 2.5t38 8.5q-9 13 -15 31t-6 32q-2 72 35.5 111t126.5 39q24 0 52 -3v-86q-44 5 -70 -11.5t-26 -49.5q0 -21 8.5 -35.5t22 -23.5t30 -13t31.5 -4h42v-96h-41q-80 0 -135 34
q-20 -20 -56 -29.5t-85 -9.5q-60 0 -109 17t-84 50t-54.5 81.5t-19.5 111.5q0 65 19.5 114t55 82.5t84.5 50.5t108 17h96q57 0 85.5 21.5t26.5 78.5h109q5 -51 -8.5 -90t-39.5 -65t-60.5 -39t-70.5 -13h-136z" />
    <glyph glyph-name="uni0E55" unicode="&#xe55;" horiz-adv-x="647" 
d="M308 -5q-60 0 -109 17t-84 50t-54.5 81.5t-19.5 111.5q0 98 45 159.5t117 83.5q-16 23 -16 60q0 51 32.5 82t92.5 31t92.5 -31.5t32.5 -81.5q0 -21 -11 -35q46 6 69 26t21 70h109q5 -55 -10 -94.5t-43 -64.5t-66 -36.5t-79 -11.5h-90q-31 0 -59 -7t-50 -25t-35 -48
t-13 -77q0 -75 37 -116t93 -41q23 0 46 2.5t38 8.5q-9 13 -15 31t-6 32q-2 72 35.5 111t126.5 39q24 0 52 -3v-86q-44 5 -70 -11.5t-26 -49.5q0 -21 8.5 -35.5t22 -23.5t30 -13t31.5 -4h42v-96h-41q-80 0 -135 34q-20 -20 -56 -29.5t-85 -9.5zM312 519q19 0 31 10.5t12 28.5
q0 20 -12 31t-31 11t-31 -11t-12 -31q0 -18 12 -28.5t31 -10.5z" />
    <glyph glyph-name="uni0E56" unicode="&#xe56;" horiz-adv-x="673" 
d="M317 237q-52 7 -79.5 -5.5t-27.5 -52.5q0 -22 11 -37.5t30 -25.5t44 -14t53 -4q29 0 55.5 8.5t46.5 27.5t32.5 49.5t12.5 73.5q0 78 -42.5 117.5t-114.5 44.5q-17 1 -36.5 -1.5t-38.5 -8t-36.5 -13.5t-30.5 -18h-84l-132 250h131l77 -156q12 10 29.5 19t37.5 15.5
t41.5 10.5t41.5 4q83 0 139 -20t90.5 -55.5t49.5 -84t15 -104.5q0 -71 -22 -121t-60 -82t-90 -47t-112 -15q-59 0 -109 9.5t-87 31.5t-57.5 58t-20.5 88q0 44 12.5 72.5t34 45.5t51.5 24t65 7q38 0 80 -6v-85z" />
    <glyph glyph-name="uni0E57" unicode="&#xe57;" horiz-adv-x="881" 
d="M449 521q47 0 76 -11t44.5 -33t21 -55t5.5 -77v-192q0 -27 15.5 -41t39.5 -14q23 0 37.5 14t14.5 41v529h132v-501q0 -54 -14.5 -90t-39.5 -57t-58.5 -30t-71.5 -9q-42 0 -76 9.5t-59 32.5t-38.5 62t-13.5 97v148v23.5t-4 20.5t-12.5 15t-25.5 6q-19 0 -31 -16.5
t-17 -43.5h-82q-6 28 -18.5 44t-31.5 16q-23 0 -35 -13.5t-17.5 -35t-6 -50t-0.5 -58.5q0 -31 5 -58t18 -47t35 -32t56 -14q13 -1 29 -1t30 2v-101q-15 -2 -32 -3.5t-31 -1.5q-57 -2 -103.5 10t-79.5 41.5t-51 77.5t-18 118q0 60 6.5 111t25 88t52.5 58t89 21q45 0 76.5 -22
t42.5 -64q9 42 40 64t76 22z" />
    <glyph glyph-name="uni0E58" unicode="&#xe58;" horiz-adv-x="650" 
d="M33 257q0 63 19.5 112t55 82.5t84.5 50.5t108 17h93q62 0 92 20.5t28 79.5h111q5 -51 -9 -90t-39.5 -65t-60 -39t-70.5 -13h-143q-26 0 -49.5 -10.5t-41.5 -30t-28.5 -48.5t-10.5 -66q0 -27 2 -55t9.5 -50t21.5 -36t37 -14q11 0 19.5 6.5t14 17.5t9.5 24.5t6 26.5h86
q5 -29 15.5 -52t33.5 -23q21 0 32.5 7t16.5 17.5t6 22t1 20.5v21q0 14 -3 25.5t-11 20.5t-22.5 14.5t-37.5 6.5q-11 0 -22.5 -0.5t-25.5 -4.5v85l41 4q13 2 25 2.5t24 0.5q79 -2 122 -42t43 -118q0 -39 -7 -73t-25 -59.5t-49.5 -40.5t-80.5 -15q-48 0 -78.5 22t-40.5 64
q-10 -42 -41 -64.5t-79 -22.5q-51 0 -85.5 21t-56 57t-30.5 83.5t-9 100.5z" />
    <glyph glyph-name="uni0E59" unicode="&#xe59;" horiz-adv-x="741" 
d="M551 356q0 17 -10.5 33t-42.5 16q-25 0 -38 -14.5t-11 -37.5l162 -353h-138l-159 349q-13 26 -25.5 41t-38.5 15q-22 0 -35 -12.5t-19.5 -34t-8 -49t-1.5 -57.5q0 -33 4.5 -60t17.5 -46.5t35 -31t56 -13.5q11 -1 25 -0.5t27 1.5v-101q-14 -2 -29.5 -3.5t-29.5 -1.5
q-55 -3 -100.5 9t-78.5 41.5t-51 78t-18 118.5q0 60 8 111t29 88t57.5 58t92.5 21q49 0 84 -22.5t53 -64.5q6 24 17.5 40.5t27.5 27t34 15t36 4.5q37 0 65.5 -12.5t42.5 -41.5l57 125h119l-115 -236h-101z" />
    <glyph glyph-name="uni0E5A" unicode="&#xe5a;" horiz-adv-x="843" 
d="M413 0v329h-2q-20 -53 -64 -82t-122 -29q-35 0 -69 12.5t-60.5 37t-42.5 60.5t-16 83t14.5 79.5t39.5 52.5t58.5 29t71.5 9q16 0 33 -1.5t34 -5.5v-87q-9 1 -14.5 1h-10.5q-34 0 -57 -18t-23 -54q0 -43 25 -66.5t66 -23.5q29 0 54 11.5t43.5 32t29 47t10.5 56.5v104h139
v-577h-137zM643 0v577h135v-577h-135z" />
    <glyph glyph-name="uni0E5B" unicode="&#xe5b;" horiz-adv-x="804" 
d="M61 0v675h681v-675h-681zM715 22q7 0 7 7v619q0 6 -7 6h-626q-7 0 -7 -6v-619q0 -7 7 -7h626z" />
    <glyph glyph-name="uni200C" unicode="&#x200c;" 
 />
    <glyph glyph-name="uni200D" unicode="&#x200d;" 
 />
    <glyph glyph-name="uni200E" unicode="&#x200e;" 
 />
    <glyph glyph-name="uni200F" unicode="&#x200f;" 
 />
    <glyph glyph-name="endash" unicode="&#x2013;" horiz-adv-x="484" 
d="M443 261h-402v110h402v-110z" />
    <glyph glyph-name="emdash" unicode="&#x2014;" horiz-adv-x="701" 
d="M660 261h-619v110h619v-110z" />
    <glyph glyph-name="quoteleft" unicode="&#x2018;" horiz-adv-x="277" 
d="M257 471h-123l-126 229h145z" />
    <glyph glyph-name="quoteright" unicode="&#x2019;" horiz-adv-x="277" 
d="M20 471l104 229h145l-127 -229h-122z" />
    <glyph glyph-name="quotesinglbase" unicode="&#x201a;" horiz-adv-x="206" 
d="M-7 -123l55 232h136l-75 -232h-116z" />
    <glyph glyph-name="quotedblleft" unicode="&#x201c;" horiz-adv-x="463" 
d="M8 700h135l104 -229h-113zM203 700h135l104 -229h-113z" />
    <glyph glyph-name="quotedblright" unicode="&#x201d;" horiz-adv-x="463" 
d="M319 700h135l-125 -229h-113zM124 700h135l-125 -229h-114z" />
    <glyph glyph-name="quotedblbase" unicode="&#x201e;" horiz-adv-x="389" 
d="M176 109l-76 -232h-107l55 232h128zM367 109l-75 -232h-106l54 232h127z" />
    <glyph glyph-name="dagger" unicode="&#x2020;" horiz-adv-x="542" 
d="M201 523v177h140v-177h150v-103h-150v-420h-140v420h-151v103h151z" />
    <glyph glyph-name="daggerdbl" unicode="&#x2021;" horiz-adv-x="542" 
d="M201 523v177h140v-177h150v-103h-150v-140h150v-103h-150v-177h-140v177h-151v103h151v140h-151v103h151z" />
    <glyph glyph-name="bullet" unicode="&#x2022;" horiz-adv-x="424" 
d="M214 169q-30 0 -57 11.5t-47.5 32t-32.5 47.5t-12 57t12 56.5t32.5 46.5t47.5 31.5t57 11.5t56 -11.5t46 -31.5t31.5 -46.5t11.5 -56.5q0 -29 -11.5 -55.5t-31.5 -47t-46 -33t-56 -12.5z" />
    <glyph glyph-name="ellipsis" unicode="&#x2026;" horiz-adv-x="669" 
d="M476 81q0 32 23 56t65 24q40 0 62 -24t22 -56q0 -35 -22 -58t-62 -23q-42 0 -65 23t-23 58zM20 81q0 32 22.5 56t63.5 24t63.5 -24t22.5 -56q0 -35 -22.5 -58t-63.5 -23t-63.5 23t-22.5 58zM248 81q0 32 23 56t63 24q41 0 63.5 -24t22.5 -56q0 -35 -22.5 -58t-63.5 -23
q-40 0 -63 23t-23 58z" />
    <glyph glyph-name="perthousand" unicode="&#x2030;" horiz-adv-x="1078" 
d="M332 547q0 -36 -12 -65t-33 -49.5t-48.5 -31.5t-58.5 -11t-59 11t-49 31.5t-33 49.5t-12 65q0 38 12 67.5t33 50.5t49 32t59 11t58.5 -11t48.5 -32t33 -50.5t12 -67.5zM639 700l-414 -700h-123l414 700h123zM121 547q0 -32 15.5 -50.5t43.5 -18.5q26 0 41.5 18.5
t15.5 50.5q0 33 -15.5 52t-41.5 19q-28 0 -43.5 -18.5t-15.5 -52.5zM559 308q32 0 60 -11t48.5 -31.5t32.5 -50t12 -65.5t-12 -65.5t-32.5 -50t-48.5 -31.5t-60 -11q-31 0 -59 11t-48 31.5t-32 50t-12 65.5t12 65.5t32 50t48 31.5t59 11zM899 308q32 0 59.5 -11t48 -31.5
t32.5 -50t12 -65.5t-12 -65.5t-32.5 -50t-48 -31.5t-59.5 -11t-60 11t-48.5 31.5t-32.5 50t-12 65.5t12 65.5t32.5 50t48.5 31.5t60 11zM559 79q26 0 42 19t16 52q0 32 -16 51.5t-42 19.5t-42 -19t-16 -52t16 -52t42 -19zM899 79q26 0 41 19t15 52q0 32 -15 51.5t-41 19.5
q-28 0 -43 -19t-15 -52t15 -52t43 -19z" />
    <glyph glyph-name="minute" unicode="&#x2032;" horiz-adv-x="277" 
d="M20 471l104 230h145l-127 -230h-122z" />
    <glyph glyph-name="second" unicode="&#x2033;" horiz-adv-x="463" 
d="M454 701l-125 -230h-113l103 230h135zM259 701l-125 -230h-114l104 230h135z" />
    <glyph glyph-name="guilsinglleft" unicode="&#x2039;" horiz-adv-x="540" 
d="M45 277v79l450 273v-135l-305 -176v-1l305 -178v-134z" />
    <glyph glyph-name="guilsinglright" unicode="&#x203a;" horiz-adv-x="540" 
d="M495 277l-450 -272v134l306 178v1l-306 176v135l450 -273v-79z" />
    <glyph glyph-name="fraction" unicode="&#x2044;" horiz-adv-x="419" 
d="M408 700l-252 -700h-145l254 700h143z" />
    <glyph glyph-name="Euro" unicode="&#x20ac;" horiz-adv-x="750" 
d="M111 480q30 109 110.5 168.5t202.5 59.5q60 0 111.5 -17t91 -48t65 -75t33.5 -97h-145q-14 55 -55 88t-101 33q-118 0 -158 -112h184v-88h-208q-2 -11 -2 -20.5v-20.5v-21t2 -20h208v-89h-184q20 -56 60 -85.5t98 -29.5q61 0 101.5 31t55.5 88h145q-8 -54 -33 -97
t-64.5 -73t-91.5 -46.5t-113 -16.5q-122 0 -203 59t-110 170h-88v89h71v82h-71v88h88z" />
    <glyph glyph-name="uni2113" unicode="&#x2113;" horiz-adv-x="480" 
 />
    <glyph glyph-name="trademark" unicode="&#x2122;" horiz-adv-x="922" 
d="M371 625h-117v-344h-98v344h-118v75h333v-75zM884 281h-97v276h-2l-112 -276h-47l-112 276h-1v-276h-95v419h124l108 -272h1l106 272h127v-419z" />
    <glyph glyph-name="uni2126" unicode="&#x2126;" horiz-adv-x="723" 
 />
    <glyph glyph-name="estimated" unicode="&#x212e;" horiz-adv-x="570" 
 />
    <glyph glyph-name="partialdiff" unicode="&#x2202;" horiz-adv-x="536" 
 />
    <glyph glyph-name="uni2206" unicode="&#x2206;" horiz-adv-x="536" 
 />
    <glyph glyph-name="product" unicode="&#x220f;" horiz-adv-x="624" 
d="M532 700v-877h-124v779h-192v-779h-125v877h441z" />
    <glyph glyph-name="summation" unicode="&#x2211;" horiz-adv-x="624" 
 />
    <glyph glyph-name="minus" unicode="&#x2212;" horiz-adv-x="484" 
d="M443 261h-402v110h402v-110z" />
    <glyph glyph-name="radical" unicode="&#x221a;" horiz-adv-x="528" 
 />
    <glyph glyph-name="infinity" unicode="&#x221e;" horiz-adv-x="637" 
 />
    <glyph glyph-name="integral" unicode="&#x222b;" horiz-adv-x="357" 
 />
    <glyph glyph-name="approxequal" unicode="&#x2248;" horiz-adv-x="580" 
d="M199 408q-21 0 -36.5 -14.5t-16.5 -55.5h-105q0 87 34 132.5t108 45.5q31 0 55.5 -13t46.5 -28.5t44 -28.5t48 -13q23 0 39.5 20t17.5 61h105q0 -85 -37 -136.5t-109 -51.5q-31 0 -56.5 13t-48 28t-44 28t-45.5 13zM199 201q-21 0 -36.5 -19.5t-16.5 -60.5h-105
q0 88 34 137t108 49q31 0 55.5 -13t46.5 -28t44 -28t48 -13q23 0 39.5 15.5t17.5 56.5h105q0 -84 -37 -131t-109 -47q-31 0 -56.5 13t-48 28t-44 28t-45.5 13z" />
    <glyph glyph-name="notequal" unicode="&#x2260;" horiz-adv-x="527" 
 />
    <glyph glyph-name="lessequal" unicode="&#x2264;" horiz-adv-x="544" 
d="M49 439l450 208v-127l-293 -127v-1l293 -129v-124l-450 205v95zM499 0h-454v101h454v-101z" />
    <glyph glyph-name="greaterequal" unicode="&#x2265;" horiz-adv-x="544" 
d="M45 139v124l295 129v1l-295 127v127l450 -208v-95zM499 101v-101h-454v101h454z" />
    <glyph glyph-name="lozenge" unicode="&#x25ca;" horiz-adv-x="663" 
d="M332 813l285 -477l-285 -481l-286 481zM332 643l-183 -307l183 -310l182 310z" />
    <glyph glyph-name="uni25CC" unicode="&#x25cc;" horiz-adv-x="564" 
d="M282 458q-15 0 -25.5 11t-10.5 26q0 16 10.5 26.5t25.5 10.5t26 -10.5t11 -26.5q0 -15 -11 -26t-26 -11zM156 404q-16 0 -26.5 10.5t-10.5 26.5q0 15 10.5 26t26.5 11q15 0 25.5 -11t10.5 -26q0 -16 -10.5 -26.5t-25.5 -10.5zM409 404q-15 0 -25.5 10.5t-10.5 26.5
q0 15 10.5 26t25.5 11q14 0 25.5 -11t11.5 -26q0 -16 -11.5 -26.5t-25.5 -10.5zM460 352q15 0 26 -11.5t11 -25.5q0 -17 -11 -27.5t-26 -10.5q-16 0 -26.5 10.5t-10.5 27.5q0 14 10.5 25.5t26.5 11.5zM104 352q15 0 26 -11.5t11 -25.5q0 -17 -11 -27.5t-26 -10.5
q-16 0 -26.5 10.5t-10.5 27.5q0 14 10.5 25.5t26.5 11.5zM156 229q15 0 25.5 -11.5t10.5 -26.5q0 -14 -10.5 -24.5t-25.5 -10.5q-16 0 -26.5 10.5t-10.5 24.5q0 15 10.5 26.5t26.5 11.5zM409 229q14 0 25.5 -11.5t11.5 -26.5q0 -14 -11.5 -24.5t-25.5 -10.5
q-15 0 -25.5 10.5t-10.5 24.5q0 15 10.5 26.5t25.5 11.5zM282 172q15 0 26 -10.5t11 -26.5q0 -15 -11 -26t-26 -11t-25.5 11t-10.5 26q0 16 10.5 26.5t25.5 10.5z" />
    <glyph glyph-name="uniF700" unicode="&#xf700;" horiz-adv-x="602" 
d="M559 307q0 -62 -18.5 -117.5t-54 -97.5t-86.5 -67t-116 -25h-82l-87 224h-74v94h166l80 -209q36 3 61.5 20.5t42 45t24 62t7.5 70.5q0 71 -36.5 116t-104.5 45q-19 0 -38 -5t-35.5 -15t-29 -24.5t-18.5 -33.5h-135q6 45 28 78.5t55.5 57.5t78 37.5t95.5 17.5l307 30v-95
l-151 -11v-4q62 -24 91.5 -74.5t29.5 -119.5z" />
    <glyph glyph-name="uniF701" unicode="&#xf701;" 
d="M-222 651h-392v94h392v-94z" />
    <glyph glyph-name="uniF702" unicode="&#xf702;" 
d="M-222 816v-165h-392v94h267v71h125z" />
    <glyph glyph-name="uniF703" unicode="&#xf703;" 
d="M-307 823q53 0 75 -23.5t22 -62.5q0 -40 -21 -63t-73 -23h-310v94h211q0 23 8 37.5t21.5 23.5t30.5 12.5t36 4.5zM-307 707q14 0 23.5 8t9.5 22t-9.5 22t-23.5 8t-22.5 -8t-8.5 -22q0 -30 31 -30z" />
    <glyph glyph-name="uniF704" unicode="&#xf704;" 
d="M-216 816v-165h-398v94h150v71h97v-71h55v71h96z" />
    <glyph glyph-name="uniF705" unicode="&#xf705;" 
d="M-252 651h-125v191h125v-191z" />
    <glyph glyph-name="uniF706" unicode="&#xf706;" 
d="M-216 745v-94h-322v56q28 8 44 16.5t24 18t10.5 19t2.5 18.5q0 13 -12 21t-35 8q-16 0 -32 -4v69q18 7 37.5 10t39.5 3q23 0 44 -4.5t37.5 -14t26 -23.5t9.5 -33q0 -21 -9.5 -41t-27.5 -36q23 5 53 8t52 3h58z" />
    <glyph glyph-name="uniF707" unicode="&#xf707;" 
d="M-126 734v-83h-167v110q0 21 -5.5 29t-22.5 8q-18 0 -25.5 -10.5t-10.5 -27.5h-56q-5 22 -13.5 31t-22.5 9t-21.5 -8.5t-7.5 -30.5q0 -23 17.5 -30.5t47.5 -7.5v-68q-29 -4 -55 -1q-25 0 -47 6t-38 18t-25.5 32t-9.5 49v6q0 23 5.5 45t18.5 39t32.5 27t48.5 10
q36 0 59.5 -11t37.5 -37q14 26 38 37t59 11q58 0 80.5 -32t22.5 -82v-38h60z" />
    <glyph glyph-name="uniF708" unicode="&#xf708;" 
d="M-195 715h-78v-60h-108v60h-76v78h76v61h108v-61h78v-78z" />
    <glyph glyph-name="uniF709" unicode="&#xf709;" 
d="M-55 868v-96q-28 -2 -53 -4q-22 -2 -44 -3t-35 -2q-29 -3 -45 -7t-24 -11t-10 -17.5t-1 -24.5h-119q-2 27 -0.5 52t15.5 44.5t44 33t85 18.5z" />
    <glyph glyph-name="uniF70A" unicode="&#xf70a;" 
d="M-52 651h-123v191h123v-191z" />
    <glyph glyph-name="uniF70B" unicode="&#xf70b;" 
d="M-10 745v-94h-352v56q27 8 43.5 16.5t24.5 18t10.5 19t2.5 18.5q0 13 -12 21t-35 8q-16 0 -32 -4v69q18 7 37.5 10t39.5 3q22 0 43 -4.5t37 -14t25.5 -23.5t9.5 -33q0 -21 -9 -41t-26 -36q23 5 52.5 8t50.5 3h90z" />
    <glyph glyph-name="uniF70C" unicode="&#xf70c;" 
d="M-29 725v-74h-167v110q0 21 -5.5 29t-22.5 8q-18 0 -26 -10.5t-11 -27.5h-56q-5 22 -13 31t-22 9t-21.5 -8.5t-7.5 -30.5q0 -23 17.5 -30.5t46.5 -7.5v-68q-14 -2 -28 -2.5t-26 1.5q-25 0 -47 6t-38 18t-25.5 32t-9.5 49v6q0 23 5.5 45t18 39t32.5 27t49 10
q36 0 59.5 -11t37.5 -37q14 26 38 37t59 11q29 0 48.5 -8.5t31.5 -23.5t17.5 -36t5.5 -46v-47h60z" />
    <glyph glyph-name="uniF70D" unicode="&#xf70d;" 
d="M-8 711h-78v-60h-112v60h-78v78h78v61h112v-61h78v-78z" />
    <glyph glyph-name="uniF70E" unicode="&#xf70e;" 
d="M-12 806v-95q-28 -2 -53 -4q-21 -2 -43 -3t-35 -3q-29 -2 -46 -6.5t-25 -11.5t-10 -17t-1 -25h-119q-2 28 0 52.5t16 44.5t44.5 33.5t85.5 18.5z" />
    <glyph glyph-name="uniF70F" unicode="&#xf70f;" horiz-adv-x="965" 
d="M573 235q0 -31 3 -55.5t14 -41.5t31.5 -25.5t55.5 -8.5q37 0 58 11t31 32t12 52t2 71v307h141v-363q0 -116 -58 -169t-186 -53q-67 0 -113.5 13t-75.5 40t-42 69t-13 100v120q0 65 -30.5 99.5t-99.5 34.5q-61 0 -94.5 -21t-46.5 -70h118v-48q-42 -19 -65.5 -54.5
t-23.5 -84.5q0 -26 5.5 -42t15.5 -25.5t24 -14t31 -6.5q13 -2 25.5 -1t29.5 3v-100q-58 -12 -102 -11q-36 1 -67 11t-54 30t-36 51.5t-13 74.5q0 60 31 102.5t73 59.5h-119q0 128 64 193.5t207 65.5q137 0 202 -60.5t65 -172.5v-113z" />
    <glyph glyph-name="uniF710" unicode="&#xf710;" 
d="M-205 745v-94h-189q-60 0 -95 12.5t-53 33t-21.5 48t-0.5 57.5h119q-2 -35 13 -46t62 -11h165z" />
    <glyph glyph-name="uniF711" unicode="&#xf711;" 
d="M-317 820q57 0 88 -24.5t31 -72.5q0 -45 -31 -70t-88 -25t-88.5 24.5t-31.5 70.5q0 48 31.5 72.5t88.5 24.5zM-317 686q18 0 29 10t11 27q0 20 -11 30t-29 10t-29 -10t-11 -30q0 -17 11 -27t29 -10z" />
    <glyph glyph-name="uniF712" unicode="&#xf712;" 
d="M-415 820q-20 0 -34.5 -8.5t-14.5 -35.5q0 -29 14.5 -37.5t31.5 -8.5q18 0 32 13.5t19 39.5h42l112 -56v-88h-12l-108 58q-15 -28 -46 -41t-69 -13q-54 0 -89.5 31.5t-35.5 99.5t44 102.5t128 34.5h218v-91h-232z" />
    <glyph glyph-name="uniF713" unicode="&#xf713;" 
d="M-225 861h-117v177h117v-177z" />
    <glyph glyph-name="uniF714" unicode="&#xf714;" 
d="M-64 947v-86h-324v53q25 6 40 14t23.5 17t11 18t2.5 17q0 11 -12 18.5t-34 7.5q-13 0 -29 -3v61q17 7 35.5 10t36.5 3q21 0 39.5 -4.5t33 -13t23 -21.5t8.5 -31q0 -19 -8.5 -37.5t-25.5 -32.5q21 5 48.5 7.5t48.5 2.5h83z" />
    <glyph glyph-name="uniF715" unicode="&#xf715;" 
d="M-82 928v-67h-151v89q0 12 -5.5 22t-19.5 10q-18 0 -25 -7.5t-9 -24.5h-55q-4 20 -12 27t-20 7q-16 0 -21 -7.5t-5 -24.5q0 -18 15.5 -22.5t42.5 -4.5v-63q-13 -1 -26.5 -2.5t-26.5 0.5q-44 1 -74 21.5t-30 73.5v7q0 43 21.5 72t74.5 29q32 0 53.5 -10t33.5 -35
q14 25 36 35t53 10q53 0 74.5 -29.5t21.5 -74.5v-31h54z" />
    <glyph glyph-name="uniF716" unicode="&#xf716;" 
d="M-161 917h-72v-56h-100v56h-74v67h74v56h100v-56h72v-67z" />
    <glyph glyph-name="uniF717" unicode="&#xf717;" 
d="M-61 883q-50 -5 -91.5 -9t-72.5 -12q-17 -4 -22.5 -15.5t-3.5 -30.5h-116q-2 27 0.5 49.5t14 39.5t35.5 28.5t66 16.5l190 22v-89z" />
    <glyph glyph-name="uniF718" unicode="&#xf718;" 
d="M-48 -418h-123v85h-83v87h206v-172z" />
    <glyph glyph-name="uniF719" unicode="&#xf719;" 
d="M-48 -246v-72q0 -38 -15.5 -61.5t-39.5 -36.5t-52 -17t-52 -4q-25 0 -51 4.5t-47.5 16t-36.5 31.5t-18 52h-56v87h164v-54q0 -28 10 -41.5t35 -13.5q26 0 35.5 14.5t9.5 49.5v45h114z" />
    <glyph glyph-name="uniF71A" unicode="&#xf71a;" 
d="M-205 -329q0 35 24 59t58 24t58 -24t24 -59q0 -34 -24 -58.5t-58 -24.5t-58 24.5t-24 58.5z" />
    <glyph glyph-name="uniF71C" unicode="&#xf71c;" horiz-adv-x="637" 
d="M318 581q137 0 206.5 -60.5t69.5 -172.5v-370q0 -78 -40.5 -126t-120.5 -48q-22 0 -45 4.5t-43 13.5t-36.5 22t-24.5 30l-201 -76h-16v101l207 75h47q9 -29 30 -44.5t39 -15.5q22 0 42.5 13.5t20.5 46.5v360q0 65 -34.5 99.5t-103.5 34.5q-60 0 -98 -21t-52 -70h126v-47
q-30 -12 -46 -41.5t-16 -71.5v-59q0 -34 -6 -64t-21 -52.5t-40.5 -35.5t-64.5 -13q-40 0 -89 10v98q17 -2 27 -2.5t18 1.5q24 6 32.5 22.5t8.5 48.5q0 24 1.5 46t8.5 41.5t21 35.5t39 28h-124q0 128 67.5 193.5t210.5 65.5z" />
    <glyph glyph-name="uniF71D" unicode="&#xf71d;" horiz-adv-x="763" 
d="M783 665q-12 -66 -42.5 -98.5t-80.5 -46.5q39 -17 55.5 -51.5t0.5 -95.5l-84 -373h-124l-122 396l-121 -396h-124l-130 577h142l68 -383l113 370h104l115 -370l39 188q11 54 -0.5 81t-64.5 28v73q57 0 88.5 21t40.5 80h127z" />
    <glyph glyph-name="uni0E4E.alt1" 
d="M-348 0v675h681v-675h-681zM306 22q6 0 6 7v619q0 6 -6 6h-627q-6 0 -6 -6v-619q0 -7 6 -7h627z" />
    <glyph glyph-name="franc" unicode="&#x20a3;" horiz-adv-x="528" 
 />
    <glyph glyph-name="dong" unicode="&#x20ab;" horiz-adv-x="569" 
 />
    <glyph glyph-name="Abreve" unicode="&#x102;" horiz-adv-x="667" 
d="M490 918q0 -33 -11.5 -61t-32 -48.5t-49.5 -32t-64 -11.5t-63.5 11.5t-49 32t-32 48.5t-11.5 61h95q0 -28 16 -44.5t45 -16.5q30 0 45.5 16.5t15.5 44.5h96zM517 0l-49 154h-267l-51 -154h-153l246 700h181l246 -700h-153zM438 258l-102 312h-4l-103 -312h209z" />
    <glyph glyph-name="abreve" unicode="&#x103;" horiz-adv-x="554" 
d="M446 733q0 -33 -11.5 -61t-32 -48t-49.5 -31.5t-64 -11.5t-63.5 11.5t-49 31.5t-31.5 48t-11 61h94q0 -27 16 -43.5t45 -16.5q30 0 46 16.5t16 43.5h95zM285 521q53 0 95 -13t71.5 -36.5t45 -56.5t15.5 -74v-341h-134v86h-3q-10 -23 -29 -40.5t-42.5 -29.5t-50.5 -18
t-54 -6q-36 0 -67.5 11t-55 31t-36.5 48.5t-13 62.5q0 73 53 113t153 46l138 8v22q0 42 -24 65t-69 23q-40 0 -66.5 -17t-32.5 -49h-127q9 75 70 120t163 45zM371 235l-116 -8q-90 -8 -90 -73q0 -32 24 -50t59 -18q25 0 47 9.5t39 25.5t27 37t10 43v34z" />
    <glyph glyph-name="Cacute" unicode="&#x106;" horiz-adv-x="688" 
d="M288 768l106 197h146l-129 -197h-123zM362 106q60 0 101 31t56 88h144q-7 -54 -32.5 -97t-65 -73t-91 -46.5t-112.5 -16.5q-77 0 -138.5 24t-104 70t-65.5 113t-23 152t23 151.5t65.5 112t104 69.5t138.5 24q59 0 110.5 -17t91 -48t65 -75t33.5 -97h-143q-15 55 -56 88
t-101 33q-87 0 -136 -63t-49 -178q0 -117 49 -181t136 -64z" />
    <glyph glyph-name="cacute" unicode="&#x107;" horiz-adv-x="549" 
d="M224 591l108 196h146l-131 -196h-123zM291 97q38 0 66 19t36 55h131q-11 -87 -73 -133t-163 -46q-121 0 -189 67.5t-68 195.5q0 129 69 197.5t187 68.5q100 0 163 -48t74 -135h-130q-10 38 -37.5 57.5t-65.5 19.5q-54 0 -87 -42t-33 -118q0 -74 33 -116t87 -42z" />
    <glyph glyph-name="Ccaron" unicode="&#x10c;" horiz-adv-x="688" 
d="M317 753l-144 219h116l73 -116h2l73 116h117l-143 -219h-94zM362 106q60 0 101 31t56 88h144q-7 -54 -32.5 -97t-65 -73t-91 -46.5t-112.5 -16.5q-77 0 -138.5 24t-104 70t-65.5 113t-23 152t23 151.5t65.5 112t104 69.5t138.5 24q59 0 110.5 -17t91 -48t65 -75t33.5 -97
h-143q-15 55 -56 88t-101 33q-87 0 -136 -63t-49 -178q0 -117 49 -181t136 -64z" />
    <glyph glyph-name="ccaron" unicode="&#x10d;" horiz-adv-x="549" 
d="M242 572l-142 219h114l73 -117h4l72 117h117l-144 -219h-94zM291 97q38 0 66 19t36 55h131q-11 -87 -73 -133t-163 -46q-121 0 -189 67.5t-68 195.5q0 129 69 197.5t187 68.5q100 0 163 -48t74 -135h-130q-10 38 -37.5 57.5t-65.5 19.5q-54 0 -87 -42t-33 -118
q0 -74 33 -116t87 -42z" />
    <glyph glyph-name="Dcroat" unicode="&#x110;" horiz-adv-x="744" 
d="M18 396h94v304h252q80 0 144.5 -23t109.5 -67t69.5 -108.5t24.5 -148.5t-24.5 -150t-70 -111t-110 -68.5t-144.5 -23.5h-251v307h-94v89zM345 109q102 0 158 62.5t56 180.5q0 113 -56 175t-156 62h-90v-193h163v-89h-163v-198h88z" />
    <glyph glyph-name="dcroat" unicode="&#x111;" horiz-adv-x="589" 
d="M232 521q63 0 105 -24t68 -70h2v146h-254v71h254v72h140v-72h67v-71h-67v-573h-135v83h-3q-21 -41 -68 -66t-110 -25q-42 0 -79 17.5t-65.5 51t-45 82.5t-16.5 112t15.5 112.5t43.5 83.5t65.5 52t82.5 18zM287 100q55 0 88.5 41t33.5 114t-33.5 115t-88.5 42
q-57 0 -91 -41.5t-34 -115.5q0 -73 34 -114t91 -41z" />
    <glyph glyph-name="Gbreve" unicode="&#x11e;" horiz-adv-x="701" 
d="M520 918q0 -33 -11.5 -61t-32 -48.5t-49 -32t-63.5 -11.5q-34 0 -63 11.5t-49 32t-31.5 48.5t-11.5 61h93q0 -28 16.5 -44.5t45.5 -16.5t45.5 16t16.5 45h94zM667 293q0 -55 -14.5 -108.5t-50 -96.5t-94 -69.5t-146.5 -26.5q-77 0 -138.5 24t-104 70t-65.5 113t-23 152
t23.5 151.5t67 112t105 69.5t137.5 24q60 0 112.5 -17t93 -48t67 -75t33.5 -97h-143q-14 55 -58 88t-105 33q-86 0 -136.5 -63t-50.5 -178q0 -117 49 -181t136 -64q47 0 77.5 14.5t49 38t26.5 53.5t9 61h-146v105h289v-85z" />
    <glyph glyph-name="gbreve" unicode="&#x11f;" horiz-adv-x="589" 
d="M448 733q0 -33 -11.5 -61t-32.5 -48t-49.5 -31.5t-63.5 -11.5t-63.5 11.5t-49 31.5t-32 48t-11.5 61h94q0 -27 16.5 -43.5t45.5 -16.5t45 16t16 44h96zM547 514v-492q0 -51 -19.5 -89.5t-53 -64t-79.5 -38.5t-100 -13q-49 0 -90.5 9t-74 28.5t-54.5 50t-32 72.5h131
q14 -33 44.5 -45.5t68.5 -12.5q27 0 49 5.5t37.5 19t24.5 35.5t9 54v75h-1q-27 -51 -68.5 -72t-102.5 -21q-44 0 -82.5 17.5t-67 50t-45 79t-16.5 104.5q0 61 17 108.5t46 80t67 49.5t80 17q63 0 107 -23.5t69 -67.5h2v84h134zM287 123q55 0 89.5 39t34.5 105
q0 65 -33.5 105.5t-90.5 40.5q-56 0 -89.5 -39.5t-33.5 -107.5q0 -65 33.5 -104t89.5 -39z" />
    <glyph glyph-name="Idotaccent" unicode="&#x130;" horiz-adv-x="247" 
d="M123 909q37 0 58 -21.5t21 -52.5q0 -32 -21 -53.5t-58 -21.5q-38 0 -58.5 21.5t-20.5 53.5q0 31 20.5 52.5t58.5 21.5zM52 700h143v-700h-143v700z" />
    <glyph glyph-name="Scedilla" unicode="&#x15e;" horiz-adv-x="618" 
d="M375 401q112 -21 164 -66t52 -126q0 -50 -20 -90.5t-56.5 -68.5t-89 -43t-118.5 -15q-62 0 -113 15t-87.5 43t-57 68t-22.5 89h138q8 -46 45 -74.5t100 -28.5q62 0 97 24.5t35 67.5q0 36 -28.5 57t-98.5 35l-72 14q-208 42 -208 195q0 48 20.5 87t56.5 66.5t84.5 42.5
t105.5 15q65 0 115 -16.5t84.5 -46t53 -70t19.5 -88.5h-139q-3 48 -36.5 78t-94.5 30q-57 0 -90.5 -24.5t-33.5 -64.5q0 -36 28.5 -56.5t94.5 -33.5zM280 -86h146l-131 -196h-122z" />
    <glyph glyph-name="scedilla" unicode="&#x15f;" horiz-adv-x="509" 
d="M302 300q91 -18 135.5 -49.5t44.5 -92.5q0 -76 -58 -121t-166 -45q-42 0 -81 8.5t-70.5 27.5t-52.5 50t-27 75h134q6 -30 32.5 -48t64.5 -18q37 0 60 15t23 43q0 18 -15 31.5t-60 22.5l-78 15q-75 16 -114 52t-39 93q0 40 18 70t48 50t69 30t81 10q41 0 78 -9t66 -29
t48 -51t24 -75h-127q-5 32 -29 50t-60 18q-33 0 -56.5 -15.5t-23.5 -41.5q0 -12 7 -21t22.5 -16.5t40.5 -14t61 -14.5zM116 -282l106 196h146l-131 -196h-121z" />
    <glyph glyph-name="Ohorn" unicode="&#x1a0;" horiz-adv-x="723" 
 />
    <glyph glyph-name="ohorn" unicode="&#x1a1;" horiz-adv-x="568" 
 />
    <glyph glyph-name="Uhorn" unicode="&#x1af;" horiz-adv-x="719" 
 />
    <glyph glyph-name="uhorn" unicode="&#x1b0;" horiz-adv-x="622" 
 />
    <glyph glyph-name="hookabovecomb" unicode="&#x309;" 
 />
    <glyph glyph-name="tildecomb" unicode="&#x303;" 
d="M-353 667q-21 0 -30.5 -16.5t-9.5 -55.5h-104q0 85 28 127t99 42q26 0 47.5 -11t40.5 -24.5t38 -25t41 -11.5q23 0 34 18t12 57h102q0 -84 -30.5 -128t-100.5 -44q-27 0 -49 11.5t-41.5 25t-38 24.5t-38.5 11z" />
    <glyph glyph-name="acutecomb" unicode="&#x301;" 
d="M-340 591l108 196h146l-131 -196h-123z" />
    <glyph glyph-name="dotbelowcomb" unicode="&#x323;" 
d="M-272 -76q36 0 58 -21.5t22 -53.5q0 -31 -22 -52.5t-58 -21.5q-38 0 -59 21.5t-21 52.5q0 32 21 53.5t59 21.5z" />
    <glyph glyph-name="gravecomb" unicode="&#x300;" 
d="M-143 591h-123l-130 196h146z" />
    <glyph glyph-name="oneeighth" unicode="&#x215b;" horiz-adv-x="765" 
 />
    <glyph glyph-name="threeeighths" unicode="&#x215c;" horiz-adv-x="765" 
 />
    <glyph glyph-name="fiveeighths" unicode="&#x215d;" horiz-adv-x="764" 
 />
    <glyph glyph-name="seveneighths" unicode="&#x215e;" horiz-adv-x="761" 
 />
    <glyph glyph-name="uniF71B" unicode="&#xf71b;" horiz-adv-x="637" 
d="M318 581q137 0 206.5 -60.5t69.5 -172.5v-544h-111q-53 35 -95 50.5t-76 15.5q-44 0 -68.5 -19.5t-32.5 -46.5h-129q4 48 23.5 80t49.5 50t66.5 24.5t75.5 3.5q39 -5 79.5 -16.5t76.5 -32.5v421q0 65 -34.5 99.5t-103.5 34.5q-60 0 -98 -21t-52 -70h126v-47
q-32 -14 -46 -47.5t-16 -75.5l-2 -58q-1 -29 -6 -57t-18.5 -49.5t-38 -35t-63.5 -14.5q-22 0 -44 2.5t-49 7.5v98q17 -2 27 -2.5t18 1.5q24 6 32.5 22.5t8.5 48.5q0 24 1.5 46.5t8.5 42t21 35t39 27.5h-124q0 128 67.5 193.5t210.5 65.5z" />
    <glyph glyph-name="onethird" unicode="&#x2153;" horiz-adv-x="765" 
 />
    <glyph glyph-name="twothirds" unicode="&#x2154;" horiz-adv-x="832" 
 />
    <glyph glyph-name="uni2155" unicode="&#x2155;" horiz-adv-x="731" 
 />
    <glyph glyph-name="uni2156" unicode="&#x2156;" horiz-adv-x="776" 
 />
    <glyph glyph-name="uni2157" unicode="&#x2157;" horiz-adv-x="793" 
 />
    <glyph glyph-name="uni2158" unicode="&#x2158;" horiz-adv-x="770" 
 />
    <glyph glyph-name="uni2159" unicode="&#x2159;" horiz-adv-x="710" 
 />
    <glyph glyph-name="uni215A" unicode="&#x215a;" horiz-adv-x="759" 
 />
    <glyph glyph-name="Fontcraft" horiz-adv-x="693" 
d="M347 667q60 0 113 -22.5t92.5 -62t63 -93t23.5 -114.5q0 -60 -23 -113t-62.5 -92.5t-92.5 -63t-114 -23.5q-60 0 -113.5 23t-93 62.5t-62.5 92.5t-23 114q0 60 23 113.5t62.5 93t93 62.5t113.5 23zM347 136q48 0 91.5 19t76 51t51.5 76t19 93q0 37 -10.5 69.5t-28.5 61.5
l-38 -166q-3 -16 -12.5 -32t-24 -28.5t-32.5 -20t-38 -7.5t-35 7.5t-26 20.5q-16 -13 -33.5 -20.5t-37.5 -7.5q-39 0 -60.5 25t-21.5 56q0 2 0.5 5t1.5 10t3.5 19t6.5 31q-10 -3 -20 7.5t-10 21.5t8.5 20t36.5 9q8 0 16.5 -1.5t15.5 -5.5t10.5 -11t1.5 -18l-15 -80
q-3 -13 3 -23t23 -10q20 0 34.5 14t19.5 31l17 79q2 11 9 16.5t17 5.5q12 0 19 -8.5t7 -17.5q0 -1 -0.5 -3.5t-2 -10.5t-5 -25t-10.5 -48q-2 -13 5 -23t22 -10q17 0 34.5 14t21.5 31l47 203q-32 27 -72.5 42.5t-84.5 15.5q-50 0 -93.5 -18.5t-76 -50.5t-51 -75.5
t-18.5 -93.5q0 -49 18.5 -93t51 -76t76 -51t93.5 -19zM624 30q8 0 8 -7q0 -8 -8 -8h-14l-7 -31q-1 -4 -1 -9q0 -2 0.5 -4t3.5 -2q2 0 3.5 0.5t4.5 0.5q7 0 7 -7q0 -4 -4.5 -6.5t-9.5 -2.5q-7 0 -13.5 6.5t-6.5 17.5q0 6 1 10l7 27h-22l-12 -53q-2 -14 -11 -23t-25 -9
q-3 0 -4.5 3t-1.5 6q0 6 4 6.5t8.5 1.5t9 4t5.5 14l11 50h-11q-7 0 -7 8q0 7 7 7h13l2 12q0 3 2 7.5t6 9.5t11 8.5t18 3.5q5 0 5 -7q0 -5 -3 -6t-7.5 -2t-9 -4t-6.5 -12l-3 -10h24l2 11q0 5 6 5q3 0 6 -1.5t3 -4.5q0 -2 -0.5 -3t-0.5 -7h10zM132 23q0 -8 -8 -8h-11l-12 -53
q-6 -32 -34 -32q-5 0 -7.5 3t-2.5 6q0 6 4 7t9 2t10 4t6 13l10 50h-9q-9 0 -9 8q0 7 9 7h11l3 12q6 29 35 29q10 0 10 -7t-4 -7.5t-9 -0.5t-10 -2.5t-7 -13.5l-1 -10h9q8 0 8 -7zM327 30q7 0 7 -7q0 -8 -7 -8h-15l-6 -31v-9q0 -6 2 -6t4 0.5t3 0.5q10 0 10 -5t-5.5 -8
t-9.5 -3q-11 0 -16 7t-5 17q0 2 1 4.5t1 5.5l5 27h-7q-8 0 -8 8q0 7 8 7h11l6 27q0 2 2 4t4 2q10 0 10 -8l-5 -25h10zM521 -31q-13 -13 -33 -13q-10 0 -18.5 7t-6.5 21q2 13 14 16.5t22 4.5h15v1l2 3q0 10 -12 10q-4 0 -11.5 -2t-12.5 -2t-5 4q0 8 11.5 11.5t19.5 3.5
q17 0 21 -8.5t4 -13.5q0 -2 -1 -4l-2 -4zM203 3q0 -20 -12.5 -34.5t-32.5 -14.5q-17 0 -23.5 9.5t-6.5 20.5q0 14 4.5 23.5t11.5 14.5t14.5 7t13.5 2q31 0 31 -28zM272 19q2 -6 2 -11q0 -1 -0.5 -2t-0.5 -3l-8 -41q-4 -8 -8 -8t-6.5 3t-2.5 5q0 1 2 3l8 42q0 7 -2 8t-4 3
q-2 0 -9.5 -2.5t-14.5 -10.5l-11 -43q0 -8 -7 -8q-3 0 -5 3t-2 5v3l13 61q1 5 8 5q8 0 8 -5q8 5 18 5q4 0 12 -1.5t10 -10.5zM415 15q0 -10 -7 -10q-6 0 -8.5 6.5t-13.5 6.5q-9 0 -17.5 -9t-8.5 -25q0 -15 14 -15q7 0 11 3t8 3q8 0 8 -9q0 -5 -10 -8.5t-17 -3.5
q-17 0 -23.5 9.5t-6.5 20.5q0 26 13.5 36.5t28.5 10.5q13 0 18.5 -4t8.5 -9zM465 25q0 -7 -8 -7q-14 0 -19 -17l-10 -41q0 -2 -1.5 -4t-3.5 -2q-4 0 -7 3t-3 5v3l10 38q3 17 12.5 22.5t21.5 5.5q8 0 8 -6zM187 -4q2 7 -1 14.5t-14 7.5q-14 0 -20.5 -11.5t-6.5 -25.5
q0 -2 2 -7t11 -5q13 0 19.5 7.5t9.5 19.5zM510 -10q-17 0 -24 -2t-8 -10q0 -5 5 -7t10 -2q9 0 13 2z" />
    </font>
</defs>
</svg>
