<?xml version="1.0" standalone="no"?>
<!DOCTYPE svg PUBLIC "-//W3C//DTD SVG 1.1//EN" "http://www.w3.org/Graphics/SVG/1.1/DTD/svg11.dtd" >
<svg xmlns="http://www.w3.org/2000/svg" xmlns:xlink="http://www.w3.org/1999/xlink" version="1.1">
<metadata>
Created by FontForge 20170812 at Thu Feb 17 10:05:45 2022
 By www-data
Copyright (c) 2020 by Fontcraft: Jutipong Poosumas. All rights reserved.
</metadata>
<defs>
<font id="FCIconic-Regular" horiz-adv-x="0" >
  <font-face 
    font-family="FC Iconic Regular"
    font-weight="400"
    font-stretch="normal"
    units-per-em="1000"
    panose-1="2 11 5 0 4 2 0 2 0 3"
    ascent="800"
    descent="-200"
    x-height="510"
    cap-height="700"
    bbox="-592 -419 1019 1053"
    underline-thickness="50"
    underline-position="-176"
    unicode-range="U+0020-FB02"
  />
<missing-glyph horiz-adv-x="817" 
d="M68 0v675h681v-675h-681zM722 22q7 0 7 7v619q0 6 -7 6h-626q-7 0 -7 -6v-619q0 -7 7 -7h626z" />
    <glyph glyph-name="Agrave" unicode="A&#x300;" horiz-adv-x="640" 
d="M408 772h-89l-124 189h108zM529 0l-60 172h-300l-60 -172h-108l257 700h124l257 -700h-110zM446 248l-125 354h-3l-126 -354h254z" />
    <glyph glyph-name="Aacute" unicode="A&#x301;" horiz-adv-x="640" 
d="M259 772l105 189h109l-124 -189h-90zM529 0l-60 172h-300l-60 -172h-108l257 700h124l257 -700h-110zM446 248l-125 354h-3l-126 -354h254z" />
    <glyph glyph-name="Atilde" unicode="A&#x303;" horiz-adv-x="640" 
d="M233 858q-24 0 -40.5 -20.5t-16.5 -62.5h-76q0 76 31 116t91 40q30 0 54 -14t46 -30.5t43 -30.5t46 -14q26 0 44 23t20 64h75q0 -74 -35 -115.5t-93 -41.5q-31 0 -55.5 13.5t-46 29.5t-42.5 29.5t-45 13.5zM529 0l-60 172h-300l-60 -172h-108l257 700h124l257 -700h-110z
M446 248l-125 354h-3l-126 -354h254z" />
    <glyph glyph-name="Egrave" unicode="E&#x300;" horiz-adv-x="564" 
d="M378 772h-89l-124 189h108zM154 619v-230h313v-79h-313v-231h365v-79h-467v700h467v-81h-365z" />
    <glyph glyph-name="Eacute" unicode="E&#x301;" horiz-adv-x="564" 
d="M239 772l105 189h109l-124 -189h-90zM154 619v-230h313v-79h-313v-231h365v-79h-467v700h467v-81h-365z" />
    <glyph glyph-name="Igrave" unicode="I&#x300;" horiz-adv-x="218" 
d="M160 772h-89l-124 189h108zM59 700h101v-700h-101v700z" />
    <glyph glyph-name="Iacute" unicode="I&#x301;" horiz-adv-x="218" 
d="M59 772l105 189h109l-124 -189h-90zM59 700h101v-700h-101v700z" />
    <glyph glyph-name="Ograve" unicode="O&#x300;" horiz-adv-x="711" 
d="M439 772h-90l-124 189h109zM356 708q75 0 135 -25t102 -71.5t64.5 -112.5t22.5 -148q0 -84 -22.5 -150.5t-64.5 -113t-102 -71t-135 -24.5q-76 0 -136 24.5t-102 71t-64.5 113t-22.5 150.5q0 82 22.5 148t64.5 112.5t102 71.5t136 25zM356 76q102 0 160 73t58 202
q0 128 -58 199t-160 71q-104 0 -162 -71t-58 -199q0 -129 58 -202t162 -73z" />
    <glyph glyph-name="Oacute" unicode="O&#x301;" horiz-adv-x="711" 
d="M287 772l106 189h108l-124 -189h-90zM356 708q75 0 135 -25t102 -71.5t64.5 -112.5t22.5 -148q0 -84 -22.5 -150.5t-64.5 -113t-102 -71t-135 -24.5q-76 0 -136 24.5t-102 71t-64.5 113t-22.5 150.5q0 82 22.5 148t64.5 112.5t102 71.5t136 25zM356 76q102 0 160 73
t58 202q0 128 -58 199t-160 71q-104 0 -162 -71t-58 -199q0 -129 58 -202t162 -73z" />
    <glyph glyph-name="Otilde" unicode="O&#x303;" horiz-adv-x="711" 
d="M272 858q-25 0 -41.5 -20.5t-17.5 -62.5h-75q0 76 31 116t92 40q30 0 53.5 -14t45 -30.5t43 -30.5t46.5 -14q26 0 44.5 23t19.5 64h74q0 -74 -34.5 -115.5t-94.5 -41.5q-30 0 -54 13.5t-45.5 29.5t-42.5 29.5t-44 13.5zM356 708q75 0 135 -25t102 -71.5t64.5 -112.5
t22.5 -148q0 -84 -22.5 -150.5t-64.5 -113t-102 -71t-135 -24.5q-76 0 -136 24.5t-102 71t-64.5 113t-22.5 150.5q0 82 22.5 148t64.5 112.5t102 71.5t136 25zM356 76q102 0 160 73t58 202q0 128 -58 199t-160 71q-104 0 -162 -71t-58 -199q0 -129 58 -202t162 -73z" />
    <glyph glyph-name="Ugrave" unicode="U&#x300;" horiz-adv-x="659" 
d="M207 961h110l105 -189h-90zM153 257q0 -84 46 -131.5t130 -47.5q85 0 131 47t46 132v443h101v-453q0 -58 -19.5 -105.5t-55.5 -80.5t-87.5 -51t-115.5 -18q-63 0 -114.5 18t-87.5 51t-55.5 80.5t-19.5 105.5v453h101v-443z" />
    <glyph glyph-name="Uacute" unicode="U&#x301;" horiz-adv-x="659" 
d="M482 961l-125 -189h-88l105 189h108zM153 257q0 -84 46 -131.5t130 -47.5q85 0 131 47t46 132v443h101v-453q0 -58 -19.5 -105.5t-55.5 -80.5t-87.5 -51t-115.5 -18q-63 0 -114.5 18t-87.5 51t-55.5 80.5t-19.5 105.5v453h101v-443z" />
    <glyph glyph-name="Yacute" unicode="Y&#x301;" horiz-adv-x="613" 
d="M370 961h108l-125 -189h-88zM357 315v-315h-102v318l-250 382h121l180 -288h1l180 288h120z" />
    <glyph glyph-name="agrave" unicode="a&#x300;" horiz-adv-x="528" 
d="M377 595h-89l-124 188h108zM273 517q97 0 152 -48.5t55 -128.5v-340h-95v96h-2q-10 -25 -29 -44.5t-43.5 -32.5t-52.5 -20t-57 -7q-37 0 -68 11t-53 30.5t-34 47.5t-12 61q0 70 49 108.5t146 45.5l152 10v28q0 52 -30 81.5t-82 29.5q-51 0 -83 -23.5t-40 -65.5h-90
q8 73 65 117t152 44zM381 247l-138 -11q-54 -4 -83 -27t-29 -62q0 -38 28 -62t73 -24q30 0 57 11.5t47.5 31t32.5 44.5t12 53v46z" />
    <glyph glyph-name="aacute" unicode="a&#x301;" horiz-adv-x="528" 
d="M232 595l105 188h109l-124 -188h-90zM273 517q97 0 152 -48.5t55 -128.5v-340h-95v96h-2q-10 -25 -29 -44.5t-43.5 -32.5t-52.5 -20t-57 -7q-37 0 -68 11t-53 30.5t-34 47.5t-12 61q0 70 49 108.5t146 45.5l152 10v28q0 52 -30 81.5t-82 29.5q-51 0 -83 -23.5t-40 -65.5
h-90q8 73 65 117t152 44zM381 247l-138 -11q-54 -4 -83 -27t-29 -62q0 -38 28 -62t73 -24q30 0 57 11.5t47.5 31t32.5 44.5t12 53v46z" />
    <glyph glyph-name="atilde" unicode="a&#x303;" horiz-adv-x="528" 
d="M195 675q-25 0 -35.5 -17t-10.5 -59h-77q0 76 26.5 113t87.5 37q25 0 46.5 -12t41.5 -26t39 -26t38 -12q49 0 53 80h74q0 -74 -29 -114t-87 -40q-27 0 -49.5 12t-42.5 26t-38.5 26t-36.5 12zM273 517q97 0 152 -48.5t55 -128.5v-340h-95v96h-2q-10 -25 -29 -44.5
t-43.5 -32.5t-52.5 -20t-57 -7q-37 0 -68 11t-53 30.5t-34 47.5t-12 61q0 70 49 108.5t146 45.5l152 10v28q0 52 -30 81.5t-82 29.5q-51 0 -83 -23.5t-40 -65.5h-90q8 73 65 117t152 44zM381 247l-138 -11q-54 -4 -83 -27t-29 -62q0 -38 28 -62t73 -24q30 0 57 11.5t47.5 31
t32.5 44.5t12 53v46z" />
    <glyph glyph-name="egrave" unicode="e&#x300;" horiz-adv-x="549" 
d="M292 595l-124 188h108l106 -188h-90zM135 235q1 -79 41 -123.5t106 -44.5q54 0 86 24t45 69h93q-17 -83 -73 -125.5t-152 -42.5q-114 0 -178.5 67.5t-64.5 195.5q0 61 17 109.5t48.5 82.5t75.5 52t99 18t98 -18t73 -51t45.5 -80t15.5 -105v-28h-375zM278 442
q-60 0 -98.5 -40.5t-43.5 -106.5h282q-2 65 -40.5 106t-99.5 41z" />
    <glyph glyph-name="eacute" unicode="e&#x301;" horiz-adv-x="549" 
d="M330 783h109l-124 -188h-90zM135 235q1 -79 41 -123.5t106 -44.5q54 0 86 24t45 69h93q-17 -83 -73 -125.5t-152 -42.5q-114 0 -178.5 67.5t-64.5 195.5q0 61 17 109.5t48.5 82.5t75.5 52t99 18t98 -18t73 -51t45.5 -80t15.5 -105v-28h-375zM278 442q-60 0 -98.5 -40.5
t-43.5 -106.5h282q-2 65 -40.5 106t-99.5 41z" />
    <glyph glyph-name="igrave" unicode="i&#x300;" horiz-adv-x="235" 
d="M76 595l-124 188h108l106 -188h-90zM68 510h98v-510h-98v510z" />
    <glyph glyph-name="iacute" unicode="i&#x301;" horiz-adv-x="235" 
d="M173 783h109l-124 -188h-90zM68 510h98v-510h-98v510z" />
    <glyph glyph-name="ograve" unicode="o&#x300;" horiz-adv-x="549" 
d="M276 783l106 -188h-90l-124 188h108zM274 517q56 0 101.5 -17.5t77.5 -51.5t49.5 -83t17.5 -111t-17.5 -110.5t-49.5 -82.5t-77.5 -51.5t-101.5 -17.5q-55 0 -100.5 17.5t-77.5 51.5t-49.5 82.5t-17.5 110.5t17.5 111t49.5 83t77.5 51.5t100.5 17.5zM274 68
q32 0 59.5 12.5t47.5 36.5t31.5 58.5t11.5 78.5q0 45 -11.5 79.5t-31.5 58.5t-47.5 36.5t-59.5 12.5q-65 0 -106.5 -48.5t-41.5 -138.5q0 -89 41.5 -137.5t106.5 -48.5z" />
    <glyph glyph-name="oacute" unicode="o&#x301;" horiz-adv-x="549" 
d="M317 595h-89l105 188h108zM274 517q56 0 101.5 -17.5t77.5 -51.5t49.5 -83t17.5 -111t-17.5 -110.5t-49.5 -82.5t-77.5 -51.5t-101.5 -17.5q-55 0 -100.5 17.5t-77.5 51.5t-49.5 82.5t-17.5 110.5t17.5 111t49.5 83t77.5 51.5t100.5 17.5zM274 68q32 0 59.5 12.5
t47.5 36.5t31.5 58.5t11.5 78.5q0 45 -11.5 79.5t-31.5 58.5t-47.5 36.5t-59.5 12.5q-65 0 -106.5 -48.5t-41.5 -138.5q0 -89 41.5 -137.5t106.5 -48.5z" />
    <glyph glyph-name="otilde" unicode="o&#x303;" horiz-adv-x="549" 
d="M198 675q-25 0 -36 -17t-11 -59h-76q0 76 26.5 113t86.5 37q25 0 47 -12t41.5 -26t38.5 -26t38 -12q50 0 54 80h73q0 -74 -28.5 -114t-87.5 -40q-27 0 -49.5 12t-42.5 26t-38 26t-36 12zM274 517q56 0 101.5 -17.5t77.5 -51.5t49.5 -83t17.5 -111t-17.5 -110.5
t-49.5 -82.5t-77.5 -51.5t-101.5 -17.5q-55 0 -100.5 17.5t-77.5 51.5t-49.5 82.5t-17.5 110.5t17.5 111t49.5 83t77.5 51.5t100.5 17.5zM274 68q32 0 59.5 12.5t47.5 36.5t31.5 58.5t11.5 78.5q0 45 -11.5 79.5t-31.5 58.5t-47.5 36.5t-59.5 12.5q-65 0 -106.5 -48.5
t-41.5 -138.5q0 -89 41.5 -137.5t106.5 -48.5z" />
    <glyph glyph-name="ugrave" unicode="u&#x300;" horiz-adv-x="555" 
d="M164 783h109l105 -188h-90zM508 510v-510h-96v113h-1q-12 -35 -32 -58t-44 -37t-50.5 -20t-52.5 -6q-88 0 -136 50t-48 157v311h98v-296q0 -73 30.5 -108.5t96.5 -35.5q31 0 56 13t43 36t27.5 55t9.5 70v266h99z" />
    <glyph glyph-name="uacute" unicode="u&#x301;" horiz-adv-x="555" 
d="M438 783l-124 -188h-90l105 188h109zM508 510v-510h-96v113h-1q-12 -35 -32 -58t-44 -37t-50.5 -20t-52.5 -6q-88 0 -136 50t-48 157v311h98v-296q0 -73 30.5 -108.5t96.5 -35.5q31 0 56 13t43 36t27.5 55t9.5 70v266h99z" />
    <glyph glyph-name="yacute" unicode="y&#x301;" horiz-adv-x="498" 
d="M304 783h109l-124 -188h-90zM491 510q-7 -24 -25.5 -77.5t-42.5 -122t-51 -144t-51 -143.5q-22 -65 -45 -106t-50.5 -63.5t-62 -29.5t-81.5 -4q-11 0 -20 1t-20 6v69q11 -1 19.5 -1.5t19.5 -0.5q23 0 40.5 1.5t31 10t25 25.5t23.5 49l-194 530h106l137 -429h1l137 429
h103z" />
    <glyph glyph-name="fi" unicode="fi" horiz-adv-x="562" 
d="M327 628q-19 2 -34.5 2h-25.5q-34 -2 -46 -19t-12 -54v-47h95v-68h-95v-442h-100v442h-84v68h84v47q0 81 40.5 115.5t112.5 34.5q28 0 65 -8v-71zM445 703q26 0 43 -16.5t17 -39.5q0 -25 -17 -41.5t-43 -16.5q-28 0 -44 16.5t-16 41.5q0 23 16 39.5t44 16.5zM396 510h98
v-510h-98v510z" />
    <glyph glyph-name="fl" unicode="fl" horiz-adv-x="611" 
d="M327 628q-19 2 -34.5 2h-25.5q-34 -2 -46 -19t-12 -54v-47h95v-68h-95v-442h-100v442h-84v68h84v47q0 81 40.5 115.5t112.5 34.5q28 0 65 -8v-71zM596 75v-71q-32 -7 -65 -7q-78 0 -108 42t-30 127v535h100v-550q0 -43 15.5 -61t63.5 -18q6 0 11.5 1t12.5 2z" />
    <glyph glyph-name="uni1EA0" unicode="A&#x323;" horiz-adv-x="588" 
 />
    <glyph glyph-name="uni1EA1" unicode="a&#x323;" horiz-adv-x="517" 
 />
    <glyph glyph-name="uni1EA2" unicode="A&#x309;" horiz-adv-x="371" 
 />
    <glyph glyph-name="uni1EA3" unicode="a&#x309;" horiz-adv-x="469" 
 />
    <glyph glyph-name="uni1EA4" unicode="&#xc2;&#x301;" horiz-adv-x="546" 
 />
    <glyph glyph-name="uni1EA5" unicode="&#xe2;&#x301;" horiz-adv-x="469" 
 />
    <glyph glyph-name="uni1EA6" unicode="&#xc2;&#x300;" horiz-adv-x="546" 
 />
    <glyph glyph-name="uni1EA7" unicode="&#xe2;&#x300;" horiz-adv-x="469" 
 />
    <glyph glyph-name="uni1EA8" unicode="&#xc2;&#x309;" horiz-adv-x="546" 
 />
    <glyph glyph-name="uni1EA9" unicode="&#xe2;&#x309;" horiz-adv-x="469" 
 />
    <glyph glyph-name="uni1EAA" unicode="&#xc2;&#x303;" horiz-adv-x="546" 
 />
    <glyph glyph-name="uni1EAB" unicode="&#xe2;&#x303;" horiz-adv-x="469" 
 />
    <glyph glyph-name="uni1EAC" unicode="&#xc2;&#x323;" horiz-adv-x="546" 
 />
    <glyph glyph-name="uni1EAD" unicode="&#xe2;&#x323;" horiz-adv-x="469" 
 />
    <glyph glyph-name="uni1EAE" unicode="&#x102;&#x301;" horiz-adv-x="546" 
 />
    <glyph glyph-name="uni1EAF" unicode="&#x103;&#x301;" horiz-adv-x="469" 
 />
    <glyph glyph-name="uni1EB0" unicode="&#x102;&#x300;" horiz-adv-x="546" 
 />
    <glyph glyph-name="uni1EB1" unicode="&#x103;&#x300;" horiz-adv-x="469" 
 />
    <glyph glyph-name="uni1EB2" unicode="&#x102;&#x309;" horiz-adv-x="546" 
 />
    <glyph glyph-name="uni1EB3" unicode="&#x103;&#x309;" horiz-adv-x="469" 
 />
    <glyph glyph-name="uni1EB4" unicode="&#x102;&#x303;" horiz-adv-x="546" 
 />
    <glyph glyph-name="uni1EB5" unicode="&#x103;&#x303;" horiz-adv-x="469" 
 />
    <glyph glyph-name="uni1EB6" unicode="&#x102;&#x323;" horiz-adv-x="546" 
 />
    <glyph glyph-name="uni1EB7" unicode="&#x103;&#x323;" horiz-adv-x="469" 
 />
    <glyph glyph-name="uni1EB8" unicode="E&#x323;" horiz-adv-x="512" 
 />
    <glyph glyph-name="uni1EB9" unicode="e&#x323;" horiz-adv-x="520" 
 />
    <glyph glyph-name="uni1EBA" unicode="E&#x309;" horiz-adv-x="479" 
 />
    <glyph glyph-name="uni1EBB" unicode="e&#x309;" horiz-adv-x="510" 
 />
    <glyph glyph-name="uni1EBC" unicode="E&#x303;" horiz-adv-x="512" 
 />
    <glyph glyph-name="uni1EBD" unicode="e&#x303;" horiz-adv-x="520" 
 />
    <glyph glyph-name="uni1EBE" unicode="&#xca;&#x301;" horiz-adv-x="479" 
 />
    <glyph glyph-name="uni1EBF" unicode="&#xea;&#x301;" horiz-adv-x="510" 
 />
    <glyph glyph-name="uni1EC0" unicode="&#xca;&#x300;" horiz-adv-x="479" 
 />
    <glyph glyph-name="uni1EC1" unicode="&#xea;&#x300;" horiz-adv-x="510" 
 />
    <glyph glyph-name="uni1EC2" unicode="&#xca;&#x309;" horiz-adv-x="479" 
 />
    <glyph glyph-name="uni1EC3" unicode="&#xea;&#x309;" horiz-adv-x="510" 
 />
    <glyph glyph-name="uni1EC4" unicode="&#xca;&#x303;" horiz-adv-x="479" 
 />
    <glyph glyph-name="uni1EC5" unicode="&#xea;&#x303;" horiz-adv-x="510" 
 />
    <glyph glyph-name="uni1EC6" unicode="&#xca;&#x323;" horiz-adv-x="479" 
 />
    <glyph glyph-name="uni1EC7" unicode="&#xea;&#x323;" horiz-adv-x="510" 
 />
    <glyph glyph-name="uni1EC8" unicode="I&#x309;" horiz-adv-x="201" 
 />
    <glyph glyph-name="uni1EC9" unicode="i&#x309;" horiz-adv-x="195" 
 />
    <glyph glyph-name="uni1ECA" unicode="I&#x323;" horiz-adv-x="312" 
 />
    <glyph glyph-name="uni1ECB" unicode="i&#x323;" horiz-adv-x="237" 
 />
    <glyph glyph-name="uni1ECC" unicode="O&#x323;" horiz-adv-x="720" 
 />
    <glyph glyph-name="uni1ECD" unicode="o&#x323;" horiz-adv-x="558" 
 />
    <glyph glyph-name="uni1ECE" unicode="O&#x309;" horiz-adv-x="663" 
 />
    <glyph glyph-name="uni1ECF" unicode="o&#x309;" horiz-adv-x="543" 
 />
    <glyph glyph-name="uni1ED0" unicode="&#xd4;&#x301;" horiz-adv-x="663" 
 />
    <glyph glyph-name="uni1ED1" unicode="&#xf4;&#x301;" horiz-adv-x="543" 
 />
    <glyph glyph-name="uni1ED2" unicode="&#xd4;&#x300;" horiz-adv-x="663" 
 />
    <glyph glyph-name="uni1ED3" unicode="&#xf4;&#x300;" horiz-adv-x="543" 
 />
    <glyph glyph-name="uni1ED4" unicode="&#xd4;&#x309;" horiz-adv-x="663" 
 />
    <glyph glyph-name="uni1ED5" unicode="&#xf4;&#x309;" horiz-adv-x="543" 
 />
    <glyph glyph-name="uni1ED6" unicode="&#xd4;&#x303;" horiz-adv-x="663" 
 />
    <glyph glyph-name="uni1ED7" unicode="&#xf4;&#x303;" horiz-adv-x="543" 
 />
    <glyph glyph-name="uni1ED8" unicode="&#xd4;&#x323;" horiz-adv-x="663" 
 />
    <glyph glyph-name="uni1ED9" unicode="&#xf4;&#x323;" horiz-adv-x="543" 
 />
    <glyph glyph-name="uni1EDA" unicode="&#x1a0;&#x301;" horiz-adv-x="663" 
 />
    <glyph glyph-name="uni1EDB" unicode="&#x1a1;&#x301;" horiz-adv-x="543" 
 />
    <glyph glyph-name="uni1EDC" unicode="&#x1a0;&#x300;" horiz-adv-x="663" 
 />
    <glyph glyph-name="uni1EDD" unicode="&#x1a1;&#x300;" horiz-adv-x="543" 
 />
    <glyph glyph-name="uni1EDE" unicode="&#x1a0;&#x309;" horiz-adv-x="663" 
 />
    <glyph glyph-name="uni1EDF" unicode="&#x1a1;&#x309;" horiz-adv-x="543" 
 />
    <glyph glyph-name="uni1EE0" unicode="&#x1a0;&#x303;" horiz-adv-x="663" 
 />
    <glyph glyph-name="uni1EE1" unicode="&#x1a1;&#x303;" horiz-adv-x="543" 
 />
    <glyph glyph-name="uni1EE2" unicode="&#x1a0;&#x323;" horiz-adv-x="663" 
 />
    <glyph glyph-name="uni1EE3" unicode="&#x1a1;&#x323;" horiz-adv-x="543" 
 />
    <glyph glyph-name="uni1EE4" unicode="U&#x323;" horiz-adv-x="674" 
 />
    <glyph glyph-name="uni1EE5" unicode="u&#x323;" horiz-adv-x="570" 
 />
    <glyph glyph-name="uni1EE6" unicode="U&#x309;" horiz-adv-x="636" 
 />
    <glyph glyph-name="uni1EE7" unicode="u&#x309;" horiz-adv-x="532" 
 />
    <glyph glyph-name="uni1EE8" unicode="&#x1af;&#x301;" horiz-adv-x="636" 
 />
    <glyph glyph-name="uni1EE9" unicode="&#x1b0;&#x301;" horiz-adv-x="509" 
 />
    <glyph glyph-name="uni1EEA" unicode="&#x1af;&#x300;" horiz-adv-x="636" 
 />
    <glyph glyph-name="uni1EEB" unicode="&#x1b0;&#x300;" horiz-adv-x="509" 
 />
    <glyph glyph-name="uni1EEC" unicode="&#x1af;&#x309;" horiz-adv-x="636" 
 />
    <glyph glyph-name="uni1EED" unicode="&#x1b0;&#x309;" horiz-adv-x="509" 
 />
    <glyph glyph-name="uni1EEE" unicode="&#x1af;&#x303;" horiz-adv-x="636" 
 />
    <glyph glyph-name="uni1EEF" unicode="&#x1b0;&#x303;" horiz-adv-x="509" 
 />
    <glyph glyph-name="uni1EF0" unicode="&#x1af;&#x323;" horiz-adv-x="636" 
 />
    <glyph glyph-name="uni1EF1" unicode="&#x1b0;&#x323;" horiz-adv-x="509" 
 />
    <glyph glyph-name="Ygrave" unicode="Y&#x300;" horiz-adv-x="523" 
 />
    <glyph glyph-name="ygrave" unicode="y&#x300;" horiz-adv-x="472" 
 />
    <glyph glyph-name="uni1EF4" unicode="Y&#x323;" horiz-adv-x="499" 
 />
    <glyph glyph-name="uni1EF5" unicode="y&#x323;" horiz-adv-x="460" 
 />
    <glyph glyph-name="uni1EF6" unicode="Y&#x309;" horiz-adv-x="499" 
 />
    <glyph glyph-name="uni1EF7" unicode="y&#x309;" horiz-adv-x="460" 
 />
    <glyph glyph-name="uni1EF8" unicode="Y&#x303;" horiz-adv-x="523" 
 />
    <glyph glyph-name="uni1EF9" unicode="y&#x303;" horiz-adv-x="472" 
 />
    <glyph glyph-name="Itilde" unicode="I&#x303;" horiz-adv-x="218" 
d="M18 858q-25 0 -41.5 -20.5t-16.5 -62.5h-76q0 76 31.5 116t91.5 40q30 0 54 -14t45.5 -30.5t43 -30.5t45.5 -14q27 0 45 23t19 64h75q0 -74 -34.5 -115.5t-93.5 -41.5q-31 0 -55 13.5t-46 29.5t-42.5 29.5t-44.5 13.5zM59 700h101v-700h-101v700z" />
    <glyph glyph-name="itilde" unicode="i&#x303;" horiz-adv-x="235" 
d="M38 675q-25 0 -35.5 -17t-10.5 -59h-77q0 76 26.5 113t87.5 37q25 0 46.5 -12t41.5 -26t39 -26t38 -12q49 0 53 80h74q0 -74 -29 -114t-87 -40q-27 0 -49.5 12t-42.5 26t-38.5 26t-36.5 12zM68 510h98v-510h-98v510z" />
    <glyph glyph-name="Utilde" unicode="U&#x303;" horiz-adv-x="659" 
d="M248 858q-24 0 -40.5 -20.5t-16.5 -62.5h-76q0 76 31 116t91 40q30 0 54 -14t46 -30.5t43 -30.5t46 -14q26 0 44 23t20 64h75q0 -74 -35 -115.5t-93 -41.5q-31 0 -55.5 13.5t-46 29.5t-42.5 29.5t-45 13.5zM153 257q0 -84 46 -131.5t130 -47.5q85 0 131 47t46 132v443
h101v-453q0 -58 -19.5 -105.5t-55.5 -80.5t-87.5 -51t-115.5 -18q-63 0 -114.5 18t-87.5 51t-55.5 80.5t-19.5 105.5v453h101v-443z" />
    <glyph glyph-name="utilde" unicode="u&#x303;" horiz-adv-x="555" 
d="M211 675q-24 0 -35.5 -17t-11.5 -59h-75q0 76 25.5 113t86.5 37q26 0 47.5 -12t41.5 -26t39 -26t38 -12q51 0 52 80h75q0 -74 -29.5 -114t-87.5 -40q-27 0 -49.5 12t-42.5 26t-38 26t-36 12zM508 510v-510h-96v113h-1q-12 -35 -32 -58t-44 -37t-50.5 -20t-52.5 -6
q-88 0 -136 50t-48 157v311h98v-296q0 -73 30.5 -108.5t96.5 -35.5q31 0 56 13t43 36t27.5 55t9.5 70v266h99z" />
    <glyph glyph-name="uniF880" unicode="&#xe4f;&#x22;" horiz-adv-x="539" 
d="M299 768h89l-9 -180h-72zM150 768h89l-8 -180h-73zM269 540q47 0 87.5 -17.5t71.5 -47.5t48.5 -70.5t17.5 -87.5t-17.5 -88.5t-48.5 -72t-71.5 -48t-87.5 -17.5q-46 0 -87 17.5t-71.5 48t-48 72t-17.5 88.5t17.5 87.5t48 70.5t71.5 47.5t87 17.5zM269 147q35 0 65 13.5
t52.5 36.5t35.5 54t13 66t-13 65t-35.5 52.5t-52.5 35.5t-65 13t-65.5 -13t-53.5 -35.5t-36.5 -52.5t-13.5 -65t13.5 -66t36.5 -54t53.5 -36.5t65.5 -13.5zM269 442q26 0 48.5 -9.5t39 -26.5t26.5 -39.5t10 -49.5q0 -26 -10 -49t-26.5 -40t-39 -27t-48.5 -10q-25 0 -48 10
t-40.5 27t-27.5 40t-10 49q0 27 10 49.5t27.5 39.5t40.5 26.5t48 9.5zM269 239q32 0 53.5 22.5t21.5 55.5q0 32 -21.5 52.5t-53.5 20.5t-54.5 -20.5t-22.5 -52.5q0 -33 22.5 -55.5t54.5 -22.5z" />
    <glyph glyph-name="uniF881" unicode="&#xe24;&#xe32;" horiz-adv-x="936" 
d="M780 -195v591q0 27 -10 46.5t-26.5 32t-38 18.5t-45.5 6q-32 0 -61 -8t-59 -22q11 -24 17.5 -53.5t6.5 -62.5v-548h-100v539q0 78 -38 116.5t-120 38.5q-68 0 -112.5 -25.5t-57.5 -87.5h123v-44q-48 -17 -75 -59.5t-27 -99.5q0 -32 7 -53t19.5 -33t31 -17t40.5 -6
q13 -2 25.5 -1t27.5 3v-72q-23 -6 -44 -8.5t-42 -2.5q-34 1 -64.5 11.5t-52.5 32t-35 53t-13 74.5q0 33 9 61t23 50t32.5 38t36.5 24h-113q0 121 66.5 182.5t195.5 61.5q64 0 111 -14.5t79 -42.5q44 28 89 42.5t96 14.5q42 0 78 -10.5t63 -31.5t42 -53t15 -74v-607h-100z
" />
    <glyph glyph-name="uniF882" unicode="&#xe26;&#xe32;" horiz-adv-x="946" 
d="M790 -195v591q0 27 -10 46.5t-26.5 32t-38 18.5t-45.5 6q-32 0 -61.5 -8t-58.5 -22q23 -49 23 -116v-548h-98v539q0 78 -39 116.5t-121 38.5q-68 0 -112.5 -25.5t-55.5 -87.5h130v-42q-38 -14 -56 -46t-18 -77v-76q0 -29 -5 -56t-18 -48t-35.5 -33.5t-57.5 -12.5
q-17 0 -33.5 1t-38.5 5v73q15 -3 24.5 -3.5t17.5 0.5q28 4 39.5 22t11.5 52v75q0 37 17.5 69.5t50.5 47.5h-121q0 121 67 182.5t195 61.5q124 0 189 -57q45 28 90 42.5t96 14.5q42 0 78 -10.5t63 -31.5t42 -53t15 -74v-607h-100z" />
    <glyph glyph-name=".notdef" horiz-adv-x="817" 
d="M68 0v675h681v-675h-681zM722 22q7 0 7 7v619q0 6 -7 6h-626q-7 0 -7 -6v-619q0 -7 7 -7h626z" />
    <glyph glyph-name=".null" 
 />
    <glyph glyph-name=".null" 
 />
    <glyph glyph-name="uni000D" horiz-adv-x="295" 
 />
    <glyph glyph-name="space" unicode=" " horiz-adv-x="321" 
 />
    <glyph glyph-name="uni00A0" unicode="&#xa0;" horiz-adv-x="321" 
 />
    <glyph glyph-name="exclam" unicode="!" horiz-adv-x="251" 
d="M82 221l-7 194v285h101v-285l-7 -194h-87zM126 127q29 0 47.5 -18.5t18.5 -44.5t-18.5 -45t-47.5 -19q-31 0 -49 19t-18 45t18 44.5t49 18.5z" />
    <glyph glyph-name="quotedbl" unicode="&#x22;" horiz-adv-x="327" 
d="M45 700h89l-8 -216h-74zM194 700h88l-8 -216h-73z" />
    <glyph glyph-name="numbersign" unicode="#" horiz-adv-x="678" 
d="M519 438l-37 -181h121v-65h-135l-40 -192h-90l39 192h-141l-40 -192h-91l40 192h-120v65h133l38 181h-122v66h136l41 196h90l-41 -196h141l42 196h90l-41 -196h122v-66h-135zM428 438h-141l-39 -181h142z" />
    <glyph glyph-name="dollar" unicode="$" horiz-adv-x="602" 
d="M312 397q67 -14 115.5 -30.5t79.5 -39.5t46 -54t15 -74q0 -44 -16 -80t-45.5 -62.5t-71 -43t-93.5 -20.5v-97h-88v99q-49 6 -88.5 22.5t-68 42.5t-45 61t-18.5 77h97q8 -56 53.5 -91t119.5 -35q72 0 115.5 31.5t43.5 86.5q0 23 -7.5 40t-25 30.5t-45 24t-67.5 19.5
l-74 15q-103 24 -151.5 68.5t-48.5 118.5q0 41 15.5 75t43.5 59.5t66.5 41.5t84.5 21v95h88v-95q51 -5 89.5 -23.5t65 -46.5t40.5 -63.5t16 -75.5h-100q-4 57 -44.5 94.5t-112.5 37.5q-33 0 -60.5 -8t-47.5 -23t-31 -36t-11 -46q0 -47 39 -73t127 -43z" />
    <glyph glyph-name="percent" unicode="%" horiz-adv-x="716" 
d="M325 549q0 -36 -11 -65t-30.5 -49.5t-46.5 -31.5t-58 -11t-57.5 11t-46 31.5t-30.5 49.5t-11 65q0 37 11 66.5t30.5 50t46 31.5t57.5 11t58 -11t46.5 -31.5t30.5 -50t11 -66.5zM611 700l-413 -700h-92l414 700h91zM108 549q0 -39 19 -62.5t52 -23.5q32 0 51.5 23.5
t19.5 62.5q0 40 -19.5 62.5t-51.5 22.5q-34 0 -52.5 -22t-18.5 -63zM536 307q64 0 105 -42.5t41 -115.5q0 -36 -11 -65t-30.5 -49.5t-46 -31.5t-58.5 -11q-31 0 -57.5 11t-45.5 31.5t-30 49.5t-11 65t11 65.5t30 50t45.5 31.5t57.5 11zM536 63q32 0 51.5 23t19.5 63
t-19.5 63.5t-51.5 23.5t-51.5 -23t-19.5 -64q0 -40 19.5 -63t51.5 -23z" />
    <glyph glyph-name="ampersand" unicode="&#x26;" horiz-adv-x="689" 
d="M609 315q-2 -24 -7.5 -49t-14 -49.5t-19.5 -46.5t-24 -40l131 -130h-107l-81 76q-42 -41 -100 -62.5t-124 -21.5q-107 0 -162.5 50t-55.5 135q0 30 8.5 59.5t27 55.5t48.5 48.5t73 38.5q-28 28 -46 51t-28 43.5t-13.5 39.5t-3.5 38q0 33 12.5 61.5t36 50t57 33.5t75.5 12
t74.5 -12t55.5 -33t35 -50t12 -63q0 -51 -33.5 -96.5t-113.5 -87.5l161 -174q16 25 27.5 58t16.5 65h82zM195 546q0 -13 3 -26t12 -28t24 -33.5t39 -42.5q63 31 89 63t26 68q0 39 -26.5 65.5t-69.5 26.5q-42 0 -69.5 -27t-27.5 -66zM273 63q45 0 86.5 19t68.5 50l-177 193
l-38 -21q-47 -28 -61 -59.5t-14 -63.5q0 -24 8.5 -45.5t25.5 -37.5t42 -25.5t59 -9.5z" />
    <glyph glyph-name="quotesingle" unicode="'" horiz-adv-x="179" 
d="M45 700h89l-8 -216h-74z" />
    <glyph glyph-name="parenleft" unicode="(" horiz-adv-x="310" 
d="M289 740q-27 -39 -48.5 -87t-37 -101.5t-23.5 -110t-8 -112.5t8 -113t23.5 -110.5t37 -101.5t48.5 -86h-93q-60 82 -92 187t-32 224q0 118 32 222.5t92 188.5h93z" />
    <glyph glyph-name="parenright" unicode=")" horiz-adv-x="310" 
d="M113 740q61 -84 92.5 -188.5t31.5 -222.5q0 -119 -31.5 -224t-92.5 -187h-93q27 38 49 86t37.5 101.5t23.5 110.5t8 113t-8 112.5t-23.5 110t-37.5 101.5t-49 87h93z" />
    <glyph glyph-name="asterisk" unicode="*" horiz-adv-x="355" 
d="M224 534l68 -86l-53 -40l-62 93l-61 -93l-53 40l68 86l-106 30l20 61l104 -37l-4 112h65l-4 -112l104 37l20 -61z" />
    <glyph glyph-name="plus" unicode="+" horiz-adv-x="568" 
d="M521 276h-192v-174h-92v174h-191v80h191v175h92v-175h192v-80z" />
    <glyph glyph-name="comma" unicode="," horiz-adv-x="180" 
d="M-1 -123l54 224h101l-72 -224h-83z" />
    <glyph glyph-name="hyphen" unicode="-" horiz-adv-x="478" 
d="M431 276h-385v80h385v-80z" />
    <glyph glyph-name="hyphen" unicode="&#xad;" horiz-adv-x="478" 
d="M431 276h-385v80h385v-80z" />
    <glyph glyph-name="period" unicode="." horiz-adv-x="184" 
d="M25 64q0 26 18 44.5t50 18.5q29 0 48 -18.5t19 -44.5t-19 -45t-48 -19q-32 0 -50 19t-18 45z" />
    <glyph glyph-name="slash" unicode="/" horiz-adv-x="392" 
d="M374 700l-253 -700h-103l254 700h102z" />
    <glyph glyph-name="zero" unicode="0" horiz-adv-x="621" 
d="M31 351q0 84 20 150.5t57 112t88.5 69.5t114.5 24t114 -24t87.5 -69.5t56.5 -112t20 -150.5t-20 -151t-56 -113t-87.5 -70.5t-114.5 -24.5t-115 24.5t-88.5 70.5t-56.5 113t-20 151zM486 351q0 134 -48 203.5t-127 69.5t-127 -69.5t-48 -203.5q0 -136 48 -206t127 -70
t127 70t48 206z" />
    <glyph glyph-name="one" unicode="1" horiz-adv-x="408" 
d="M295 700v-700h-101v604l-175 -68v86l197 78h79z" />
    <glyph glyph-name="two" unicode="2" horiz-adv-x="555" 
d="M514 81v-81h-474v60q19 20 50 51t65.5 66t70 70.5t63.5 64.5q37 38 61 65t38 48.5t19.5 39.5t5.5 37q0 54 -36 90t-103 36q-37 0 -64.5 -11t-45.5 -30.5t-27 -46t-9 -56.5h-93q1 46 15.5 86.5t44 71t74 48.5t105.5 18q57 0 101 -15.5t73.5 -42t45 -63t15.5 -78.5
q0 -31 -7 -57t-24 -53.5t-45 -60t-71 -75.5l-179 -180v-2h331z" />
    <glyph glyph-name="three" unicode="3" horiz-adv-x="589" 
d="M396 355q69 -10 112 -52t43 -116q0 -39 -16 -74.5t-48.5 -62.5t-81.5 -42.5t-116 -15.5q-62 0 -109 18.5t-78.5 49t-47.5 71t-16 85.5h94q1 -26 11.5 -51.5t30.5 -46t49 -33.5t66 -13q75 0 117.5 34t42.5 93t-46 87.5t-121 28.5h-60v73h60q31 0 58 9t47 25t31.5 38.5
t11.5 49.5q0 56 -38.5 87.5t-102.5 31.5q-34 0 -60.5 -11.5t-45 -31t-28.5 -46t-10 -56.5h-93q0 48 16.5 89t47 71t74.5 47t99 17q58 0 102.5 -14.5t75 -39t46 -58t15.5 -71.5q0 -71 -36 -111.5t-96 -56.5v-2z" />
    <glyph glyph-name="four" unicode="4" horiz-adv-x="577" 
d="M558 138h-94v-138h-102v138h-343v68l352 494h89v-482h98v-80zM367 217v336l-236 -336h236z" />
    <glyph glyph-name="five" unicode="5" horiz-adv-x="588" 
d="M322 464q50 0 91.5 -17.5t72 -48t47.5 -73t17 -92.5q0 -51 -15.5 -95t-48 -76.5t-82 -51t-117.5 -18.5q-62 0 -108.5 18.5t-77.5 49t-46.5 71t-16.5 85.5h94q1 -26 11.5 -51.5t30 -46t48.5 -33.5t67 -13q76 0 120 44.5t44 114.5q0 35 -11.5 64t-32.5 51t-50 34t-64 12
q-48 0 -84 -17.5t-62 -49.5h-99l40 375h424v-81h-343l-28 -233h3q28 40 73.5 59t102.5 19z" />
    <glyph glyph-name="six" unicode="6" horiz-adv-x="604" 
d="M340 465q50 0 92 -17.5t72.5 -48t47.5 -72.5t17 -91q0 -53 -19.5 -98t-53.5 -77.5t-81 -50.5t-103 -18q-55 0 -105 19t-88.5 61t-61 109t-22.5 163q0 86 18.5 154t54 114.5t88 71t119.5 24.5q54 0 96.5 -15.5t74 -42.5t51.5 -64t27 -81h-101q-15 59 -49.5 91t-98.5 32
q-93 0 -140 -75t-45 -213h1q23 60 77 92.5t132 32.5zM310 72q34 0 63 12.5t50.5 34.5t33.5 51t12 63q0 35 -12 64t-33 50.5t-50 33.5t-63 12t-63.5 -12t-51.5 -33t-34.5 -49t-12.5 -60q0 -35 12.5 -65.5t34.5 -53t51 -35.5t63 -13z" />
    <glyph glyph-name="seven" unicode="7" horiz-adv-x="517" 
d="M505 700v-63l-281 -637h-113l278 619h-377v81h493z" />
    <glyph glyph-name="eight" unicode="8" horiz-adv-x="600" 
d="M35 192q0 69 41 115.5t105 59.5v1q-57 18 -89 59.5t-32 99.5q0 37 16 70t46.5 57.5t75.5 39t102 14.5t101.5 -14.5t75 -39t46.5 -57.5t16 -70q0 -56 -31.5 -98.5t-88.5 -60.5v-1q64 -13 105 -59.5t41 -115.5q0 -41 -17 -77.5t-50 -63.5t-82.5 -43t-115.5 -16
q-65 0 -114.5 16t-83 43t-50.5 63.5t-17 77.5zM446 517q0 26 -10.5 47.5t-30 37.5t-46.5 25t-59 9t-58.5 -9t-45.5 -25t-29.5 -37.5t-10.5 -47.5q0 -51 40.5 -80t103.5 -29q64 0 105 29t41 80zM467 203q0 28 -12.5 51.5t-34.5 40t-52.5 26t-67.5 9.5q-36 0 -66.5 -9.5
t-52.5 -26t-34.5 -40t-12.5 -51.5q0 -29 12.5 -54t34.5 -43t52.5 -28.5t66.5 -10.5q37 0 67.5 10.5t52.5 28.5t34.5 43t12.5 54z" />
    <glyph glyph-name="nine" unicode="9" horiz-adv-x="604" 
d="M569 355q0 -175 -73 -269t-207 -94q-54 0 -96.5 15t-74 41.5t-51 63.5t-26.5 82h98q17 -59 52 -91t98 -32q91 0 138.5 75t45.5 213h-1q-22 -61 -76 -94t-131 -33q-51 0 -93 17.5t-72.5 48.5t-47.5 73.5t-17 91.5q0 53 19.5 97.5t54 77.5t81.5 51.5t102 18.5t105 -19.5
t88.5 -61.5t61 -109t22.5 -163zM132 464q0 -34 12.5 -63.5t34 -51t51 -33.5t63.5 -12t63.5 12.5t51.5 33.5t35 49.5t13 60.5q0 35 -12.5 65.5t-34.5 52.5t-51.5 34.5t-64.5 12.5q-34 0 -63 -12.5t-51 -34t-34.5 -51t-12.5 -63.5z" />
    <glyph glyph-name="colon" unicode=":" horiz-adv-x="254" 
d="M60 452q0 26 18 45t50 19q30 0 48 -19t18 -45t-18 -45t-48 -19q-32 0 -50 19t-18 45zM60 64q0 26 18 44.5t50 18.5q30 0 48 -18.5t18 -44.5t-18 -45t-48 -19q-32 0 -50 19t-18 45z" />
    <glyph glyph-name="semicolon" unicode=";" horiz-adv-x="254" 
d="M60 452q0 26 18 45t50 19q30 0 48 -19t18 -45t-18 -45t-48 -19q-32 0 -50 19t-18 45zM26 -123l55 224h100l-72 -224h-83z" />
    <glyph glyph-name="less" unicode="&#x3c;" horiz-adv-x="549" 
d="M49 284v65l450 273v-97l-349 -207v-1l349 -209v-96z" />
    <glyph glyph-name="equal" unicode="=" horiz-adv-x="517" 
d="M46 450h425v-77h-425v77zM471 258v-77h-425v77h425z" />
    <glyph glyph-name="greater" unicode="&#x3e;" horiz-adv-x="549" 
d="M49 12v96l349 209v1l-349 207v97l450 -273v-65z" />
    <glyph glyph-name="question" unicode="?" horiz-adv-x="525" 
d="M262 708q109 0 163 -46.5t54 -136.5q0 -34 -11.5 -59t-29 -45t-38 -38t-38 -37.5t-29 -43.5t-11.5 -56v-25h-106v16q-2 44 9.5 75t30 54.5t40.5 41t41 35t32 36.5t13 45q0 45 -28 73.5t-87 28.5q-63 0 -94.5 -36.5t-36.5 -96.5h-91q2 44 16.5 83.5t42.5 68.5t67.5 46
t90.5 17zM270 127q30 0 48.5 -18.5t18.5 -44.5t-18.5 -45t-48.5 -19q-31 0 -49 19t-18 45t18 44.5t49 18.5z" />
    <glyph glyph-name="at" unicode="@" horiz-adv-x="841" 
d="M426 667q75 0 144 -22.5t122 -66t85 -108t32 -148.5q0 -125 -43.5 -185.5t-117.5 -60.5q-40 0 -71 22.5t-43 61.5h-2q-17 -41 -52 -59.5t-75 -18.5q-38 0 -70.5 13.5t-56 39t-37 62.5t-13.5 85q0 39 11 75.5t32.5 64.5t55 45t78.5 17q38 0 70 -17t48 -51h1v59h67v-258
q0 -23 5 -37.5t13 -23t18 -11.5t20 -3q41 0 63.5 44.5t22.5 135.5q0 63 -22 114t-62.5 87.5t-97.5 56t-128 19.5q-69 0 -127 -21t-99.5 -61t-65 -97.5t-23.5 -130.5q0 -149 85 -229t240 -80q26 0 52 1t55 5v-71q-27 -3 -54 -4t-55 -1q-91 0 -165 25.5t-126.5 74t-80.5 119
t-28 160.5q0 86 27.5 155.5t79 119t124.5 76.5t164 27zM412 149q48 0 76 36t28 102q0 63 -27 97t-77 34q-48 0 -77 -37t-29 -99q0 -23 6 -47t19 -43t33 -31t48 -12z" />
    <glyph glyph-name="A" unicode="A" horiz-adv-x="640" 
d="M529 0l-60 172h-300l-60 -172h-108l257 700h124l257 -700h-110zM446 248l-125 354h-3l-126 -354h254z" />
    <glyph glyph-name="B" unicode="B" horiz-adv-x="617" 
d="M415 355q74 -6 118 -51.5t44 -119.5q0 -88 -65 -136t-176 -48h-284v700h241q115 0 182.5 -42t67.5 -129q0 -31 -8.5 -60t-24.5 -52t-40 -39t-55 -21v-2zM297 385q67 0 105.5 34t38.5 89q0 52 -38.5 82.5t-106.5 30.5h-143v-236h144zM311 79q78 0 119.5 28.5t41.5 88.5
t-43.5 89.5t-122.5 29.5h-153v-236h158z" />
    <glyph glyph-name="C" unicode="C" horiz-adv-x="673" 
d="M356 75q70 0 118 34.5t65 97.5h102q-9 -49 -33 -89t-61 -68t-85.5 -43t-105.5 -15q-75 0 -134 24.5t-100 71t-62.5 113.5t-21.5 151q0 83 22 149t63 112t100 70.5t133 24.5q56 0 104 -16.5t85.5 -46t62 -70.5t33.5 -91h-102q-17 63 -65.5 101.5t-117.5 38.5
q-102 0 -158.5 -71.5t-56.5 -200.5q0 -65 14.5 -116.5t42.5 -87t67.5 -54.5t90.5 -19z" />
    <glyph glyph-name="D" unicode="D" horiz-adv-x="665" 
d="M280 700q80 0 144 -23t109 -67.5t69 -109.5t24 -148q0 -84 -24.5 -149.5t-69.5 -110.5t-109.5 -68.5t-144.5 -23.5h-226v700h228zM266 79q119 0 186.5 70.5t67.5 201.5q0 130 -67 199t-184 69h-115v-540h112z" />
    <glyph glyph-name="E" unicode="E" horiz-adv-x="564" 
d="M154 619v-230h313v-79h-313v-231h365v-79h-467v700h467v-81h-365z" />
    <glyph glyph-name="F" unicode="F" horiz-adv-x="557" 
d="M153 619v-230h314v-79h-314v-310h-101v700h467v-81h-366z" />
    <glyph glyph-name="G" unicode="G" horiz-adv-x="692" 
d="M652 288q0 -62 -16.5 -116t-51.5 -94t-91 -63t-136 -23q-74 0 -133 24.5t-100.5 71t-63.5 113.5t-22 151q0 83 23 149t65 112t101.5 70.5t132.5 24.5q56 0 105.5 -16.5t88.5 -46t65 -70.5t35 -91h-103q-17 63 -69 101.5t-122 38.5q-50 0 -90.5 -18.5t-69 -53.5t-44 -85.5
t-15.5 -114.5q0 -65 15 -116.5t43 -87t68 -54.5t90 -19q51 0 87.5 15t60.5 41.5t35 61t11 73.5v25h-174v75h275v-78z" />
    <glyph glyph-name="H" unicode="H" horiz-adv-x="677" 
d="M625 700v-700h-102v310h-370v-310h-101v700h101v-311h370v311h102z" />
    <glyph glyph-name="I" unicode="I" horiz-adv-x="218" 
d="M59 700h101v-700h-101v700z" />
    <glyph glyph-name="J" unicode="J" horiz-adv-x="529" 
d="M472 700v-489q0 -55 -16 -96t-46 -68.5t-72 -41t-94 -13.5q-48 0 -89.5 15t-72 43t-47.5 68t-17 89h99q0 -36 11.5 -61t29.5 -41t40.5 -23t45.5 -7q25 0 48 6.5t40.5 22.5t28 43t10.5 67v486h101z" />
    <glyph glyph-name="K" unicode="K" horiz-adv-x="621" 
d="M604 0h-111q-36 59 -68 112q-14 23 -28.5 46.5t-28 45.5t-25 41t-20.5 32q-15 25 -37.5 42t-54.5 22l-77 -74v-267h-102v700h102v-311l317 311h123l-305 -299q35 -5 66.5 -24.5t51.5 -50.5z" />
    <glyph glyph-name="L" unicode="L" horiz-adv-x="509" 
d="M52 700h101v-621h337v-79h-438v700z" />
    <glyph glyph-name="M" unicode="M" horiz-adv-x="808" 
d="M756 700v-700h-100v539h-2l-220 -539h-59l-222 539h-3v-539h-98v700h128l223 -553h2l220 553h131z" />
    <glyph glyph-name="N" unicode="N" horiz-adv-x="670" 
d="M618 700v-700h-91l-373 536h-3v-536h-99v700h91l371 -532h3v532h101z" />
    <glyph glyph-name="O" unicode="O" horiz-adv-x="711" 
d="M356 708q75 0 135 -25t102 -71.5t64.5 -112.5t22.5 -148q0 -84 -22.5 -150.5t-64.5 -113t-102 -71t-135 -24.5q-76 0 -136 24.5t-102 71t-64.5 113t-22.5 150.5q0 82 22.5 148t64.5 112.5t102 71.5t136 25zM356 76q102 0 160 73t58 202q0 128 -58 199t-160 71
q-104 0 -162 -71t-58 -199q0 -129 58 -202t162 -73z" />
    <glyph glyph-name="P" unicode="P" horiz-adv-x="568" 
d="M312 700q103 0 161.5 -49.5t58.5 -146.5t-58.5 -147.5t-162.5 -50.5h-158v-306h-101v700h260zM292 385q69 0 107 28.5t38 90.5q0 64 -40 89.5t-115 25.5h-129v-234h139z" />
    <glyph glyph-name="Q" unicode="Q" horiz-adv-x="711" 
d="M699 33v-85l-357 44q-45 5 -82 13.5t-69 25.5q-81 42 -120.5 123.5t-39.5 196.5q0 82 22.5 148t64.5 112.5t102 71.5t136 25q75 0 135 -25t102 -71.5t64.5 -112.5t22.5 -148q0 -120 -52.5 -195.5t-139.5 -106.5v-4zM136 351q0 -128 57 -200t159 -72q104 0 163 71t59 201
q0 128 -58 199t-160 71q-104 0 -162 -71t-58 -199z" />
    <glyph glyph-name="R" unicode="R" horiz-adv-x="609" 
d="M461 0l-172 306h-136v-306h-101v700h280q103 0 162 -49.5t59 -146.5q0 -78 -42 -126.5t-122 -59.5l181 -318h-109zM153 385h158q70 0 107.5 28.5t37.5 90.5q0 61 -37.5 88t-107.5 27h-158v-234z" />
    <glyph glyph-name="S" unicode="S" horiz-adv-x="602" 
d="M359 386q109 -23 159 -66t50 -121q0 -48 -19 -86t-53.5 -65t-83.5 -41.5t-110 -14.5q-59 0 -107.5 15t-83.5 42t-55 65t-22 84h97q8 -56 53.5 -91t119.5 -35q73 0 116 32t43 86q0 45 -33 71t-112 43l-74 15q-103 23 -151.5 68t-48.5 119q0 45 19.5 82t53 64t79.5 41.5
t99 14.5q62 0 109.5 -16.5t79.5 -45.5t49.5 -68t19.5 -84h-100q-4 57 -44.5 94.5t-112.5 37.5q-33 0 -60.5 -8t-47.5 -23t-31 -36t-11 -46q0 -45 32.5 -70t106.5 -40z" />
    <glyph glyph-name="T" unicode="T" horiz-adv-x="551" 
d="M542 619h-216v-619h-101v619h-215v81h532v-81z" />
    <glyph glyph-name="U" unicode="U" horiz-adv-x="659" 
d="M153 257q0 -84 46 -131.5t130 -47.5q85 0 131 47t46 132v443h101v-453q0 -58 -19.5 -105.5t-55.5 -80.5t-87.5 -51t-115.5 -18q-63 0 -114.5 18t-87.5 51t-55.5 80.5t-19.5 105.5v453h101v-443z" />
    <glyph glyph-name="V" unicode="V" horiz-adv-x="640" 
d="M258 0l-257 700h108l209 -600h3l208 600h110l-257 -700h-124z" />
    <glyph glyph-name="W" unicode="W" horiz-adv-x="914" 
d="M902 700l-186 -700h-102l-156 547h-4l-154 -547h-102l-186 700h105l138 -561h3l154 561h90l154 -561h3l138 561h105z" />
    <glyph glyph-name="X" unicode="X" horiz-adv-x="632" 
d="M498 0l-180 285h-3l-181 -285h-119l232 351l-231 349h119l180 -288h3l180 288h119l-231 -349l231 -351h-119z" />
    <glyph glyph-name="Y" unicode="Y" horiz-adv-x="613" 
d="M357 315v-315h-102v318l-250 382h121l180 -288h1l180 288h120z" />
    <glyph glyph-name="Z" unicode="Z" horiz-adv-x="609" 
d="M564 81v-81h-519v67l388 550v2h-378v81h502v-68l-384 -550v-1h391z" />
    <glyph glyph-name="bracketleft" unicode="[" horiz-adv-x="357" 
d="M192 667v-679h141v-70h-233v822h233v-73h-141z" />
    <glyph glyph-name="backslash" unicode="\" horiz-adv-x="392" 
d="M374 0h-104l-252 700h102z" />
    <glyph glyph-name="bracketright" unicode="]" horiz-adv-x="357" 
d="M25 740h233v-822h-233v70h140v679h-140v73z" />
    <glyph glyph-name="asciicircum" unicode="^" horiz-adv-x="400" 
d="M374 484h-87l-86 134h-3l-86 -134h-86l136 216h74z" />
    <glyph glyph-name="underscore" unicode="_" horiz-adv-x="580" 
d="M554 -111h-528v77h528v-77z" />
    <glyph glyph-name="grave" unicode="`" horiz-adv-x="228" 
d="M218 484h-88l-120 216h109z" />
    <glyph glyph-name="a" unicode="a" horiz-adv-x="528" 
d="M273 517q97 0 152 -48.5t55 -128.5v-340h-95v96h-2q-10 -25 -29 -44.5t-43.5 -32.5t-52.5 -20t-57 -7q-37 0 -68 11t-53 30.5t-34 47.5t-12 61q0 70 49 108.5t146 45.5l152 10v28q0 52 -30 81.5t-82 29.5q-51 0 -83 -23.5t-40 -65.5h-90q8 73 65 117t152 44zM381 247
l-138 -11q-54 -4 -83 -27t-29 -62q0 -38 28 -62t73 -24q30 0 57 11.5t47.5 31t32.5 44.5t12 53v46z" />
    <glyph glyph-name="b" unicode="b" horiz-adv-x="569" 
d="M327 517q46 0 84.5 -18t66.5 -52t44 -82.5t16 -110.5q0 -61 -16.5 -110t-44.5 -82.5t-66 -51.5t-82 -18q-65 0 -114 29t-70 80h-2v-101h-95v700h99v-293h2q23 54 68.5 82t109.5 28zM292 70q67 0 107 49.5t40 134.5t-40 134.5t-107 49.5q-66 0 -105.5 -50.5t-39.5 -133.5
q0 -85 39.5 -134.5t105.5 -49.5z" />
    <glyph glyph-name="c" unicode="c" horiz-adv-x="535" 
d="M282 68q49 0 83 24t44 68h95q-12 -79 -71 -123.5t-152 -44.5q-113 0 -178 68t-65 194q0 125 65 194t177 69q46 0 84.5 -12t67.5 -34.5t47.5 -54.5t24.5 -71h-93q-11 44 -45.5 70t-83.5 26q-66 0 -106 -49.5t-40 -137.5q0 -87 40 -136.5t106 -49.5z" />
    <glyph glyph-name="d" unicode="d" horiz-adv-x="570" 
d="M242 517q66 0 111.5 -28t68.5 -82h1v293h100v-700h-96v101h-3q-20 -51 -69 -80t-113 -29q-44 0 -82.5 18t-67 51.5t-45 82.5t-16.5 110q0 62 16 110.5t44 82.5t66.5 52t84.5 18zM277 70q66 0 106 49.5t40 134.5q0 83 -40 133.5t-106 50.5q-67 0 -106.5 -49.5
t-39.5 -134.5t39.5 -134.5t106.5 -49.5z" />
    <glyph glyph-name="e" unicode="e" horiz-adv-x="549" 
d="M135 235q1 -79 41 -123.5t106 -44.5q54 0 86 24t45 69h93q-17 -83 -73 -125.5t-152 -42.5q-114 0 -178.5 67.5t-64.5 195.5q0 61 17 109.5t48.5 82.5t75.5 52t99 18t98 -18t73 -51t45.5 -80t15.5 -105v-28h-375zM278 442q-60 0 -98.5 -40.5t-43.5 -106.5h282
q-2 65 -40.5 106t-99.5 41z" />
    <glyph glyph-name="f" unicode="f" horiz-adv-x="327" 
d="M327 628q-19 2 -34.5 2h-25.5q-34 -2 -46 -19t-12 -54v-47h95v-68h-95v-442h-100v442h-84v68h84v47q0 81 40.5 115.5t112.5 34.5q28 0 65 -8v-71z" />
    <glyph glyph-name="g" unicode="g" horiz-adv-x="569" 
d="M521 510v-494q0 -50 -18 -87.5t-49.5 -62t-75 -37t-93.5 -12.5q-43 0 -81.5 8t-68.5 26t-51.5 46.5t-31.5 68.5h97q8 -22 22 -36t31.5 -22t37.5 -11t41 -3q30 0 56 6.5t45 21.5t30 40.5t11 63.5v90h-1q-22 -60 -68 -84.5t-110 -24.5q-45 0 -84 17.5t-67.5 50.5t-45 79.5
t-16.5 104.5q0 60 17 108t46 81.5t67.5 51t82.5 17.5q65 0 112 -26t70 -83h1v102h94zM277 85q66 0 106.5 47.5t40.5 128.5q0 39 -10.5 72t-29.5 56.5t-46.5 36.5t-60.5 13t-59.5 -13t-46 -36.5t-30 -56.5t-10.5 -74q0 -39 10.5 -71.5t30 -55t46 -35t59.5 -12.5z" />
    <glyph glyph-name="h" unicode="h" horiz-adv-x="555" 
d="M319 517q89 0 139 -49.5t50 -157.5v-310h-97v293q0 73 -31.5 109.5t-97.5 36.5q-31 0 -56 -13t-43 -36t-27.5 -55t-9.5 -70v-265h-98v700h97v-304q20 63 64.5 92t109.5 29z" />
    <glyph glyph-name="i" unicode="i" horiz-adv-x="235" 
d="M117 703q27 0 43.5 -16.5t16.5 -39.5q0 -25 -16.5 -41.5t-43.5 -16.5t-43.5 16.5t-16.5 41.5q0 23 16.5 39.5t43.5 16.5zM68 510h98v-510h-98v510z" />
    <glyph glyph-name="j" unicode="j" horiz-adv-x="239" 
d="M121 703q27 0 43.5 -16.5t16.5 -39.5q0 -25 -16.5 -41.5t-43.5 -16.5q-29 0 -44.5 16.5t-15.5 41.5q0 23 15.5 39.5t44.5 16.5zM71 510h98v-545q0 -81 -40.5 -114.5t-110.5 -33.5q-17 0 -33.5 1.5t-33.5 5.5v72q11 -2 20 -3t18 -1q39 0 60.5 16t21.5 59v543z" />
    <glyph glyph-name="k" unicode="k" horiz-adv-x="523" 
d="M504 0h-111q-10 17 -27 44t-35.5 55.5t-35.5 55.5t-28 44q-11 19 -25.5 29t-34.5 15l-61 -57v-186h-98v700h98v-408l228 218h120l-229 -213q26 -4 47.5 -16t35.5 -35z" />
    <glyph glyph-name="l" unicode="l" horiz-adv-x="284" 
d="M269 75v-71q-32 -7 -66 -7q-77 0 -107.5 42t-30.5 127v535h100v-550q0 -43 15.5 -61t63.5 -18q6 0 11.5 1t13.5 2z" />
    <glyph glyph-name="m" unicode="m" horiz-adv-x="831" 
d="M617 520q79 0 122.5 -49t43.5 -134v-337h-98v315q0 57 -27 91.5t-79 34.5q-27 0 -48.5 -11t-36 -30t-22 -44.5t-7.5 -55.5v-300h-98v315q0 57 -28.5 91.5t-79.5 34.5q-26 0 -47 -11t-35.5 -31t-22.5 -47.5t-8 -59.5v-292h-98v510h94v-101h1q17 53 55.5 82t98.5 29
t99 -30.5t56 -81.5h1q19 53 60 82.5t104 29.5z" />
    <glyph glyph-name="n" unicode="n" horiz-adv-x="555" 
d="M319 517q89 0 139 -49.5t50 -157.5v-310h-97v293q0 73 -31.5 109.5t-97.5 36.5q-31 0 -56 -13t-43 -36t-27.5 -55t-9.5 -70v-265h-98v510h97v-114q20 63 64.5 92t109.5 29z" />
    <glyph glyph-name="o" unicode="o" horiz-adv-x="549" 
d="M274 517q56 0 101.5 -17.5t77.5 -51.5t49.5 -83t17.5 -111t-17.5 -110.5t-49.5 -82.5t-77.5 -51.5t-101.5 -17.5q-55 0 -100.5 17.5t-77.5 51.5t-49.5 82.5t-17.5 110.5t17.5 111t49.5 83t77.5 51.5t100.5 17.5zM274 68q32 0 59.5 12.5t47.5 36.5t31.5 58.5t11.5 78.5
q0 45 -11.5 79.5t-31.5 58.5t-47.5 36.5t-59.5 12.5q-65 0 -106.5 -48.5t-41.5 -138.5q0 -89 41.5 -137.5t106.5 -48.5z" />
    <glyph glyph-name="p" unicode="p" horiz-adv-x="569" 
d="M327 517q44 0 82.5 -18t67 -52t45 -82.5t16.5 -110.5q0 -65 -17 -114t-47 -82t-71 -49.5t-88 -16.5q-55 0 -101.5 26t-66.5 79h-1v-274h-98v687h94v-103h1q20 51 65 80.5t119 29.5zM292 71q66 0 106.5 49t40.5 134t-40 135t-107 50q-66 0 -106 -50t-40 -134
q0 -83 40 -133.5t106 -50.5z" />
    <glyph glyph-name="q" unicode="q" horiz-adv-x="569" 
d="M242 517q74 0 119 -29.5t65 -80.5h1v103h94v-687h-98v274h-1q-20 -53 -66.5 -79t-101.5 -26q-47 0 -88 16.5t-71 49.5t-47 82t-17 114q0 62 16.5 110.5t45 82.5t67 52t82.5 18zM277 71q66 0 106 50.5t40 133.5q0 84 -40 134t-106 50q-67 0 -107 -50t-40 -135t40.5 -134
t106.5 -49z" />
    <glyph glyph-name="r" unicode="r" horiz-adv-x="349" 
d="M149 411q15 49 51 77.5t93 28.5q23 0 43 -4v-79q-17 4 -37 4q-35 0 -63 -14t-48 -37.5t-30.5 -55t-10.5 -66.5v-265h-97v510h96v-99h3z" />
    <glyph glyph-name="s" unicode="s" horiz-adv-x="488" 
d="M265 291q48 -10 83.5 -22t59 -28.5t35 -38.5t11.5 -53q0 -72 -55.5 -114.5t-151.5 -42.5q-38 0 -74.5 9t-65.5 28t-48.5 48.5t-24.5 71.5h94q6 -39 39.5 -63.5t80.5 -24.5q48 0 77.5 21t29.5 57q0 26 -21 43.5t-73 28.5l-69 14q-150 33 -150 138q0 36 16 64t43.5 47.5
t64 29.5t76.5 10q37 0 71 -9t61.5 -28t45 -49.5t21.5 -72.5h-90q-5 43 -35.5 65.5t-75.5 22.5q-43 0 -72.5 -21t-29.5 -54q0 -29 29 -45.5t98 -31.5z" />
    <glyph glyph-name="t" unicode="t" horiz-adv-x="340" 
d="M266 72q11 0 21 1t24 3v-72q-14 -3 -26 -5t-26 -2q-40 -2 -69 6t-48 27.5t-28.5 52t-9.5 81.5v278h-84v68h86v127h97v-127h101v-68h-101v-291q0 -41 13 -59t50 -20z" />
    <glyph glyph-name="u" unicode="u" horiz-adv-x="555" 
d="M508 510v-510h-96v113h-1q-12 -35 -32 -58t-44 -37t-50.5 -20t-52.5 -6q-88 0 -136 50t-48 157v311h98v-296q0 -73 30.5 -108.5t96.5 -35.5q31 0 56 13t43 36t27.5 55t9.5 70v266h99z" />
    <glyph glyph-name="v" unicode="v" horiz-adv-x="499" 
d="M314 0h-126l-183 510h106l140 -429h1l140 429h102z" />
    <glyph glyph-name="w" unicode="w" horiz-adv-x="745" 
d="M599 0h-112l-113 413h-3l-113 -413h-112l-134 510h101l97 -420h3l112 420h97l113 -420h3l96 420h99z" />
    <glyph glyph-name="x" unicode="x" horiz-adv-x="509" 
d="M379 0l-125 203h-2l-122 -203h-110l167 257l-167 253h110l122 -200h2l125 200h109l-170 -253l170 -257h-109z" />
    <glyph glyph-name="y" unicode="y" horiz-adv-x="498" 
d="M491 510q-7 -24 -25.5 -77.5t-42.5 -122t-51 -144t-51 -143.5q-22 -65 -45 -106t-50.5 -63.5t-62 -29.5t-81.5 -4q-11 0 -20 1t-20 6v69q11 -1 19.5 -1.5t19.5 -0.5q23 0 40.5 1.5t31 10t25 25.5t23.5 49l-194 530h106l137 -429h1l137 429h103z" />
    <glyph glyph-name="z" unicode="z" horiz-adv-x="491" 
d="M446 74v-74h-401v56l284 377v2h-284v75h401v-64l-278 -370v-2h278z" />
    <glyph glyph-name="braceleft" unicode="{" horiz-adv-x="383" 
d="M231 458q0 -29 -9.5 -51t-23 -38.5t-29 -26.5t-28.5 -15v-1q41 -11 65.5 -41.5t24.5 -86.5v-135q0 -46 22.5 -60.5t64.5 -14.5h41v-70h-56q-84 0 -124.5 33.5t-40.5 115.5v121q0 48 -24.5 76t-75.5 32v64q51 5 75.5 32.5t24.5 75.5v120q0 84 41 118t124 34h56v-73h-41
q-25 0 -42 -4.5t-27 -16.5t-14 -33t-4 -55v-100z" />
    <glyph glyph-name="bar" unicode="|" horiz-adv-x="288" 
d="M188 798v-902h-88v902h88z" />
    <glyph glyph-name="braceright" unicode="}" horiz-adv-x="383" 
d="M151 543q0 38 -3 62.5t-12 38t-26 18.5t-45 5h-40v73h54q90 0 128.5 -37.5t38.5 -130.5v-104q0 -48 24 -75.5t75 -32.5v-64q-51 -4 -75 -32t-24 -76v-105q0 -45 -9 -76.5t-29 -51t-51.5 -28.5t-77.5 -9h-54v70h40q41 0 63.5 14.5t22.5 60.5v135q0 56 25 86.5t67 41.5
q-13 5 -29 15.5t-30 26.5t-23.5 38t-9.5 52v85z" />
    <glyph glyph-name="asciitilde" unicode="~" horiz-adv-x="570" 
d="M187 323q-27 0 -43.5 -22t-17.5 -66h-80q0 79 33 124t98 45q32 0 58 -14.5t49.5 -32t46 -32t47.5 -14.5q29 0 47 23t20 69h79q0 -78 -36.5 -125t-98.5 -47q-33 0 -59.5 14.5t-50.5 31.5t-46 31.5t-46 14.5z" />
    <glyph glyph-name="uni0E33.alt1" horiz-adv-x="473" 
d="M-311 816q48 0 76.5 -25.5t28.5 -67.5q0 -41 -28.5 -67t-76.5 -26t-76 25.5t-28 67.5t28.5 67.5t75.5 25.5zM-311 682q18 0 31 11.5t13 29.5q0 20 -13 30.5t-31 10.5q-19 0 -30.5 -10.5t-11.5 -30.5q0 -18 11.5 -29.5t30.5 -11.5zM318 0v396q0 28 -10 47.5t-26.5 31.5
t-38 17.5t-44.5 6.5q-44 2 -82.5 -9t-83.5 -32v78q46 24 90.5 34.5t96.5 10.5q42 0 78 -10.5t63 -31.5t42 -53t15 -74v-412h-100z" />
    <glyph glyph-name="uni00AD" horiz-adv-x="295" 
 />
    <glyph glyph-name="exclamdown" unicode="&#xa1;" horiz-adv-x="251" 
d="M126 454q-31 0 -49 19.5t-18 45.5t18 45t49 19q29 0 47.5 -19t18.5 -45t-18.5 -45.5t-47.5 -19.5zM176 168v-285h-101v285l7 194h87z" />
    <glyph glyph-name="cent" unicode="&#xa2;" horiz-adv-x="535" 
d="M326 613v-100q73 -9 119.5 -54.5t58.5 -113.5h-93q-11 44 -45.5 70t-83.5 26q-66 0 -106 -49.5t-40 -137.5q0 -87 40 -136.5t106 -49.5q49 0 83 24t44 68h95q-12 -69 -58.5 -112t-119.5 -53v-99h-90v99q-93 11 -145.5 78.5t-52.5 180.5t52.5 180.5t145.5 78.5v100h90z
" />
    <glyph glyph-name="sterling" unicode="&#xa3;" horiz-adv-x="585" 
d="M56 347h85q-8 21 -18.5 43.5t-19.5 44t-15.5 42.5t-6.5 40q0 41 13 76t40 60.5t68 40t98 14.5q61 0 105 -18t72 -48.5t42 -71t15 -86.5h-93q-1 30 -9 56.5t-25 46t-43 30.5t-64 11q-65 0 -94 -32.5t-29 -83.5q0 -14 7 -32.5t17 -40t20 -45t16 -47.5h219v-71h-212
q-1 -34 -7.5 -60t-17 -48t-24 -42.5t-29.5 -42.5v-2h380v-81h-494v61q19 25 37 47t32.5 46t24.5 53t11 69h-101v71z" />
    <glyph glyph-name="currency" unicode="&#xa4;" horiz-adv-x="524" 
d="M64 323q0 62 36 110l-55 54l52 52l54 -55q23 18 51.5 27t58.5 9q61 0 109 -36l53 55l56 -51l-57 -55q36 -50 36 -110q0 -61 -36 -109l56 -54l-54 -54l-54 55q-24 -19 -51 -26.5t-58 -7.5q-30 0 -58.5 8.5t-51.5 25.5l-55 -56l-50 55l54 54q-36 46 -36 109zM136 323
q0 -25 9.5 -47.5t26.5 -39.5t40 -27.5t49 -10.5t48.5 10.5t39.5 27.5t26.5 39.5t9.5 47.5t-9.5 47.5t-26.5 40t-39.5 27.5t-48.5 10t-49 -10t-40 -27.5t-26.5 -40t-9.5 -47.5z" />
    <glyph glyph-name="yen" unicode="&#xa5;" horiz-adv-x="613" 
d="M228 370l-223 330h121l180 -288h1l180 288h120l-222 -330h134v-67h-162v-76h162v-67h-162v-160h-102v160h-161v67h161v76h-161v67h134z" />
    <glyph glyph-name="brokenbar" unicode="&#xa6;" horiz-adv-x="288" 
d="M188 798v-320h-88v320h88zM188 214v-318h-88v318h88z" />
    <glyph glyph-name="section" unicode="&#xa7;" horiz-adv-x="495" 
d="M265 154q-66 14 -110.5 29.5t-72.5 34.5t-40 43t-12 57q0 49 29 80.5t71 44.5q-50 18 -74.5 53.5t-24.5 77.5q0 35 16.5 62.5t45.5 47t68 29.5t85 10q39 0 77.5 -8t69 -26.5t51 -49.5t24.5 -77h-86q-14 45 -48 63.5t-90 18.5q-51 0 -82.5 -19t-31.5 -53q0 -28 22.5 -46
t78.5 -31q65 -14 110 -29t72.5 -33.5t39.5 -42.5t12 -57q0 -51 -29.5 -84t-71.5 -46q47 -20 74 -51.5t27 -73.5q0 -35 -16 -62.5t-44.5 -47t-68 -29.5t-86.5 -10q-39 0 -77 8t-69 26t-51.5 48.5t-25.5 75.5h86q16 -45 51 -62.5t84 -17.5q22 0 43 5t37.5 14t27 22.5
t10.5 29.5q0 28 -23 46.5t-78 29.5zM374 325q0 23 -12 39t-31.5 27t-44 16t-49.5 5q-57 0 -85.5 -25t-28.5 -62q0 -35 32.5 -61.5t103.5 -26.5q57 0 86 25.5t29 62.5z" />
    <glyph glyph-name="dieresis" unicode="&#xa8;" horiz-adv-x="460" 
d="M59 639q0 23 17.5 41.5t43.5 18.5q25 0 42.5 -18.5t17.5 -41.5q0 -26 -17.5 -44.5t-42.5 -18.5q-26 0 -43.5 18.5t-17.5 44.5zM280 639q0 23 17.5 41.5t43.5 18.5q24 0 42 -18.5t18 -41.5q0 -26 -18 -44.5t-42 -18.5q-26 0 -43.5 18.5t-17.5 44.5z" />
    <glyph glyph-name="copyright" unicode="&#xa9;" horiz-adv-x="819" 
d="M31 342q0 78 30 147t81 120.5t120 81t147 29.5t147 -29.5t120.5 -81t81 -120.5t29.5 -147t-29.5 -146.5t-81 -120t-120.5 -81t-147 -29.5t-147 29.5t-120 81t-81 120t-30 146.5zM100 342q0 -64 24 -120.5t66 -98.5t98.5 -66t120.5 -24q65 0 121.5 24t98.5 66t66.5 98.5
t24.5 120.5q0 65 -24.5 121.5t-66.5 99t-98.5 67t-121.5 24.5q-64 0 -120.5 -24.5t-98.5 -67t-66 -99t-24 -121.5zM416 195q39 0 66 19.5t37 55.5h73q-10 -63 -57.5 -99t-118.5 -36q-91 0 -143 57t-52 159t52 158t143 56q35 0 64.5 -10t53 -28t38.5 -43.5t20 -56.5h-73
q-10 35 -37.5 56.5t-65.5 21.5q-57 0 -88.5 -40.5t-31.5 -113.5q0 -75 31.5 -115.5t88.5 -40.5z" />
    <glyph glyph-name="ordfeminine" unicode="&#xaa;" horiz-adv-x="370" 
d="M194 708q60 0 95.5 -29.5t35.5 -78.5v-204h-70v54h-1q-13 -29 -43.5 -44.5t-63.5 -15.5q-45 0 -73.5 25t-28.5 67q0 43 30.5 66t89.5 28l87 5v15q0 28 -16 44t-45 16q-57 0 -67 -46h-65q5 45 40.5 71.5t94.5 26.5zM252 540l-76 -5q-30 -2 -45 -15t-15 -33q0 -22 15.5 -35
t39.5 -13q16 0 30.5 6.5t26 17t18 24.5t6.5 29v24z" />
    <glyph glyph-name="guillemotleft" unicode="&#xab;" horiz-adv-x="914" 
d="M499 622v-97l-349 -207v-1l349 -209v-96l-450 272v65zM865 622v-97l-349 -207v-1l349 -209v-96l-450 272v65z" />
    <glyph glyph-name="logicalnot" unicode="&#xac;" horiz-adv-x="478" 
d="M338 150v126h-292v80h385v-206h-93z" />
    <glyph glyph-name="registered" unicode="&#xae;" horiz-adv-x="819" 
d="M31 342q0 78 30 147t81 120.5t120 81t147 29.5t147 -29.5t120.5 -81t81 -120.5t29.5 -147t-29.5 -146.5t-81 -120t-120.5 -81t-147 -29.5t-147 29.5t-120 81t-81 120t-30 146.5zM100 342q0 -64 24 -120.5t66 -98.5t98.5 -66t120.5 -24q65 0 121.5 24t98.5 66t66.5 98.5
t24.5 120.5q0 65 -24.5 121.5t-66.5 99t-98.5 67t-121.5 24.5q-64 0 -120.5 -24.5t-98.5 -67t-66 -99t-24 -121.5zM517 141l-99 177h-70v-177h-74v418h176q62 0 98 -30.5t36 -89.5q0 -46 -24 -75t-70 -37l106 -186h-79zM348 375h87q79 0 79 64q0 33 -20.5 48t-58.5 15h-87
v-127z" />
    <glyph glyph-name="macron" unicode="&#xaf;" horiz-adv-x="580" 
d="M554 748h-528v76h528v-76z" />
    <glyph glyph-name="degree" unicode="&#xb0;" horiz-adv-x="397" 
d="M199 393q-37 0 -67 11.5t-52 32t-34 49.5t-12 64q0 70 44.5 114t120.5 44q36 0 66.5 -11.5t52 -32.5t33.5 -50t12 -64t-12 -64t-33.5 -49.5t-52 -32t-66.5 -11.5zM199 465q45 0 65 23.5t20 61.5q0 41 -21.5 64t-63.5 23q-45 0 -65.5 -23t-20.5 -64q0 -38 20.5 -61.5
t65.5 -23.5z" />
    <glyph glyph-name="plusminus" unicode="&#xb1;" horiz-adv-x="568" 
d="M521 307h-192v-169h-92v169h-191v75h191v169h92v-169h192v-75zM521 0h-475v74h475v-74z" />
    <glyph glyph-name="twosuperior" unicode="&#xb2;" horiz-adv-x="386" 
d="M341 423v-57h-292v42q9 10 27.5 28t40.5 39.5t43.5 43.5t37.5 39q21 21 35 36.5t22 27.5t11 22.5t3 20.5q0 30 -19.5 49.5t-57.5 19.5q-42 0 -61 -24.5t-19 -57.5h-67q0 28 9 53t27 44t45.5 30t65.5 11q72 0 109 -34.5t37 -85.5q0 -19 -4 -34.5t-14 -32t-26.5 -35
t-42.5 -44.5l-100 -100v-1h190z" />
    <glyph glyph-name="threesuperior" unicode="&#xb3;" horiz-adv-x="408" 
d="M273 579q40 -7 65 -31t25 -69q0 -24 -9.5 -45.5t-29.5 -38t-50.5 -26t-72.5 -9.5q-39 0 -68 11.5t-48.5 30.5t-29.5 44t-10 52h68q1 -14 7 -28t17 -25.5t27 -18.5t37 -7q41 0 64.5 17.5t23.5 51.5q0 32 -25 47.5t-65 15.5h-37v51h36q33 0 56.5 18.5t23.5 48.5
q0 31 -21 48t-56 17q-38 0 -59 -24t-22 -58h-67q2 59 40 98.5t108 39.5q37 0 64.5 -8.5t46 -23.5t28 -35t9.5 -42q0 -43 -20.5 -66.5t-55.5 -34.5v-1z" />
    <glyph glyph-name="acute" unicode="&#xb4;" horiz-adv-x="304" 
d="M45 595l105 188h109l-125 -188h-89z" />
    <glyph glyph-name="uni00B5" unicode="&#xb5;" horiz-adv-x="555" 
d="M412 0v108h-1q-20 -67 -57 -91.5t-95 -24.5q-37 0 -68 15.5t-48 48.5h-1v-233h-94v687h98v-292q0 -72 34.5 -110t92.5 -38q27 0 51.5 11t43.5 33t30 54t11 74v268h99v-510h-96z" />
    <glyph glyph-name="paragraph" unicode="&#xb6;" horiz-adv-x="660" 
d="M574 0h-86v625h-109v-625h-86v295q-13 -5 -31.5 -7.5t-33.5 -2.5q-42 0 -77 10.5t-60 34.5t-39 63.5t-14 96.5q0 62 14.5 102.5t41.5 64.5t64.5 33.5t83.5 9.5h332v-700z" />
    <glyph glyph-name="periodcentered" unicode="&#xb7;" horiz-adv-x="303" 
d="M72 317q0 32 23.5 54.5t57.5 22.5q16 0 30.5 -6t25 -16.5t16.5 -24.5t6 -30q0 -17 -6 -32t-16.5 -26t-25 -17.5t-30.5 -6.5q-34 0 -57.5 24t-23.5 58z" />
    <glyph glyph-name="cedilla" unicode="&#xb8;" horiz-adv-x="340" 
d="M63 -280l105 189h109l-126 -189h-88z" />
    <glyph glyph-name="onesuperior" unicode="&#xb9;" horiz-adv-x="267" 
d="M222 782v-419h-73v351l-104 -37v61l120 44h57z" />
    <glyph glyph-name="ordmasculine" unicode="&#xba;" horiz-adv-x="434" 
d="M45 577q0 103 47 158t125 55t125 -55t47 -158q0 -102 -47 -158t-125 -56t-125 55.5t-47 158.5zM312 577q0 78 -25 116t-70 38t-70.5 -38t-25.5 -116t25.5 -116.5t70.5 -38.5t70 38.5t25 116.5z" />
    <glyph glyph-name="guillemotright" unicode="&#xbb;" horiz-adv-x="914" 
d="M865 349v-65l-450 -272v96l349 209v1l-349 207v97zM499 349v-65l-450 -272v96l349 209v1l-349 207v97z" />
    <glyph glyph-name="onequarter" unicode="&#xbc;" horiz-adv-x="733" 
d="M508 700l-253 -700h-82l254 700h81zM196 700v-419h-73v351l-104 -37v61l120 44h57zM714 81h-55v-81h-74v81h-204v47l211 291h64v-281h58v-57zM589 136v181l-126 -181h126z" />
    <glyph glyph-name="onehalf" unicode="&#xbd;" horiz-adv-x="793" 
d="M509 700l-252 -700h-82l253 700h81zM196 700v-419h-73v351l-104 -37v61l120 44h57zM752 57v-57h-292v42q9 10 27.5 28t40 39.5l43.5 43.5t38 39q21 22 35 37.5t22 27.5t11 22t3 20q0 31 -19.5 50t-57.5 19q-42 0 -61 -24.5t-19 -56.5h-67q0 27 9 52t27 44t45.5 30
t65.5 11q72 0 109 -34t37 -86q0 -19 -4 -34.5t-14 -31.5t-26.5 -35t-42.5 -45l-100 -99v-2h190z" />
    <glyph glyph-name="threequarters" unicode="&#xbe;" horiz-adv-x="845" 
d="M266 497q40 -7 65 -31t25 -69q0 -24 -9.5 -45.5t-29.5 -38t-50.5 -26t-72.5 -9.5q-39 0 -68 11.5t-48.5 30.5t-29.5 44t-10 52h68q1 -14 7 -28t17 -25.5t27 -18.5t37 -7q41 0 64.5 18t23.5 52q0 32 -24.5 47t-65.5 15h-36v51h35q33 0 57 18.5t24 48.5q0 31 -21 48t-57 17
q-38 0 -58.5 -24t-22.5 -58h-67q2 60 40 99t108 39q37 0 64.5 -8.5t46 -23.5t28 -35t9.5 -42q0 -43 -20.5 -66.5t-55.5 -34.5v-1zM619 700l-252 -700h-82l254 700h80zM826 81h-55v-81h-74v81h-204v47l211 291h64v-281h58v-57zM701 136v181l-127 -181h127z" />
    <glyph glyph-name="questiondown" unicode="&#xbf;" horiz-adv-x="525" 
d="M255 456q-31 0 -49 18.5t-18 44.5t18 45t49 19t49 -19t18 -45t-18 -44.5t-49 -18.5zM263 -126q-110 0 -163.5 47t-53.5 136q0 34 11.5 59t29 45.5t38 38t38 37.5t29 43.5t11.5 56.5v25h105v-17q2 -44 -9.5 -75t-29.5 -54.5t-40.5 -41t-41.5 -34.5t-32 -36t-13 -45
q0 -45 28.5 -74t86.5 -29q63 0 95 37t36 97h92q-1 -45 -16 -84t-42.5 -68.5t-67.5 -46.5t-91 -17z" />
    <glyph glyph-name="Acircumflex" unicode="&#xc2;" horiz-adv-x="640" 
d="M493 755h-88l-86 133h-2l-86 -133h-86l137 210h73zM529 0l-60 172h-300l-60 -172h-108l257 700h124l257 -700h-110zM446 248l-125 354h-3l-126 -354h254z" />
    <glyph glyph-name="Adieresis" unicode="&#xc4;" horiz-adv-x="640" 
d="M146 862q0 24 18.5 41.5t44.5 17.5q23 0 40.5 -17.5t17.5 -41.5q0 -26 -17.5 -44t-40.5 -18q-26 0 -44.5 18t-18.5 44zM368 862q0 24 18 41.5t44 17.5q23 0 41.5 -17.5t18.5 -41.5q0 -26 -18.5 -44t-41.5 -18q-26 0 -44 18t-18 44zM529 0l-60 172h-300l-60 -172h-108
l257 700h124l257 -700h-110zM446 248l-125 354h-3l-126 -354h254z" />
    <glyph glyph-name="Aring" unicode="&#xc5;" horiz-adv-x="640" 
d="M201 765q0 25 8.5 46.5t24.5 37.5t37.5 25t47.5 9t48 -9t37.5 -25t24.5 -37.5t9 -46.5q0 -29 -12.5 -53t-33.5 -39l247 -673h-110l-60 172h-300l-60 -172h-108l246 671q-22 16 -34 40.5t-12 53.5zM319 711q25 0 40 15t15 39q0 26 -15 41t-40 15q-26 0 -41 -15t-15 -41
q0 -24 15 -39t41 -15zM446 248l-125 354h-3l-126 -354h254z" />
    <glyph glyph-name="AE" unicode="&#xc6;" horiz-adv-x="991" 
d="M581 619v-230h314v-79h-314v-231h365v-79h-467v172h-255l-111 -172h-112l447 700h498v-81h-365zM479 248v326l-210 -326h210z" />
    <glyph glyph-name="Ccedilla" unicode="&#xc7;" horiz-adv-x="673" 
d="M356 75q70 0 118 34.5t65 97.5h102q-9 -49 -33 -89t-61 -68t-85.5 -43t-105.5 -15q-75 0 -134 24.5t-100 71t-62.5 113.5t-21.5 151q0 83 22 149t63 112t100 70.5t133 24.5q56 0 104 -16.5t85.5 -46t62 -70.5t33.5 -91h-102q-17 63 -65.5 101.5t-117.5 38.5
q-102 0 -158.5 -71.5t-56.5 -200.5q0 -65 14.5 -116.5t42.5 -87t67.5 -54.5t90.5 -19zM322 -280h-89l105 189h110z" />
    <glyph glyph-name="Ecircumflex" unicode="&#xca;" horiz-adv-x="564" 
d="M460 755h-87l-86 133h-3l-86 -133h-86l138 210h72zM154 619v-230h313v-79h-313v-231h365v-79h-467v700h467v-81h-365z" />
    <glyph glyph-name="Edieresis" unicode="&#xcb;" horiz-adv-x="564" 
d="M119 862q0 24 18 41.5t44 17.5q24 0 41.5 -17.5t17.5 -41.5q0 -26 -17.5 -44t-41.5 -18q-26 0 -44 18t-18 44zM341 862q0 24 18 41.5t44 17.5q23 0 41.5 -17.5t18.5 -41.5q0 -26 -18.5 -44t-41.5 -18q-26 0 -44 18t-18 44zM154 619v-230h313v-79h-313v-231h365v-79h-467
v700h467v-81h-365z" />
    <glyph glyph-name="Icircumflex" unicode="&#xce;" horiz-adv-x="218" 
d="M284 755h-88l-85 133h-3l-86 -133h-86l138 210h72zM59 700h101v-700h-101v700z" />
    <glyph glyph-name="Idieresis" unicode="&#xcf;" horiz-adv-x="218" 
d="M-63 862q0 24 18.5 41.5t44.5 17.5q23 0 41 -17.5t18 -41.5q0 -26 -18 -44t-41 -18q-26 0 -44.5 18t-18.5 44zM160 862q0 24 17.5 41.5t43.5 17.5q23 0 41.5 -17.5t18.5 -41.5q0 -26 -18.5 -44t-41.5 -18q-26 0 -43.5 18t-17.5 44zM59 700h101v-700h-101v700z" />
    <glyph glyph-name="Eth" unicode="&#xd0;" horiz-adv-x="740" 
d="M25 383h102v317h228q80 0 144 -23t109 -67.5t69 -109.5t24 -148q0 -84 -24.5 -149.5t-69.5 -110.5t-109.5 -68.5t-144.5 -23.5h-226v317h-102v66zM341 79q119 0 186.5 70.5t67.5 201.5q0 130 -67 199t-184 69h-115v-236h190v-66h-190v-238h112z" />
    <glyph glyph-name="Ntilde" unicode="&#xd1;" horiz-adv-x="670" 
d="M248 858q-24 0 -40.5 -20.5t-16.5 -62.5h-75q0 76 31 116t92 40q30 0 53.5 -14t45 -30.5t43 -30.5t46.5 -14q26 0 44 23t20 64h74q0 -74 -34 -115.5t-94 -41.5q-30 0 -54.5 13.5t-46.5 29.5t-43 29.5t-45 13.5zM517 700h101v-700h-91l-373 536h-3v-536h-99v700h91
l371 -532h3v532z" />
    <glyph glyph-name="Ocircumflex" unicode="&#xd4;" horiz-adv-x="711" 
d="M393 965l138 -210h-88l-86 133h-2l-86 -133h-86l138 210h72zM356 708q75 0 135 -25t102 -71.5t64.5 -112.5t22.5 -148q0 -84 -22.5 -150.5t-64.5 -113t-102 -71t-135 -24.5q-76 0 -136 24.5t-102 71t-64.5 113t-22.5 150.5q0 82 22.5 148t64.5 112.5t102 71.5t136 25z
M356 76q102 0 160 73t58 202q0 128 -58 199t-160 71q-104 0 -162 -71t-58 -199q0 -129 58 -202t162 -73z" />
    <glyph glyph-name="Odieresis" unicode="&#xd6;" horiz-adv-x="711" 
d="M181 862q0 24 18.5 41.5t44.5 17.5q24 0 42 -17.5t18 -41.5q0 -26 -18 -44t-42 -18q-26 0 -44.5 18t-18.5 44zM404 862q0 24 17.5 41.5t43.5 17.5q25 0 42.5 -17.5t17.5 -41.5q0 -26 -17.5 -44t-42.5 -18q-26 0 -43.5 18t-17.5 44zM356 708q75 0 135 -25t102 -71.5
t64.5 -112.5t22.5 -148q0 -84 -22.5 -150.5t-64.5 -113t-102 -71t-135 -24.5q-76 0 -136 24.5t-102 71t-64.5 113t-22.5 150.5q0 82 22.5 148t64.5 112.5t102 71.5t136 25zM356 76q102 0 160 73t58 202q0 128 -58 199t-160 71q-104 0 -162 -71t-58 -199q0 -129 58 -202
t162 -73z" />
    <glyph glyph-name="multiply" unicode="&#xd7;" horiz-adv-x="525" 
d="M321 317l158 -157l-60 -60l-157 158l-157 -158l-59 60l159 157l-159 158l58 57l158 -158l158 158l59 -57z" />
    <glyph glyph-name="Oslash" unicode="&#xd8;" horiz-adv-x="711" 
d="M356 708q75 0 135 -25t102 -71.5t64.5 -112.5t22.5 -148q0 -84 -22.5 -150.5t-64.5 -113t-102 -71t-135 -24.5q-76 0 -136 24.5t-102 71t-64.5 113t-22.5 150.5q0 82 22.5 148t64.5 112.5t102 71.5t136 25zM136 351q0 -84 25 -143t70 -92l181 498q-14 3 -28 5t-28 2
q-104 0 -162 -71t-58 -199zM356 76q102 0 160 73t58 202q0 77 -22 134t-64 89l-177 -493q23 -5 45 -5z" />
    <glyph glyph-name="Ucircumflex" unicode="&#xdb;" horiz-adv-x="659" 
d="M366 965l138 -210h-88l-86 133h-3l-85 -133h-86l137 210h73zM153 257q0 -84 46 -131.5t130 -47.5q85 0 131 47t46 132v443h101v-453q0 -58 -19.5 -105.5t-55.5 -80.5t-87.5 -51t-115.5 -18q-63 0 -114.5 18t-87.5 51t-55.5 80.5t-19.5 105.5v453h101v-443z" />
    <glyph glyph-name="Udieresis" unicode="&#xdc;" horiz-adv-x="659" 
d="M378 862q0 24 18.5 41.5t44.5 17.5q23 0 41.5 -17.5t18.5 -41.5q0 -26 -18.5 -44t-41.5 -18q-26 0 -44.5 18t-18.5 44zM158 862q0 24 18 41.5t44 17.5q23 0 41.5 -17.5t18.5 -41.5q0 -26 -18.5 -44t-41.5 -18q-26 0 -44 18t-18 44zM153 257q0 -84 46 -131.5t130 -47.5
q85 0 131 47t46 132v443h101v-453q0 -58 -19.5 -105.5t-55.5 -80.5t-87.5 -51t-115.5 -18q-63 0 -114.5 18t-87.5 51t-55.5 80.5t-19.5 105.5v453h101v-443z" />
    <glyph glyph-name="Thorn" unicode="&#xde;" horiz-adv-x="568" 
d="M153 544h159q103 0 161.5 -49t58.5 -146t-58.5 -147.5t-162.5 -50.5h-158v-151h-101v700h101v-156zM153 464v-233h139q69 0 107 27.5t38 90.5q0 61 -37.5 88t-107.5 27h-139z" />
    <glyph glyph-name="germandbls" unicode="&#xdf;" horiz-adv-x="621" 
d="M50 0v473q0 64 14 109t43.5 73t74 40.5t105.5 12.5q62 0 108 -14.5t76.5 -40.5t45.5 -62t15 -79q0 -56 -29 -96t-80 -50q32 -6 60.5 -20.5t50 -36.5t34 -51t12.5 -64q0 -58 -20.5 -97t-53.5 -62t-75.5 -33t-86.5 -10q-48 0 -92 9v71q14 -2 29 -3.5t29 -1.5q34 0 64.5 7
t54 22.5t37 39.5t13.5 58q0 31 -15.5 55.5t-39.5 41.5t-54 26t-59 9h-42v81h42q21 0 43 5.5t40 17.5t29.5 32t11.5 48q0 25 -6.5 46t-23 36.5t-45.5 24t-73 8.5t-71 -11.5t-42 -33t-20 -52.5t-5 -70v-458h-99z" />
    <glyph glyph-name="acircumflex" unicode="&#xe2;" horiz-adv-x="528" 
d="M449 576h-87l-86 132h-3l-86 -132h-86l138 210h72zM273 517q97 0 152 -48.5t55 -128.5v-340h-95v96h-2q-10 -25 -29 -44.5t-43.5 -32.5t-52.5 -20t-57 -7q-37 0 -68 11t-53 30.5t-34 47.5t-12 61q0 70 49 108.5t146 45.5l152 10v28q0 52 -30 81.5t-82 29.5
q-51 0 -83 -23.5t-40 -65.5h-90q8 73 65 117t152 44zM381 247l-138 -11q-54 -4 -83 -27t-29 -62q0 -38 28 -62t73 -24q30 0 57 11.5t47.5 31t32.5 44.5t12 53v46z" />
    <glyph glyph-name="adieresis" unicode="&#xe4;" horiz-adv-x="528" 
d="M108 670q0 23 17.5 41.5t43.5 18.5q24 0 42 -18.5t18 -41.5q0 -26 -18 -44.5t-42 -18.5q-26 0 -43.5 18.5t-17.5 44.5zM327 670q0 23 18.5 41.5t44.5 18.5q24 0 42 -18.5t18 -41.5q0 -26 -18 -44.5t-42 -18.5q-26 0 -44.5 18.5t-18.5 44.5zM273 517q97 0 152 -48.5
t55 -128.5v-340h-95v96h-2q-10 -25 -29 -44.5t-43.5 -32.5t-52.5 -20t-57 -7q-37 0 -68 11t-53 30.5t-34 47.5t-12 61q0 70 49 108.5t146 45.5l152 10v28q0 52 -30 81.5t-82 29.5q-51 0 -83 -23.5t-40 -65.5h-90q8 73 65 117t152 44zM381 247l-138 -11q-54 -4 -83 -27
t-29 -62q0 -38 28 -62t73 -24q30 0 57 11.5t47.5 31t32.5 44.5t12 53v46z" />
    <glyph glyph-name="aring" unicode="&#xe5;" horiz-adv-x="528" 
d="M157 697q0 51 33 84.5t87 33.5q26 0 47 -9t37 -25t24.5 -37.5t8.5 -46.5t-8.5 -46.5t-24.5 -37t-37 -24t-47 -8.5q-53 0 -86.5 32.5t-33.5 83.5zM277 640q26 0 41 15.5t15 41.5q0 27 -15 43t-41 16t-42.5 -16t-16.5 -43q0 -26 16.5 -41.5t42.5 -15.5zM273 517
q97 0 152 -48.5t55 -128.5v-340h-95v96h-2q-10 -25 -29 -44.5t-43.5 -32.5t-52.5 -20t-57 -7q-37 0 -68 11t-53 30.5t-34 47.5t-12 61q0 70 49 108.5t146 45.5l152 10v28q0 52 -30 81.5t-82 29.5q-51 0 -83 -23.5t-40 -65.5h-90q8 73 65 117t152 44zM381 247l-138 -11
q-54 -4 -83 -27t-29 -62q0 -38 28 -62t73 -24q30 0 57 11.5t47.5 31t32.5 44.5t12 53v46z" />
    <glyph glyph-name="ae" unicode="&#xe6;" horiz-adv-x="899" 
d="M484 235q2 -79 42 -123.5t107 -44.5q53 0 84.5 24t45.5 69h93q-18 -83 -74 -125.5t-150 -42.5q-148 0 -206 114q-18 -33 -43.5 -55t-54 -35t-58.5 -18.5t-56 -5.5q-37 0 -69.5 11t-57 30.5t-39 47.5t-14.5 61q0 80 60 114.5t175 42.5l120 7v28q0 52 -34 81.5t-86 29.5
q-51 0 -83 -23.5t-40 -65.5h-90q8 73 65 117t152 44q60 0 108 -23t71 -64q29 42 73.5 64.5t103.5 22.5q55 0 98 -18t72.5 -51t45 -80t15.5 -105v-28h-376zM628 442q-61 0 -98.5 -40.5t-43.5 -106.5h282q-3 65 -40.5 106t-99.5 41zM389 247l-146 -11q-54 -3 -83 -26.5
t-29 -62.5q0 -19 8.5 -34.5t23.5 -27t35 -18t42 -6.5q30 0 57 11.5t47.5 31t32.5 44.5t12 53v46z" />
    <glyph glyph-name="ccedilla" unicode="&#xe7;" horiz-adv-x="535" 
d="M282 68q49 0 83 24t44 68h95q-12 -79 -71 -123.5t-152 -44.5q-113 0 -178 68t-65 194q0 125 65 194t177 69q46 0 84.5 -12t67.5 -34.5t47.5 -54.5t24.5 -71h-93q-11 44 -45.5 70t-83.5 26q-66 0 -106 -49.5t-40 -137.5q0 -87 40 -136.5t106 -49.5zM242 -280h-89l105 189
h109z" />
    <glyph glyph-name="ecircumflex" unicode="&#xea;" horiz-adv-x="549" 
d="M456 576h-88l-86 132h-4l-86 -132h-84l136 210h73zM135 235q1 -79 41 -123.5t106 -44.5q54 0 86 24t45 69h93q-17 -83 -73 -125.5t-152 -42.5q-114 0 -178.5 67.5t-64.5 195.5q0 61 17 109.5t48.5 82.5t75.5 52t99 18t98 -18t73 -51t45.5 -80t15.5 -105v-28h-375z
M278 442q-60 0 -98.5 -40.5t-43.5 -106.5h282q-2 65 -40.5 106t-99.5 41z" />
    <glyph glyph-name="edieresis" unicode="&#xeb;" horiz-adv-x="549" 
d="M109 670q0 23 18 41.5t44 18.5q23 0 41.5 -18.5t18.5 -41.5q0 -26 -18.5 -44.5t-41.5 -18.5q-26 0 -44 18.5t-18 44.5zM330 670q0 23 18.5 41.5t44.5 18.5q23 0 41 -18.5t18 -41.5q0 -26 -18 -44.5t-41 -18.5q-26 0 -44.5 18.5t-18.5 44.5zM135 235q1 -79 41 -123.5
t106 -44.5q54 0 86 24t45 69h93q-17 -83 -73 -125.5t-152 -42.5q-114 0 -178.5 67.5t-64.5 195.5q0 61 17 109.5t48.5 82.5t75.5 52t99 18t98 -18t73 -51t45.5 -80t15.5 -105v-28h-375zM278 442q-60 0 -98.5 -40.5t-43.5 -106.5h282q-2 65 -40.5 106t-99.5 41z" />
    <glyph glyph-name="icircumflex" unicode="&#xee;" horiz-adv-x="235" 
d="M291 576h-86l-86 132h-4l-86 -132h-85l137 210h72zM68 510h98v-510h-98v510z" />
    <glyph glyph-name="idieresis" unicode="&#xef;" horiz-adv-x="235" 
d="M-53 670q0 23 17.5 41.5t43.5 18.5q24 0 42 -18.5t18 -41.5q0 -26 -18 -44.5t-42 -18.5q-26 0 -43.5 18.5t-17.5 44.5zM166 670q0 23 18.5 41.5t44.5 18.5q24 0 41.5 -18.5t17.5 -41.5q0 -26 -17.5 -44.5t-41.5 -18.5q-26 0 -44.5 18.5t-18.5 44.5zM68 510h98v-510h-98
v510z" />
    <glyph glyph-name="eth" unicode="&#xf0;" horiz-adv-x="621" 
d="M588 674l-110 -64q46 -46 73.5 -113.5t27.5 -152.5q0 -96 -22.5 -163t-61 -109t-88.5 -61t-105 -19t-102.5 17.5t-81.5 49t-53.5 75.5t-19.5 98q0 45 17 86t47.5 72t72.5 49.5t92 18.5q78 0 134.5 -32.5t79.5 -91.5q2 75 -21 134t-63 98l-139 -79l-22 41l121 70
q-28 18 -59 28t-65 10v72q54 0 105 -16.5t94 -48.5l126 72zM304 67q34 0 63.5 12.5t51 35t34 53t12.5 65.5q0 32 -12.5 60t-34.5 49t-51.5 33.5t-63.5 12.5t-63.5 -12t-51 -33.5t-33.5 -51t-12 -63.5t12.5 -63t34 -51t51 -34.5t63.5 -12.5z" />
    <glyph glyph-name="ntilde" unicode="&#xf1;" horiz-adv-x="555" 
d="M210 675q-25 0 -35.5 -17t-10.5 -59h-77q0 76 26.5 113t87.5 37q25 0 46.5 -12t41.5 -26t39 -26t38 -12q49 0 53 80h74q0 -74 -29 -114t-87 -40q-27 0 -49.5 12t-42.5 26t-38.5 26t-36.5 12zM319 517q89 0 139 -49.5t50 -157.5v-310h-97v293q0 73 -31.5 109.5t-97.5 36.5
q-31 0 -56 -13t-43 -36t-27.5 -55t-9.5 -70v-265h-98v510h97v-114q20 63 64.5 92t109.5 29z" />
    <glyph glyph-name="ocircumflex" unicode="&#xf4;" horiz-adv-x="549" 
d="M448 576h-88l-86 132h-2l-86 -132h-86l136 210h74zM274 517q56 0 101.5 -17.5t77.5 -51.5t49.5 -83t17.5 -111t-17.5 -110.5t-49.5 -82.5t-77.5 -51.5t-101.5 -17.5q-55 0 -100.5 17.5t-77.5 51.5t-49.5 82.5t-17.5 110.5t17.5 111t49.5 83t77.5 51.5t100.5 17.5zM274 68
q32 0 59.5 12.5t47.5 36.5t31.5 58.5t11.5 78.5q0 45 -11.5 79.5t-31.5 58.5t-47.5 36.5t-59.5 12.5q-65 0 -106.5 -48.5t-41.5 -138.5q0 -89 41.5 -137.5t106.5 -48.5z" />
    <glyph glyph-name="odieresis" unicode="&#xf6;" horiz-adv-x="549" 
d="M104 670q0 23 18 41.5t44 18.5q24 0 41.5 -18.5t17.5 -41.5q0 -26 -17.5 -44.5t-41.5 -18.5q-26 0 -44 18.5t-18 44.5zM325 670q0 23 17.5 41.5t43.5 18.5q25 0 42.5 -18.5t17.5 -41.5q0 -26 -17.5 -44.5t-42.5 -18.5q-26 0 -43.5 18.5t-17.5 44.5zM274 517
q56 0 101.5 -17.5t77.5 -51.5t49.5 -83t17.5 -111t-17.5 -110.5t-49.5 -82.5t-77.5 -51.5t-101.5 -17.5q-55 0 -100.5 17.5t-77.5 51.5t-49.5 82.5t-17.5 110.5t17.5 111t49.5 83t77.5 51.5t100.5 17.5zM274 68q32 0 59.5 12.5t47.5 36.5t31.5 58.5t11.5 78.5
q0 45 -11.5 79.5t-31.5 58.5t-47.5 36.5t-59.5 12.5q-65 0 -106.5 -48.5t-41.5 -138.5q0 -89 41.5 -137.5t106.5 -48.5z" />
    <glyph glyph-name="divide" unicode="&#xf7;" horiz-adv-x="568" 
d="M218 471q0 26 18 43.5t48 17.5q29 0 46.5 -17.5t17.5 -43.5t-17.5 -44.5t-46.5 -18.5q-30 0 -48 18.5t-18 44.5zM521 280h-475v73h475v-73zM218 161q0 26 18 43.5t48 17.5q29 0 46.5 -17.5t17.5 -43.5t-17.5 -43.5t-46.5 -17.5q-30 0 -48 17.5t-18 43.5z" />
    <glyph glyph-name="oslash" unicode="&#xf8;" horiz-adv-x="549" 
d="M274 517q56 0 101.5 -17.5t77.5 -51.5t49.5 -83t17.5 -111t-17.5 -110.5t-49.5 -82.5t-77.5 -51.5t-101.5 -17.5q-55 0 -100.5 17.5t-77.5 51.5t-49.5 82.5t-17.5 110.5t17.5 111t49.5 83t77.5 51.5t100.5 17.5zM126 254q0 -96 50 -143l119 327q-5 1 -10.5 2t-10.5 1
q-65 0 -106.5 -48.5t-41.5 -138.5zM274 68q32 0 59.5 12.5t47.5 36.5t31.5 58.5t11.5 78.5q0 49 -14 85.5t-37 60.5l-119 -329q4 -1 9 -2t11 -1z" />
    <glyph glyph-name="ucircumflex" unicode="&#xfb;" horiz-adv-x="555" 
d="M312 786l138 -210h-87l-86 132h-3l-86 -132h-86l138 210h72zM508 510v-510h-96v113h-1q-12 -35 -32 -58t-44 -37t-50.5 -20t-52.5 -6q-88 0 -136 50t-48 157v311h98v-296q0 -73 30.5 -108.5t96.5 -35.5q31 0 56 13t43 36t27.5 55t9.5 70v266h99z" />
    <glyph glyph-name="udieresis" unicode="&#xfc;" horiz-adv-x="555" 
d="M330 670q0 23 18 41.5t44 18.5q23 0 41.5 -18.5t18.5 -41.5q0 -26 -18.5 -44.5t-41.5 -18.5q-26 0 -44 18.5t-18 44.5zM109 670q0 23 18 41.5t44 18.5q24 0 42 -18.5t18 -41.5q0 -26 -18 -44.5t-42 -18.5q-26 0 -44 18.5t-18 44.5zM508 510v-510h-96v113h-1
q-12 -35 -32 -58t-44 -37t-50.5 -20t-52.5 -6q-88 0 -136 50t-48 157v311h98v-296q0 -73 30.5 -108.5t96.5 -35.5q31 0 56 13t43 36t27.5 55t9.5 70v266h99z" />
    <glyph glyph-name="thorn" unicode="&#xfe;" horiz-adv-x="569" 
d="M538 254q0 -65 -17 -114t-47 -82t-71 -49.5t-88 -16.5q-55 0 -101.5 26t-66.5 79h-1v-274h-98v859h98v-271h1q20 52 66.5 79t101.5 27q47 0 88 -17t71 -50t47 -82t17 -114zM439 254q0 85 -40.5 134.5t-106.5 49.5q-33 0 -59.5 -13.5t-46 -37.5t-30 -57.5t-10.5 -74.5
q0 -83 40 -133.5t106 -50.5t106.5 49t40.5 134z" />
    <glyph glyph-name="ydieresis" unicode="&#xff;" horiz-adv-x="498" 
d="M304 670q0 23 18 41.5t44 18.5q23 0 41.5 -18.5t18.5 -41.5q0 -26 -18.5 -44.5t-41.5 -18.5q-26 0 -44 18.5t-18 44.5zM83 670q0 23 18 41.5t44 18.5q24 0 42 -18.5t18 -41.5q0 -26 -18 -44.5t-42 -18.5q-26 0 -44 18.5t-18 44.5zM491 510q-7 -24 -25.5 -77.5t-42.5 -122
t-51 -144t-51 -143.5q-22 -65 -45 -106t-50.5 -63.5t-62 -29.5t-81.5 -4q-11 0 -20 1t-20 6v69q11 -1 19.5 -1.5t19.5 -0.5q23 0 40.5 1.5t31 10t25 25.5t23.5 49l-194 530h106l137 -429h1l137 429h103z" />
    <glyph glyph-name="dotlessi" unicode="&#x131;" horiz-adv-x="235" 
d="M68 510h98v-510h-98v510z" />
    <glyph glyph-name="Lslash" unicode="&#x141;" horiz-adv-x="584" 
d="M128 317h-102v66h102v317h101v-317h206v-66h-206v-238h337v-79h-438v317z" />
    <glyph glyph-name="lslash" unicode="&#x142;" horiz-adv-x="433" 
d="M16 383h150v317h101v-317h149v-66h-149v-317h-101v317h-150v66z" />
    <glyph glyph-name="OE" unicode="&#x152;" horiz-adv-x="1019" 
d="M356 708q20 0 40.5 -2t40.5 -6h537v-81h-402q48 -35 74 -93.5t31 -136.5h247v-79h-247q-5 -79 -31.5 -138t-73.5 -93h402v-79h-537q-20 -4 -40.5 -6t-40.5 -2q-76 0 -136 24.5t-102 71t-64.5 113t-22.5 150.5q0 82 22.5 148t64.5 112.5t102 71.5t136 25zM356 76
q102 0 160 73t58 202q0 128 -58 199t-160 71q-104 0 -162 -71t-58 -199q0 -129 58 -202t162 -73z" />
    <glyph glyph-name="oe" unicode="&#x153;" horiz-adv-x="935" 
d="M520 235q0 -39 11 -70.5t31 -53t47.5 -33t59.5 -11.5q52 0 84.5 24t44.5 69h94q-17 -83 -73 -125.5t-152 -42.5q-70 0 -119 27.5t-77 81.5q-29 -53 -79.5 -81t-117.5 -28q-55 0 -100.5 17.5t-77.5 51.5t-49.5 82.5t-17.5 110.5t17.5 111t49.5 83t77.5 51.5t100.5 17.5
q68 0 118.5 -29t78.5 -81q29 51 78 80.5t116 29.5q55 0 98 -18t72.5 -51.5t45 -80.5t15.5 -104v-28h-376zM663 442q-60 0 -98 -40.5t-44 -106.5h283q-2 65 -40.5 106t-100.5 41zM274 68q32 0 59.5 12.5t47.5 36.5t31.5 58.5t11.5 78.5q0 45 -11.5 79.5t-31.5 58.5
t-47.5 36.5t-59.5 12.5q-65 0 -106.5 -48.5t-41.5 -138.5q0 -89 41.5 -137.5t106.5 -48.5z" />
    <glyph glyph-name="Scaron" unicode="&#x160;" horiz-adv-x="602" 
d="M334 755h-72l-138 210h86l86 -134h3l86 134h87zM359 386q109 -23 159 -66t50 -121q0 -48 -19 -86t-53.5 -65t-83.5 -41.5t-110 -14.5q-59 0 -107.5 15t-83.5 42t-55 65t-22 84h97q8 -56 53.5 -91t119.5 -35q73 0 116 32t43 86q0 45 -33 71t-112 43l-74 15
q-103 23 -151.5 68t-48.5 119q0 45 19.5 82t53 64t79.5 41.5t99 14.5q62 0 109.5 -16.5t79.5 -45.5t49.5 -68t19.5 -84h-100q-4 57 -44.5 94.5t-112.5 37.5q-33 0 -60.5 -8t-47.5 -23t-31 -36t-11 -46q0 -45 32.5 -70t106.5 -40z" />
    <glyph glyph-name="scaron" unicode="&#x161;" horiz-adv-x="488" 
d="M207 576l-136 210h85l86 -135h4l86 135h87l-139 -210h-73zM265 291q48 -10 83.5 -22t59 -28.5t35 -38.5t11.5 -53q0 -72 -55.5 -114.5t-151.5 -42.5q-38 0 -74.5 9t-65.5 28t-48.5 48.5t-24.5 71.5h94q6 -39 39.5 -63.5t80.5 -24.5q48 0 77.5 21t29.5 57q0 26 -21 43.5
t-73 28.5l-69 14q-150 33 -150 138q0 36 16 64t43.5 47.5t64 29.5t76.5 10q37 0 71 -9t61.5 -28t45 -49.5t21.5 -72.5h-90q-5 43 -35.5 65.5t-75.5 22.5q-43 0 -72.5 -21t-29.5 -54q0 -29 29 -45.5t98 -31.5z" />
    <glyph glyph-name="Ydieresis" unicode="&#x178;" horiz-adv-x="613" 
d="M135 862q0 24 18.5 41.5t44.5 17.5q23 0 41 -17.5t18 -41.5q0 -26 -18 -44t-41 -18q-26 0 -44.5 18t-18.5 44zM357 862q0 24 18 41.5t44 17.5q23 0 41.5 -17.5t18.5 -41.5q0 -26 -18.5 -44t-41.5 -18q-26 0 -44 18t-18 44zM357 315v-315h-102v318l-250 382h121l180 -288
h1l180 288h120z" />
    <glyph glyph-name="uni008E" horiz-adv-x="609" 
d="M276 755l-138 210h86l86 -134h2l86 134h88l-138 -210h-72zM564 81v-81h-519v67l388 550v2h-378v81h502v-68l-384 -550v-1h391z" />
    <glyph glyph-name="uni008E" unicode="&#x17d;" horiz-adv-x="609" 
d="M276 755l-138 210h86l86 -134h2l86 134h88l-138 -210h-72zM564 81v-81h-519v67l388 550v2h-378v81h502v-68l-384 -550v-1h391z" />
    <glyph glyph-name="uni009E" horiz-adv-x="491" 
d="M218 576l-136 210h84l86 -135h5l85 135h88l-139 -210h-73zM446 74v-74h-401v56l284 377v2h-284v75h401v-64l-278 -370v-2h278z" />
    <glyph glyph-name="uni009E" unicode="&#x17e;" horiz-adv-x="491" 
d="M218 576l-136 210h84l86 -135h5l85 135h88l-139 -210h-73zM446 74v-74h-401v56l284 377v2h-284v75h401v-64l-278 -370v-2h278z" />
    <glyph glyph-name="florin" unicode="&#x192;" horiz-adv-x="383" 
d="M337 505v-68h-95v-288q0 -89 -45 -124.5t-125 -32.5q-12 1 -24 2.5t-26 5.5v71q15 -1 26.5 -2.5t22.5 -1.5q42 1 56.5 18t14.5 57v295h-85v68h85v52q0 42 12 71.5t34 47t53.5 24.5t69.5 5q12 -1 24.5 -2t26.5 -6v-69q-16 1 -27.5 2.5t-22.5 -0.5q-41 -1 -55.5 -17.5
t-14.5 -57.5v-50h95z" />
    <glyph glyph-name="circumflex" unicode="&#x2c6;" horiz-adv-x="473" 
d="M411 576h-88l-86 132h-4l-86 -132h-84l136 210h73z" />
    <glyph glyph-name="caron" unicode="&#x2c7;" horiz-adv-x="473" 
d="M199 576l-136 210h84l86 -134h4l86 134h88l-139 -210h-73z" />
    <glyph glyph-name="breve" unicode="&#x2d8;" horiz-adv-x="400" 
d="M337 715q0 -28 -10 -52.5t-28.5 -42.5t-44 -28.5t-55.5 -10.5t-55 10.5t-43 28.5t-28 42.5t-10 52.5h69q0 -29 19 -46.5t48 -17.5q30 0 48 17.5t18 46.5h72z" />
    <glyph glyph-name="dotaccent" unicode="&#x2d9;" horiz-adv-x="237" 
d="M120 693q22 0 38.5 -15.5t16.5 -38.5q0 -25 -16.5 -41.5t-38.5 -16.5q-25 0 -41 16.5t-16 41.5q0 23 16 38.5t41 15.5z" />
    <glyph glyph-name="ring" unicode="&#x2da;" horiz-adv-x="363" 
d="M63 697q0 25 8.5 46.5t24.5 37.5t37.5 25t47.5 9t48 -9t37.5 -25t24.5 -37.5t9 -46.5q0 -51 -33.5 -83.5t-85.5 -32.5t-85 32.5t-33 83.5zM181 640q26 0 42 15.5t16 41.5q0 27 -16 43t-42 16t-42 -16t-16 -43q0 -26 16 -41.5t42 -15.5z" />
    <glyph glyph-name="ogonek" unicode="&#x2db;" horiz-adv-x="227" 
 />
    <glyph glyph-name="tilde" unicode="&#x2dc;" horiz-adv-x="531" 
d="M186 675q-25 0 -36.5 -17t-11.5 -59h-75q0 76 25.5 113t86.5 37q26 0 47.5 -12t41.5 -26t39 -26t38 -12q51 0 52 80h75q0 -74 -29.5 -114t-87.5 -40q-27 0 -49.5 12t-42.5 26t-38 26t-35 12z" />
    <glyph glyph-name="hungarumlaut" unicode="&#x2dd;" horiz-adv-x="497" 
d="M266 783l-125 -188h-78l105 188h98zM434 783l-124 -188h-79l105 188h98z" />
    <glyph glyph-name="uni0E00" unicode="&#xe00;" 
 />
    <glyph glyph-name="uni0E01" unicode="&#xe01;" horiz-adv-x="617" 
d="M307 581q131 0 194 -58t63 -170v-353h-100v344q0 78 -38 116.5t-120 38.5q-68 0 -112.5 -25.5t-55.5 -87.5h119v-42q-45 -17 -65.5 -49t-20.5 -86v-209h-99v192q0 55 22.5 94.5t69.5 50.5h-119q0 121 66.5 182.5t195.5 61.5z" />
    <glyph glyph-name="uni0E02" unicode="&#xe02;" horiz-adv-x="573" 
d="M520 577v-375q0 -59 -16 -99.5t-46.5 -65t-74.5 -35t-101 -10.5q-56 0 -100 10t-74.5 34t-46.5 63.5t-16 98.5v37q0 46 19 79t41.5 59t41.5 47.5t19 44.5q0 21 -11 29t-50 8h-49v75h65q78 0 113 -21.5t35 -77.5q0 -32 -19.5 -59t-42.5 -55t-42.5 -59.5t-19.5 -73.5
q0 -37 5 -66.5t19.5 -50t41.5 -31.5t71 -11q45 0 72 12t41.5 33.5t19.5 51.5t5 66v342h100z" />
    <glyph glyph-name="uni0E03" unicode="&#xe03;" horiz-adv-x="592" 
d="M539 577v-375q0 -59 -16 -99.5t-46.5 -65t-74.5 -35t-100 -10.5q-57 0 -101 10t-74 34t-46 63.5t-16 98.5v37q0 43 20.5 76t46 60.5t48 50.5t27.5 46q3 14 1 27t-14 15q-11 2 -18 -1t-12 -10.5t-8 -17.5t-6 -21h-54l-85 117h76l41 -72q2 34 21.5 53t57.5 19q19 0 36 -4
t30 -14t21 -25.5t8 -39.5q0 -40 -21.5 -71t-47 -60.5t-47 -61.5t-21.5 -74q0 -36 5 -64.5t19.5 -48.5t41.5 -31t71 -11t71 11.5t41.5 33t19.5 51.5t5 67v342h100z" />
    <glyph glyph-name="uni0E04" unicode="&#xe04;" horiz-adv-x="625" 
d="M312 581q62 0 109.5 -12.5t80.5 -40.5t50 -72.5t17 -108.5v-347h-100v334q0 38 -8 68t-26 51.5t-48 33t-75 11.5q-44 0 -74 -11.5t-48 -33t-26 -51.5t-8 -68v-117q20 44 61.5 65t86.5 21h48v-83h-53q-30 0 -56 -9t-45.5 -24.5t-30.5 -36.5t-11 -45v-105h-100v347
q0 64 17 108.5t50 72.5t80.5 40.5t108.5 12.5z" />
    <glyph glyph-name="uni0E05" unicode="&#xe05;" horiz-adv-x="624" 
d="M194 581q45 0 77 -21.5t41 -62.5q10 41 41.5 62.5t76.5 21.5q42 0 69 -11.5t42 -34.5t21 -57t6 -80v-398h-100v423q0 12 -1 25t-7 24.5t-18.5 19t-36.5 7.5q-29 0 -41 -22t-17 -51h-69q-4 29 -17.5 51t-42.5 22q-23 0 -35.5 -7.5t-18.5 -19t-7 -25t-1 -24.5v-206
q19 45 61 65.5t87 20.5h48v-83h-53q-30 0 -55.5 -8.5t-45 -23.5t-30.5 -35.5t-12 -43.5v-109h-100v398q0 46 6 80t21 57t42 34.5t69 11.5z" />
    <glyph glyph-name="uni0E06" unicode="&#xe06;" horiz-adv-x="633" 
d="M78 235q0 43 19.5 76t43.5 60.5t46 50.5t27 46q3 14 1 27t-14 15q-11 2 -18 -1t-12 -10.5t-8 -17.5t-6 -21h-55l-84 117h75l42 -72q6 76 82 76q42 0 67 -25t22 -73q-3 -37 -24 -66.5t-44 -58t-42 -59t-19 -70.5q0 -31 13.5 -59t37 -50t55.5 -35t69 -13q62 0 96 34t34 110
v361h98v-389q0 -47 -14.5 -83.5t-39.5 -61.5t-59.5 -38t-74.5 -13q-85 0 -141 29t-75 83h-3v-104h-95v235z" />
    <glyph glyph-name="uni0E07" unicode="&#xe07;" horiz-adv-x="588" 
d="M274 579q68 6 119 -3t85 -36t51.5 -73.5t17.5 -115.5q0 -40 -12 -86t-37 -92t-63 -90.5t-90 -82.5h-108l-233 577h101l197 -506q44 39 73 79t45.5 76t23 67.5t6.5 53.5q0 40 -8 70.5t-28 50t-54 27.5t-86 3v81z" />
    <glyph glyph-name="uni0E08" unicode="&#xe08;" horiz-adv-x="583" 
d="M277 581q74 0 124 -24t80.5 -63t44 -89t13.5 -101q0 -66 -20 -122t-55.5 -96.5t-85 -63t-108.5 -22.5h-65l-86 237h-74v74h142l82 -232q47 2 79.5 22t53 51.5t30 71.5t9.5 82t-10.5 77.5t-31.5 61t-51.5 39.5t-70.5 14q-24 0 -47 -6t-43 -17t-35 -28t-22 -39h-96
q7 41 29.5 73t55.5 54t74 34t84 12z" />
    <glyph glyph-name="uni0E09" unicode="&#xe09;" horiz-adv-x="625" 
d="M34 312h149v-114q0 -70 34.5 -98t93.5 -28q37 0 67 13t51 34.5t32.5 50.5t11.5 61v118q0 32 -9 59t-29.5 47t-52.5 31.5t-78 11.5q-23 0 -46 -6t-43.5 -17.5t-36 -28.5t-22.5 -38h-97q8 40 30.5 72t56 54.5t74.5 34.5t84 12q61 0 110.5 -14t84.5 -43t54 -73t19 -104v-347
h-97v102h-2q-19 -54 -71.5 -84.5t-142.5 -24.5q-34 2 -65 15.5t-55 36.5t-38 55.5t-14 72.5v67h-53v72z" />
    <glyph glyph-name="uni0E0A" unicode="&#xe0a;" horiz-adv-x="568" 
d="M420 261q0 30 -3 53t-13.5 40t-31.5 27t-57 13v66q35 1 57 10t35 25t18 37.5t6 48.5h93q0 -73 -24.5 -108.5t-77.5 -49.5q29 -10 47.5 -24.5t30 -36.5t16 -53t4.5 -73v-35q0 -60 -16 -100t-46.5 -64t-74.5 -34.5t-101 -10.5q-56 0 -100 10t-74.5 34t-46.5 63.5t-16 98.5
v37q0 46 19 79t41.5 59t41.5 47.5t19 44.5q0 21 -11 29t-50 8h-49v75h65q78 0 113 -21.5t35 -77.5q0 -32 -19.5 -59t-42.5 -55t-42.5 -59.5t-19.5 -73.5q0 -37 5 -66.5t19.5 -50t41.5 -31.5t71 -11q45 0 72 11.5t41.5 32.5t19.5 50.5t5 66.5v28z" />
    <glyph glyph-name="uni0E0B" unicode="&#xe0b;" horiz-adv-x="587" 
d="M441 423q27 -9 45.5 -23.5t30.5 -35.5t17 -50.5t5 -69.5v-43q0 -60 -16 -100t-46.5 -64t-74.5 -34.5t-100 -10.5q-57 0 -101 10t-74 34t-46 63.5t-16 98.5v37q0 43 20.5 76t46 60.5t48 50.5t27.5 46q3 14 1 27t-14 15q-11 2 -18 -1t-12 -10.5t-8 -17.5t-6 -21h-54
l-85 117h76l41 -72q6 76 82 76q39 0 65.5 -19.5t26.5 -67.5q0 -40 -21.5 -71t-47 -60.5t-47 -61.5t-21.5 -74q0 -36 5 -64.5t19.5 -48.5t41.5 -31t71 -11t71 11.5t41.5 32.5t19.5 50.5t5 66.5v28q0 30 -3 53t-13.5 40t-31.5 27t-57 13v66q35 1 57 10t35 25t18 37.5t6 48.5
h93q0 -73 -24.5 -108.5t-77.5 -49.5z" />
    <glyph glyph-name="uni0E0C" unicode="&#xe0c;" horiz-adv-x="948" 
d="M443 344q0 78 -34 116.5t-114 38.5q-67 0 -106.5 -25.5t-52.5 -87.5h123v-44q-48 -17 -75 -59.5t-27 -99.5q0 -33 7 -53.5t19.5 -32.5t31 -17t40.5 -6q13 -2 25.5 -1t27.5 3v-73q-43 -10 -86 -10q-34 1 -64.5 11.5t-52.5 32t-35 53t-13 74.5q0 33 9 61t23 50t32.5 38
t36.5 24h-113q0 121 62 182.5t189 61.5t186.5 -58t59.5 -170v-109q0 -33 12.5 -64t33 -55t47 -38.5t55.5 -14.5t49.5 6t33 21t18.5 39.5t6 60.5v378h98v-397q0 -94 -47 -141t-126 -47q-37 0 -67 9t-52.5 24.5t-37.5 36t-23 42.5h-3v-104h-96v344z" />
    <glyph glyph-name="uni0E0D" unicode="&#xe0d;" horiz-adv-x="948" 
d="M895 89q0 -114 -52.5 -176.5t-175.5 -62.5q-85 0 -145.5 37.5t-73.5 112.5h94q5 -21 17 -36t29 -24.5t37.5 -14t41.5 -4.5q61 0 97 35t36 107v90h-3q-8 -22 -21.5 -42.5t-34 -36t-48.5 -25t-65 -9.5q-39 0 -73 11.5t-59 35t-39 59.5t-14 85v113q0 78 -34 116.5t-114 38.5
q-67 0 -106.5 -25.5t-52.5 -87.5h123v-44q-48 -17 -75 -59.5t-27 -99.5q0 -33 7 -53.5t19.5 -32.5t31 -17t40.5 -6q13 -2 25.5 -1t27.5 3v-72q-23 -6 -44 -8.5t-42 -2.5q-34 1 -64.5 11.5t-52.5 32t-35 53t-13 74.5q0 33 9 61t23 50t32.5 38t36.5 24h-113q0 121 62 182.5
t189 61.5q128 0 187.5 -58t59.5 -170v-103q0 -39 8 -64t23 -39.5t36.5 -20t48.5 -5.5t52 12.5t44 34.5t30.5 52t11.5 65v292h98v-488z" />
    <glyph glyph-name="uni0E0E" unicode="&#xe0e;" horiz-adv-x="626" 
d="M317 581q131 0 193.5 -58t62.5 -170v-548h-79q-57 41 -105.5 59.5t-86.5 18.5q-48 0 -77 -22t-39 -56h-92q6 43 25 72t45.5 46t59.5 24.5t68 6.5q46 -2 93.5 -18t87.5 -44v452q0 78 -38 116.5t-120 38.5q-68 0 -111.5 -25.5t-56.5 -87.5h130v-42q-38 -14 -56 -46t-18 -77
v-76q0 -29 -5 -56t-18 -48t-35.5 -33.5t-57.5 -12.5q-17 0 -33.5 1t-38.5 5v73q15 -3 24.5 -3.5t17.5 0.5q28 4 39.5 22t11.5 52v75q0 37 17.5 69.5t50.5 47.5h-121q2 121 68.5 182.5t193.5 61.5z" />
    <glyph glyph-name="uni0E0F" unicode="&#xe0f;" horiz-adv-x="626" 
d="M317 581q131 0 193.5 -58t62.5 -170v-372q0 -36 -7.5 -68t-25 -56t-45 -38t-68.5 -14q-21 0 -43 5.5t-41.5 15.5t-35 24.5t-23.5 32.5l-187 -77h-21v73l198 80h45q11 -32 37.5 -53t56.5 -19q23 1 41.5 18t18.5 49v390q0 78 -38 116.5t-120 38.5q-68 0 -111.5 -25.5
t-56.5 -87.5h130v-42q-40 -14 -57 -48.5t-17 -82.5v-48q0 -33 -3.5 -64t-15.5 -54.5t-35 -37.5t-62 -14q-17 0 -33.5 1t-38.5 5v73q15 -3 24.5 -3.5t17.5 0.5q28 4 39.5 22t11.5 52v75q0 37 17.5 69.5t50.5 47.5h-121q2 121 68.5 182.5t193.5 61.5z" />
    <glyph glyph-name="uni0E10" unicode="&#xe10;" horiz-adv-x="589" 
d="M437 -57q0 21 -9.5 34t-24 20t-31.5 8.5t-32 -0.5q-22 -3 -39 -4t-25 -1h-67l-88 237h-72v74h142l81 -232q47 2 79 22.5t52.5 52.5t29.5 73t9 83q0 38 -9.5 72t-30 60t-51.5 41.5t-74 15.5q-22 0 -45 -6t-43 -17.5t-35 -28.5t-23 -39h-97q8 41 29.5 71.5t53.5 52t73 34
t88 15.5l292 28v-74l-165 -12v-2q70 -23 102.5 -79t32.5 -132q0 -93 -34 -162.5t-97 -106.5q54 -2 88 -29t34 -82q0 -60 -37 -96.5t-104 -36.5q-21 0 -43.5 5t-42.5 14.5t-35 24t-23 32.5l-178 -76h-19v73l188 81h44q11 -34 35 -54t50 -20q13 0 25.5 2.5t22.5 10t16.5 20.5
t6.5 33z" />
    <glyph glyph-name="uni0E11" unicode="&#xe11;" horiz-adv-x="624" 
d="M454 581q36 0 58.5 -11.5t35 -33.5t17.5 -52t5 -68v-416h-98v418q0 23 -3.5 38t-11 23.5t-20 11.5t-29.5 3q-18 0 -38.5 -10t-41.5 -27t-42.5 -39t-42.5 -45q-12 -14 -25 -30.5t-23.5 -35.5t-17 -41t-6.5 -46v-220h-97v235q0 43 19 76t43 60.5t45.5 51t25.5 46.5
q3 14 0.5 26.5t-13.5 14.5t-18 -1.5t-11.5 -11t-7 -17.5t-4.5 -20h-57l-85 117h76l41 -72q6 76 82 76q58 0 70 -42q6 -20 0 -48q39 42 79.5 66t94.5 24z" />
    <glyph glyph-name="uni0E12" unicode="&#xe12;" horiz-adv-x="976" 
d="M471 423q0 11 -1 24.5t-6 25t-17 19t-35 7.5q-29 0 -41.5 -22t-17.5 -51h-68q-6 31 -18 52t-42 21q-29 0 -45.5 -18.5t-25 -47.5t-10.5 -66t-2 -75q0 -40 6 -78t22 -67.5t44 -48.5t71 -23q14 -2 29.5 -0.5t29.5 3.5v-77q-14 -3 -30 -4t-30 -1q-56 0 -101 17.5t-76.5 53.5
t-48 90.5t-16.5 127.5q0 69 7.5 123.5t26 93t51.5 59t84 20.5q46 0 72 -22t36 -64q10 42 36 64t71 22q46 0 74 -11.5t43.5 -35t20.5 -58t5 -80.5v-160q0 -32 13 -62t34 -52.5t48 -36t54 -13.5q29 0 49 6t32.5 21t18.5 39.5t6 60.5v378h98v-397q0 -94 -47 -141t-126 -47
q-37 0 -67 9t-52.5 24.5t-37.5 36t-23 42.5h-3v-104h-95v423z" />
    <glyph glyph-name="uni0E13" unicode="&#xe13;" horiz-adv-x="948" 
d="M800 0v104h-3q-8 -22 -21.5 -42.5t-34 -36t-48.5 -24.5t-65 -9q-39 0 -73 11t-58.5 33.5t-39 57t-14.5 81.5v169q0 78 -34 116.5t-114 38.5q-67 0 -106.5 -25.5t-52.5 -87.5h123v-44q-48 -17 -75 -59.5t-27 -99.5q0 -33 7 -53.5t19.5 -32.5t31 -17t40.5 -6q13 -2 25.5 -1
t27.5 3v-72q-23 -6 -44 -8.5t-42 -2.5q-34 1 -64.5 11.5t-52.5 32t-35 53t-13 74.5q0 33 9 61t23 50t32.5 38t36.5 24h-113q0 121 62 182.5t189 61.5q128 0 187.5 -58t59.5 -170v-159q0 -36 8 -59.5t23 -37.5t36.5 -19.5t48.5 -5.5q28 0 53 12.5t44 34.5t30 52t11 65v341h98
v-577h-95z" />
    <glyph glyph-name="uni0E14" unicode="&#xe14;" horiz-adv-x="626" 
d="M315 581q49 0 95.5 -11.5t82.5 -38t58 -68.5t22 -103v-360h-98v359q0 39 -14 65.5t-37 43t-51.5 23.5t-57.5 7q-46 0 -78.5 -17.5t-53.5 -47t-30.5 -68t-9.5 -80.5q0 -40 6.5 -78.5t24 -67.5t48 -47t78.5 -18q11 0 25.5 1t23.5 3v-77q-13 -3 -30.5 -4t-31.5 -1
q-113 0 -179 71t-66 218q0 72 19.5 127t55 92.5t86 57t112.5 19.5z" />
    <glyph glyph-name="uni0E15" unicode="&#xe15;" horiz-adv-x="626" 
d="M427 581q44 0 72 -10.5t44.5 -32t23 -53t6.5 -73.5v-412h-100v423q0 11 -0.5 24.5t-6 25t-18 19t-35.5 7.5q-29 0 -41 -22t-17 -51h-68q-5 31 -18 52t-42 21t-46 -18.5t-25.5 -47.5t-11 -66t-2.5 -75q0 -40 6 -78t22 -67.5t44 -48.5t71 -23q14 -2 29.5 -0.5t29.5 3.5v-77
q-14 -3 -30 -4t-30 -1q-56 0 -101 17.5t-76.5 53.5t-48 90.5t-16.5 127.5q0 69 7.5 123.5t26.5 93t52.5 59t84.5 20.5q45 0 71 -22t37 -64q18 86 106 86z" />
    <glyph glyph-name="uni0E16" unicode="&#xe16;" horiz-adv-x="617" 
d="M307 581q131 0 194 -58t63 -170v-353h-100v344q0 78 -38 116.5t-120 38.5q-68 0 -112.5 -25.5t-57.5 -87.5h123v-44q-48 -17 -75 -59.5t-27 -99.5q0 -33 7 -53.5t20 -32.5t31 -17t40 -6q13 -2 25.5 -1t27.5 3v-72q-23 -6 -44 -8.5t-42 -2.5q-34 1 -64.5 12t-52.5 32
t-35 52.5t-13 74.5q0 33 9 61t23 50t32.5 38t36.5 24h-113q0 121 66.5 182.5t195.5 61.5z" />
    <glyph glyph-name="uni0E17" unicode="&#xe17;" horiz-adv-x="617" 
d="M363 583q41 0 77 -12.5t64 -36.5t44 -59.5t16 -81.5v-393h-99v367q0 36 -11.5 62t-31 42t-45.5 23.5t-55 7.5q-38 0 -69.5 -11.5t-54 -33t-35 -51.5t-12.5 -68v-338h-98v577h94v-106h3q17 52 74 82t139 30z" />
    <glyph glyph-name="uni0E18" unicode="&#xe18;" horiz-adv-x="564" 
d="M147 401q101 -18 171.5 -40t115 -50.5t65 -64.5t20.5 -81q0 -44 -18 -76t-50 -53t-75.5 -31t-95.5 -10q-48 0 -90.5 11t-74 32t-50.5 52t-20 71q0 30 7 53t15 40h87q-8 -19 -13.5 -41.5t-4.5 -50.5q1 -23 13.5 -40t33 -27.5t46 -15.5t52.5 -5q28 0 53.5 5t45.5 16t32 29
t12 45q0 29 -17 53t-59 45t-114 41t-182 41v29q0 53 20 91.5t53 63.5t74.5 36.5t84.5 11.5q44 0 84.5 -12.5t72.5 -35t52 -52.5t23 -66h-94q-3 18 -15.5 34t-31.5 27.5t-42 18t-49 6.5q-25 0 -49 -6t-42.5 -18.5t-30.5 -31.5t-15 -44z" />
    <glyph glyph-name="uni0E19" unicode="&#xe19;" horiz-adv-x="609" 
d="M555 0h-95v104h-2q-26 -56 -74.5 -84t-133.5 -28q-40 0 -76 12.5t-63 36.5t-42.5 60t-15.5 83v393h98v-368q0 -36 11 -62t30 -42.5t44.5 -24.5t54.5 -8q37 0 67.5 13t52.5 34.5t34 50.5t12 61v346h98v-577z" />
    <glyph glyph-name="uni0E1A" unicode="&#xe1a;" horiz-adv-x="615" 
d="M562 577v-353q0 -63 -17 -107.5t-49 -72t-79.5 -40t-108.5 -12.5t-108.5 12.5t-80 40t-49.5 72t-17 107.5v353h100v-341q0 -37 7.5 -67.5t25.5 -52t48 -33t74 -11.5t74 11.5t48 33t25.5 52t7.5 67.5v341h99z" />
    <glyph glyph-name="uni0E1B" unicode="&#xe1b;" horiz-adv-x="615" 
d="M562 708v-484q0 -63 -17 -107.5t-49 -72t-79.5 -40t-108.5 -12.5t-108.5 12.5t-80 40t-49.5 72t-17 107.5v353h100v-341q0 -37 7.5 -67.5t25.5 -52t48 -33t74 -11.5t74 11.5t48 33t25.5 52t7.5 67.5v472h99z" />
    <glyph glyph-name="uni0E1C" unicode="&#xe1c;" horiz-adv-x="628" 
d="M572 577v-577h-89l-169 211l-168 -211h-90v415q1 86 46.5 126t121.5 40q12 0 25 -1.5t27 -3.5v-71q-11 2 -19 2.5t-15 0.5q-26 0 -43 -8t-27 -22t-14 -33t-4 -41v-283l141 181h38l140 -181v456h99z" />
    <glyph glyph-name="uni0E1D" unicode="&#xe1d;" horiz-adv-x="628" 
d="M572 708v-708h-89l-169 211l-168 -211h-90v415q1 86 46.5 126t121.5 40q12 0 25 -1.5t27 -3.5v-71q-11 2 -19 2.5t-15 0.5q-26 0 -43 -8t-27 -22t-14 -33t-4 -41v-283l141 181h38l140 -181v587h99z" />
    <glyph glyph-name="uni0E1E" unicode="&#xe1e;" horiz-adv-x="763" 
d="M745 577l-132 -577h-88l-143 448l-146 -448h-87l-131 577h101l86 -434l137 421h78l138 -421l86 434h101z" />
    <glyph glyph-name="uni0E1F" unicode="&#xe1f;" horiz-adv-x="761" 
d="M774 708l-161 -708h-88l-143 448l-146 -448h-87l-131 577h101l86 -434l137 421h78l138 -421l117 565h99z" />
    <glyph glyph-name="uni0E20" unicode="&#xe20;" horiz-adv-x="626" 
d="M317 581q131 0 193.5 -58t62.5 -170v-353h-98v344q0 78 -39 116.5t-121 38.5q-68 0 -112.5 -25.5t-55.5 -87.5h130v-42q-38 -14 -56 -46t-18 -77v-76q0 -30 -5 -57t-18 -47.5t-35.5 -33t-57.5 -12.5q-17 0 -33.5 1t-38.5 5v73q15 -3 24.5 -3.5t17.5 0.5q28 4 39.5 22
t11.5 52v75q0 37 17.5 69.5t50.5 47.5h-121q0 121 67 182.5t195 61.5z" />
    <glyph glyph-name="uni0E21" unicode="&#xe21;" horiz-adv-x="609" 
d="M53 0v577h98v-346q0 -32 14 -61t38.5 -50.5t57 -34.5t69.5 -13q56 0 91.5 30.5t35.5 103.5v371h98v-391q0 -47 -14 -83t-39 -61t-58.5 -37.5t-72.5 -12.5q-83 0 -141 28t-79 84h-2v-104h-96z" />
    <glyph glyph-name="uni0E22" unicode="&#xe22;" horiz-adv-x="603" 
d="M550 577v-346q0 -128 -61.5 -183.5t-185.5 -55.5t-189 45t-65 135q0 60 31 94t84 49q-50 13 -79.5 43t-31.5 81q-1 38 10 65t31 44.5t49 26t64 8.5q38 0 80 -9v-75q-14 2 -26 3.5t-23 1.5q-77 0 -84 -61q-3 -25 8 -42.5t30.5 -29t44 -17t48.5 -5.5h37v-72h-33
q-22 0 -46.5 -4.5t-45.5 -15.5t-34.5 -28.5t-13.5 -44.5q0 -24 7.5 -44.5t25 -35.5t47 -23.5t74.5 -8.5q47 0 76 12.5t45.5 36.5t22 57.5t5.5 75.5v323h98z" />
    <glyph glyph-name="uni0E23" unicode="&#xe23;" horiz-adv-x="536" 
d="M342 310q35 -11 63 -24t47.5 -31t30.5 -41t11 -54q0 -45 -19.5 -76.5t-52 -52t-73.5 -29.5t-83 -9t-81.5 10.5t-70 31.5t-50 52t-22.5 71h92q9 -39 46 -62.5t87 -23.5q27 0 50.5 5.5t41 16.5t28 28t10.5 39q0 18 -9.5 31t-30 24t-53 21t-79.5 21q-39 9 -71.5 21.5t-55 31
t-35 44t-11.5 61.5q0 39 18.5 69.5t49 52t70 32.5t80.5 11t79.5 -10.5t68.5 -31.5t49.5 -52t20.5 -72h-90q-5 41 -41.5 63.5t-86.5 22.5q-24 0 -46 -6t-38.5 -17t-26.5 -26.5t-10 -35.5q0 -22 15 -37t41.5 -26t61.5 -21t75 -22z" />
    <glyph glyph-name="uni0E24" unicode="&#xe24;" horiz-adv-x="617" 
d="M307 581q131 0 194 -58t63 -170v-548h-100v539q0 78 -38 116.5t-120 38.5q-68 0 -112.5 -25.5t-57.5 -87.5h123v-44q-48 -17 -75 -59.5t-27 -99.5q0 -33 7 -53.5t20 -32.5t31 -17t40 -6q13 -2 25.5 -1t27.5 3v-72q-23 -6 -44 -8.5t-42 -2.5q-34 1 -64.5 12t-52.5 32
t-35 52.5t-13 74.5q0 33 9 61t23 50t32.5 38t36.5 24h-113q0 121 66.5 182.5t195.5 61.5z" />
    <glyph glyph-name="uni0E25" unicode="&#xe25;" horiz-adv-x="595" 
d="M542 0h-100v262q-81 -3 -137 -8.5t-91.5 -17.5t-51.5 -32t-16 -51q0 -34 21.5 -55.5t60.5 -21.5q15 -1 33 1t38 6v-75q-56 -14 -108 -12q-31 1 -57.5 11.5t-46.5 29t-31.5 47t-11.5 65.5q0 63 31.5 99.5t86 55.5t127 26t153.5 11q-1 33 -7.5 61.5t-23 49.5t-46 33.5
t-76.5 12.5t-84 -23.5t-52 -66.5h-97q8 40 28.5 72t51.5 54.5t70 34.5t83 12q121 0 187 -56t66 -178v-347z" />
    <glyph glyph-name="uni0E26" unicode="&#xe26;" horiz-adv-x="626" 
d="M317 581q131 0 193.5 -58t62.5 -170v-548h-98v539q0 78 -39 116.5t-121 38.5q-68 0 -112.5 -25.5t-55.5 -87.5h130v-42q-38 -14 -56 -46t-18 -77v-76q0 -30 -5 -57t-18 -47.5t-35.5 -33t-57.5 -12.5q-17 0 -33.5 1t-38.5 5v73q15 -3 24.5 -3.5t17.5 0.5q28 4 39.5 22
t11.5 52v75q0 37 17.5 69.5t50.5 47.5h-121q0 121 67 182.5t195 61.5z" />
    <glyph glyph-name="uni0E27" unicode="&#xe27;" horiz-adv-x="568" 
d="M270 581q121 0 187.5 -74.5t66.5 -217.5q0 -142 -65 -217.5t-189 -75.5q-44 0 -82.5 12t-69.5 34t-51.5 54t-28.5 72h97q16 -43 51.5 -67.5t83.5 -24.5q44 0 74 18t48.5 47.5t26.5 68t8 79.5q0 40 -8 77.5t-26.5 67t-48.5 47t-74 17.5q-48 0 -83.5 -23.5t-51.5 -66.5h-97
q8 40 28.5 72t51.5 54.5t69.5 34.5t82.5 12z" />
    <glyph glyph-name="uni0E28" unicode="&#xe28;" horiz-adv-x="626" 
d="M56 347q0 65 17 108t50 69.5t81 39.5t110 17q30 2 69.5 5.5t80 7.5t78.5 8t65 7v-74l-161 -11v-1q35 -9 58.5 -25.5t37.5 -42t20 -60t6 -81.5v-314h-99v347q0 34 -7.5 61.5t-25.5 47.5t-47.5 31t-74.5 11q-44 0 -74.5 -11.5t-49 -33t-26.5 -51.5t-8 -68v-117
q20 44 61.5 65t86.5 21h48v-83h-53q-30 0 -56 -9t-45.5 -24.5t-30.5 -36.5t-11 -45v-105h-100v347z" />
    <glyph glyph-name="uni0E29" unicode="&#xe29;" horiz-adv-x="626" 
d="M349 383q1 -13 3.5 -22t10.5 -14.5t22.5 -7.5t38.5 -2h37v240h100v-240h52v-72h-52v-41q0 -63 -17 -107.5t-49.5 -72t-79.5 -40t-108 -12.5t-109 12.5t-80 40t-49 72t-17 107.5v353h99v-341q0 -37 7.5 -67.5t25.5 -52t48 -33t75 -11.5q44 0 73.5 11.5t47.5 33t25.5 52
t7.5 67.5v29h-50q-51 0 -81.5 9t-46 25t-19 37.5t-2.5 46.5h87z" />
    <glyph glyph-name="uni0E2A" unicode="&#xe2a;" horiz-adv-x="599" 
d="M580 609v-74l-161 -11v-1q35 -9 59 -25.5t38 -42t20 -60t6 -81.5v-314h-100v262q-81 -3 -137 -8.5t-91.5 -17.5t-51.5 -32t-16 -51q0 -35 22 -56t60 -21q15 -1 33 1t38 6v-75q-56 -14 -108 -12q-31 1 -57.5 11.5t-46.5 29t-31.5 47t-11.5 65.5q0 63 31.5 99.5t86 55.5
t127 26t154.5 11q0 32 -6.5 60.5t-23 50t-46 34t-76.5 12.5t-85 -23.5t-53 -66.5h-97q19 85 79 124.5t156 48.5z" />
    <glyph glyph-name="uni0E2B" unicode="&#xe2b;" horiz-adv-x="589" 
d="M403 340q64 -5 99.5 -45.5t35.5 -110.5v-184h-99v186q0 29 -10 47t-25.5 28.5t-36 14.5t-41.5 4h-172v-280h-98v577h98v-221h156l112 221h107l-126 -235v-2z" />
    <glyph glyph-name="uni0E2C" unicode="&#xe2c;" horiz-adv-x="761" 
d="M774 708q-13 -68 -44.5 -99.5t-78.5 -42.5q39 -15 55 -50.5t1 -102.5l-93 -413h-89l-143 448l-146 -448h-87l-131 577h101l86 -434l136 421h79l138 -421l59 276q6 31 7 55t-6.5 40.5t-26 25t-52.5 9.5v50q35 0 60 5.5t42 18.5t27.5 33.5t15.5 51.5h90z" />
    <glyph glyph-name="uni0E2D" unicode="&#xe2d;" horiz-adv-x="596" 
d="M292 581q58 0 106 -19.5t83 -57t54.5 -92t19.5 -125.5q0 -70 -18 -124.5t-51.5 -92.5t-82 -58t-108.5 -20q-70 0 -122 26t-83.5 70t-40.5 102t7 122h196v-72h-109q-4 -31 5 -61t29 -54t50 -38.5t68 -14.5q47 0 78 18.5t50 48.5t27 69t8 80q0 45 -10.5 83t-31.5 66.5
t-52 44.5t-72 16q-48 0 -88 -22.5t-57 -67.5h-94q7 41 29 73t54.5 54t72.5 34t83 12z" />
    <glyph glyph-name="uni0E2E" unicode="&#xe2e;" horiz-adv-x="596" 
d="M577 609v-74l-161 -11v-1q65 -22 102 -81.5t37 -154.5q0 -69 -18 -124t-51.5 -93t-81.5 -58t-108 -20q-70 0 -122.5 26t-84 70t-40.5 102t7 122h196v-72h-107q-5 -31 3.5 -61t28.5 -54t50 -38.5t68 -14.5q47 0 78 18.5t50 48.5t27 69t8 80q0 42 -9 80.5t-29 67
t-51.5 45.5t-76.5 17q-51 0 -90 -23.5t-53 -66.5h-97q17 81 78.5 122t156.5 51z" />
    <glyph glyph-name="uni0E2F" unicode="&#xe2f;" horiz-adv-x="596" 
d="M426 0v341h-3q-20 -51 -66 -80.5t-126 -29.5q-34 0 -67 12t-59.5 35.5t-43 59t-16.5 81.5q0 44 13 74.5t36 50t53.5 28.5t65.5 9q17 0 33.5 -1.5t35.5 -6.5v-64q-10 1 -19 2t-19 1q-39 0 -66.5 -22t-27.5 -68q0 -56 32 -84t80 -28q34 0 63.5 13t51 35t34 52.5t12.5 64.5
v102h98v-577h-95z" />
    <glyph glyph-name="uni0E30" unicode="&#xe30;" horiz-adv-x="386" 
d="M330 426v-77h-124q-57 0 -90.5 11.5t-50 31.5t-19.5 46t0 56h82q-1 -19 1 -32.5t10.5 -21t24 -11t42.5 -3.5h124zM330 138v-77h-124q-57 0 -90.5 11.5t-50 31t-19.5 46t0 56.5h82q-1 -19 1 -32.5t10.5 -21t24 -11t42.5 -3.5h124z" />
    <glyph glyph-name="uni0E31" unicode="&#xe31;" 
d="M7 733v-74h-244q-59 0 -92.5 10.5t-50 29t-19 44t0.5 54.5h86q-1 -19 1 -32t10 -20.5t23.5 -10t42.5 -1.5h242z" />
    <glyph glyph-name="uni0E32" unicode="&#xe32;" horiz-adv-x="473" 
d="M318 0v396q0 28 -10 47.5t-26.5 31.5t-38 17.5t-44.5 6.5q-44 2 -82.5 -9t-83.5 -32v78q46 24 90.5 34.5t96.5 10.5q42 0 78 -10.5t63 -31.5t42 -53t15 -74v-412h-100z" />
    <glyph glyph-name="uni0E33" unicode="&#xe33;" horiz-adv-x="473" 
d="M-150 816q48 0 76.5 -25.5t28.5 -67.5q0 -41 -28.5 -67t-76.5 -26t-76.5 25.5t-28.5 67.5t28.5 67.5t76.5 25.5zM-150 682q18 0 30 11.5t12 29.5q0 20 -12 30.5t-30 10.5q-19 0 -30.5 -10.5t-11.5 -30.5q0 -18 11.5 -29.5t30.5 -11.5zM318 0v396q0 28 -10 47.5
t-26.5 31.5t-38 17.5t-44.5 6.5q-44 2 -82.5 -9t-83.5 -32v78q46 24 90.5 34.5t96.5 10.5q42 0 78 -10.5t63 -31.5t42 -53t15 -74v-412h-100z" />
    <glyph glyph-name="uni0E34" unicode="&#xe34;" 
d="M-53 659h-472v74h472v-74z" />
    <glyph glyph-name="uni0E35" unicode="&#xe35;" 
d="M-53 809v-150h-472v74h383v76h89z" />
    <glyph glyph-name="uni0E36" unicode="&#xe36;" 
d="M-132 817q42 0 64 -22.5t22 -56.5q0 -35 -21 -57t-63 -22h-395v74h312q-3 21 3.5 37t18.5 26.5t27.5 15.5t31.5 5zM-132 707q14 0 23 8.5t9 22.5t-9 23t-23 9t-23 -9t-9 -23t9 -22.5t23 -8.5z" />
    <glyph glyph-name="uni0E37" unicode="&#xe37;" 
d="M-53 809v-150h-471v74h257v76h76v-76h63v76h75z" />
    <glyph glyph-name="uni0E38" unicode="&#xe38;" 
d="M-57 -252h-88v106h-84v65h172v-171z" />
    <glyph glyph-name="uni0E39" unicode="&#xe39;" 
d="M-57 -81v-77q0 -35 -12.5 -56.5t-32 -33t-43.5 -15t-46 -3.5q-25 0 -48 4.5t-41 17.5t-29 36.5t-12 61.5h-54v65h132v-68q0 -32 13.5 -44.5t38.5 -12.5q30 0 40 14.5t10 57.5v53h84z" />
    <glyph glyph-name="uni0E3A" unicode="&#xe3a;" 
d="M-187 -150q0 29 20.5 49t49.5 20t50 -20t21 -49q0 -30 -21 -51t-50 -21t-49.5 21t-20.5 51z" />
    <glyph glyph-name="uni0E3F" unicode="&#xe3f;" horiz-adv-x="617" 
d="M415 355q74 -6 118 -51.5t44 -119.5q0 -88 -65 -136t-176 -48h-4v-104h-90v104h-190v700h190v98h90v-99q99 -7 155 -48t56 -122q0 -31 -8.5 -60t-24.5 -52t-40 -39t-55 -21v-2zM297 385q67 0 105.5 34t38.5 89q0 52 -38.5 82.5t-106.5 30.5h-143v-236h144zM311 79
q78 0 119.5 28.5t41.5 88.5t-43.5 89.5t-122.5 29.5h-153v-236h158z" />
    <glyph glyph-name="uni0E40" unicode="&#xe40;" horiz-adv-x="322" 
d="M306 5q-19 -4 -36 -5t-34 -1q-85 0 -122.5 46.5t-37.5 145.5v386h100v-402q0 -30 6 -49.5t17.5 -31t27 -15.5t34.5 -4q20 0 45 3v-73z" />
    <glyph glyph-name="uni0E41" unicode="&#xe41;" horiz-adv-x="609" 
d="M306 5q-19 -4 -36 -5t-34 -1q-79 0 -119.5 43t-40.5 135v400h100v-402q0 -30 6 -49.5t17.5 -31t27 -15.5t34.5 -4q20 0 45 3v-73zM592 5q-18 -4 -35.5 -5t-33.5 -1q-79 0 -119.5 43t-40.5 135v400h100v-402q0 -30 6 -49.5t17 -31t26.5 -15.5t34.5 -4q21 0 45 3v-73z" />
    <glyph glyph-name="uni0E42" unicode="&#xe42;" horiz-adv-x="368" 
d="M349 5q-20 -4 -36 -5t-33 -1q-81 0 -120 43.5t-39 134.5v332q0 26 -2.5 47t-14.5 37.5t-36.5 30t-67.5 24.5v11q0 46 17 77.5t43.5 50.5t59 27.5t63.5 8.5t62 -8.5t56.5 -25t43 -40.5t21.5 -56h-84q-6 27 -35 42t-63 15q-44 0 -68.5 -20t-29.5 -44q45 -15 71.5 -34.5
t41 -42.5t18.5 -49.5t4 -53.5v-331q0 -30 6 -49.5t17 -31t26 -15.5t34 -4q21 0 45 3v-73z" />
    <glyph glyph-name="uni0E43" unicode="&#xe43;" horiz-adv-x="360" 
d="M341 5q-18 -4 -35.5 -5t-33.5 -1q-80 0 -118.5 43t-38.5 135v276q0 30 10 54.5t25 45t33 38t33 33t25 30.5t10 31q0 29 -21 46.5t-62 17.5q-43 0 -62.5 -25t-18.5 -72h-84q-3 81 40.5 126t125.5 45q78 0 123.5 -33t45.5 -108q0 -25 -9.5 -43.5t-23 -35t-30 -31.5t-30 -32
t-23 -38.5t-9.5 -49.5v-277q0 -30 6 -49.5t17 -31t26 -15.5t34 -4q21 0 45 3v-73z" />
    <glyph glyph-name="uni0E44" unicode="&#xe44;" horiz-adv-x="360" 
d="M341 5q-18 -4 -35.5 -5t-33.5 -1q-81 0 -119 43.5t-38 134.5v313q0 47 19 81t42 60t42 47t19 42q0 20 -11.5 26.5t-24.5 6.5q-23 0 -40.5 -18.5t-24.5 -44.5h-66l-103 127h93l49 -73q9 35 33.5 57t66.5 22q24 0 45 -5t36.5 -15.5t25 -27.5t9.5 -41q0 -27 -8.5 -45.5
t-20.5 -34.5t-27 -31t-27 -35t-20.5 -47.5t-8.5 -67.5v-298q0 -30 6 -49.5t17 -31t26 -15.5t34 -4q21 0 45 3v-73z" />
    <glyph glyph-name="uni0E45" unicode="&#xe45;" horiz-adv-x="473" 
d="M318 -195v591q0 28 -10 47.5t-26.5 31.5t-38 17.5t-44.5 6.5q-44 2 -82.5 -9t-83.5 -32v78q46 24 90.5 34.5t96.5 10.5q42 0 78 -10.5t63 -31.5t42 -53t15 -74v-607h-100z" />
    <glyph glyph-name="uni0E46" unicode="&#xe46;" horiz-adv-x="592" 
d="M382 581q44 0 70.5 -10.5t40.5 -31.5t19 -53t5 -74v-220q0 -97 -39.5 -145t-117.5 -52q-18 0 -40 0.5t-40 4.5v70q26 -3 43 -2q47 2 71 26.5t24 77.5v251q0 11 -1 24t-5.5 24.5t-15 19t-30.5 7.5q-25 0 -37.5 -21.5t-18.5 -50.5h-62q-7 29 -20 50.5t-40 21.5
q-18 0 -28 -9.5t-14 -22.5t-4.5 -26t-0.5 -20q0 -62 15 -90.5t61 -30.5q14 -2 29 -1.5t34 5.5v-71q-23 -4 -41 -5.5t-38 -1.5q-72 2 -113.5 44.5t-41.5 126.5v22q0 38 5 68t19 51t39.5 32.5t66.5 11.5q45 0 69.5 -23t32.5 -65q11 42 35 65t69 23z" />
    <glyph glyph-name="uni0E47" unicode="&#xe47;" 
d="M-334 820q-26 0 -40.5 -12t-14.5 -40q0 -29 18.5 -39t40.5 -10q18 0 36 14t25 42h38l112 -57v-68h-13l-105 54q-16 -28 -46.5 -40.5t-65.5 -12.5q-25 0 -47 7t-38 21.5t-25.5 36.5t-9.5 52q0 62 38.5 93t111.5 31h222v-72h-237z" />
    <glyph glyph-name="uni0E48" unicode="&#xe48;" 
d="M-56 857h-85v169h85v-169z" />
    <glyph glyph-name="uni0E49" unicode="&#xe49;" 
d="M7 925v-68h-304v45q24 6 39 14t23.5 17.5t11.5 19t3 17.5q0 11 -11.5 20t-34.5 9q-15 0 -30 -4v47q31 11 60 11q37 0 64 -16.5t27 -48.5q0 -17 -10 -37t-31 -34q23 5 53.5 6.5t49.5 1.5h90z" />
    <glyph glyph-name="uni0E4A" unicode="&#xe4a;" 
d="M-15 913v-56h-127v79q0 16 -7 28.5t-27 12.5q-23 0 -31.5 -12t-10.5 -30h-49q-5 24 -15 33.5t-26 9.5q-21 0 -27.5 -9t-6.5 -27q0 -23 14 -29t46 -6v-49q-10 -1 -18.5 -1h-16.5q-43 0 -70.5 17.5t-27.5 64.5v9q0 42 21 68t69 26q60 0 82 -47q22 47 81 47q49 0 69.5 -26.5
t20.5 -71.5v-31h57z" />
    <glyph glyph-name="uni0E4B" unicode="&#xe4b;" 
d="M11 917h-72v-60h-74v60h-74v52h74v58h74v-58h72v-52z" />
    <glyph glyph-name="uni0E4C" unicode="&#xe4c;" 
d="M-1 892l-144 -15q-34 -3 -41 -17.5t-4 -40.5h-84q-2 27 0 48t11.5 36t28.5 25t51 14l182 20v-70z" />
    <glyph glyph-name="uni0E4D" unicode="&#xe4d;" 
d="M-150 816q48 0 76.5 -25.5t28.5 -67.5q0 -41 -28.5 -67t-76.5 -26t-76.5 25.5t-28.5 67.5t28.5 67.5t76.5 25.5zM-150 682q18 0 30 11.5t12 29.5q0 20 -12 30.5t-30 10.5q-19 0 -30.5 -10.5t-11.5 -30.5q0 -18 11.5 -29.5t30.5 -11.5z" />
    <glyph glyph-name="uni0E4E" unicode="&#xe4e;" 
d="M-348 0v675h681v-675h-681zM306 22q6 0 6 7v619q0 6 -6 6h-627q-6 0 -6 -6v-619q0 -7 6 -7h627z" />
    <glyph glyph-name="uni0E4F" unicode="&#xe4f;" horiz-adv-x="539" 
d="M269 540q47 0 87.5 -17.5t71.5 -47.5t48.5 -70.5t17.5 -87.5t-17.5 -88.5t-48.5 -72t-71.5 -48t-87.5 -17.5q-46 0 -87 17.5t-71.5 48t-48 72t-17.5 88.5t17.5 87.5t48 70.5t71.5 47.5t87 17.5zM269 147q35 0 65 13.5t52.5 36.5t35.5 54t13 66t-13 65t-35.5 52.5
t-52.5 35.5t-65 13t-65.5 -13t-53.5 -35.5t-36.5 -52.5t-13.5 -65t13.5 -66t36.5 -54t53.5 -36.5t65.5 -13.5zM269 442q26 0 48.5 -9.5t39 -26.5t26.5 -39.5t10 -49.5q0 -26 -10 -49t-26.5 -40t-39 -27t-48.5 -10q-25 0 -48 10t-40.5 27t-27.5 40t-10 49q0 27 10 49.5
t27.5 39.5t40.5 26.5t48 9.5zM269 239q32 0 53.5 22.5t21.5 55.5q0 32 -21.5 52.5t-53.5 20.5t-54.5 -20.5t-22.5 -52.5q0 -33 22.5 -55.5t54.5 -22.5z" />
    <glyph glyph-name="uni0E50" unicode="&#xe50;" horiz-adv-x="604" 
d="M302 517q56 0 105 -17.5t85 -51.5t57 -83t21 -111t-21 -110.5t-57 -82.5t-85 -51.5t-105 -17.5q-55 0 -104 17.5t-85.5 51.5t-57.5 82.5t-21 110.5t21 111t57.5 83t85.5 51.5t104 17.5zM302 70q34 0 65.5 12t55.5 35.5t38 58t14 78.5q0 45 -14 79.5t-38 58t-55.5 35.5
t-65.5 12t-65 -12t-54.5 -35.5t-37.5 -58t-14 -79.5q0 -44 14 -78.5t37.5 -58t54.5 -35.5t65 -12z" />
    <glyph glyph-name="uni0E51" unicode="&#xe51;" horiz-adv-x="610" 
d="M293 91q-48 -4 -94 4.5t-83 31.5t-59.5 61t-22.5 93q0 63 21 107.5t57.5 73t85.5 42t104 13.5q56 0 106 -18.5t87.5 -54t59 -88t21.5 -121.5q0 -59 -20 -117.5t-62.5 -104t-108.5 -69.5t-157 -14v75q63 -9 110.5 7.5t78.5 49.5t46.5 78.5t15.5 94.5q0 50 -15 88
t-39.5 63.5t-56.5 39t-66 13.5t-65 -8.5t-54.5 -27.5t-37.5 -49t-14 -73q0 -32 14 -55.5t37 -38t52 -20t59 -1.5v-75z" />
    <glyph glyph-name="uni0E52" unicode="&#xe52;" horiz-adv-x="738" 
d="M53 682h94v-446q0 -49 20.5 -81t52.5 -50.5t71 -26t77 -7.5q41 0 80.5 7.5t71.5 26.5t51.5 50.5t19.5 80.5v123q0 11 -1.5 24.5t-6.5 25t-16 19t-31 7.5q-28 0 -40 -21.5t-18 -50.5h-66q-5 29 -18 50.5t-39 21.5q-19 0 -30.5 -7.5t-16.5 -19t-6.5 -24.5t-1.5 -25
q0 -61 16 -87t58 -28q14 -1 29.5 0t35.5 4v-67q-26 -5 -48.5 -6.5t-45.5 0.5q-59 4 -95.5 40.5t-36.5 107.5v50q0 72 29.5 108t98.5 36q45 0 70 -22.5t34 -64.5q10 42 34 64.5t70 22.5q42 0 68.5 -11t41.5 -33.5t20.5 -56t5.5 -78.5v-109q0 -62 -25 -106.5t-68 -73.5
t-100.5 -43t-123.5 -14q-65 0 -122.5 14t-100 43t-67.5 73.5t-25 106.5v453z" />
    <glyph glyph-name="uni0E53" unicode="&#xe53;" horiz-adv-x="654" 
d="M450 517q45 0 74 -10t46 -30.5t23.5 -51.5t6.5 -73v-352h-99v359q0 11 -1.5 24.5t-8 25.5t-19.5 20t-37 8q-28 0 -42 -22.5t-19 -51.5h-74q-5 29 -20.5 51.5t-43.5 22.5q-30 0 -47.5 -16.5t-26.5 -43t-12 -59.5t-3 -67q0 -36 6.5 -67.5t23 -56t44.5 -39t72 -16.5
q13 -1 29 -0.5t30 2.5v-73q-14 -3 -30.5 -4t-30.5 -1q-56 -2 -101 11t-76.5 43t-48.5 77.5t-17 116.5q0 60 8 110t28 86.5t53 56.5t84 20q45 0 75 -22.5t41 -64.5q8 42 38.5 64.5t74.5 22.5z" />
    <glyph glyph-name="uni0E54" unicode="&#xe54;" horiz-adv-x="647" 
d="M308 435q-32 0 -61.5 -12t-52 -35t-35.5 -56.5t-13 -77.5q0 -43 13 -77t35 -57.5t51.5 -35.5t62.5 -12q26 0 51.5 5t43.5 14q-15 16 -22.5 37.5t-7.5 42.5q0 69 37 106.5t115 37.5q13 0 27 -1t29 -3v-64q-57 9 -90 -14t-33 -65q0 -27 11.5 -45.5t29.5 -30t39.5 -17
t40.5 -5.5h39v-70h-35q-83 0 -138 37q-19 -19 -56 -30t-81 -11q-56 0 -104 17t-82.5 50t-54 81t-19.5 110q0 63 20 111.5t54.5 81t82.5 49.5t103 17h119q58 0 86 22.5t26 79.5h79q4 -44 -7.5 -78t-34.5 -56.5t-55 -34t-68 -11.5h-145z" />
    <glyph glyph-name="uni0E55" unicode="&#xe55;" horiz-adv-x="647" 
d="M308 -4q-56 0 -104 17t-82.5 50t-54 81t-19.5 110q0 51 14 92.5t38.5 73t58.5 51.5t73 28q-21 26 -21 63q0 48 31.5 78.5t83.5 30.5q53 0 84 -30.5t31 -78.5q0 -26 -17 -46q29 2 51 6.5t36.5 15.5t21.5 29.5t6 47.5h79q4 -50 -10 -84.5t-41 -55.5t-65 -30.5t-82 -9.5h-95
q-35 0 -67.5 -10t-57 -31.5t-39.5 -56t-15 -83.5q0 -43 13 -77t35 -57.5t51.5 -35.5t62.5 -12q26 0 51.5 5t43.5 14q-15 16 -22.5 37.5t-7.5 42.5q0 69 37 106.5t115 37.5q13 0 27 -1t29 -3v-64q-57 9 -90 -14t-33 -65q0 -27 11.5 -45.5t29.5 -30t39.5 -17t40.5 -5.5h39v-70
h-35q-83 0 -138 37q-19 -19 -56 -30t-81 -11zM326 514q23 0 37 13.5t14 34.5q0 24 -14 37.5t-37 13.5t-36.5 -13.5t-13.5 -37.5q0 -21 13.5 -34.5t36.5 -13.5z" />
    <glyph glyph-name="uni0E56" unicode="&#xe56;" horiz-adv-x="658" 
d="M302 248q-60 8 -95 -7t-35 -69q0 -28 13.5 -47.5t36 -31.5t52 -17.5t62.5 -5.5q34 0 66 10.5t56.5 32.5t39.5 56.5t15 82.5q0 91 -48 139.5t-136 50.5q-37 2 -74.5 -12.5t-63.5 -39.5h-72l-135 238h97l91 -165q23 23 65 38.5t92 15.5q77 0 130.5 -20.5t86.5 -56.5t48 -84
t15 -104q0 -68 -22 -117.5t-59 -81t-86.5 -46.5t-105.5 -15q-55 0 -103 10t-83 32t-55 56t-20 82q0 42 12 70.5t33 45t50.5 23.5t65.5 7q16 0 32.5 -1t33.5 -3v-66z" />
    <glyph glyph-name="uni0E57" unicode="&#xe57;" horiz-adv-x="860" 
d="M443 517q44 0 71 -11.5t42 -34t20 -56.5t5 -79v-198q0 -35 20 -50.5t46 -15.5t45.5 15.5t19.5 50.5v544h94v-506q0 -53 -11 -87.5t-31.5 -55t-50 -29t-66.5 -8.5q-38 0 -67.5 8.5t-50 29t-31.5 55.5t-11 88v182q0 11 -0.5 24.5t-5.5 25.5t-17 20t-36 8q-27 0 -41.5 -22.5
t-19.5 -51.5h-74q-5 29 -20.5 51.5t-43.5 22.5q-30 0 -46.5 -16.5t-24.5 -43t-9.5 -59.5t-1.5 -67q0 -37 6.5 -69t24 -56.5t47.5 -38.5t77 -15q11 -1 24.5 -0.5t25.5 2.5v-73q-14 -3 -30.5 -4t-30.5 -1q-56 -1 -101 11.5t-76.5 42t-48.5 77.5t-17 117q0 60 7 110t25.5 86.5
t50.5 56.5t83 20q45 0 75.5 -22.5t40.5 -64.5q8 42 38.5 64.5t74.5 22.5z" />
    <glyph glyph-name="uni0E58" unicode="&#xe58;" horiz-adv-x="641" 
d="M42 257q0 64 19 112t52.5 80t80.5 48t103 16h108q64 0 95.5 21t30.5 81h78q4 -44 -8 -78t-35 -56.5t-55 -34t-68 -11.5h-144q-74 0 -116 -48.5t-42 -129.5q0 -31 2.5 -61.5t11 -56t24.5 -42t43 -19.5q19 -3 32 3.5t21.5 18.5t13 28t7.5 33h74q3 -15 7 -30.5t11.5 -28
t18.5 -20.5t26 -8q25 0 39 8t20.5 20t8 25t1.5 23v37q0 39 -19 62t-64 24q-14 0 -28 -0.5t-31 -5.5v65q23 3 43 4.5t42 1.5q71 0 113 -40t42 -115q0 -43 -6.5 -78t-23.5 -59t-46.5 -37t-75.5 -13q-45 0 -75.5 22.5t-39.5 64.5q-9 -42 -39.5 -65t-75.5 -23q-48 0 -81.5 20
t-54.5 55t-30.5 83t-9.5 104z" />
    <glyph glyph-name="uni0E59" unicode="&#xe59;" horiz-adv-x="718" 
d="M543 367q0 9 -3 20.5t-10.5 21.5t-20.5 17t-33 7q-32 0 -47 -18.5t-17 -44.5l175 -370h-100l-170 363q-7 13 -14.5 25.5t-16.5 22.5t-20 16t-27 6q-30 0 -47.5 -16t-26.5 -41.5t-12 -58t-3 -66.5q0 -36 6 -68t22 -56t44.5 -38.5t72.5 -16.5q12 -1 27.5 -0.5t26.5 2.5v-73
q-12 -3 -28.5 -4t-29.5 -1q-55 -2 -99.5 11t-76 43t-48.5 77.5t-17 116.5q0 60 8.5 110t29 86.5t55 56.5t86.5 20q45 0 77.5 -24t49.5 -66q9 46 41.5 68t69.5 22q40 0 69 -15t43 -49l73 138h90l-121 -224h-78z" />
    <glyph glyph-name="uni0E5A" unicode="&#xe5a;" horiz-adv-x="800" 
d="M426 0v341h-3q-20 -52 -66 -81t-126 -29q-34 0 -67 12t-59.5 35.5t-43 59t-16.5 81.5q0 44 13 74.5t36 50t53.5 28.5t65.5 9q17 0 33.5 -1.5t35.5 -6.5v-64q-10 1 -19 2t-19 1q-39 0 -66.5 -22t-27.5 -68q0 -56 32 -84t80 -28q34 0 63.5 13t51 35t34 52.5t12.5 64.5v102
h98v-577h-95zM628 0v577h97v-577h-97z" />
    <glyph glyph-name="uni0E5B" unicode="&#xe5b;" horiz-adv-x="804" 
d="M61 0v675h681v-675h-681zM715 22q7 0 7 7v619q0 6 -7 6h-626q-7 0 -7 -6v-619q0 -7 7 -7h626z" />
    <glyph glyph-name="uni200C" unicode="&#x200c;" 
 />
    <glyph glyph-name="uni200D" unicode="&#x200d;" 
 />
    <glyph glyph-name="uni200E" unicode="&#x200e;" 
 />
    <glyph glyph-name="uni200F" unicode="&#x200f;" 
 />
    <glyph glyph-name="endash" unicode="&#x2013;" horiz-adv-x="478" 
d="M431 276h-385v80h385v-80z" />
    <glyph glyph-name="emdash" unicode="&#x2014;" horiz-adv-x="685" 
d="M639 276h-593v80h593v-80z" />
    <glyph glyph-name="quoteleft" unicode="&#x2018;" horiz-adv-x="242" 
d="M216 484h-89l-109 216h108z" />
    <glyph glyph-name="quoteright" unicode="&#x2019;" horiz-adv-x="240" 
d="M26 484l89 216h107l-109 -216h-87z" />
    <glyph glyph-name="quotesinglbase" unicode="&#x201a;" horiz-adv-x="180" 
d="M-1 -123l54 224h101l-72 -224h-83z" />
    <glyph glyph-name="quotedblleft" unicode="&#x201c;" horiz-adv-x="407" 
d="M18 700h102l90 -216h-83zM188 700h103l90 -216h-84z" />
    <glyph glyph-name="quotedblright" unicode="&#x201d;" horiz-adv-x="405" 
d="M285 700h103l-108 -216h-84zM115 700h102l-108 -216h-83z" />
    <glyph glyph-name="quotedblbase" unicode="&#x201e;" horiz-adv-x="345" 
d="M149 101l-73 -224h-77l54 224h96zM319 101l-72 -224h-78l55 224h95z" />
    <glyph glyph-name="dagger" unicode="&#x2020;" horiz-adv-x="542" 
d="M221 509v191h100v-191h163v-75h-163v-434h-100v434h-164v75h164z" />
    <glyph glyph-name="daggerdbl" unicode="&#x2021;" horiz-adv-x="542" 
d="M221 509v191h100v-191h163v-75h-163v-168h163v-75h-163v-191h-100v191h-164v75h164v168h-164v75h164z" />
    <glyph glyph-name="bullet" unicode="&#x2022;" horiz-adv-x="392" 
d="M198 192q-25 0 -48 10t-40.5 27t-27.5 39.5t-10 48.5t10 48t27.5 38.5t40.5 26t48 9.5t47 -9.5t38.5 -26t26 -38.5t9.5 -48q0 -24 -9.5 -47t-26 -40t-38.5 -27.5t-47 -10.5z" />
    <glyph glyph-name="ellipsis" unicode="&#x2026;" horiz-adv-x="594" 
d="M434 64q0 26 18.5 44.5t49.5 18.5t49 -18.5t18 -44.5t-18 -45t-49 -19t-49.5 19t-18.5 45zM25 64q0 26 18 44.5t50 18.5q29 0 48 -18.5t19 -44.5t-19 -45t-48 -19q-32 0 -50 19t-18 45zM231 64q0 26 18 44.5t48 18.5t48.5 -18.5t18.5 -44.5t-18.5 -45t-48.5 -19t-48 19
t-18 45z" />
    <glyph glyph-name="perthousand" unicode="&#x2030;" horiz-adv-x="1053" 
d="M325 549q0 -36 -11 -65t-30.5 -49.5t-46.5 -31.5t-58 -11t-57.5 11t-46 31.5t-30.5 49.5t-11 65q0 37 11 66.5t30.5 50t46 31.5t57.5 11t58 -11t46.5 -31.5t30.5 -50t11 -66.5zM611 700l-413 -700h-92l414 700h91zM108 549q0 -39 19 -62.5t52 -23.5q32 0 51.5 23.5
t19.5 62.5q0 40 -19.5 62.5t-51.5 22.5q-34 0 -52.5 -22t-18.5 -63zM536 307q64 0 105 -42.5t41 -115.5q0 -36 -11 -65t-30.5 -49.5t-46 -31.5t-58.5 -11q-31 0 -57.5 11t-45.5 31.5t-30 49.5t-11 65t11 65.5t30 50t45.5 31.5t57.5 11zM873 307q64 0 105 -42.5t41 -115.5
q0 -36 -11 -65t-30.5 -49.5t-46 -31.5t-58.5 -11q-31 0 -57.5 11t-45.5 31.5t-30 49.5t-11 65t11 65.5t30 50t45.5 31.5t57.5 11zM536 63q32 0 51.5 23t19.5 63t-19.5 63.5t-51.5 23.5t-51.5 -23t-19.5 -64q0 -40 19.5 -63t51.5 -23zM873 63q33 0 52 23t19 63t-19 63.5
t-52 23.5q-32 0 -51.5 -23t-19.5 -64q0 -40 19.5 -63t51.5 -23z" />
    <glyph glyph-name="minute" unicode="&#x2032;" horiz-adv-x="240" 
d="M26 484l89 217h107l-109 -217h-87z" />
    <glyph glyph-name="second" unicode="&#x2033;" horiz-adv-x="405" 
d="M388 701l-108 -217h-84l89 217h103zM217 701l-108 -217h-83l89 217h102z" />
    <glyph glyph-name="guilsinglleft" unicode="&#x2039;" horiz-adv-x="549" 
d="M49 284v65l450 273v-97l-349 -207v-1l349 -209v-96z" />
    <glyph glyph-name="guilsinglright" unicode="&#x203a;" horiz-adv-x="549" 
d="M49 12v96l349 209v1l-349 207v97l450 -273v-65z" />
    <glyph glyph-name="fraction" unicode="&#x2044;" horiz-adv-x="392" 
d="M374 700l-253 -700h-103l254 700h102z" />
    <glyph glyph-name="Euro" unicode="&#x20ac;" horiz-adv-x="738" 
d="M116 472q28 112 106 174t198 62q56 0 104 -16.5t85.5 -46t62 -70.5t33.5 -91h-102q-17 63 -65 101.5t-118 38.5q-75 0 -125 -39.5t-70 -112.5h221v-67h-237q-2 -13 -2.5 -26t-0.5 -27t0.5 -26.5t2.5 -26.5h237v-67h-221q20 -75 70 -116t125 -41q71 0 119 34.5t65 97.5
h103q-9 -49 -33 -89t-61.5 -68t-86.5 -43t-106 -15q-120 0 -199 62.5t-105 177.5h-89v67h77q-2 14 -2 26.5v26.5v27t2 26h-77v67h89z" />
    <glyph glyph-name="uni2113" unicode="&#x2113;" horiz-adv-x="480" 
 />
    <glyph glyph-name="trademark" unicode="&#x2122;" horiz-adv-x="907" 
d="M368 643h-125v-362h-72v362h-126v57h323v-57zM862 281h-72v307h-1l-126 -307h-38l-127 307h-1v-307h-71v419h94l123 -311h2l122 311h95v-419z" />
    <glyph glyph-name="uni2126" unicode="&#x2126;" horiz-adv-x="723" 
 />
    <glyph glyph-name="estimated" unicode="&#x212e;" horiz-adv-x="570" 
 />
    <glyph glyph-name="partialdiff" unicode="&#x2202;" horiz-adv-x="536" 
 />
    <glyph glyph-name="uni2206" unicode="&#x2206;" horiz-adv-x="536" 
 />
    <glyph glyph-name="product" unicode="&#x220f;" horiz-adv-x="617" 
d="M519 700v-877h-91v805h-240v-805h-90v877h421z" />
    <glyph glyph-name="summation" unicode="&#x2211;" horiz-adv-x="624" 
 />
    <glyph glyph-name="minus" unicode="&#x2212;" horiz-adv-x="478" 
d="M431 276h-385v80h385v-80z" />
    <glyph glyph-name="radical" unicode="&#x221a;" horiz-adv-x="528" 
 />
    <glyph glyph-name="infinity" unicode="&#x221e;" horiz-adv-x="637" 
 />
    <glyph glyph-name="integral" unicode="&#x222b;" horiz-adv-x="357" 
 />
    <glyph glyph-name="approxequal" unicode="&#x2248;" horiz-adv-x="570" 
d="M187 426q-27 0 -45 -21t-19 -64h-77q0 79 33 121t98 42q32 0 57.5 -15t48.5 -32.5t45.5 -32.5t49.5 -15q29 0 48 24t20 69h78q0 -77 -36.5 -124.5t-98.5 -47.5q-33 0 -59 15t-49.5 33t-46 33t-47.5 15zM187 224q-27 0 -45 -23t-19 -67h-77q0 80 33 124.5t98 44.5
q32 0 57.5 -15t48.5 -33t45.5 -33t49.5 -15q29 0 48 22t20 67h78q0 -77 -36.5 -121.5t-98.5 -44.5q-33 0 -59 14.5t-49.5 32.5t-46 32.5t-47.5 14.5z" />
    <glyph glyph-name="notequal" unicode="&#x2260;" horiz-adv-x="527" 
 />
    <glyph glyph-name="lessequal" unicode="&#x2264;" horiz-adv-x="550" 
d="M50 416l451 217v-93l-341 -161v-1l341 -162v-90l-451 214v76zM501 0h-452v74h452v-74z" />
    <glyph glyph-name="greaterequal" unicode="&#x2265;" horiz-adv-x="550" 
d="M499 340l-450 -214v90l341 162v1l-341 161v93l450 -217v-76zM49 74h452v-74h-452v74z" />
    <glyph glyph-name="lozenge" unicode="&#x25ca;" horiz-adv-x="663" 
d="M332 813l285 -477l-285 -481l-286 481zM332 684l-208 -348l208 -351l207 351z" />
    <glyph glyph-name="uni25CC" unicode="&#x25cc;" horiz-adv-x="547" 
d="M274 458q-12 0 -21.5 9t-9.5 21q0 13 9.5 22t21.5 9q11 0 20 -9t9 -22q0 -12 -9 -21t-20 -9zM153 405q-13 0 -21.5 9t-8.5 21q0 14 8.5 22t21.5 8q12 0 21 -8t9 -22q0 -12 -9 -21t-21 -9zM394 405q-12 0 -21 9t-9 21q0 14 9 22t21 8q13 0 21.5 -8t8.5 -22q0 -12 -8.5 -21
t-21.5 -9zM443 345q13 0 21.5 -9.5t8.5 -20.5q0 -14 -8 -22.5t-22 -8.5q-12 0 -21 8.5t-9 22.5q0 11 9 20.5t21 9.5zM104 345q11 0 20.5 -9.5t9.5 -20.5q0 -14 -9 -22.5t-21 -8.5q-14 0 -22 8.5t-8 22.5q0 11 8 20.5t22 9.5zM153 227q12 0 21 -9t9 -23q0 -11 -9 -20t-21 -9
q-13 0 -21.5 9t-8.5 20q0 14 8.5 23t21.5 9zM394 227q13 0 21.5 -9t8.5 -23q0 -11 -8.5 -20t-21.5 -9q-12 0 -21 9t-9 20q0 14 9 23t21 9zM274 173q11 0 20.5 -8.5t9.5 -21.5q0 -12 -9.5 -21t-20.5 -9q-12 0 -21 9t-9 21q0 13 9 21.5t21 8.5z" />
    <glyph glyph-name="uniF700" unicode="&#xf700;" horiz-adv-x="589" 
d="M540 310q0 -65 -18.5 -121.5t-52.5 -98.5t-83 -66t-110 -24h-67l-88 237h-72v74h142l81 -232q47 2 79 22.5t52.5 52.5t29.5 73t9 83q0 38 -9.5 72t-30 60t-51.5 41.5t-74 15.5q-22 0 -45 -6t-43 -17.5t-35 -28.5t-23 -39h-97q8 41 29.5 71.5t53.5 52t73 34t88 15.5
l292 28v-74l-165 -12v-2q70 -23 102.5 -79t32.5 -132z" />
    <glyph glyph-name="uniF701" unicode="&#xf701;" 
d="M-216 659h-376v74h376v-74z" />
    <glyph glyph-name="uniF702" unicode="&#xf702;" 
d="M-216 809v-150h-376v74h288v76h88z" />
    <glyph glyph-name="uniF703" unicode="&#xf703;" 
d="M-295 817q42 0 64 -22.5t22 -56.5q0 -35 -20.5 -57t-62.5 -22h-300v74h217q-3 21 3.5 37t18 26.5t27 15.5t31.5 5zM-295 707q14 0 23.5 8.5t9.5 22.5t-9.5 23t-23.5 9t-22.5 -9t-8.5 -23t8.5 -22.5t22.5 -8.5z" />
    <glyph glyph-name="uniF704" unicode="&#xf704;" 
d="M-216 809v-150h-376v74h168v76h73v-76h63v76h72z" />
    <glyph glyph-name="uniF705" unicode="&#xf705;" 
d="M-244 659h-90v183h90v-183z" />
    <glyph glyph-name="uniF706" unicode="&#xf706;" 
d="M-192 733v-74h-296v46q26 7 41.5 16t24 19t11.5 20t3 19q0 12 -11 21.5t-34 9.5q-8 0 -16 -1.5t-18 -3.5v53q33 11 64 11q40 0 70 -17t30 -51q0 -20 -10.5 -41t-32.5 -37q12 3 27 4.5l30 3t29 2t23 0.5h65z" />
    <glyph glyph-name="uniF707" unicode="&#xf707;" 
d="M-149 726v-67h-129v102q0 22 -6.5 32.5t-27.5 10.5q-23 0 -30 -14t-10 -34h-52q-5 26 -13.5 37.5t-25.5 11.5q-18 0 -26.5 -9.5t-8.5 -32.5q0 -20 9.5 -32.5t35.5 -12.5h20v-56q-32 -1 -59 1.5t-47 13t-31 29.5t-11 49v9q0 23 5.5 43t17.5 35.5t30.5 24.5t44.5 9
q32 0 51.5 -12t33.5 -36q23 48 82 48q54 0 76 -29t22 -77v-44h49z" />
    <glyph glyph-name="uniF708" unicode="&#xf708;" 
d="M-179 723h-82v-64h-81v64h-81v66h81v64h81v-64h82v-66z" />
    <glyph glyph-name="uniF709" unicode="&#xf709;" 
d="M-222 834q21 2 45 4l48 4t46 4t39 3v-78q-30 -2 -57 -4q-23 -2 -47 -3.5t-38 -3.5q-30 -2 -47 -6.5t-25 -12t-9 -19t0 -27.5h-86q-2 26 -0.5 48.5t14 41t40 31.5t77.5 18z" />
    <glyph glyph-name="uniF70A" unicode="&#xf70a;" 
d="M-59 659h-88v183h88v-183z" />
    <glyph glyph-name="uniF70B" unicode="&#xf70b;" 
d="M-18 733v-74h-326v46q25 7 41 16t24 19t11 20t3 19q0 12 -10.5 21.5t-33.5 9.5q-11 0 -33 -5v53q33 11 64 11q40 0 69.5 -17t29.5 -51q0 -20 -11 -41t-32 -37q12 3 26.5 4.5t29.5 3t29 2t24 0.5h95z" />
    <glyph glyph-name="uniF70C" unicode="&#xf70c;" 
d="M-38 722v-63h-143v102q0 22 -6.5 32.5t-28.5 10.5q-23 0 -31.5 -14t-11.5 -34h-52q-10 49 -44 49q-17 0 -25.5 -9.5t-8.5 -32.5q0 -20 9.5 -32.5t35.5 -12.5h19v-56q-32 -1 -58.5 1.5t-46.5 13t-31 29.5t-11 49v9q0 23 5.5 43t17.5 35.5t30.5 24.5t44.5 9q62 0 89 -48
q23 48 86 48q54 0 76 -29t22 -77v-48h63z" />
    <glyph glyph-name="uniF70D" unicode="&#xf70d;" 
d="M-25 723h-81v-64h-85v64h-82v66h82v64h85v-64h81v-66z" />
    <glyph glyph-name="uniF70E" unicode="&#xf70e;" 
d="M-19 809v-78l-142 -11q-31 -2 -48 -6.5t-25 -12.5t-9 -19.5t0 -27.5h-86q-2 26 -0.5 49t14 41.5t40 31t77.5 17.5z" />
    <glyph glyph-name="uniF70F" unicode="&#xf70f;" horiz-adv-x="948" 
d="M543 235q0 -37 3 -67t16 -51.5t38 -33t70 -11.5q44 0 69 12.5t37.5 36.5t16 58t3.5 76v322h99v-355q0 -63 -13.5 -107t-41 -71.5t-70 -39.5t-100.5 -12q-62 0 -105.5 12t-70.5 39.5t-39 71.5t-12 107v122q0 78 -34 116.5t-114 38.5q-67 0 -106.5 -25.5t-52.5 -87.5h123
v-44q-48 -17 -75 -59.5t-27 -99.5q0 -33 7 -53.5t19.5 -32.5t31 -17t40.5 -6q13 -2 25.5 -1t27.5 3v-72q-23 -6 -44 -8.5t-42 -2.5q-34 1 -64.5 11.5t-52.5 32t-35 53t-13 74.5q0 33 9 61t23 50t32.5 38t36.5 24h-113q0 121 62 182.5t189 61.5q128 0 187.5 -58t59.5 -170
v-118z" />
    <glyph glyph-name="uniF710" unicode="&#xf710;" 
d="M-196 733v-74h-190q-55 0 -86.5 11t-46.5 30t-17.5 44t0.5 53h86q-1 -19 1 -32t10 -20.5t24 -10t42 -1.5h177z" />
    <glyph glyph-name="uniF711" unicode="&#xf711;" 
d="M-311 816q48 0 76.5 -25.5t28.5 -67.5q0 -41 -28.5 -67t-76.5 -26t-76 25.5t-28 67.5t28.5 67.5t75.5 25.5zM-311 682q18 0 31 11.5t13 29.5q0 20 -13 30.5t-31 10.5q-19 0 -30.5 -10.5t-11.5 -30.5q0 -18 11.5 -29.5t30.5 -11.5z" />
    <glyph glyph-name="uniF712" unicode="&#xf712;" 
d="M-411 820q-26 0 -41 -12t-15 -40q0 -29 18 -39t40 -10q18 0 36 14t25 42h38l109 -57v-68h-13l-103 54q-15 -28 -45.5 -40.5t-65.5 -12.5q-51 0 -84.5 28.5t-33.5 88.5q0 62 38.5 93t110.5 31h222v-72h-236z" />
    <glyph glyph-name="uniF713" unicode="&#xf713;" 
d="M-217 857h-85v169h85v-169z" />
    <glyph glyph-name="uniF714" unicode="&#xf714;" 
d="M-68 925v-68h-305v45q24 6 39.5 14t24 17.5t11.5 19t3 17.5q0 11 -11.5 20t-34.5 9q-15 0 -30 -4v47q31 11 60 11q37 0 64 -16.5t27 -48.5q0 -17 -10 -37t-31 -34q23 5 53.5 6.5t49.5 1.5h90z" />
    <glyph glyph-name="uniF715" unicode="&#xf715;" 
d="M-76 913v-56h-129v79q0 16 -6 28.5t-26 12.5q-23 0 -32 -12t-11 -30h-49q-4 24 -14 33.5t-27 9.5q-20 0 -27 -9t-7 -27q0 -24 14.5 -29.5t45.5 -5.5v-49q-9 -1 -17.5 -1h-16.5q-43 0 -70.5 17.5t-27.5 64.5v9q0 42 21 68t69 26q29 0 49.5 -11.5t30.5 -35.5q11 24 32 35.5
t49 11.5q49 0 70 -26.5t21 -71.5v-31h58z" />
    <glyph glyph-name="uniF716" unicode="&#xf716;" 
d="M-150 917h-72v-60h-74v60h-74v52h74v58h74v-58h72v-52z" />
    <glyph glyph-name="uniF717" unicode="&#xf717;" 
d="M-64 892l-143 -15q-34 -3 -41.5 -17.5t-3.5 -40.5h-85q-2 27 0 48t11.5 36t28.5 25t51 14l182 20v-70z" />
    <glyph glyph-name="uniF718" unicode="&#xf718;" 
d="M-57 -405h-88v93h-84v66h172v-159z" />
    <glyph glyph-name="uniF719" unicode="&#xf719;" 
d="M-57 -246v-65q0 -35 -12.5 -56t-32 -32.5t-43.5 -15.5t-46 -4q-24 0 -47 4.5t-41 16t-29.5 32.5t-12.5 54h-54v66h132v-56q0 -32 13.5 -44.5t38.5 -12.5q26 0 38 13.5t12 53.5v46h84z" />
    <glyph glyph-name="uniF71A" unicode="&#xf71a;" 
d="M-187 -317q0 30 20.5 50.5t49.5 20.5t50 -20.5t21 -50.5q0 -29 -21 -50.5t-50 -21.5t-49.5 21.5t-20.5 50.5z" />
    <glyph glyph-name="uniF71C" unicode="&#xf71c;" horiz-adv-x="626" 
d="M317 581q131 0 193.5 -58t62.5 -170v-372q0 -36 -7.5 -68t-25 -56t-45 -38t-68.5 -14q-21 0 -43 5.5t-41.5 15.5t-35 24.5t-23.5 32.5l-187 -77h-21v73l198 80h45q11 -32 37.5 -53t56.5 -19q23 1 41.5 18t18.5 49v390q0 78 -38 116.5t-120 38.5q-68 0 -111.5 -25.5
t-56.5 -87.5h130v-42q-40 -14 -57 -48.5t-17 -82.5v-48q0 -33 -3.5 -64t-15.5 -54.5t-35 -37.5t-62 -14q-17 0 -33.5 1t-38.5 5v73q15 -3 24.5 -3.5t17.5 0.5q28 4 39.5 22t11.5 52v75q0 37 17.5 69.5t50.5 47.5h-121q2 121 68.5 182.5t193.5 61.5z" />
    <glyph glyph-name="uniF71D" unicode="&#xf71d;" horiz-adv-x="753" 
d="M767 671q-14 -67 -45 -99t-78 -43q38 -14 54.5 -49t0.5 -103l-85 -377h-89l-143 448l-146 -448h-87l-131 577h101l86 -434l136 421h79l138 -421l51 240q6 30 7 53t-6.5 38.5t-26 23.5t-52.5 8v58q70 0 102 23.5t42 83.5h92z" />
    <glyph glyph-name="uni0E4E.alt1" 
d="M-348 0v675h681v-675h-681zM306 22q6 0 6 7v619q0 6 -6 6h-627q-6 0 -6 -6v-619q0 -7 6 -7h627z" />
    <glyph glyph-name="franc" unicode="&#x20a3;" horiz-adv-x="528" 
 />
    <glyph glyph-name="dong" unicode="&#x20ab;" horiz-adv-x="569" 
 />
    <glyph glyph-name="Abreve" unicode="&#x102;" horiz-adv-x="640" 
d="M385 902h72q0 -28 -10 -53t-28 -43t-43 -28.5t-55 -10.5t-55.5 10.5t-44 28.5t-28.5 43t-10 53h71q0 -29 18 -46.5t49 -17.5q29 0 46.5 17.5t17.5 46.5zM529 0l-60 172h-300l-60 -172h-108l257 700h124l257 -700h-110zM446 248l-125 354h-3l-126 -354h254z" />
    <glyph glyph-name="abreve" unicode="&#x103;" horiz-adv-x="528" 
d="M341 715h72q0 -28 -10 -52.5t-28 -42.5t-43 -28.5t-55 -10.5t-55.5 10.5t-44 28.5t-28.5 42.5t-10 52.5h71q0 -29 18 -46.5t49 -17.5q30 0 47 17.5t17 46.5zM273 517q97 0 152 -48.5t55 -128.5v-340h-95v96h-2q-10 -25 -29 -44.5t-43.5 -32.5t-52.5 -20t-57 -7
q-37 0 -68 11t-53 30.5t-34 47.5t-12 61q0 70 49 108.5t146 45.5l152 10v28q0 52 -30 81.5t-82 29.5q-51 0 -83 -23.5t-40 -65.5h-90q8 73 65 117t152 44zM381 247l-138 -11q-54 -4 -83 -27t-29 -62q0 -38 28 -62t73 -24q30 0 57 11.5t47.5 31t32.5 44.5t12 53v46z" />
    <glyph glyph-name="Cacute" unicode="&#x106;" horiz-adv-x="673" 
d="M303 772l105 189h109l-124 -189h-90zM356 75q70 0 118 34.5t65 97.5h102q-9 -49 -33 -89t-61 -68t-85.5 -43t-105.5 -15q-75 0 -134 24.5t-100 71t-62.5 113.5t-21.5 151q0 83 22 149t63 112t100 70.5t133 24.5q56 0 104 -16.5t85.5 -46t62 -70.5t33.5 -91h-102
q-17 63 -65.5 101.5t-117.5 38.5q-102 0 -158.5 -71.5t-56.5 -200.5q0 -65 14.5 -116.5t42.5 -87t67.5 -54.5t90.5 -19z" />
    <glyph glyph-name="cacute" unicode="&#x107;" horiz-adv-x="535" 
d="M344 783h109l-124 -188h-90zM282 68q49 0 83 24t44 68h95q-12 -79 -71 -123.5t-152 -44.5q-113 0 -178 68t-65 194q0 125 65 194t177 69q46 0 84.5 -12t67.5 -34.5t47.5 -54.5t24.5 -71h-93q-11 44 -45.5 70t-83.5 26q-66 0 -106 -49.5t-40 -137.5q0 -87 40 -136.5
t106 -49.5z" />
    <glyph glyph-name="Ccaron" unicode="&#x10c;" horiz-adv-x="673" 
d="M321 755l-138 210h86l86 -134h2l86 134h88l-138 -210h-72zM356 75q70 0 118 34.5t65 97.5h102q-9 -49 -33 -89t-61 -68t-85.5 -43t-105.5 -15q-75 0 -134 24.5t-100 71t-62.5 113.5t-21.5 151q0 83 22 149t63 112t100 70.5t133 24.5q56 0 104 -16.5t85.5 -46t62 -70.5
t33.5 -91h-102q-17 63 -65.5 101.5t-117.5 38.5q-102 0 -158.5 -71.5t-56.5 -200.5q0 -65 14.5 -116.5t42.5 -87t67.5 -54.5t90.5 -19z" />
    <glyph glyph-name="ccaron" unicode="&#x10d;" horiz-adv-x="535" 
d="M246 576l-137 210h85l86 -135h4l86 135h87l-139 -210h-72zM282 68q49 0 83 24t44 68h95q-12 -79 -71 -123.5t-152 -44.5q-113 0 -178 68t-65 194q0 125 65 194t177 69q46 0 84.5 -12t67.5 -34.5t47.5 -54.5t24.5 -71h-93q-11 44 -45.5 70t-83.5 26q-66 0 -106 -49.5
t-40 -137.5q0 -87 40 -136.5t106 -49.5z" />
    <glyph glyph-name="Dcroat" unicode="&#x110;" horiz-adv-x="740" 
d="M25 383h102v317h228q80 0 144 -23t109 -67.5t69 -109.5t24 -148q0 -84 -24.5 -149.5t-69.5 -110.5t-109.5 -68.5t-144.5 -23.5h-226v317h-102v66zM341 79q119 0 186.5 70.5t67.5 201.5q0 130 -67 199t-184 69h-115v-236h190v-66h-190v-238h112z" />
    <glyph glyph-name="dcroat" unicode="&#x111;" horiz-adv-x="570" 
d="M242 517q66 0 111.5 -28t68.5 -82h1v172h-281v55h281v80h100v-80h72v-55h-72v-579h-96v101h-3q-20 -51 -69 -80t-113 -29q-44 0 -82.5 18t-67 51.5t-45 82.5t-16.5 110q0 62 16 110.5t44 82.5t66.5 52t84.5 18zM277 70q66 0 106 49.5t40 134.5q0 83 -40 133.5t-106 50.5
q-67 0 -106.5 -49.5t-39.5 -134.5t39.5 -134.5t106.5 -49.5z" />
    <glyph glyph-name="Gbreve" unicode="&#x11e;" horiz-adv-x="692" 
d="M424 902h73q0 -28 -10.5 -53t-28.5 -43t-43 -28.5t-55 -10.5t-55.5 10.5t-43.5 28.5t-28.5 43t-10.5 53h71q0 -29 18 -46.5t49 -17.5q29 0 46.5 17.5t17.5 46.5zM652 288q0 -62 -16.5 -116t-51.5 -94t-91 -63t-136 -23q-74 0 -133 24.5t-100.5 71t-63.5 113.5t-22 151
q0 83 23 149t65 112t101.5 70.5t132.5 24.5q56 0 105.5 -16.5t88.5 -46t65 -70.5t35 -91h-103q-17 63 -69 101.5t-122 38.5q-50 0 -90.5 -18.5t-69 -53.5t-44 -85.5t-15.5 -114.5q0 -65 15 -116.5t43 -87t68 -54.5t90 -19q51 0 87.5 15t60.5 41.5t35 61t11 73.5v25h-174v75
h275v-78z" />
    <glyph glyph-name="gbreve" unicode="&#x11f;" horiz-adv-x="569" 
d="M345 715h73q0 -28 -10.5 -52.5t-28.5 -42.5t-43.5 -28.5t-55.5 -10.5t-55.5 10.5t-43.5 28.5t-28 42.5t-10 52.5h70q0 -29 18.5 -46.5t48.5 -17.5q29 0 47 17.5t18 46.5zM521 510v-494q0 -50 -18 -87.5t-49.5 -62t-75 -37t-93.5 -12.5q-43 0 -81.5 8t-68.5 26t-51.5 46.5
t-31.5 68.5h97q8 -22 22 -36t31.5 -22t37.5 -11t41 -3q30 0 56 6.5t45 21.5t30 40.5t11 63.5v90h-1q-22 -60 -68 -84.5t-110 -24.5q-45 0 -84 17.5t-67.5 50.5t-45 79.5t-16.5 104.5q0 60 17 108t46 81.5t67.5 51t82.5 17.5q65 0 112 -26t70 -83h1v102h94zM277 85
q66 0 106.5 47.5t40.5 128.5q0 39 -10.5 72t-29.5 56.5t-46.5 36.5t-60.5 13t-59.5 -13t-46 -36.5t-30 -56.5t-10.5 -74q0 -39 10.5 -71.5t30 -55t46 -35t59.5 -12.5z" />
    <glyph glyph-name="Idotaccent" unicode="&#x130;" horiz-adv-x="218" 
d="M109 892q27 0 43.5 -16t16.5 -40t-16.5 -40.5t-43.5 -16.5q-28 0 -44 16.5t-16 40.5t16 40t44 16zM59 700h101v-700h-101v700z" />
    <glyph glyph-name="Scedilla" unicode="&#x15e;" horiz-adv-x="602" 
d="M359 386q109 -23 159 -66t50 -121q0 -48 -19 -86t-53.5 -65t-83.5 -41.5t-110 -14.5q-59 0 -107.5 15t-83.5 42t-55 65t-22 84h97q8 -56 53.5 -91t119.5 -35q73 0 116 32t43 86q0 45 -33 71t-112 43l-74 15q-103 23 -151.5 68t-48.5 119q0 45 19.5 82t53 64t79.5 41.5
t99 14.5q62 0 109.5 -16.5t79.5 -45.5t49.5 -68t19.5 -84h-100q-4 57 -44.5 94.5t-112.5 37.5q-33 0 -60.5 -8t-47.5 -23t-31 -36t-11 -46q0 -45 32.5 -70t106.5 -40zM295 -91h109l-126 -189h-88z" />
    <glyph glyph-name="scedilla" unicode="&#x15f;" horiz-adv-x="488" 
d="M265 291q48 -10 83.5 -22t59 -28.5t35 -38.5t11.5 -53q0 -72 -55.5 -114.5t-151.5 -42.5q-38 0 -74.5 9t-65.5 28t-48.5 48.5t-24.5 71.5h94q6 -39 39.5 -63.5t80.5 -24.5q48 0 77.5 21t29.5 57q0 26 -21 43.5t-73 28.5l-69 14q-150 33 -150 138q0 36 16 64t43.5 47.5
t64 29.5t76.5 10q37 0 71 -9t61.5 -28t45 -49.5t21.5 -72.5h-90q-5 43 -35.5 65.5t-75.5 22.5q-43 0 -72.5 -21t-29.5 -54q0 -29 29 -45.5t98 -31.5zM120 -280l105 189h109l-125 -189h-89z" />
    <glyph glyph-name="Ohorn" unicode="&#x1a0;" horiz-adv-x="723" 
 />
    <glyph glyph-name="ohorn" unicode="&#x1a1;" horiz-adv-x="568" 
 />
    <glyph glyph-name="Uhorn" unicode="&#x1af;" horiz-adv-x="719" 
 />
    <glyph glyph-name="uhorn" unicode="&#x1b0;" horiz-adv-x="622" 
 />
    <glyph glyph-name="hookabovecomb" unicode="&#x309;" 
 />
    <glyph glyph-name="tildecomb" unicode="&#x303;" 
d="M-341 675q-25 0 -36 -17t-11 -59h-75q0 76 26 113t86 37q26 0 48 -12t41.5 -26t38 -26t37.5 -12q27 0 39.5 19.5t14.5 60.5h73q0 -74 -28.5 -114t-87.5 -40q-27 0 -49.5 12t-42.5 26t-38 26t-36 12z" />
    <glyph glyph-name="acutecomb" unicode="&#x301;" 
d="M-311 595l105 188h109l-125 -188h-89z" />
    <glyph glyph-name="dotbelowcomb" unicode="&#x323;" 
d="M-258 -90q27 0 43.5 -16.5t16.5 -40.5t-16.5 -41t-43.5 -17q-28 0 -44 17t-16 41t16 40.5t44 16.5z" />
    <glyph glyph-name="gravecomb" unicode="&#x300;" 
d="M-142 595h-90l-124 188h109z" />
    <glyph glyph-name="oneeighth" unicode="&#x215b;" horiz-adv-x="765" 
 />
    <glyph glyph-name="threeeighths" unicode="&#x215c;" horiz-adv-x="765" 
 />
    <glyph glyph-name="fiveeighths" unicode="&#x215d;" horiz-adv-x="764" 
 />
    <glyph glyph-name="seveneighths" unicode="&#x215e;" horiz-adv-x="761" 
 />
    <glyph glyph-name="uniF71B" unicode="&#xf71b;" horiz-adv-x="626" 
d="M317 581q131 0 193.5 -58t62.5 -170v-548h-79q-57 41 -105.5 59.5t-86.5 18.5q-48 0 -77 -22t-39 -56h-92q6 43 25 72t45.5 46t59.5 24.5t68 6.5q46 -2 93.5 -18t87.5 -44v452q0 78 -38 116.5t-120 38.5q-68 0 -111.5 -25.5t-56.5 -87.5h130v-42q-38 -14 -56 -46t-18 -77
v-76q0 -29 -5 -56t-18 -48t-35.5 -33.5t-57.5 -12.5q-17 0 -33.5 1t-38.5 5v73q15 -3 24.5 -3.5t17.5 0.5q28 4 39.5 22t11.5 52v75q0 37 17.5 69.5t50.5 47.5h-121q2 121 68.5 182.5t193.5 61.5z" />
    <glyph glyph-name="onethird" unicode="&#x2153;" horiz-adv-x="765" 
 />
    <glyph glyph-name="twothirds" unicode="&#x2154;" horiz-adv-x="832" 
 />
    <glyph glyph-name="uni2155" unicode="&#x2155;" horiz-adv-x="731" 
 />
    <glyph glyph-name="uni2156" unicode="&#x2156;" horiz-adv-x="776" 
 />
    <glyph glyph-name="uni2157" unicode="&#x2157;" horiz-adv-x="793" 
 />
    <glyph glyph-name="uni2158" unicode="&#x2158;" horiz-adv-x="770" 
 />
    <glyph glyph-name="uni2159" unicode="&#x2159;" horiz-adv-x="710" 
 />
    <glyph glyph-name="uni215A" unicode="&#x215a;" horiz-adv-x="759" 
 />
    <glyph glyph-name="Fontcraft" horiz-adv-x="693" 
d="M347 667q60 0 113 -22.5t92.5 -62t63 -93t23.5 -114.5q0 -60 -23 -113t-62.5 -92.5t-92.5 -63t-114 -23.5q-60 0 -113.5 23t-93 62.5t-62.5 92.5t-23 114q0 60 23 113.5t62.5 93t93 62.5t113.5 23zM347 136q48 0 91.5 19t76 51t51.5 76t19 93q0 37 -10.5 69.5t-28.5 61.5
l-38 -166q-3 -16 -12.5 -32t-24 -28.5t-32.5 -20t-38 -7.5t-35 7.5t-26 20.5q-16 -13 -33.5 -20.5t-37.5 -7.5q-39 0 -60.5 25t-21.5 56q0 2 0.5 5t1.5 10t3.5 19t6.5 31q-10 -3 -20 7.5t-10 21.5t8.5 20t36.5 9q8 0 16.5 -1.5t15.5 -5.5t10.5 -11t1.5 -18l-15 -80
q-3 -13 3 -23t23 -10q20 0 34.5 14t19.5 31l17 79q2 11 9 16.5t17 5.5q12 0 19 -8.5t7 -17.5q0 -1 -0.5 -3.5t-2 -10.5t-5 -25t-10.5 -48q-2 -13 5 -23t22 -10q17 0 34.5 14t21.5 31l47 203q-32 27 -72.5 42.5t-84.5 15.5q-50 0 -93.5 -18.5t-76 -50.5t-51 -75.5
t-18.5 -93.5q0 -49 18.5 -93t51 -76t76 -51t93.5 -19zM624 30q8 0 8 -7q0 -8 -8 -8h-14l-7 -31q-1 -4 -1 -9q0 -2 0.5 -4t3.5 -2q2 0 3.5 0.5t4.5 0.5q7 0 7 -7q0 -4 -4.5 -6.5t-9.5 -2.5q-7 0 -13.5 6.5t-6.5 17.5q0 6 1 10l7 27h-22l-12 -53q-2 -14 -11 -23t-25 -9
q-3 0 -4.5 3t-1.5 6q0 6 4 6.5t8.5 1.5t9 4t5.5 14l11 50h-11q-7 0 -7 8q0 7 7 7h13l2 12q0 3 2 7.5t6 9.5t11 8.5t18 3.5q5 0 5 -7q0 -5 -3 -6t-7.5 -2t-9 -4t-6.5 -12l-3 -10h24l2 11q0 5 6 5q3 0 6 -1.5t3 -4.5q0 -2 -0.5 -3t-0.5 -7h10zM132 23q0 -8 -8 -8h-11l-12 -53
q-6 -32 -34 -32q-5 0 -7.5 3t-2.5 6q0 6 4 7t9 2t10 4t6 13l10 50h-9q-9 0 -9 8q0 7 9 7h11l3 12q6 29 35 29q10 0 10 -7t-4 -7.5t-9 -0.5t-10 -2.5t-7 -13.5l-1 -10h9q8 0 8 -7zM327 30q7 0 7 -7q0 -8 -7 -8h-15l-6 -31v-9q0 -6 2 -6t4 0.5t3 0.5q10 0 10 -5t-5.5 -8
t-9.5 -3q-11 0 -16 7t-5 17q0 2 1 4.5t1 5.5l5 27h-7q-8 0 -8 8q0 7 8 7h11l6 27q0 2 2 4t4 2q10 0 10 -8l-5 -25h10zM521 -31q-13 -13 -33 -13q-10 0 -18.5 7t-6.5 21q2 13 14 16.5t22 4.5h15v1l2 3q0 10 -12 10q-4 0 -11.5 -2t-12.5 -2t-5 4q0 8 11.5 11.5t19.5 3.5
q17 0 21 -8.5t4 -13.5q0 -2 -1 -4l-2 -4zM203 3q0 -20 -12.5 -34.5t-32.5 -14.5q-17 0 -23.5 9.5t-6.5 20.5q0 14 4.5 23.5t11.5 14.5t14.5 7t13.5 2q31 0 31 -28zM272 19q2 -6 2 -11q0 -1 -0.5 -2t-0.5 -3l-8 -41q-4 -8 -8 -8t-6.5 3t-2.5 5q0 1 2 3l8 42q0 7 -2 8t-4 3
q-2 0 -9.5 -2.5t-14.5 -10.5l-11 -43q0 -8 -7 -8q-3 0 -5 3t-2 5v3l13 61q1 5 8 5q8 0 8 -5q8 5 18 5q4 0 12 -1.5t10 -10.5zM415 15q0 -10 -7 -10q-6 0 -8.5 6.5t-13.5 6.5q-9 0 -17.5 -9t-8.5 -25q0 -15 14 -15q7 0 11 3t8 3q8 0 8 -9q0 -5 -10 -8.5t-17 -3.5
q-17 0 -23.5 9.5t-6.5 20.5q0 26 13.5 36.5t28.5 10.5q13 0 18.5 -4t8.5 -9zM465 25q0 -7 -8 -7q-14 0 -19 -17l-10 -41q0 -2 -1.5 -4t-3.5 -2q-4 0 -7 3t-3 5v3l10 38q3 17 12.5 22.5t21.5 5.5q8 0 8 -6zM187 -4q2 7 -1 14.5t-14 7.5q-14 0 -20.5 -11.5t-6.5 -25.5
q0 -2 2 -7t11 -5q13 0 19.5 7.5t9.5 19.5zM510 -10q-17 0 -24 -2t-8 -10q0 -5 5 -7t10 -2q9 0 13 2z" />
    </font>
</defs>
</svg>
